<?xml version="1.0" encoding="UTF-8"?><svg id="Layer_1" xmlns="http://www.w3.org/2000/svg" viewBox="0 0 40 40"><defs><style>.cls-1{fill:#f9f9f9;}.cls-2{fill:#eaecf0;}.cls-3{fill:#1d2939;}</style></defs><circle class="cls-1" cx="20" cy="20" r="19.5"/><path class="cls-2" d="m20,1c10.48,0,19,8.52,19,19s-8.52,19-19,19S1,30.48,1,20,9.52,1,20,1M20,0C8.95,0,0,8.95,0,20s8.95,20,20,20,20-8.95,20-20S31.05,0,20,0h0Z"/><path class="cls-3" d="m20.29,18.84c-1.05,0-1.94-.37-2.67-1.1-.73-.73-1.1-1.62-1.1-2.67s.37-1.94,1.1-2.67c.73-.73,1.62-1.1,2.67-1.1s1.94.37,2.67,1.1c.73.73,1.1,1.62,1.1,2.67s-.37,1.94-1.1,2.67c-.73.73-1.62,1.1-2.67,1.1Zm-8.99,9.32v-1.81c0-.33.11-.66.34-.99.23-.33.55-.62.97-.89,1.2-.68,2.45-1.2,3.75-1.57,1.3-.36,2.61-.55,3.91-.55s2.61.18,3.92.55c1.31.36,2.56.89,3.76,1.57.42.24.74.53.97.87.23.34.34.68.34,1.01v1.81H11.3Zm1.16-1.16h15.65v-.65c0-.18-.07-.35-.22-.52-.15-.17-.36-.32-.62-.45-1-.6-2.1-1.06-3.29-1.38-1.19-.32-2.42-.48-3.69-.48s-2.5.16-3.69.48c-1.19.32-2.29.78-3.29,1.38-.27.17-.48.33-.62.49-.15.15-.22.32-.22.48v.65Zm7.83-9.32c.72,0,1.33-.26,1.84-.77.51-.51.76-1.13.76-1.85s-.26-1.33-.77-1.84c-.51-.51-1.13-.76-1.85-.76s-1.33.26-1.84.77c-.51.51-.76,1.13-.76,1.85s.26,1.33.77,1.84c.51.51,1.13.76,1.85.76Z"/></svg>