<svg width="16" height="16" viewBox="0 0 16 16" fill="none" xmlns="http://www.w3.org/2000/svg">
<path d="M1.024 14.9594H2.1248L12.2624 4.65691L11.1616 3.53821L1.024 13.8407V14.9594ZM14.464 3.90244L11.904 1.32683L12.7232 0.494309C13.0304 0.16477 13.4144 0 13.8752 0C14.336 0 14.72 0.16477 15.0272 0.494309L15.6928 1.17073C15.8976 1.36152 16 1.60434 16 1.89919C16 2.19404 15.9061 2.43686 15.7184 2.62764L14.464 3.90244ZM13.7216 4.65691L2.56 16H0V13.3984L11.1616 2.05528L13.7216 4.65691Z" fill="#1D2939"/>
<path d="M1.024 14.9594H2.1248L12.2624 4.65691L11.1616 3.53821L1.024 13.8407V14.9594Z" fill="white"/>
</svg>
