<svg width="24" height="24" viewBox="0 0 24 24" fill="none" xmlns="http://www.w3.org/2000/svg">
<path d="M5 11H6V12H5V11Z" fill="#A0A0A8"/>
<path d="M10 11H14V12H10V11Z" fill="#A0A0A8"/>
<path d="M13 10H14.5C15.3284 10 16 10.6716 16 11.5C16 12.3284 15.3284 13 14.5 13H13V14H14.5C15.8807 14 17 12.8807 17 11.5C17 10.1193 15.8807 9 14.5 9H13V10Z" fill="#A0A0A8"/>
<path d="M11 10V9H9.5C8.11929 9 7 10.1193 7 11.5C7 12.8807 8.11929 14 9.5 14H11V13H9.5C8.67157 13 8 12.3284 8 11.5C8 10.6716 8.67157 10 9.5 10H11Z" fill="#A0A0A8"/>
<path d="M18 11H19V12H18V11Z" fill="#A0A0A8"/>
</svg>
