<svg width="32" height="32" viewBox="0 0 32 32" xmlns="http://www.w3.org/2000/svg">
  <path fill="#595959" d="M15.875 6l8.875 4.438v7L23 15.625v-4.063l-7.125-3.563-7.125 3.563v9.375l5.625 2.813-.75 1.563L7 22V10.437L15.875 6zm-.813 4l.875-.5 6.125 3.063v.938l-7-3.501zm-4.5 10.437l-.938-.438v-7.563l.938-.438v8.439zm17.875 1.938c.459 0 .844.156 1.156.469.312.313.468.698.469 1.156v2.375c0 .209-.104.313-.313.313-.209 0-.313-.104-.313-.313V24c0-.25-.104-.48-.313-.688-.209-.209-.438-.313-.688-.313h-1v1c0 .25-.115.375-.344.375-.23 0-.344-.125-.344-.375v-1.313a.974.974 0 0 0-.281-.719.974.974 0 0 0-.719-.281h-1v1.688c0 .209-.115.313-.344.313-.23 0-.344-.104-.344-.313v-1.375c0-.25-.094-.48-.281-.688a.923.923 0 0 0-.719-.313h-1v3c0 .25-.104.375-.313.375-.209 0-.313-.125-.313-.375v-6c0-.25-.104-.48-.313-.688a.989.989 0 0 0-.719-.313c-.27 0-.5.104-.688.313a1.002 1.002 0 0 0-.281.688v8.375c0 .209-.115.313-.344.313-.23 0-.344-.104-.344-.313V25.31l-.938-.438c-.417-.209-.833-.24-1.25-.094-.417.146-.73.427-.938.844l-.188.25c-.083.209-.02.355.188.438.375.209.802.459 1.281.75.479.291 1.083.781 1.813 1.469.73.688 1.115 1.323 1.156 1.906.042.25-.041.375-.25.375h-.063c-.209 0-.313-.083-.313-.25-.083-.625-.563-1.282-1.438-1.969s-1.709-1.24-2.5-1.656a.95.95 0 0 1-.5-.594 1.015 1.015 0 0 1 .063-.781l.125-.25c.292-.583.74-.98 1.344-1.188a2.215 2.215 0 0 1 1.781.125l.625.313v-6.563c0-.459.167-.844.5-1.156.333-.312.73-.468 1.188-.469.459 0 .844.156 1.156.469.312.313.468.699.469 1.156v2.375h1c.583 0 1.042.208 1.375.625h1.313c.417 0 .771.125 1.063.375.292.25.48.583.563 1h1.063l.005.003z"/>
</svg>
