<svg xmlns="http://www.w3.org/2000/svg" viewBox="0 0 32 32"><title>Excel_32x</title><rect width="32" height="32" fill="none"/><path d="M30.666,2H9.333A1.333,1.333,0,0,0,8,3.333V8H1.334A1.333,1.333,0,0,0,0,9.334V22.666A1.334,1.334,0,0,0,1.334,24H8v4.667A1.333,1.333,0,0,0,9.333,30H30.666A1.334,1.334,0,0,0,32,28.667V3.334A1.334,1.334,0,0,0,30.666,2ZM9,3.334A.333.333,0,0,1,9.333,3H19V9H16v1h3v6H16V9.334A1.333,1.333,0,0,0,14.666,8H9ZM19,17v6H15.932A1.32,1.32,0,0,0,16,22.666V17Zm-10.971.7c0,.005-1.945,3.553-1.945,3.553H3.2l3.31-5.129L3.483,11.03H6.394l1.642,3.234c.033.067.063.129.091.188l.107-.216L9.99,11.03h2.723L9.605,16.1,12.79,21.25H9.927S8.033,17.7,8.029,17.7ZM9.333,29A.332.332,0,0,1,9,28.667V24H19l.009,5ZM31,28.667a.334.334,0,0,1-.334.333H20.01L20,24H31ZM31,23H20V17H31Zm0-7H20V10H31Zm0-7H20V3H30.666A.334.334,0,0,1,31,3.334Z" fill="#fff"/></svg>