<svg xmlns="http://www.w3.org/2000/svg" viewBox="0 0 32 32"><title>Excel_32x</title><path d="M20,2H9.333A1.333,1.333,0,0,0,8,3.333V9l12,7,6,2.531L32,16V9Z" fill="#21a366"/><rect x="8" y="9" width="12" height="7" fill="#107c41"/><path d="M30.667,2H20V9H32V3.333A1.333,1.333,0,0,0,30.667,2Z" fill="#33c481"/><path d="M20,16H8V28.666A1.333,1.333,0,0,0,9.333,30H30.667A1.333,1.333,0,0,0,32,28.666V23Z" fill="#185c37"/><rect x="20" y="16" width="12" height="7" fill="#107c41"/><path d="M16.667,7H8V26h8.667A1.337,1.337,0,0,0,18,24.666V8.333A1.337,1.337,0,0,0,16.667,7Z" opacity="0.1"/><path d="M15.667,8H8V27h7.667A1.337,1.337,0,0,0,17,25.666V9.333A1.337,1.337,0,0,0,15.667,8Z" opacity="0.2"/><path d="M15.667,8H8V25h7.667A1.337,1.337,0,0,0,17,23.666V9.333A1.337,1.337,0,0,0,15.667,8Z" opacity="0.2"/><path d="M14.667,8H8V25h6.667A1.337,1.337,0,0,0,16,23.666V9.333A1.337,1.337,0,0,0,14.667,8Z" opacity="0.2"/><rect x="0.001" y="8" width="15.999" height="15.999" rx="1.333" fill="#107c41"/><path d="M3.658,21,6.8,16.126,3.923,11.279H6.241l1.573,3.1c.144.294.244.513.3.658h.02c.1-.235.213-.464.326-.685l1.681-3.071h2.128L9.312,16.1l3.03,4.9H10.078L8.261,17.6a2.881,2.881,0,0,1-.217-.454H8.017a2.188,2.188,0,0,1-.21.44L5.936,21Z" fill="#fff"/><rect width="32" height="32" fill="none"/></svg>