<?xml version="1.0" encoding="UTF-8"?>
<svg width="32px" height="31px" viewBox="0 0 32 31" version="1.1" xmlns="http://www.w3.org/2000/svg" xmlns:xlink="http://www.w3.org/1999/xlink">
    <!-- Generator: sketchtool 53.2 (72643) - https://sketchapp.com -->
    <title>20B71793-99D3-4CCE-9F03-A003272E0F54</title>
    <desc>Created with sketchtool.</desc>
    <g id="sci-Tasks-roadmap" stroke="none" stroke-width="1" fill="none" fill-rule="evenodd">
        <g id="Create-PPTX-file-dialog" transform="translate(-378.000000, -173.000000)" fill="#FFFFFF">
            <g id="Type" transform="translate(56.000000, 164.000000)">
                <g id="Button-3" transform="translate(306.000000, 0.000000)">
                    <path d="M47.312,13.4933333 L35.9226667,13.4933333 L35.9226667,17.7413333 C36.6093333,17.2213333 37.432,16.9573333 38.396,16.9573333 L38.396,21.088 L42.4946667,21.088 C42.4746667,22.2466667 42.0746667,23.224 41.2933333,24.012 C40.5146667,24.8013333 39.536,25.2066667 38.376,25.2333333 C37.476,25.2066667 36.656,24.936 35.9373333,24.4133333 L35.9373333,27.252 L44.896,27.252 L44.896,28.6453333 L35.9346667,28.6453333 L35.9346667,30.3693333 L44.888,30.3693333 L44.888,31.7453333 L35.9293333,31.7453333 L35.9293333,34.8653333 L47.32,34.8653333 C47.7813333,34.8653333 48,34.6226667 48,34.1493333 L48,14.1733333 C48,13.7173333 47.7813333,13.4933333 47.32,13.4933333 L47.312,13.4933333 Z M39.04,20.408 L39.04,16.2426667 C40.2,16.2693333 41.1733333,16.672 41.9573333,17.456 C42.7386667,18.24 43.1453333,19.224 43.1653333,20.408 L39.04,20.408 Z M27.008,20.4773333 C26.9373333,20.2093333 26.8213333,20.0013333 26.6573333,19.848 C26.4973333,19.6986667 26.2813333,19.5893333 26.0133333,19.52 C25.7133333,19.4386667 25.404,19.4 25.0933333,19.4 L24.1333333,19.4186667 L24.1333333,23.4173333 L24.168,23.4173333 C24.516,23.4386667 24.8813333,23.4386667 25.268,23.4173333 C25.648,23.3973333 26.008,23.2973333 26.3466667,23.1173333 C26.764,22.8173333 27.0133333,22.4173333 27.0946667,21.8986667 C27.1746667,21.3773333 27.1466667,20.8773333 27.0093333,20.4173333 L27.0093333,20.4773333 L27.008,20.4773333 Z M16,12.2386667 L16,36.1666667 L34.2506667,39.32 L34.2506667,9 L16,12.2386667 Z M29.6173333,23.0213333 C29.1173333,24.18 28.3706667,24.9213333 27.372,25.2413333 C26.3733333,25.56 25.2946667,25.684 24.1333333,25.6133333 L24.1333333,30.176 L21.732,29.8973333 L21.732,17.3613333 L25.544,17.1626667 C26.2506667,17.1186667 26.9493333,17.196 27.632,17.4026667 C28.3186667,17.6053333 28.8613333,18.0146667 29.2626667,18.632 C29.6626667,19.2466667 29.888,19.96 29.9426667,20.772 C29.992,21.584 29.8853333,22.3346667 29.6173333,23.0213333 L29.6173333,23.0213333 Z" id="ms-pwrpt-active"></path>
                </g>
            </g>
        </g>
    </g>
</svg>