<svg xmlns="http://www.w3.org/2000/svg" viewBox="0 0 32 32"><title>Word_32x</title><path d="M30.667,2H9.333A1.333,1.333,0,0,0,8,3.333V9l12,3.5L32,9V3.333A1.333,1.333,0,0,0,30.667,2Z" fill="#41a5ee"/><polygon points="32 9 8 9 8 16 20 19.5 32 16 32 9" fill="#2b7cd3"/><polygon points="32 16 8 16 8 23 20 26.5 32 23 32 16" fill="#185abd"/><path d="M32,23H8v5.667A1.333,1.333,0,0,0,9.333,30H30.667A1.333,1.333,0,0,0,32,28.667Z" fill="#103f91"/><path d="M16.667,7H8V26h8.667A1.337,1.337,0,0,0,18,24.667V8.333A1.337,1.337,0,0,0,16.667,7Z" opacity="0.1"/><path d="M15.667,8H8V27h7.667A1.337,1.337,0,0,0,17,25.667V9.333A1.337,1.337,0,0,0,15.667,8Z" opacity="0.2"/><path d="M15.667,8H8V25h7.667A1.337,1.337,0,0,0,17,23.667V9.333A1.337,1.337,0,0,0,15.667,8Z" opacity="0.2"/><path d="M14.667,8H8V25h6.667A1.337,1.337,0,0,0,16,23.667V9.333A1.337,1.337,0,0,0,14.667,8Z" opacity="0.2"/><rect y="8" width="16" height="16" rx="1.333" fill="#185abd"/><path d="M11.95,21h-1.8l-2.1-6.9L5.85,21H4.05l-2-10h1.8l1.4,7,2.1-6.8h1.5l2,6.8,1.4-7h1.7Z" fill="#fff"/><rect width="32" height="32" fill="none"/></svg>