<svg xmlns="http://www.w3.org/2000/svg" viewBox="0 0 32 32"><title>Word_32x</title><path d="M30.667,2H9.333A1.333,1.333,0,0,0,8,3.334V8H1.333A1.337,1.337,0,0,0,0,9.334V22.667A1.337,1.337,0,0,0,1.333,24H8v4.667A1.333,1.333,0,0,0,9.334,30H30.667A1.333,1.333,0,0,0,32,28.667V3.334A1.333,1.333,0,0,0,30.667,2ZM8.044,14.94,6.033,21.25H3.845l-2.1-10.5h2.31L5.3,16.984,7.166,10.95H9.037L10.8,16.957l1.241-6.207h2.21l-2.1,10.5H9.965ZM31,28.667a.333.333,0,0,1-.333.333H9.334A.333.333,0,0,1,9,28.667V24H31ZM31,23H15.932A1.28,1.28,0,0,0,16,22.667V17H31Zm0-7H16V10H31Zm0-7H15.932a1.319,1.319,0,0,0-1.265-1H9V3.334A.333.333,0,0,1,9.333,3H30.667A.333.333,0,0,1,31,3.334Z" fill="#fff"/></svg>