<svg width="183" height="163" viewBox="0 0 183 163" fill="none" xmlns="http://www.w3.org/2000/svg">
<g clip-path="url(#clip0)">
<ellipse cx="90" cy="148.5" rx="89.5" ry="14.5" fill="#404048"/>
<path d="M164.098 87.8924C164.068 90.2505 163.96 92.8925 163.717 95.676L170.514 87.2064L170.561 87.3389C170.005 85.4274 169.182 83.6038 168.117 81.9219L168.17 82.0465L164.098 87.8924Z" fill="#0ECDC0"/>
<path d="M164.103 87.4789L168.048 81.8162C166.914 80.1085 165.555 78.7863 164.004 77.9797C163.923 77.9378 163.842 77.8987 163.761 77.8599C163.822 78.4982 164.151 82.2472 164.103 87.4789Z" fill="#0ECDC0"/>
<path d="M171.364 103.917C171.531 102.93 171.661 101.944 171.753 100.961L161.504 109.006L161.49 108.935C161.336 109.516 161.175 110.086 161.007 110.646L171.34 103.761L171.364 103.917Z" fill="#0ECDC0"/>
<path d="M162.673 103.589L171.846 95.0926L171.882 95.2396C171.764 92.6125 171.335 90.0085 170.604 87.4822L163.678 96.1131C163.439 98.7209 163.104 101.213 162.673 103.589Z" fill="#0ECDC0"/>
<path d="M163.503 95.9663L151.233 83.78L151.287 83.6311C150.291 85.2184 149.459 86.9021 148.803 88.6565L162.766 101.891C163.098 99.8229 163.336 97.8248 163.503 95.9663Z" fill="#0ECDC0"/>
<path d="M162.445 103.743C162.539 103.238 162.627 102.736 162.71 102.237L148.695 88.9532L148.747 88.8032C148.515 89.4213 148.298 90.0593 148.094 90.7172L148.145 90.5668L162.445 103.743Z" fill="#0ECDC0"/>
<path d="M161.577 108.598L171.74 100.62L171.77 100.772C171.931 98.9902 171.971 97.1995 171.89 95.4121L162.593 104.024C162.296 105.606 161.958 107.131 161.577 108.598Z" fill="#0ECDC0"/>
<path d="M147.12 103.202L158.613 116.517C159.392 114.77 160.067 112.978 160.632 111.151L146.801 98.2183C146.771 99.9368 146.856 101.655 147.056 103.363L147.12 103.202Z" fill="#0ECDC0"/>
<path d="M163.565 77.8593L163.658 77.811C161.246 76.6967 158.72 76.9774 156.365 78.3846L163.914 87.4801C163.964 81.8198 163.571 77.9153 163.565 77.8593Z" fill="#0ECDC0"/>
<path d="M160.715 111.599C160.195 113.244 159.585 114.859 158.889 116.438L169.316 110.258L169.336 110.412C170.066 108.998 170.615 107.497 170.968 105.945C171.104 105.335 171.225 104.724 171.331 104.112L160.875 111.079C160.822 111.253 160.769 111.427 160.715 111.599Z" fill="#0ECDC0"/>
<path d="M163.909 87.9018L156.188 78.5976L156.247 78.4553C154.48 79.5422 152.813 81.2649 151.366 83.5083L163.536 95.5954C163.774 92.8433 163.88 90.2325 163.909 87.9018Z" fill="#0ECDC0"/>
<path d="M160.731 110.831C161.402 108.612 161.953 106.358 162.382 104.08L148.046 90.8716C147.775 91.7641 147.532 92.6902 147.317 93.6498C147.022 95.0251 146.852 96.4244 146.811 97.8304L160.721 110.837L160.731 110.831Z" fill="#0ECDC0"/>
<path d="M175.497 125.121C173.969 126.918 172.2 128.884 170.237 130.874L180.876 128.683L180.829 128.815C181.62 126.989 182.15 125.059 182.403 123.085L182.365 123.215L175.497 125.121Z" fill="#0ECDC0"/>
<path d="M181.751 117.427C181.716 117.343 181.678 117.261 181.641 117.18C181.28 117.71 179.141 120.807 175.765 124.806L182.417 122.959C182.634 120.921 182.431 119.037 181.751 117.427Z" fill="#0ECDC0"/>
<path d="M160.059 139.666C159.57 140.014 159.082 140.351 158.595 140.676L170.948 141.959L170.866 142.095C171.625 141.441 172.354 140.765 173.052 140.066L160.024 139.729L160.059 139.666Z" fill="#0ECDC0"/>
<path d="M164.382 136.302L176.87 135.606L176.803 135.742C178.389 133.643 179.721 131.364 180.77 128.952L169.928 131.185C168.079 133.041 166.231 134.747 164.382 136.302Z" fill="#0ECDC0"/>
<path d="M160.341 139.461L173.261 139.796L173.186 139.932C174.447 138.662 175.621 137.308 176.699 135.88L164.043 136.586C162.805 137.616 161.571 138.575 160.341 139.461Z" fill="#0ECDC0"/>
<path d="M144.963 146.731C145.049 146.633 145.136 146.534 145.226 146.43C147.824 145.86 150.345 144.978 152.732 143.805L152.546 134.543C152.636 134.301 152.723 134.058 152.807 133.812L153.005 143.671C154.72 142.823 156.383 141.873 157.985 140.826L155.794 123.679C155.883 123.626 155.973 123.572 156.066 123.516L158.254 140.64L158.265 140.642C160.198 139.361 162.061 137.976 163.845 136.495L161.564 119.631C161.652 119.558 161.74 119.485 161.829 119.411L164.109 136.276C164.504 135.947 164.892 135.616 165.274 135.284L163.209 118.198C163.296 118.118 163.384 118.036 163.471 117.955L165.538 135.054C167.114 133.673 168.572 132.285 169.887 130.961L168.214 113.754L168.35 113.673C167.879 113.825 167.402 113.998 166.921 114.188C167.782 113.081 168.546 111.903 169.205 110.665L158.678 116.904C158.012 118.368 157.25 119.787 156.397 121.151C156.21 121.349 156.024 121.55 155.841 121.756L155.868 121.965C155.786 122.087 155.704 122.207 155.621 122.327L155.586 122.048C155.481 122.169 155.377 122.292 155.274 122.415C156.519 120.646 157.595 118.764 158.488 116.794L147.079 103.576C147.223 104.804 147.414 106.037 147.64 107.259C146.563 105.72 145.284 104.332 143.836 103.135L143.926 103.237L141.861 110.054C142.561 112.306 143.276 114.852 143.906 117.574L147.697 107.56C147.726 107.712 147.755 107.863 147.785 108.014L144.004 118.002C144.583 120.556 145.035 123.03 145.36 125.423L150.102 116.933C150.138 117.049 150.175 117.164 150.212 117.279L145.418 125.86C145.626 127.457 145.775 129.012 145.867 130.525L151.756 121.748C151.796 121.857 151.836 121.963 151.875 122.067L145.923 130.936L145.888 130.873C145.921 131.472 145.945 132.064 145.959 132.649L152.682 124.14C152.727 124.25 152.769 124.352 152.807 124.445L145.967 133.102C145.97 133.283 145.973 133.465 145.975 133.645C145.989 135.37 145.909 137.095 145.735 138.811L146.388 138.069C146.273 138.349 146.16 138.625 146.051 138.897L145.679 139.319C145.65 139.575 145.617 139.828 145.583 140.08C145.457 140.407 145.335 140.725 145.218 141.036C145.313 140.452 145.395 139.865 145.464 139.274L130.526 130.227C134.829 139.594 142.414 148.301 142.9 148.854C143.226 148.15 143.52 147.43 143.783 146.694C143.872 146.68 143.961 146.665 144.05 146.651C144.019 146.739 143.989 146.828 143.958 146.916C143.911 146.923 143.864 146.932 143.818 146.939C143.856 146.948 143.897 146.956 143.939 146.966C143.752 147.481 143.553 147.985 143.341 148.477C143.64 148.175 144.087 147.709 144.63 147.106C148.061 147.773 157.266 149.088 164.898 145.916L152.809 144.011C150.317 145.24 147.682 146.154 144.963 146.731ZM152.477 131.148L152.747 130.842L152.756 131.277L152.486 131.583L152.477 131.148Z" fill="#0ECDC0"/>
<path d="M181.49 117.054L181.593 117.077C180.446 114.68 178.321 113.287 175.609 112.869L175.619 124.686C179.27 120.359 181.459 117.101 181.49 117.054Z" fill="#0ECDC0"/>
<path d="M157.763 141.223C156.313 142.158 154.813 143.014 153.269 143.786L165.243 145.673L165.16 145.804C166.626 145.181 168.006 144.375 169.268 143.404C169.762 143.021 170.246 142.627 170.718 142.224L158.218 140.925C158.066 141.025 157.915 141.126 157.763 141.223Z" fill="#0ECDC0"/>
<path d="M170.149 130.696C172.088 128.728 173.836 126.784 175.346 125.008L175.337 112.92L175.473 112.848C173.419 112.559 171.035 112.823 168.489 113.629L170.149 130.696Z" fill="#0ECDC0"/>
<path d="M143.738 103.056C142.131 101.782 140.43 100.944 138.705 100.656C138.616 100.641 138.527 100.629 138.438 100.617C138.692 101.206 140.165 104.67 141.737 109.66L143.738 103.056Z" fill="#0ECDC0"/>
<path d="M143.793 117.917L128.355 110.117L128.359 109.959C127.904 111.776 127.633 113.635 127.551 115.506L144.924 123.779C144.6 121.709 144.208 119.736 143.793 117.917Z" fill="#0ECDC0"/>
<path d="M144.977 124.125L127.541 115.821L127.543 115.663C127.514 116.322 127.505 116.996 127.515 117.685L127.516 117.526L145.192 125.639C145.125 125.13 145.053 124.625 144.977 124.125Z" fill="#0ECDC0"/>
<path d="M145.758 133.245L128.604 125.218C129.107 126.862 129.72 128.47 130.438 130.032L130.45 129.859L145.497 138.972C145.699 137.07 145.786 135.158 145.758 133.245Z" fill="#0ECDC0"/>
<path d="M138.251 100.677L138.324 100.603C135.685 100.288 133.37 101.335 131.566 103.401L141.558 109.719C139.855 104.321 138.273 100.729 138.251 100.677Z" fill="#0ECDC0"/>
<path d="M141.684 110.122L131.463 103.658L131.475 103.505C130.131 105.084 129.078 107.238 128.396 109.818L143.708 117.554C143.083 114.863 142.376 112.347 141.684 110.122Z" fill="#0ECDC0"/>
<path d="M145.753 132.91C145.705 130.592 145.533 128.279 145.236 125.98L127.517 117.846C127.535 118.779 127.59 119.735 127.683 120.714C127.827 122.113 128.099 123.496 128.494 124.846L145.746 132.919L145.753 132.91Z" fill="#0ECDC0"/>
<path d="M131.314 91.8542L79.8523 85.371C77.5199 65.9803 81.0437 47.0499 87.06 28.2241L138.522 34.7073C130.756 53.1762 128.477 72.2385 131.314 91.8542Z" fill="white"/>
<path d="M125.699 39.0293L94.2505 35.0674L93.8246 38.4442L125.273 42.4062L125.699 39.0293Z" fill="#104DA9"/>
<path opacity="0.3" d="M129.605 47.8338L86.9805 42.4639L86.7675 44.1523L129.392 49.5222L129.605 47.8338Z" fill="#104DA9"/>
<path opacity="0.3" d="M128.917 53.2886L86.2925 47.9187L86.0795 49.6071L128.704 54.977L128.917 53.2886Z" fill="#104DA9"/>
<path opacity="0.3" d="M128.229 58.7437L85.6045 53.3738L85.3915 55.0622L128.017 60.4321L128.229 58.7437Z" fill="#104DA9"/>
<path opacity="0.3" d="M127.541 64.1985L84.9165 58.8286L84.7035 60.517L127.329 65.887L127.541 64.1985Z" fill="#104DA9"/>
<path opacity="0.3" d="M126.853 69.6536L84.2285 64.2837L84.0156 65.9721L126.641 71.342L126.853 69.6536Z" fill="#104DA9"/>
<path opacity="0.3" d="M126.166 75.1084L83.5405 69.7385L83.3276 71.427L125.953 76.7969L126.166 75.1084Z" fill="#104DA9"/>
<path opacity="0.3" d="M125.478 80.5633L82.8525 75.1934L82.6396 76.8818L125.265 82.2517L125.478 80.5633Z" fill="#104DA9"/>
<path d="M106.945 72.7508L58.7988 53.4644C61.4517 34.1149 69.6537 16.6916 80.2406 0L128.386 19.2864C116.198 35.1905 109.166 53.056 106.945 72.7508Z" fill="#F0F0F6"/>
<path d="M114.886 20.2251L85.4639 8.43896L84.1969 11.5982L113.619 23.3844L114.886 20.2251Z" fill="#104DA9"/>
<path opacity="0.3" d="M116.436 29.7307L76.5581 13.7561L75.9246 15.3357L115.803 31.3104L116.436 29.7307Z" fill="#104DA9"/>
<path opacity="0.3" d="M114.389 34.8343L74.5112 18.8596L73.8777 20.4392L113.756 36.4139L114.389 34.8343Z" fill="#104DA9"/>
<path opacity="0.3" d="M112.343 39.9378L72.4648 23.9631L71.8313 25.5428L111.71 41.5174L112.343 39.9378Z" fill="#104DA9"/>
<path opacity="0.3" d="M110.296 45.0413L70.418 29.0667L69.7845 30.6463L109.663 46.6209L110.296 45.0413Z" fill="#104DA9"/>
<path opacity="0.3" d="M108.249 50.1445L68.3711 34.1699L67.7376 35.7495L107.616 51.7242L108.249 50.1445Z" fill="#104DA9"/>
<path opacity="0.3" d="M106.203 55.2478L66.3247 39.2732L65.6912 40.8528L105.569 56.8275L106.203 55.2478Z" fill="#104DA9"/>
<path opacity="0.3" d="M104.157 60.3514L64.2783 44.3767L63.6448 45.9563L103.523 61.931L104.157 60.3514Z" fill="#104DA9"/>
<path d="M95.0379 77.396H43.1688C38.4282 58.4491 39.5555 39.2268 43.1688 19.7969H95.0379C89.6445 39.0914 89.7684 58.2889 95.0379 77.396Z" fill="white"/>
<path d="M82.8565 25.6875H51.1587V29.0911H82.8565V25.6875Z" fill="#104DA9"/>
<path opacity="0.3" d="M87.8338 33.9346H44.8716V35.6364H87.8338V33.9346Z" fill="#104DA9"/>
<path opacity="0.3" d="M87.8338 39.4326H44.8716V41.1344H87.8338V39.4326Z" fill="#104DA9"/>
<path opacity="0.3" d="M87.8338 44.9309H44.8716V46.6327H87.8338V44.9309Z" fill="#104DA9"/>
<path opacity="0.3" d="M87.8338 50.429H44.8716V52.1308H87.8338V50.429Z" fill="#104DA9"/>
<path opacity="0.3" d="M87.8338 55.927H44.8716V57.6288H87.8338V55.927Z" fill="#104DA9"/>
<path opacity="0.3" d="M87.8338 61.4253H44.8716V63.1271H87.8338V61.4253Z" fill="#104DA9"/>
<path opacity="0.3" d="M87.8338 66.9231H44.8716V68.6249H87.8338V66.9231Z" fill="#104DA9"/>
<path d="M60.0757 65.897L42.2062 52.0127C42.0274 51.7019 41.7698 51.4438 41.4593 51.2643C41.1488 51.0848 40.7965 50.9902 40.4378 50.9902H30.7933C30.2523 50.9902 29.7334 51.205 29.3509 51.5873C28.9683 51.9697 28.7534 52.4882 28.7534 53.0289V138.104C28.7534 139.858 29.4505 141.54 30.6913 142.78C31.9322 144.02 33.6151 144.717 35.3699 144.717H134.375C135.244 144.717 136.104 144.546 136.907 144.213C137.71 143.881 138.439 143.394 139.054 142.78C139.668 142.166 140.155 141.437 140.488 140.634C140.82 139.832 140.992 138.972 140.992 138.104V71.9074C140.992 70.3134 140.358 68.7846 139.23 67.6574C138.102 66.5303 136.573 65.897 134.978 65.897H60.0757Z" fill="#7094CB"/>
<path d="M131.472 160.158C121.96 160.793 114.105 159.146 113.927 156.479C113.748 153.812 121.315 151.135 130.827 150.5C140.338 149.865 148.194 151.512 148.372 154.179C148.55 156.846 140.984 159.523 131.472 160.158Z" fill="#231F20"/>
<path d="M138.824 150.472C138.824 150.472 141.18 155.094 139.609 155.269C138.039 155.443 137.428 155.443 136.73 154.745C136.348 154.364 135.575 153.852 134.953 153.466C134.584 153.242 134.286 152.918 134.093 152.531C133.9 152.145 133.82 151.712 133.862 151.283C133.908 150.856 134.068 150.504 134.461 150.472C135.508 150.384 136.73 149.425 136.73 149.425L138.824 150.472Z" fill="white"/>
<path d="M125.821 153.873C125.821 153.873 128.177 158.496 126.607 158.67C125.036 158.844 124.425 158.844 123.727 158.147C123.345 157.765 122.572 157.253 121.95 156.868C121.581 156.643 121.283 156.319 121.09 155.933C120.897 155.546 120.817 155.114 120.859 154.684C120.905 154.257 121.065 153.906 121.458 153.873C122.505 153.786 123.727 152.826 123.727 152.826L125.821 153.873Z" fill="white"/>
<path d="M137.714 106.01C137.714 106.01 140.716 114.941 139.382 118.114C138.048 121.287 135.935 124.343 135.935 124.343C135.935 124.343 136.714 106.598 137.714 106.01Z" fill="#F0F0F6"/>
<path d="M136.468 124.916C136.468 124.916 136.642 126.574 136.729 126.661C136.817 126.748 136.642 126.922 136.729 127.184C136.817 127.446 136.904 127.795 136.729 127.882C136.555 127.969 137.689 135.644 137.689 135.644C137.689 135.644 140.482 139.307 139.348 145.064L138.998 150.907C138.998 150.907 136.293 151.082 136.293 150.122C136.293 150.122 136.468 148.989 136.468 148.465C136.468 147.942 136.031 147.942 136.293 147.68C136.555 147.419 136.555 147.244 136.555 147.244C136.555 147.244 136.119 146.895 136.206 146.808C136.293 146.721 135.42 140.528 135.42 140.528C135.42 140.528 134.46 139.569 134.46 139.046V138.522C134.46 138.522 134.024 137.389 134.024 137.301C134.024 137.214 131.668 131.894 131.668 131.894L130.708 135.731L129.661 141.226C129.661 141.226 129.137 146.198 128.09 148.116C128.09 148.116 126.257 154.396 126.257 154.222C126.257 154.047 123.203 153.611 123.29 152.826C123.377 152.041 125.123 141.052 125.123 141.052L124.686 124.742L136.468 124.916Z" fill="#104DA9"/>
<path d="M129.884 101.012C128.312 99.7357 128.072 97.4267 129.35 95.855C130.627 94.2832 132.937 94.044 134.51 95.3206C136.083 96.5972 136.322 98.9062 135.045 100.478C133.767 102.05 131.457 102.289 129.884 101.012Z" fill="#F8B68E"/>
<path d="M133.952 100.334C133.952 100.334 134.302 105.807 134.492 105.895C134.683 105.984 129.552 105.339 129.552 105.339C129.552 105.339 130.255 100.585 130.241 100.117L133.952 100.334Z" fill="#F8B68E"/>
<path d="M126.65 104.812C126.65 104.812 131.886 101.934 132.41 102.021C132.933 102.109 136.433 103.718 138.128 106.373C138.626 108.7 138.626 111.888 138.427 113.682C138.228 115.475 137.032 122.848 136.86 123.652C136.543 125.139 139.426 138.953 139.252 138.953C139.61 140.925 122.48 148.715 122.392 148.453C122.392 147.481 126.65 104.812 126.65 104.812Z" fill="white"/>
<path d="M123.726 125.527C123.726 125.527 122.068 130.586 123.465 130.411C124.861 130.237 125.472 126.05 125.472 126.05L123.726 125.527Z" fill="#F8B68E"/>
<path opacity="0.1" d="M130.141 118.157L126.127 125.309L129.509 117.773L130.141 118.157Z" fill="black"/>
<path d="M130.043 95.0273L130.21 94.8022L129.69 94.5585C129.751 94.4925 129.826 94.4405 129.91 94.4063C129.993 94.372 130.083 94.3562 130.173 94.3601L129.733 93.96C130.567 93.7246 131.439 93.6605 132.298 93.7715C133.157 93.8825 133.985 94.1663 134.731 94.6059C135.846 95.271 136.786 96.3816 136.869 97.6765C136.909 98.3046 136.747 98.9301 136.517 99.516C136.093 100.595 135.318 101.662 134.182 101.897C133.028 102.135 131.904 101.454 130.922 100.802C130.577 100.573 130.217 100.329 130.021 99.9634C130.265 99.5961 130.588 99.288 130.966 99.0616C131.096 99.0017 131.208 98.9106 131.294 98.7964C131.474 98.4928 131.168 98.1312 130.866 97.9474C130.565 97.7635 130.193 97.5545 130.184 97.2019C130.177 96.959 130.354 96.7565 130.49 96.5553C130.862 96.0078 129.961 95.1384 130.043 95.0273Z" fill="#512B1F"/>
<path d="M128.151 104.225C128.151 104.225 131.423 104.934 130.892 109.365C130.362 113.796 129.389 118.226 129.389 118.226L126.116 125.404L125.762 126.733L123.374 126.113L125.143 115.834C125.143 115.834 125.762 104.846 126.558 104.491C127.06 104.277 127.606 104.186 128.151 104.225Z" fill="white"/>
</g>
<defs>
<clipPath id="clip0">
<rect width="182" height="163" fill="white" transform="translate(0.5)"/>
</clipPath>
</defs>
</svg>
