<svg xmlns:dc="http://purl.org/dc/elements/1.1/" xmlns:cc="http://creativecommons.org/ns#" xmlns:rdf="http://www.w3.org/1999/02/22-rdf-syntax-ns#" xmlns:svg="http://www.w3.org/2000/svg" xmlns="http://www.w3.org/2000/svg" xmlns:sodipodi="http://sodipodi.sourceforge.net/DTD/sodipodi-0.dtd" xmlns:inkscape="http://www.inkscape.org/namespaces/inkscape" aria-hidden="true" focusable="false" data-prefix="fas" data-icon="check-circle" class="svg-inline--fa fa-check-circle fa-w-16" role="img" version="1.1" id="svg4615" sodipodi:docname="check-circle-solid.svg" inkscape:version="0.92.5 (2060ec1f9f, 2020-04-08)" viewBox="8 8 496 496">
  <metadata id="metadata4621">
    <rdf:RDF>
      <cc:Work rdf:about="">
        <dc:format>image/svg+xml</dc:format>
        <dc:type rdf:resource="http://purl.org/dc/dcmitype/StillImage"/>
      </cc:Work>
    </rdf:RDF>
  </metadata>
  <defs id="defs4619"/>
  <sodipodi:namedview pagecolor="#ffffff" bordercolor="#666666" borderopacity="1" objecttolerance="10" gridtolerance="10" guidetolerance="10" inkscape:pageopacity="0" inkscape:pageshadow="2" inkscape:window-width="1848" inkscape:window-height="1016" id="namedview4617" showgrid="false" inkscape:zoom="0.4609375" inkscape:cx="-129.08475" inkscape:cy="256" inkscape:window-x="72" inkscape:window-y="27" inkscape:window-maximized="1" inkscape:current-layer="svg4615"/>
  <path fill="currentColor" d="M504 256c0 136.967-111.033 248-248 248S8 392.967 8 256 119.033 8 256 8s248 111.033 248 248zM227.314 387.314l184-184c6.248-6.248 6.248-16.379 0-22.627l-22.627-22.627c-6.248-6.249-16.379-6.249-22.628 0L216 308.118l-70.059-70.059c-6.248-6.248-16.379-6.248-22.628 0l-22.627 22.627c-6.248 6.248-6.248 16.379 0 22.627l104 104c6.249 6.249 16.379 6.249 22.628.001z" id="path4613" style="fill:#2dbe61;fill-opacity:1"/>
</svg>