<svg width="320" height="158" viewBox="0 0 320 158" fill="none" xmlns="http://www.w3.org/2000/svg">
<g clip-path="url(#clip0_501_29534)">
<path fill-rule="evenodd" clip-rule="evenodd" d="M59.0461 67.5369C58.611 68.1745 57.8924 68.6653 57.5635 67.8152L54.1227 59.2131C52.6654 55.3522 60.807 50.4844 62.5629 55.671C63.3523 58.9854 62.2289 62.9019 59.0461 67.5369Z" fill="#4071B7"/>
<path fill-rule="evenodd" clip-rule="evenodd" d="M54.2571 59.1609L57.6981 67.7633C57.773 67.9569 57.8612 68.051 57.9401 68.0926C58.0161 68.1327 58.1069 68.1365 58.2175 68.0979C58.4491 68.017 58.7156 67.7655 58.9271 67.4557C62.0982 62.8377 63.1967 58.966 62.4242 55.711C62 54.4637 61.2014 53.8355 60.2681 53.6345C59.3232 53.431 58.2208 53.6618 57.2031 54.178C56.1867 54.6935 55.2715 55.4854 54.7014 56.3791C54.1316 57.2723 53.9145 58.2518 54.2571 59.1609ZM60.3288 53.3525C61.3689 53.5766 62.2453 54.2831 62.6995 55.6249L62.7017 55.6312L62.7032 55.6377C63.5064 59.0101 62.3575 62.9695 59.1652 67.6184C58.9416 67.9461 58.6313 68.2588 58.3126 68.3702C58.148 68.4277 57.9703 68.4347 57.8055 68.3477C57.6437 68.2623 57.5189 68.0992 57.4294 67.8682C57.4293 67.8679 57.4292 67.8676 57.4291 67.8674L53.9878 59.2641C53.6024 58.2432 53.8567 57.1669 54.4582 56.224C55.0596 55.2813 56.0164 54.4565 57.0727 53.9207C58.1277 53.3856 59.2989 53.1307 60.3288 53.3525Z" fill="#4071B7"/>
<path fill-rule="evenodd" clip-rule="evenodd" d="M58.4036 68.6604C58.6971 67.9874 58.7021 67.1879 57.8166 67.4156L48.7793 69.642C44.7666 70.7046 45.2372 79.3979 50.4947 77.8242C53.6775 76.5642 56.3289 73.5585 58.4036 68.6604Z" fill="#4071B7"/>
<path fill-rule="evenodd" clip-rule="evenodd" d="M58.6908 67.6606C58.7775 67.965 58.6867 68.3715 58.536 68.7172C56.4537 73.6332 53.7806 76.6784 50.5477 77.9582L50.5419 77.9605L50.5359 77.9623C49.1818 78.3676 48.1143 78.1152 47.3511 77.469C46.5947 76.8286 46.1572 75.8182 46.0176 74.7402C45.8778 73.6608 46.0338 72.4959 46.4844 71.5291C46.9354 70.5613 47.6874 69.7819 48.7423 69.5025L48.7447 69.5019L48.7447 69.5019L57.7806 67.2758C57.7809 67.2758 57.7811 67.2757 57.7813 67.2756C58.0193 67.2146 58.2215 67.2158 58.382 67.2877C58.5482 67.362 58.6454 67.5009 58.6908 67.6606ZM58.2642 67.5509C58.1859 67.5159 58.0569 67.5026 57.8524 67.5552L57.851 67.5555L57.851 67.5555L48.8149 69.7817C47.8641 70.0339 47.1706 70.7394 46.7458 71.6509C46.3203 72.5638 46.1702 73.673 46.3036 74.7031C46.4372 75.7345 46.8524 76.6688 47.5375 77.2489C48.2148 77.8224 49.1757 78.0667 50.4473 77.6877C53.5772 76.4463 56.2051 73.481 58.2707 68.604L58.2713 68.6026C58.4139 68.2756 58.4722 67.9462 58.4134 67.7396C58.3862 67.6438 58.3369 67.5835 58.2642 67.5509Z" fill="#4071B7"/>
<path fill-rule="evenodd" clip-rule="evenodd" d="M49.1133 60.797C48.6782 61.4346 47.9596 61.9203 47.6307 61.0702L44.1899 52.4681C42.7275 48.6072 50.8742 43.7394 52.6301 48.926C53.4144 52.2404 52.2961 56.1771 49.1133 60.797Z" fill="#4071B7"/>
<path fill-rule="evenodd" clip-rule="evenodd" d="M44.3241 52.4157L47.765 61.0182C47.84 61.2118 47.9283 61.3064 48.0075 61.3485C48.0838 61.389 48.1747 61.3932 48.285 61.3551C48.5163 61.2754 48.7827 61.0253 48.994 60.7157L48.9944 60.7151C52.1651 56.1128 53.2587 52.2211 52.4911 48.9658C52.0669 47.7186 51.268 47.0904 50.3344 46.8894C49.389 46.6859 48.2862 46.9167 47.2682 47.4329C46.2514 47.9484 45.3361 48.7403 44.7662 49.634C44.1967 50.5271 43.9803 51.5066 44.3241 52.4157ZM50.3951 46.6074C51.4355 46.8314 52.3123 47.538 52.7665 48.8797L52.7687 48.8862L52.7702 48.8928C53.5682 52.2648 52.4246 56.2444 49.2321 60.8785C49.0083 61.2063 48.6979 61.5178 48.379 61.6278C48.2142 61.6846 48.0366 61.6906 47.872 61.6031C47.7106 61.5172 47.5859 61.354 47.4963 61.123C47.4962 61.1228 47.4961 61.1225 47.496 61.1222L44.0548 52.5191C43.6681 51.4982 43.9217 50.4218 44.523 49.4789C45.1242 48.5361 46.0811 47.7113 47.1377 47.1756C48.1931 46.6405 49.3648 46.3856 50.3951 46.6074Z" fill="#4071B7"/>
<path fill-rule="evenodd" clip-rule="evenodd" d="M48.4705 61.9203C48.7589 61.2422 48.769 60.4427 47.8784 60.6755L38.8462 62.9019C34.8335 63.9645 35.3041 72.6578 40.5615 71.0841C43.7443 69.8241 46.3958 66.8184 48.4705 61.9203Z" fill="#4071B7"/>
<path fill-rule="evenodd" clip-rule="evenodd" d="M48.7554 60.9169C48.8421 61.2211 48.7512 61.6291 48.6034 61.9766C46.521 66.893 43.8479 69.9383 40.6148 71.2182L40.609 71.2205L40.6031 71.2223C39.2489 71.6276 38.1814 71.3753 37.4182 70.7291C36.6619 70.0886 36.2244 69.0783 36.0847 68.0002C35.9449 66.9208 36.1009 65.7559 36.5515 64.7891C37.0025 63.8213 37.7546 63.0419 38.8094 62.7626L38.8118 62.7619L38.8118 62.7619L47.8421 60.536C47.8425 60.5359 47.8428 60.5358 47.8431 60.5357C48.0819 60.4735 48.2846 60.4736 48.4456 60.5445C48.6126 60.6181 48.7099 60.757 48.7554 60.9169ZM48.3292 60.8084C48.2508 60.7739 48.1212 60.7612 47.9151 60.815L47.9131 60.8156L47.9131 60.8155L38.8821 63.0417C37.9312 63.2939 37.2377 63.9994 36.8129 64.9109C36.3875 65.8238 36.2373 66.933 36.3708 67.9631C36.5044 68.9945 36.9195 69.9288 37.6046 70.5089C38.2819 71.0824 39.2428 71.3267 40.5144 70.9477C43.6443 69.7063 46.2722 66.741 48.3378 61.8641L48.3379 61.8638C48.4785 61.5334 48.5369 61.2026 48.478 60.9958C48.4508 60.9002 48.4018 60.8404 48.3292 60.8084Z" fill="#4071B7"/>
<path fill-rule="evenodd" clip-rule="evenodd" d="M39.9341 54.8058C39.5748 55.3118 38.9828 55.7318 38.7146 55.0335L35.881 47.9747C34.6817 44.797 41.3813 40.7944 42.8234 45.05C43.4711 47.7672 42.5502 51.0057 39.9341 54.8058Z" fill="#4071B7"/>
<path fill-rule="evenodd" clip-rule="evenodd" d="M36.0154 47.9223L38.8493 54.9818C38.909 55.1372 38.9776 55.2065 39.0339 55.2354C39.0876 55.2631 39.1545 55.2666 39.2417 55.2354C39.426 55.1696 39.6421 54.9678 39.816 54.7231C42.4197 50.9407 43.3155 47.7477 42.6847 45.0899C42.339 44.0755 41.6895 43.5677 40.9315 43.4058C40.1618 43.2413 39.261 43.4299 38.427 43.8534C37.5943 44.2762 36.845 44.925 36.3786 45.6562C35.9127 46.3867 35.7374 47.184 36.0154 47.9223ZM40.9918 43.1237C41.8565 43.3085 42.5842 43.8945 42.96 45.0036L42.9622 45.01L42.9637 45.0165C43.6253 47.7917 42.6788 51.0732 40.0529 54.8875L40.0518 54.8893C39.8665 55.1502 39.6072 55.411 39.3388 55.507C39.1996 55.5568 39.0457 55.566 38.9018 55.4918C38.7606 55.4191 38.6548 55.2794 38.5804 55.0862L35.7461 48.0256C35.4252 47.1754 35.6378 46.2813 36.1355 45.5011C36.6331 44.721 37.4239 44.0393 38.2964 43.5962C39.1677 43.1538 40.1372 42.9411 40.9918 43.1237Z" fill="#4071B7"/>
<path fill-rule="evenodd" clip-rule="evenodd" d="M39.4029 55.7267C39.6407 55.1701 39.6509 54.5123 38.8969 54.7147L31.4687 56.5465C28.1695 57.4219 28.544 64.5718 32.8805 63.2764C35.5168 62.2239 37.6977 59.7546 39.4029 55.7267Z" fill="#4071B7"/>
<path fill-rule="evenodd" clip-rule="evenodd" d="M39.6724 55.3289C39.6476 55.4791 39.5986 55.6357 39.5355 55.7832C37.8225 59.8295 35.6199 62.338 32.9339 63.4104L32.9278 63.4128L32.9217 63.4146C31.7979 63.7503 30.9091 63.5423 30.2733 63.0046C29.6442 62.4726 29.2827 61.6348 29.1681 60.7439C29.0533 59.8518 29.1832 58.8886 29.5569 58.0885C29.931 57.2875 30.5552 56.6397 31.4316 56.4071L31.4341 56.4065L31.4341 56.4065L38.8609 54.5751C39.0645 54.5206 39.2405 54.5173 39.3825 54.5759C39.5314 54.6375 39.6191 54.7573 39.66 54.8951C39.6995 55.0282 39.697 55.1803 39.6724 55.3289ZM39.2723 54.8425C39.2119 54.8175 39.107 54.8077 38.9342 54.854L38.9314 54.8548L38.9313 54.8548L31.5044 56.6862C30.7318 56.8916 30.1661 57.4656 29.8182 58.2105C29.4697 58.9568 29.3457 59.8643 29.4542 60.7071C29.5628 61.5512 29.9019 62.3127 30.4595 62.7844C31.0093 63.2493 31.7915 63.4495 32.8329 63.1401C35.4168 62.1061 37.5739 59.6767 39.27 55.6706L39.2702 55.6701C39.3261 55.5394 39.3675 55.4051 39.3878 55.2818C39.4085 55.1569 39.406 55.0528 39.3835 54.9772C39.3624 54.9063 39.3261 54.8647 39.2723 54.8425Z" fill="#4071B7"/>
<path fill-rule="evenodd" clip-rule="evenodd" d="M30.5174 49.3206C30.2745 49.776 29.8343 50.1555 29.5509 49.6141L26.6363 44.1441C25.3814 41.6799 30.4465 37.8393 32 41.1587C32.7539 43.3042 32.2985 46.0113 30.5174 49.3206Z" fill="#4071B7"/>
<path fill-rule="evenodd" clip-rule="evenodd" d="M26.7642 44.0776L29.6782 49.5463L29.6787 49.5473C29.7401 49.6647 29.7988 49.7103 29.8401 49.7266C29.8784 49.7416 29.9251 49.7408 29.9871 49.7111C30.1213 49.6469 30.2737 49.4711 30.3901 49.2528L30.3904 49.2523C32.1613 45.9621 32.5974 43.3022 31.8663 41.2134C31.4981 40.4313 30.9341 40.0844 30.3155 40.0218C29.685 39.9579 28.9783 40.1881 28.344 40.6032C27.7109 41.0176 27.1657 41.6064 26.8559 42.2351C26.5463 42.8631 26.4782 43.5149 26.7642 44.0776ZM30.3446 39.7348C31.0718 39.8085 31.722 40.2245 32.1306 41.0976L32.1337 41.1041L32.136 41.1109C32.9095 43.3119 32.4339 46.0641 30.6445 49.3887C30.5181 49.6258 30.329 49.8673 30.1116 49.9713C29.9977 50.0258 29.866 50.0467 29.7344 49.9949C29.6061 49.9444 29.5035 49.8345 29.4234 49.6814C29.4233 49.6813 29.4234 49.6816 29.4234 49.6814L26.5078 44.2096C26.167 43.5405 26.2616 42.7885 26.5971 42.1076C26.9326 41.4268 27.5155 40.8008 28.186 40.3619C28.8554 39.9238 29.6277 39.6622 30.3446 39.7348Z" fill="#4071B7"/>
<path fill-rule="evenodd" clip-rule="evenodd" d="M30.1783 50.1151C30.32 49.6445 30.2694 49.1031 29.6723 49.3308L23.8177 51.4763C21.2219 52.4883 22.1682 58.2365 25.5635 56.7995C27.6077 55.7267 29.1663 53.5307 30.1783 50.1151Z" fill="#4071B7"/>
<path fill-rule="evenodd" clip-rule="evenodd" d="M30.3871 49.7694C30.3806 49.8963 30.3547 50.0298 30.3166 50.1563C29.2987 53.5915 27.7228 55.8293 25.6307 56.9271L25.6254 56.9299L25.6199 56.9322C24.733 57.3076 23.9849 57.2196 23.4131 56.836C22.8486 56.4573 22.4778 55.8052 22.304 55.0903C22.1298 54.3741 22.1487 53.5776 22.3815 52.8907C22.6147 52.2028 23.067 51.6142 23.7655 51.3418L23.7683 51.3408L23.7683 51.3408L29.6219 49.1956C29.7864 49.133 29.9363 49.1141 30.065 49.153C30.2003 49.1938 30.2874 49.2907 30.3354 49.4052C30.3817 49.5154 30.3936 49.644 30.3871 49.7694ZM29.9817 49.4291C29.9376 49.4158 29.8575 49.4145 29.7238 49.4655L29.7221 49.4661L29.7221 49.4661L23.8689 51.6111C23.2703 51.845 22.8679 52.3541 22.6547 52.9833C22.4409 53.6139 22.4219 54.3544 22.5842 55.0221C22.7469 55.6911 23.087 56.2699 23.5738 56.5965C24.0521 56.9174 24.6937 57.0094 25.5019 56.6689C27.4957 55.6203 29.0349 53.4669 30.0402 50.0741L30.0403 50.0735C30.0731 49.9647 30.0939 49.8542 30.0991 49.7545C30.1043 49.6531 30.0928 49.5724 30.0695 49.5168C30.048 49.4656 30.0193 49.4405 29.9817 49.4291Z" fill="#4071B7"/>
<path fill-rule="evenodd" clip-rule="evenodd" d="M22.3808 44.6401C22.2543 44.9589 21.9962 45.2422 21.7685 44.9083L19.4055 41.5534C18.3934 40.0354 21.4042 37.1056 22.6894 39.16C23.3675 40.5111 23.2815 42.3226 22.3808 44.6401Z" fill="#4071B7"/>
<path fill-rule="evenodd" clip-rule="evenodd" d="M19.5244 41.472L21.8876 44.8271C21.9332 44.894 21.9665 44.9093 21.9793 44.9127C21.9888 44.9153 22.0052 44.9163 22.0353 44.8972C22.1052 44.8529 22.1869 44.7373 22.2465 44.5874C23.1394 42.2896 23.2115 40.5279 22.5635 39.2308C22.268 38.762 21.8865 38.5897 21.4947 38.598C21.091 38.6066 20.6565 38.808 20.279 39.1272C19.9026 39.4455 19.5973 39.8692 19.4469 40.2979C19.2967 40.726 19.3053 41.1422 19.5244 41.472ZM21.4886 38.3097C21.9896 38.299 22.465 38.5296 22.8116 39.0836L22.8152 39.0893L22.8182 39.0954C23.523 40.4997 23.422 42.3589 22.5151 44.6924L22.5147 44.6933C22.4478 44.862 22.3373 45.0473 22.1897 45.1408C22.111 45.1907 22.0123 45.2198 21.9054 45.1915C21.8022 45.1642 21.718 45.0901 21.6499 44.9905L19.2853 41.6335C18.9993 41.2045 19.0051 40.6858 19.1747 40.2024C19.3443 39.7191 19.6823 39.2541 20.0928 38.907C20.5021 38.5608 20.998 38.3201 21.4886 38.3097Z" fill="#4071B7"/>
<path fill-rule="evenodd" clip-rule="evenodd" d="M22.2188 45.1916C22.2745 44.8728 22.1935 44.5236 21.8343 44.7109L18.1607 46.5932C16.5364 47.4585 17.6192 51.1473 19.7343 49.948C20.9791 49.0828 21.8191 47.5192 22.2188 45.1916Z" fill="#4071B7"/>
<path fill-rule="evenodd" clip-rule="evenodd" d="M22.3079 44.691C22.3906 44.8385 22.3905 45.0464 22.3609 45.2163C21.9578 47.5633 21.1058 49.1704 19.8166 50.0665L19.8112 50.0703L19.8054 50.0736C19.2406 50.3938 18.7248 50.3958 18.3021 50.18C17.8871 49.9682 17.5846 49.5582 17.4102 49.0958C17.2354 48.6323 17.1827 48.0996 17.2826 47.6217C17.3828 47.1426 17.6397 46.7074 18.0928 46.466L18.0948 46.4649L18.0948 46.465L21.7676 44.5831C21.7677 44.583 21.7679 44.5829 21.768 44.5828C21.8735 44.5279 21.9804 44.5006 22.0818 44.5208C22.1889 44.5421 22.2628 44.6107 22.3079 44.691ZM22.0256 44.8037C22.0127 44.8011 21.9748 44.8003 21.9009 44.8388L21.9 44.8393L18.2274 46.7211C17.869 46.9125 17.6524 47.2626 17.565 47.6807C17.4772 48.1002 17.5228 48.5771 17.6801 48.994C17.8378 49.4121 18.101 49.7535 18.4332 49.9231C18.7564 50.0881 19.1672 50.102 19.6574 49.8259C20.8548 48.9907 21.6809 47.4719 22.0766 45.1672L22.0767 45.1668C22.1027 45.018 22.0899 44.8919 22.0563 44.8321C22.0432 44.8087 22.0329 44.8051 22.0256 44.8037Z" fill="#4071B7"/>
<path fill-rule="evenodd" clip-rule="evenodd" d="M14.998 41.1435C14.8765 41.4623 14.6134 41.7457 14.3857 41.4117L12.0277 38.0568C11.0157 36.5388 14.0518 33.609 15.3117 35.6634C16.01 37.0296 15.9037 38.8412 14.998 41.1435Z" fill="#4071B7"/>
<path fill-rule="evenodd" clip-rule="evenodd" d="M12.1469 37.9755L14.505 41.3305C14.5505 41.3971 14.5839 41.4126 14.5972 41.4161C14.6075 41.4188 14.6246 41.4196 14.655 41.4004C14.7251 41.3562 14.8068 41.2408 14.8634 41.0922L14.8639 41.0908C15.7626 38.8065 15.8537 37.0454 15.186 35.7341C14.8967 35.2653 14.5185 35.0931 14.1279 35.1015C13.7254 35.11 13.29 35.3114 12.9108 35.6308C12.5327 35.9493 12.2251 36.373 12.0728 36.8019C11.9207 37.2301 11.928 37.646 12.1469 37.9755ZM14.1218 34.8131C14.6219 34.8025 15.0946 35.0333 15.4348 35.5881L15.4377 35.5929L15.4403 35.5978C16.1663 37.0183 16.0441 38.8784 15.1326 41.1956C15.0677 41.3657 14.9572 41.5509 14.8087 41.6444C14.7297 41.6942 14.6307 41.7231 14.5238 41.695C14.4203 41.6678 14.3356 41.5938 14.2673 41.4939L11.9078 38.1369C11.6216 37.7076 11.6293 37.1886 11.801 36.7053C11.9726 36.2221 12.313 35.7572 12.725 35.4102C13.1358 35.0642 13.6324 34.8235 14.1218 34.8131Z" fill="#4071B7"/>
<path fill-rule="evenodd" clip-rule="evenodd" d="M14.8363 41.7103C14.8919 41.3865 14.811 41.0424 14.4517 41.2043L10.7781 43.0867C9.1538 43.9519 10.2367 47.6407 12.3518 46.4415C13.5966 45.6015 14.4365 44.0329 14.8363 41.7103Z" fill="#4071B7"/>
<path fill-rule="evenodd" clip-rule="evenodd" d="M14.926 41.2058C15.0078 41.3552 15.008 41.5621 14.9783 41.7347C14.5754 44.076 13.7234 45.6898 12.4324 46.561L12.4277 46.5641L12.4228 46.5669C11.858 46.8871 11.3422 46.8891 10.9195 46.6733C10.5046 46.4615 10.2021 46.0515 10.0277 45.5891C9.85283 45.1256 9.80011 44.593 9.90006 44.115C10.0003 43.6359 10.2571 43.2007 10.7102 42.9593L10.7122 42.9583L14.3891 41.0743L14.3924 41.0728C14.4996 41.0245 14.6068 41.0043 14.7066 41.0297C14.8106 41.0561 14.882 41.1254 14.926 41.2058ZM14.514 41.3344C14.5844 41.3032 14.6212 41.3056 14.6356 41.3092C14.6462 41.3119 14.6589 41.3185 14.673 41.3444C14.7076 41.4075 14.7201 41.5346 14.6941 41.6858C14.2981 43.9867 13.4717 45.5092 12.2757 46.3187C11.7851 46.5953 11.3741 46.5815 11.0507 46.4164C10.7185 46.2468 10.4552 45.9054 10.2975 45.4873C10.1403 45.0704 10.0946 44.5936 10.1824 44.174C10.2698 43.7559 10.4864 43.4058 10.8448 43.2144L14.514 41.3344Z" fill="#4071B7"/>
<path fill-rule="evenodd" clip-rule="evenodd" d="M9.59906 38.9222C9.84194 39.1954 9.9735 39.5547 9.50797 39.5446L4.80209 39.494C2.70215 39.4383 1.55857 35.4965 4.34668 35.6483C6.07723 35.8811 7.82802 36.9488 9.59906 38.9222Z" fill="#4071B7"/>
<path fill-rule="evenodd" clip-rule="evenodd" d="M4.80466 39.3498L9.50939 39.4004L9.51098 39.4004C9.6135 39.4027 9.65468 39.3831 9.66681 39.3742C9.66704 39.374 9.66728 39.3738 9.66753 39.3736C9.67093 39.3713 9.67586 39.3678 9.67495 39.3456C9.6737 39.3153 9.65999 39.2675 9.626 39.2052C9.59312 39.1449 9.54633 39.0801 9.49135 39.0183C7.73506 37.0613 6.01512 36.0201 4.33303 35.792C3.67408 35.7575 3.27829 35.9638 3.06309 36.2618C2.84248 36.5673 2.78755 37.0019 2.88251 37.4644C2.97707 37.9249 3.21711 38.3935 3.55699 38.7486C3.89617 39.1029 4.32691 39.3368 4.80466 39.3498ZM2.82926 36.0929C3.11755 35.6937 3.6227 35.4645 4.35439 35.5043L4.36011 35.5047L4.36578 35.5054C6.14289 35.7444 7.92255 36.8383 9.70626 38.8259L9.70671 38.8264C9.77308 38.9011 9.83374 38.9836 9.87925 39.0671C9.92369 39.1487 9.95932 39.2413 9.96313 39.3337C9.96721 39.4326 9.93374 39.5354 9.83844 39.606C9.75208 39.6699 9.63544 39.6915 9.50554 39.6888L4.79814 39.6382C4.22637 39.623 3.7271 39.3434 3.34864 38.948C2.97062 38.5531 2.70529 38.0353 2.59998 37.5224C2.49505 37.0114 2.54576 36.4855 2.82926 36.0929Z" fill="#4071B7"/>
<path fill-rule="evenodd" clip-rule="evenodd" d="M65.854 74.9375C48.3532 61.378 29.8506 48.0122 8.8894 39.267L9.08424 38.8C30.1117 47.5729 48.659 60.9749 66.1639 74.5375L65.854 74.9375Z" fill="#4071B7"/>
<path fill-rule="evenodd" clip-rule="evenodd" d="M264.46 92.8627C265.068 93.3687 265.918 93.6824 266.019 92.7463L267.183 83.2384C267.613 78.9828 258.166 76.2757 257.786 81.9278C257.882 85.4496 260.023 89.0878 264.46 92.8627Z" fill="#4071B7"/>
<path fill-rule="evenodd" clip-rule="evenodd" d="M266.047 80.3373C266.9 81.121 267.44 82.1298 267.326 83.2529L267.326 83.2559L267.326 83.2559L266.162 92.7618C266.162 92.7622 266.162 92.7625 266.162 92.7629C266.135 93.0166 266.054 93.2109 265.915 93.3371C265.774 93.4656 265.596 93.5037 265.418 93.489C265.072 93.4607 264.679 93.2326 264.368 92.9735L264.367 92.9726C259.915 89.1859 257.74 85.5127 257.642 81.9318L257.642 81.925L257.642 81.9182C257.74 80.4576 258.429 79.5201 259.41 79.0212C260.381 78.5269 261.62 78.4712 262.818 78.7267C264.018 78.9825 265.194 79.5538 266.047 80.3373ZM257.931 81.9307C258.024 80.5693 258.657 79.7276 259.54 79.2782C260.434 78.8234 261.601 78.7621 262.758 79.0088C263.914 79.2553 265.042 79.8054 265.852 80.5497C266.661 81.2935 267.14 82.2183 267.039 83.2224L265.876 92.7288L265.876 92.7288L265.876 92.7308C265.852 92.9447 265.789 93.0618 265.721 93.124C265.655 93.1842 265.564 93.2116 265.441 93.2016C265.185 93.1806 264.849 92.999 264.553 92.7524C260.133 88.992 258.028 85.3912 257.931 81.9307Z" fill="#4071B7"/>
<path fill-rule="evenodd" clip-rule="evenodd" d="M265.376 93.819C264.906 93.2219 264.688 92.4225 265.634 92.4123L275.249 92.2352C279.55 92.2352 281.407 101.06 275.709 100.883C272.212 100.473 268.756 98.1707 265.376 93.819Z" fill="#4071B7"/>
<path fill-rule="evenodd" clip-rule="evenodd" d="M275.249 92.0911C276.377 92.0911 277.337 92.6707 278.047 93.5188C278.756 94.3662 279.223 95.4899 279.371 96.6066C279.519 97.722 279.351 98.8482 278.764 99.689C278.172 100.537 277.17 101.073 275.705 101.027L275.698 101.027L275.692 101.026C272.142 100.61 268.655 98.2749 265.263 93.908C265.021 93.6014 264.824 93.2193 264.83 92.893C264.833 92.722 264.893 92.5585 265.038 92.4406C265.178 92.3266 265.379 92.271 265.632 92.2682C265.633 92.2682 265.633 92.2682 265.633 92.2682L275.249 92.0911ZM275.25 92.3795L265.636 92.5566C265.417 92.5589 265.29 92.6071 265.22 92.6643C265.154 92.7178 265.12 92.7934 265.118 92.8983C265.114 93.1233 265.261 93.4393 265.49 93.7298L265.49 93.7306C268.856 98.0642 272.279 100.333 275.72 100.739C277.099 100.78 278 100.28 278.527 99.524C279.061 98.7599 279.227 97.7131 279.085 96.6445C278.944 95.5771 278.497 94.5057 277.826 93.7039C277.156 92.9033 276.271 92.3799 275.25 92.3795Z" fill="#4071B7"/>
<path fill-rule="evenodd" clip-rule="evenodd" d="M272.587 83.4712C273.194 83.9772 274.039 84.2909 274.145 83.3548L275.304 73.8469C275.739 69.5964 266.292 66.8842 265.913 72.5363C266.004 76.0581 268.174 79.7014 272.587 83.4712Z" fill="#4071B7"/>
<path fill-rule="evenodd" clip-rule="evenodd" d="M274.171 70.948C275.023 71.7315 275.562 72.7397 275.448 73.8616L275.447 73.8644L275.447 73.8644L274.289 83.3711C274.289 83.3713 274.289 83.3715 274.289 83.3717C274.26 83.6255 274.178 83.8197 274.039 83.9458C273.898 84.0741 273.72 84.1122 273.542 84.0975C273.197 84.0692 272.805 83.841 272.495 83.582L272.493 83.5809C268.068 79.7998 265.861 76.1215 265.768 72.5401L265.768 72.5334L265.769 72.5267C265.867 71.066 266.556 70.1289 267.536 69.6304C268.507 69.1365 269.746 69.0813 270.944 69.3371C272.143 69.5932 273.319 70.1647 274.171 70.948ZM266.057 72.5394C266.15 71.1779 266.784 70.3365 267.667 69.8875C268.56 69.433 269.727 69.3721 270.884 69.6192C272.039 69.866 273.167 70.4163 273.976 71.1603C274.785 71.9039 275.263 72.8281 275.161 73.8309L274.002 83.3374L274.002 83.3386C273.978 83.5525 273.914 83.67 273.845 83.7324C273.779 83.7928 273.688 83.8201 273.566 83.8101C273.31 83.7891 272.976 83.6077 272.68 83.361C268.284 79.6051 266.149 75.9993 266.057 72.5394Z" fill="#4071B7"/>
<path fill-rule="evenodd" clip-rule="evenodd" d="M273.528 84.4276C273.058 83.8305 272.84 83.031 273.786 83.0209L283.4 82.8438C287.701 82.8438 289.553 91.6685 283.861 91.4914C280.359 91.0816 276.908 88.7792 273.528 84.4276Z" fill="#4071B7"/>
<path fill-rule="evenodd" clip-rule="evenodd" d="M283.4 82.6995C284.529 82.6995 285.489 83.2791 286.198 84.1273C286.906 84.9746 287.373 86.0983 287.521 87.215C287.669 88.3304 287.5 89.4566 286.913 90.2974C286.322 91.1455 285.321 91.6811 283.856 91.6355L283.85 91.6353L283.844 91.6346C280.289 91.2184 276.807 88.8832 273.414 84.5163C273.173 84.2098 272.976 83.8277 272.982 83.5014C272.985 83.3304 273.044 83.1669 273.189 83.049C273.33 82.935 273.53 82.8794 273.784 82.8766C273.784 82.8766 273.784 82.8766 273.785 82.8766L283.4 82.6995ZM283.402 82.9879L273.788 83.165C273.569 83.1673 273.442 83.2155 273.371 83.2727C273.306 83.3262 273.272 83.4018 273.27 83.5067C273.266 83.7317 273.412 84.0477 273.641 84.3382L273.642 84.339C277.008 88.6727 280.426 90.9419 283.871 91.3474C285.25 91.3887 286.15 90.888 286.677 90.1324C287.21 89.3683 287.377 88.3215 287.235 87.2529C287.094 86.1855 286.647 85.1141 285.977 84.3123C285.307 83.5117 284.423 82.9883 283.402 82.9879Z" fill="#4071B7"/>
<path fill-rule="evenodd" clip-rule="evenodd" d="M280.182 75.0461C280.688 75.4762 281.376 75.7242 281.462 74.95L282.419 67.1321C282.773 63.6356 275.006 61.4092 274.692 66.0543C274.768 68.9335 276.554 71.9291 280.182 75.0461Z" fill="#4071B7"/>
<path fill-rule="evenodd" clip-rule="evenodd" d="M281.502 64.7292C282.207 65.3768 282.657 66.2133 282.562 67.1467L282.562 67.1497L282.562 67.1497L281.606 74.9659C281.606 74.9662 281.606 74.9665 281.606 74.9667C281.582 75.1795 281.514 75.3468 281.396 75.4575C281.274 75.5708 281.121 75.6052 280.969 75.5934C280.677 75.5709 280.349 75.3772 280.089 75.156L280.088 75.1555C276.447 72.0275 274.625 68.997 274.548 66.0581L274.548 66.0514L274.548 66.0446C274.63 64.8357 275.201 64.0571 276.016 63.6428C276.821 63.2333 277.847 63.1882 278.836 63.3991C279.826 63.6102 280.798 64.0817 281.502 64.7292ZM274.836 66.0573C274.913 64.9477 275.429 64.2647 276.147 63.8999C276.875 63.5297 277.828 63.479 278.776 63.6812C279.722 63.883 280.645 64.3334 281.307 64.9416C281.969 65.5493 282.357 66.3018 282.275 67.1161L281.319 74.9325L281.319 74.9325L281.319 74.934C281.3 75.108 281.249 75.1997 281.199 75.2467C281.151 75.2912 281.085 75.3131 280.991 75.3059C280.791 75.2905 280.521 75.1452 280.276 74.9364C276.664 71.833 274.913 68.8748 274.836 66.0573Z" fill="#4071B7"/>
<path fill-rule="evenodd" clip-rule="evenodd" d="M280.956 75.8203C280.572 75.3143 280.39 74.6717 281.169 74.6616L289.093 74.5199C292.635 74.5199 294.153 81.771 289.467 81.604C286.573 81.2903 283.734 79.3978 280.956 75.8203Z" fill="#4071B7"/>
<path fill-rule="evenodd" clip-rule="evenodd" d="M289.093 74.3757C290.032 74.3757 290.828 74.8569 291.415 75.5577C292.002 76.2577 292.387 77.1851 292.509 78.1057C292.63 79.0251 292.49 79.9558 292.002 80.6505C291.508 81.3526 290.675 81.7914 289.462 81.7482L289.457 81.748L289.452 81.7474C286.503 81.4278 283.632 79.5017 280.842 75.9088L280.842 75.9077C280.74 75.7743 280.651 75.6299 280.586 75.4863C280.522 75.3442 280.48 75.1942 280.482 75.0526C280.484 74.9065 280.536 74.7652 280.663 74.6634C280.784 74.5658 280.955 74.5202 281.167 74.5174C281.167 74.5174 281.167 74.5174 281.167 74.5174L289.093 74.3757ZM289.094 74.6642L281.172 74.8058L281.171 74.8058C280.993 74.8081 280.895 74.8467 280.843 74.8882C280.797 74.9256 280.772 74.9784 280.77 75.0575C280.769 75.141 280.795 75.2472 280.849 75.3683C280.903 75.4876 280.98 75.613 281.071 75.7325C283.835 79.2921 286.64 81.1507 289.478 81.4601C290.605 81.499 291.337 81.0943 291.766 80.4847C292.2 79.8668 292.338 79.016 292.223 78.1435C292.108 77.2723 291.742 76.3973 291.194 75.7429C290.647 75.0897 289.926 74.6646 289.094 74.6642Z" fill="#4071B7"/>
<path fill-rule="evenodd" clip-rule="evenodd" d="M288.147 67.0411C288.511 67.4358 289.053 67.6938 289.194 67.0815L290.667 60.8273C291.269 58.029 285.172 55.5294 284.504 59.2637C284.306 61.6167 285.485 64.2024 288.147 67.0411Z" fill="#4071B7"/>
<path fill-rule="evenodd" clip-rule="evenodd" d="M290.16 58.7825C290.677 59.374 290.971 60.0998 290.808 60.8577L290.807 60.8604L290.807 60.8604L289.335 67.1141C289.335 67.1142 289.335 67.1143 289.335 67.1143C289.295 67.2872 289.221 67.4224 289.107 67.5056C288.991 67.5906 288.855 67.6047 288.727 67.5807C288.483 67.5349 288.231 67.3447 288.041 67.1393C285.368 64.2882 284.158 61.6639 284.36 59.2517L284.36 59.245L284.362 59.2384C284.537 58.2577 285.076 57.6702 285.782 57.4042C286.479 57.1418 287.321 57.1984 288.107 57.4589C288.894 57.7199 289.644 58.1912 290.16 58.7825ZM284.647 59.2826C284.806 58.4002 285.28 57.9017 285.884 57.6741C286.499 57.4423 287.27 57.4853 288.016 57.7327C288.761 57.9797 289.465 58.4246 289.943 58.9722C290.421 59.5194 290.663 60.1549 290.526 60.7957L289.054 67.0486L289.054 67.0491C289.023 67.1822 288.976 67.2443 288.937 67.2726C288.901 67.299 288.852 67.3106 288.781 67.2972C288.628 67.2685 288.427 67.1325 288.253 66.9433L288.252 66.9425C285.605 64.1191 284.457 61.5744 284.647 59.2826Z" fill="#4071B7"/>
<path fill-rule="evenodd" clip-rule="evenodd" d="M288.703 67.7495C288.435 67.3144 288.344 66.7679 288.976 66.8337L295.408 67.4257C298.272 67.7394 298.859 73.7508 295.079 73.2144C292.766 72.6831 290.636 70.8969 288.703 67.7495Z" fill="#4071B7"/>
<path fill-rule="evenodd" clip-rule="evenodd" d="M288.645 67.1215C288.629 67.2542 288.697 67.4641 288.826 67.6738C290.747 70.8016 292.848 72.5515 295.105 73.0724C296.006 73.1987 296.625 72.9354 297.019 72.4852C297.42 72.0274 297.606 71.3558 297.591 70.6419C297.575 69.9293 297.359 69.1923 296.976 68.6178C296.595 68.0444 296.056 67.6421 295.393 67.5691L288.962 66.977C288.821 66.9624 288.745 66.9849 288.707 67.0092C288.674 67.0301 288.653 67.063 288.645 67.1215ZM288.991 66.69C288.816 66.672 288.666 66.6932 288.552 66.7663C288.432 66.8429 288.375 66.9615 288.359 67.0858C288.33 67.3186 288.442 67.5995 288.58 67.8249C290.524 70.9891 292.681 72.8114 295.047 73.3549L295.053 73.3563L295.059 73.3571C296.045 73.497 296.768 73.2102 297.236 72.6753C297.699 72.147 297.896 71.3967 297.879 70.6356C297.862 69.8732 297.632 69.082 297.216 68.458C296.801 67.8331 296.193 67.3665 295.424 67.2823L288.991 66.69Z" fill="#4071B7"/>
<path fill-rule="evenodd" clip-rule="evenodd" d="M295.049 60.1948C295.256 60.4832 295.59 60.7008 295.732 60.301L297.199 56.3187C297.822 54.5275 294.016 52.3972 293.278 54.8007C292.964 56.3238 293.526 58.1201 295.049 60.1948Z" fill="#4071B7"/>
<path fill-rule="evenodd" clip-rule="evenodd" d="M297.072 54.907C297.37 55.3453 297.511 55.862 297.335 56.3662L297.335 56.3687L297.335 56.3687L295.867 60.3502C295.825 60.4683 295.761 60.5643 295.666 60.6187C295.568 60.6752 295.463 60.6726 295.371 60.6435C295.2 60.5889 295.042 60.4321 294.932 60.2796C293.399 58.1909 292.811 56.3526 293.136 54.7717L293.138 54.765L293.14 54.7584C293.339 54.1119 293.752 53.7551 294.255 53.632C294.748 53.5114 295.309 53.6194 295.81 53.8563C296.314 54.0939 296.775 54.4689 297.072 54.907ZM293.418 54.8367C293.589 54.2857 293.927 54.0093 294.324 53.9122C294.733 53.8122 295.223 53.8981 295.687 54.1172C296.15 54.3356 296.569 54.6789 296.834 55.0689C297.098 55.4583 297.199 55.8791 297.063 56.2703L295.597 60.2512L295.596 60.2512L295.596 60.2529C295.567 60.3343 295.537 60.3606 295.523 60.3687C295.512 60.3748 295.494 60.38 295.459 60.3686C295.376 60.3423 295.263 60.2464 295.166 60.1106L295.166 60.1106L295.165 60.1095C293.655 58.0524 293.119 56.3004 293.418 54.8367Z" fill="#4071B7"/>
<path fill-rule="evenodd" clip-rule="evenodd" d="M295.357 60.7059C295.216 60.3972 295.201 60.0329 295.61 60.124L299.79 61.0297C301.647 61.4649 301.551 65.4624 299.107 64.8046C297.629 64.2732 296.375 62.9273 295.357 60.7059Z" fill="#4071B7"/>
<path fill-rule="evenodd" clip-rule="evenodd" d="M295.417 60.3002C295.399 60.3695 295.421 60.4997 295.488 60.6458C296.496 62.8465 297.726 64.1526 299.15 64.6669C299.718 64.8183 300.129 64.697 300.41 64.4459C300.699 64.1881 300.871 63.7749 300.918 63.3127C300.964 62.8517 300.882 62.3595 300.682 61.9604C300.482 61.5626 300.17 61.2673 299.758 61.1704L295.579 60.2648C295.493 60.2457 295.454 60.2563 295.441 60.2629C295.433 60.2667 295.424 60.2733 295.417 60.3002ZM295.641 59.9831C295.522 59.9567 295.41 59.9575 295.315 60.0033C295.215 60.0519 295.16 60.1385 295.137 60.2299C295.095 60.3972 295.152 60.6033 295.226 60.766C296.251 63.005 297.529 64.3905 299.058 64.9403L299.064 64.9423L299.069 64.9438C299.72 65.119 300.237 64.9872 300.602 64.661C300.961 64.3408 301.154 63.8507 301.205 63.3414C301.256 62.8309 301.167 62.2832 300.939 61.8309C300.711 61.3777 300.339 61.0103 299.823 60.8894L295.641 59.9831C295.641 59.9831 295.641 59.9832 295.641 59.9831Z" fill="#4071B7"/>
<path fill-rule="evenodd" clip-rule="evenodd" d="M301.51 54.7451C301.718 55.0335 302.057 55.2511 302.194 54.8564L303.661 50.869C304.283 49.0778 300.478 46.9475 299.739 49.351C299.426 50.8792 299.987 52.6704 301.51 54.7451Z" fill="#4071B7"/>
<path fill-rule="evenodd" clip-rule="evenodd" d="M303.534 49.4572C303.831 49.8955 303.972 50.4122 303.797 50.9163L303.796 50.9188L303.796 50.9188L302.329 54.9049C302.288 55.0222 302.224 55.1179 302.129 55.1716C302.031 55.2271 301.925 55.2234 301.834 55.1941C301.663 55.139 301.504 54.9829 301.394 54.8298C299.86 52.7411 299.272 50.9079 299.598 49.322L299.599 49.3152L299.602 49.3086C299.8 48.6621 300.214 48.3053 300.717 48.1822C301.21 48.0616 301.77 48.1696 302.272 48.4065C302.775 48.6441 303.237 49.019 303.534 49.4572ZM299.879 49.3868C300.051 48.8358 300.388 48.5595 300.786 48.4623C301.194 48.3624 301.685 48.4483 302.149 48.6673C302.612 48.8858 303.031 49.2291 303.295 49.619C303.559 50.0085 303.661 50.4293 303.525 50.8205L302.058 54.8065L302.058 54.8065L302.057 54.8092C302.03 54.8885 302 54.9132 301.987 54.9204C301.977 54.9261 301.96 54.9314 301.923 54.9196C301.839 54.8925 301.725 54.7959 301.627 54.6608L301.627 54.6608L301.627 54.6597C300.116 52.6026 299.58 50.8556 299.879 49.3868Z" fill="#4071B7"/>
<path fill-rule="evenodd" clip-rule="evenodd" d="M301.819 55.2562C301.677 54.9475 301.662 54.5832 302.072 54.6743L306.252 55.58C308.109 56.0152 308.013 60.0126 305.569 59.3599C304.091 58.8235 302.836 57.4775 301.819 55.2562Z" fill="#4071B7"/>
<path fill-rule="evenodd" clip-rule="evenodd" d="M301.879 54.8505C301.861 54.9198 301.883 55.05 301.95 55.196C302.958 57.3965 304.188 58.7029 305.612 59.2222C306.18 59.3723 306.59 59.2503 306.871 58.9985C307.16 58.7399 307.333 58.3261 307.38 57.8636C307.426 57.4023 307.344 56.91 307.143 56.5108C306.943 56.1129 306.632 55.8176 306.22 55.7207L302.041 54.8151C301.955 54.796 301.916 54.8066 301.903 54.8132C301.895 54.817 301.885 54.8236 301.879 54.8505ZM302.103 54.5334C301.984 54.507 301.871 54.5078 301.777 54.5536C301.677 54.6021 301.622 54.6888 301.599 54.7802C301.557 54.9474 301.613 55.1536 301.688 55.3162C302.713 57.5554 303.991 58.9406 305.519 59.4955L305.525 59.4976L305.531 59.4993C306.182 59.6731 306.699 59.5402 307.064 59.2133C307.422 58.8924 307.615 58.4019 307.666 57.8923C307.718 57.3815 307.628 56.8336 307.401 56.3813C307.173 55.928 306.801 55.5606 306.285 55.4396L302.103 54.5334C302.103 54.5334 302.103 54.5335 302.103 54.5334Z" fill="#4071B7"/>
<path fill-rule="evenodd" clip-rule="evenodd" d="M306.323 51.0765C306.151 51.4155 306.115 51.8051 306.576 51.6736L311.271 50.3731C313.361 49.7558 313.457 45.5104 310.71 46.401C309.035 47.0942 307.567 48.6274 306.323 51.0765Z" fill="#4071B7"/>
<path fill-rule="evenodd" clip-rule="evenodd" d="M312.578 49.4365C312.304 49.9321 311.88 50.3439 311.312 50.5114L311.31 50.5121L311.31 50.5121L306.615 51.8122C306.615 51.8123 306.615 51.8123 306.615 51.8124C306.487 51.8489 306.366 51.8577 306.265 51.8175C306.153 51.7731 306.093 51.6811 306.071 51.5825C306.051 51.4904 306.062 51.3894 306.085 51.2966C306.108 51.2017 306.147 51.1035 306.194 51.0112L306.194 51.0111C307.448 48.545 308.936 46.9789 310.655 46.2677L310.66 46.2655L310.665 46.2637C311.385 46.0304 311.949 46.1259 312.342 46.4475C312.728 46.7639 312.918 47.275 312.949 47.8134C312.979 48.3537 312.851 48.9414 312.578 49.4365ZM310.76 46.5364C311.411 46.3267 311.863 46.4281 312.159 46.6706C312.462 46.919 312.633 47.3409 312.661 47.8297C312.688 48.3166 312.572 48.8503 312.326 49.2971C312.079 49.7429 311.709 50.0931 311.232 50.2345L306.537 51.5346L306.537 51.5346L306.536 51.5349C306.434 51.564 306.387 51.5557 306.371 51.5494L306.37 51.5492C306.365 51.547 306.358 51.5444 306.353 51.5204C306.346 51.4892 306.347 51.4375 306.365 51.3659C306.382 51.2966 306.412 51.219 306.451 51.1418C307.686 48.7124 309.13 47.2126 310.76 46.5364Z" fill="#4071B7"/>
<path fill-rule="evenodd" clip-rule="evenodd" d="M259.199 101.767C273.101 83.5383 288.096 65.1925 306.811 50.8202L307.119 51.2215C288.461 65.55 273.5 83.8493 259.602 102.074L259.199 101.767Z" fill="#4071B7"/>
<path fill-rule="evenodd" clip-rule="evenodd" d="M73.2246 81.6799C72.2125 82.1404 70.9374 82.1859 71.1752 80.8905L73.4421 67.6331C74.5705 61.7381 88.3694 61.9 86.5984 69.6572C85.05 74.358 80.6679 78.3858 73.2144 81.685" fill="#6693CD"/>
<path fill-rule="evenodd" clip-rule="evenodd" d="M71.57 82.5856C72.4454 81.9683 73.0627 80.9816 71.7876 80.592L58.8995 76.4731C53.1158 74.7425 47.064 85.8595 54.7958 87.919C59.699 88.7843 65.2702 87.0739 71.57 82.5856Z" fill="#6693CD"/>
<path fill-rule="evenodd" clip-rule="evenodd" d="M66.0392 65.7608C65.0272 66.2213 63.7521 66.2669 63.9899 64.9765L66.2568 51.714C67.3852 45.819 81.1841 45.981 79.413 53.7381C77.8697 58.4389 73.4826 62.4667 66.0291 65.7659" fill="#6693CD"/>
<path fill-rule="evenodd" clip-rule="evenodd" d="M64.3897 66.6666C65.26 66.0493 65.8774 65.0676 64.6022 64.673L51.7142 60.554C45.9305 58.8235 39.8837 69.9456 47.6155 72C52.5137 72.8652 58.0899 71.16 64.3897 66.6666Z" fill="#6693CD"/>
<path fill-rule="evenodd" clip-rule="evenodd" d="M59.2234 51.3498C58.3783 51.7293 57.341 51.7748 57.5333 50.7021L59.4005 39.7976C60.3265 34.95 71.6762 35.0866 70.2291 41.4623C68.9539 45.3232 65.3511 48.6375 59.2234 51.3498Z" fill="#6693CD"/>
<path fill-rule="evenodd" clip-rule="evenodd" d="M57.8621 52.0936C58.5807 51.5876 59.0867 50.778 58.0392 50.4541L47.4384 47.0689C42.6869 45.642 37.7129 54.7906 44.0684 56.4807C48.1164 57.1942 52.6705 55.7875 57.8621 52.0936Z" fill="#6693CD"/>
<path fill-rule="evenodd" clip-rule="evenodd" d="M51.7243 37.3941C51.0767 37.7736 50.2367 37.9001 50.3025 37.0196L50.8085 28.0177C51.1273 24.0101 60.3316 23.0993 59.7294 28.3972C59.0463 31.6408 56.4201 34.6464 51.699 37.3941" fill="#6693CD"/>
<path fill-rule="evenodd" clip-rule="evenodd" d="M50.6919 38.1075C51.2232 37.6319 51.5623 36.9285 50.6919 36.7616L41.8165 34.9804C37.8393 34.2518 34.6262 42.105 39.9291 42.9045C43.2587 43.1221 46.8412 41.5737 50.7122 38.1177" fill="#6693CD"/>
<path fill-rule="evenodd" clip-rule="evenodd" d="M45.1967 25.4016C44.797 25.7052 44.2606 25.857 44.2303 25.27L43.8406 19.3143C43.7293 16.6527 49.7002 15.3219 49.7306 18.8488C49.5383 21.0347 48.0557 23.2156 45.1765 25.4016" fill="#6693CD"/>
<path fill-rule="evenodd" clip-rule="evenodd" d="M44.5742 25.9633C44.8879 25.6091 45.0802 25.1233 44.4629 25.0829L38.4819 24.6173C35.8101 24.4554 34.3275 29.8697 37.8747 29.976C40.0809 29.8495 42.3124 28.544 44.5742 25.9633Z" fill="#6693CD"/>
<path fill-rule="evenodd" clip-rule="evenodd" d="M38.6946 15.4686C38.2999 15.7722 37.7585 15.924 37.7332 15.337L37.3587 9.38132C37.2474 6.72478 43.2234 5.38891 43.2487 8.91579C43.0614 11.1017 41.5788 13.2877 38.6946 15.4686Z" fill="#6693CD"/>
<path fill-rule="evenodd" clip-rule="evenodd" d="M38.0721 16.0253C38.3858 15.6711 38.5781 15.1853 37.9658 15.1449L31.9797 14.6793C29.308 14.5174 27.8304 19.9368 31.3776 20.038C33.5787 19.9115 35.8102 18.606 38.0721 16.0253Z" fill="#6693CD"/>
<path fill-rule="evenodd" clip-rule="evenodd" d="M33.7204 8.592C33.8165 9.09801 33.7204 9.65462 33.1385 9.2903L27.3447 5.65209C24.7843 3.98226 26.363 -1.77106 29.7027 0.536342C31.6761 2.14039 33.0322 4.79694 33.7204 8.592Z" fill="#6693CD"/>
<path fill-rule="evenodd" clip-rule="evenodd" d="M76.1402 95.978C64.761 65.8576 51.9939 35.1904 32.655 8.40103L33.0653 8.10486C52.4462 34.9525 65.2326 65.6742 76.6136 95.7992L76.1402 95.978Z" fill="#6693CD"/>
<path fill-rule="evenodd" clip-rule="evenodd" d="M266.176 107.087C267.087 107.233 268.109 107.016 267.643 106.024L263.029 95.9392C260.878 91.4813 249.918 94.5325 252.964 100.336C255.191 103.752 259.542 106.034 266.176 107.087Z" fill="#6693CD"/>
<path fill-rule="evenodd" clip-rule="evenodd" d="M267.684 107.456C266.859 107.152 266.166 106.495 267.087 105.913L276.488 99.9063C280.729 97.3105 287.904 104.901 282.171 108.159C278.452 109.885 273.65 109.703 267.679 107.456" fill="#6693CD"/>
<path fill-rule="evenodd" clip-rule="evenodd" d="M268.509 92.8829C269.424 93.0297 270.442 92.8121 269.976 91.8203L265.361 81.7356C263.216 77.2777 252.256 80.3289 255.297 86.1328C257.523 89.5484 261.875 91.8304 268.509 92.8829Z" fill="#6693CD"/>
<path fill-rule="evenodd" clip-rule="evenodd" d="M270.027 93.2625C269.202 92.9589 268.509 92.3011 269.435 91.7192L278.831 85.7128C283.072 83.1069 290.247 90.6869 284.524 93.9658C280.8 95.6913 275.998 95.5092 270.027 93.2625Z" fill="#6693CD"/>
<path fill-rule="evenodd" clip-rule="evenodd" d="M270.912 79.9545C271.666 80.0759 272.501 79.8937 272.116 79.0841L268.326 70.7856C266.56 67.1221 257.543 69.6319 260.048 74.4035C261.88 77.2169 265.452 79.0892 270.912 79.9696" fill="#6693CD"/>
<path fill-rule="evenodd" clip-rule="evenodd" d="M272.152 80.258C271.474 80.01 270.897 79.4686 271.646 78.993L279.393 74.0341C282.879 71.8937 288.779 78.1277 284.073 80.8197C281.037 82.2416 277.06 82.0898 272.152 80.2428" fill="#6693CD"/>
<path fill-rule="evenodd" clip-rule="evenodd" d="M273.933 67.2485C274.53 67.4105 275.223 67.3396 274.986 66.6464L272.658 59.5623C271.555 56.4351 264.025 57.6597 265.629 61.7533C266.859 64.1923 269.586 66.0291 273.933 67.2232" fill="#6693CD"/>
<path fill-rule="evenodd" clip-rule="evenodd" d="M274.91 67.6027C274.404 67.3396 273.963 66.8538 274.626 66.535L281.331 63.2207C284.367 61.7988 288.567 67.375 284.514 69.1359C281.908 70.0164 278.72 69.5407 274.899 67.6179" fill="#6693CD"/>
<path fill-rule="evenodd" clip-rule="evenodd" d="M276.605 56.3238C276.984 56.4806 277.45 56.4907 277.349 56.0151L276.382 51.1928C275.906 49.0474 270.867 49.2498 271.59 52.0682C272.202 53.7684 273.847 55.1954 276.605 56.3238Z" fill="#6693CD"/>
<path fill-rule="evenodd" clip-rule="evenodd" d="M277.207 56.6224C276.883 56.4048 276.645 56.0506 277.111 55.8937L281.776 54.2593C283.876 53.5661 286.199 57.5686 283.395 58.3985C281.614 58.7679 279.56 58.2011 277.207 56.6224Z" fill="#6693CD"/>
<path fill-rule="evenodd" clip-rule="evenodd" d="M279.671 47.0183C280.051 47.1752 280.511 47.1853 280.415 46.7097L279.448 41.8874C278.973 39.7419 273.933 39.9443 274.657 42.7628C275.269 44.463 276.913 45.8899 279.671 47.0183Z" fill="#6693CD"/>
<path fill-rule="evenodd" clip-rule="evenodd" d="M280.283 47.332C279.96 47.1144 279.722 46.7602 280.187 46.6033L284.853 44.9689C286.953 44.2757 289.275 48.2782 286.472 49.1081C284.691 49.4775 282.636 48.9107 280.283 47.332Z" fill="#6693CD"/>
<path fill-rule="evenodd" clip-rule="evenodd" d="M282.196 40.4806C282.232 40.9209 282.434 41.3257 282.808 40.9158L286.654 36.7868C288.344 34.9145 285.865 30.6641 283.694 33.2144C282.459 34.9044 281.943 37.308 282.176 40.4806" fill="#6693CD"/>
<path fill-rule="evenodd" clip-rule="evenodd" d="M266.42 119.043C269.112 92.6422 272.813 65.4612 282.562 39.9502L283.034 40.1308C273.312 65.575 269.615 92.6988 266.923 119.095L266.42 119.043Z" fill="#6693CD"/>
<path fill-rule="evenodd" clip-rule="evenodd" d="M58.8995 156.822H284.579C287.919 156.822 290.652 154.383 290.652 151.408V148.301H52.8274V151.408C52.8223 154.383 55.5598 156.822 58.8995 156.822Z" fill="#DBDBDC"/>
<path fill-rule="evenodd" clip-rule="evenodd" d="M52.4478 147.922H291.031V151.408C291.031 154.632 288.087 157.202 284.579 157.202H58.8994C55.3928 157.202 52.4425 154.633 52.4478 151.408C52.4478 151.407 52.4478 151.408 52.4478 151.408V147.922ZM53.2068 148.681L53.2068 151.409C53.2021 154.134 55.7267 156.443 58.8994 156.443H284.579C287.751 156.443 290.272 154.134 290.272 151.408V148.681H53.2068Z" fill="#B7BBCE"/>
<path fill-rule="evenodd" clip-rule="evenodd" d="M161.058 153.053H182.689C184.982 153.053 186.854 150.988 186.854 148.463H156.893C156.893 150.988 158.77 153.053 161.058 153.053Z" fill="#DBDBDC"/>
<path fill-rule="evenodd" clip-rule="evenodd" d="M156.514 148.083H187.233V148.463C187.233 151.162 185.225 153.432 182.69 153.432H161.058C158.527 153.432 156.514 151.162 156.514 148.463V148.083ZM157.288 148.843C157.463 151.011 159.125 152.673 161.058 152.673H182.69C184.627 152.673 186.284 151.011 186.459 148.843H157.288Z" fill="#B7BBCE"/>
<path fill-rule="evenodd" clip-rule="evenodd" d="M267.891 15.3372H75.466C74.289 15.3545 73.1666 15.8367 72.3437 16.6785C71.5209 17.5203 71.0644 18.6534 71.0739 19.8305V147.567H272.283V19.8457C272.298 18.6656 271.844 17.5278 271.02 16.6824C270.197 15.837 269.071 15.3532 267.891 15.3372Z" fill="#DBDBDC"/>
<path fill-rule="evenodd" clip-rule="evenodd" d="M75.4661 14.9576H267.896C269.177 14.975 270.398 15.5001 271.292 16.4176C272.185 17.3344 272.678 18.5681 272.663 19.848V147.947H70.6945V19.832C70.6846 18.5552 71.1799 17.3263 72.0725 16.4132C72.9654 15.4997 74.1833 14.9765 75.4606 14.9577L75.4661 14.9576ZM75.469 15.7167C74.3932 15.7332 73.3674 16.1743 72.6152 16.9437C71.8624 17.7139 71.4448 18.7505 71.4535 19.8275L71.4535 19.8305L71.4535 147.188H271.904V19.8457L271.904 19.8409C271.917 18.7614 271.502 17.7206 270.749 16.9472C269.996 16.1745 268.967 15.7319 267.889 15.7167H75.469Z" fill="#B7BBCE"/>
<path d="M266.287 22.239H76.9387V140.999H266.287V22.239Z" fill="white"/>
<path fill-rule="evenodd" clip-rule="evenodd" d="M76.5591 21.8595H266.667V141.379H76.5591V21.8595ZM77.3181 22.6185V140.62H265.908V22.6185H77.3181Z" fill="#B7BBCE"/>
<path fill-rule="evenodd" clip-rule="evenodd" d="M171.861 49.0525C178.16 49.0525 184.317 50.9204 189.555 54.4199C194.792 57.9194 198.874 62.8934 201.285 68.7129C203.695 74.5324 204.326 80.936 203.097 87.114C201.868 93.2919 198.835 98.9667 194.381 103.421C189.927 107.875 184.252 110.908 178.074 112.137C171.896 113.366 165.493 112.735 159.673 110.325C153.854 107.914 148.88 103.832 145.38 98.5946C141.881 93.3572 140.013 87.1997 140.013 80.9007C140.013 72.454 143.368 64.3533 149.341 58.3806C155.314 52.4079 163.414 49.0525 171.861 49.0525ZM188.493 64.3188C187.859 63.6872 187 63.3326 186.105 63.3326C185.21 63.3326 184.351 63.6872 183.717 64.3188L172.109 75.9317L160.471 64.3188C160.162 63.9851 159.788 63.7172 159.373 63.5311C158.958 63.3451 158.51 63.2447 158.055 63.236C157.601 63.2273 157.149 63.3104 156.727 63.4804C156.305 63.6504 155.922 63.9038 155.601 64.2254C155.279 64.547 155.026 64.9301 154.856 65.352C154.686 65.7738 154.602 66.2256 154.611 66.6803C154.62 67.135 154.72 67.5833 154.906 67.9983C155.092 68.4133 155.36 68.7865 155.694 69.0955L167.307 80.7084L155.699 92.3162C155.374 92.6275 155.115 93.0004 154.937 93.4131C154.758 93.8257 154.664 94.2699 154.659 94.7195C154.654 95.1692 154.739 95.6152 154.909 96.0316C155.079 96.448 155.33 96.8263 155.647 97.1445C155.965 97.4626 156.343 97.7141 156.759 97.8843C157.176 98.0545 157.622 98.1399 158.071 98.1356C158.521 98.1313 158.965 98.0373 159.378 97.8591C159.791 97.681 160.164 97.4222 160.476 97.098L172.114 85.4851L183.722 97.098C184.36 97.7104 185.213 98.048 186.098 98.0386C186.982 98.0292 187.828 97.6733 188.453 97.0475C189.078 96.4217 189.433 95.5757 189.442 94.6912C189.45 93.8066 189.111 92.954 188.498 92.3162L176.891 80.7084L188.498 69.0955C189.129 68.4598 189.481 67.6002 189.48 66.705C189.478 65.8098 189.121 64.9518 188.488 64.3188H188.493Z" fill="#0B4B9B"/>
<path fill-rule="evenodd" clip-rule="evenodd" d="M0 156.721H320V157.48H0V156.721Z" fill="#B7BBCE"/>
<path d="M83.0058 136.131C86.6238 135.352 90.6617 136.521 94.2797 135.742C98.7022 134.796 103.459 133.9 107.552 136.45C110.932 138.56 113.498 142.831 117.141 143.899C122.576 145.488 128.071 139.264 133.359 141.596C137.543 143.438 140.038 150.143 144.42 150.654L144.147 151.403C141.819 156.503 136.025 158.295 131.977 155.178C130.404 153.968 129.103 152.142 127.423 151.276C123.922 149.48 120.172 152.217 116.448 152.521C110.695 152.992 105.533 147.648 99.8306 146.252C97.4119 145.66 94.9274 145.791 92.5137 145.169C88.5415 144.157 84.878 141.035 82.5757 136.708L83.0058 136.131Z" fill="#1F3563"/>
<path d="M83.8154 135.307C88.1063 132.741 93.3334 131.856 97.6294 129.285C102.877 126.148 108.559 122.894 114.14 123.324C118.745 123.679 122.803 126.553 127.519 125.763C134.553 124.59 140.018 115.78 147.021 115.4C152.587 115.097 157.055 120.364 162.566 118.669L162.388 119.534C160.587 125.657 153.827 130.307 148.18 129.3C145.989 128.911 144.005 127.782 141.723 127.782C137.032 127.782 132.979 132.337 128.455 134.487C121.467 137.827 113.979 135.221 106.657 136.719C103.555 137.351 100.519 138.743 97.4118 139.33C92.3011 140.342 87.1297 139.132 83.3853 136.081L83.8154 135.307Z" fill="#0B4B9B"/>
<path d="M83.1524 136.896C85.6419 137.523 88.2125 135.524 90.6818 136.147C93.7178 136.916 96.9765 137.563 99.4104 133.728C101.434 130.565 102.644 124.62 104.941 122.798C108.372 120.086 112.713 127.722 115.962 124.038C118.533 121.128 123.284 112.617 126.133 111.453L128.617 110.806C126.502 104.314 115.871 101.617 113.533 106.201C112.622 107.982 111.965 110.533 110.932 111.878C108.807 114.651 106.014 111.443 103.509 111.458C99.6381 111.458 96.8045 119.13 93.1764 121.614C91.6584 122.667 89.9734 122.773 88.4402 123.861C85.9202 125.647 83.8152 130.201 82.8032 136.177L83.1524 136.896Z" fill="#6693CD"/>
<path fill-rule="evenodd" clip-rule="evenodd" d="M57.5989 140.154C55.8823 140.155 54.204 139.647 52.7762 138.694C51.3485 137.741 50.2354 136.386 49.5778 134.801C48.9202 133.215 48.7476 131.47 49.0819 129.786C49.4162 128.103 50.2423 126.556 51.4557 125.342C52.6692 124.128 54.2154 123.301 55.899 122.965C57.5825 122.63 59.3276 122.802 60.9136 123.458C62.4996 124.115 63.8552 125.227 64.809 126.654C65.7628 128.082 66.2719 129.76 66.2719 131.476C66.2652 133.775 65.3495 135.978 63.7246 137.603C62.0996 139.229 59.8975 140.146 57.5989 140.154Z" fill="#0B4B9B"/>
<path fill-rule="evenodd" clip-rule="evenodd" d="M60.8169 123.692C59.2771 123.054 57.5829 122.888 55.9484 123.213C54.314 123.539 52.8128 124.342 51.6348 125.521C50.4567 126.699 49.6547 128.201 49.3301 129.836C49.0056 131.47 49.1732 133.164 49.8116 134.704C50.45 136.243 51.5306 137.559 52.9168 138.484C54.3028 139.409 55.9321 139.902 57.5986 139.901C59.8302 139.893 61.9681 139.003 63.5457 137.425C65.1232 135.846 66.0123 133.708 66.0189 131.476C66.0189 129.81 65.5247 128.181 64.5987 126.795C63.6728 125.409 62.3567 124.33 60.8169 123.692ZM57.599 140.154L57.5998 140.407C59.9653 140.399 62.2314 139.455 63.9036 137.782C65.5757 136.109 66.5181 133.842 66.525 131.477L66.525 131.476C66.525 129.71 66.001 127.983 65.0194 126.514C64.0379 125.045 62.6427 123.9 61.0105 123.225C59.3782 122.549 57.5822 122.372 55.8496 122.717C54.117 123.062 52.5257 123.913 51.2768 125.163C50.028 126.412 49.1778 128.004 48.8338 129.737C48.4898 131.47 48.6674 133.266 49.3442 134.898C50.0209 136.529 51.1665 137.924 52.6359 138.905C54.1052 139.885 55.8325 140.408 57.5991 140.407L57.599 140.154Z" fill="white"/>
<path d="M80.9362 129.806C80.9362 127.478 79.0491 125.591 76.7212 125.591C74.3933 125.591 72.5061 127.478 72.5061 129.806C72.5061 132.134 74.3933 134.021 76.7212 134.021C79.0491 134.021 80.9362 132.134 80.9362 129.806Z" fill="#0B4B9B"/>
<path fill-rule="evenodd" clip-rule="evenodd" d="M76.721 125.844C74.5328 125.844 72.7589 127.618 72.7589 129.806C72.7589 131.995 74.5328 133.768 76.721 133.768C78.9092 133.768 80.683 131.995 80.683 129.806C80.683 127.618 78.9092 125.844 76.721 125.844ZM72.2529 129.806C72.2529 127.339 74.2533 125.338 76.721 125.338C79.1886 125.338 81.189 127.339 81.189 129.806C81.189 132.274 79.1886 134.274 76.721 134.274C74.2533 134.274 72.2529 132.274 72.2529 129.806Z" fill="white"/>
<path fill-rule="evenodd" clip-rule="evenodd" d="M85.7077 145.184C85.8492 144.346 86.3162 143.597 87.0072 143.101C87.6981 142.606 88.5569 142.403 89.3965 142.538C90.2353 142.677 90.9847 143.142 91.4807 143.833C91.9768 144.523 92.1789 145.382 92.043 146.221C91.9052 147.061 91.4398 147.811 90.749 148.307C90.0582 148.803 89.1986 149.005 88.3592 148.868C87.5202 148.729 86.7703 148.263 86.2735 147.573C85.7767 146.883 85.5733 146.024 85.7077 145.184Z" fill="#0B4B9B"/>
<path d="M73.8064 129.736C73.8064 126.158 70.9066 123.259 67.3295 123.259C63.7524 123.259 60.8525 126.158 60.8525 129.736C60.8525 133.313 63.7524 136.213 67.3295 136.213C70.9066 136.213 73.8064 133.313 73.8064 129.736Z" fill="#0B4B9B"/>
<path fill-rule="evenodd" clip-rule="evenodd" d="M67.3295 123.512C63.8922 123.512 61.1056 126.298 61.1056 129.736C61.1056 133.173 63.8922 135.959 67.3295 135.959C70.7669 135.959 73.5534 133.173 73.5534 129.736C73.5534 126.298 70.7669 123.512 67.3295 123.512ZM60.5996 129.736C60.5996 126.019 63.6127 123.006 67.3295 123.006C71.0464 123.006 74.0594 126.019 74.0594 129.736C74.0594 133.452 71.0464 136.465 67.3295 136.465C63.6127 136.465 60.5996 133.452 60.5996 129.736Z" fill="white"/>
<path fill-rule="evenodd" clip-rule="evenodd" d="M82.9045 151.96C82.6964 153.247 83.0048 154.565 83.7629 155.626C84.5209 156.687 85.6672 157.406 86.9526 157.627C88.2401 157.835 89.5576 157.527 90.6189 156.769C91.6801 156.01 92.3992 154.864 92.6199 153.579C92.8281 152.291 92.5196 150.974 91.7616 149.912C91.0035 148.851 89.8572 148.132 88.5718 147.911C87.2846 147.705 85.9677 148.014 84.9067 148.772C83.8458 149.529 83.1264 150.675 82.9045 151.96Z" fill="#0B4B9B"/>
<path fill-rule="evenodd" clip-rule="evenodd" d="M84.7597 148.566C85.8749 147.769 87.259 147.444 88.612 147.662L88.5719 147.911L88.6147 147.662C89.9658 147.894 91.1707 148.65 91.9675 149.765C92.7643 150.881 93.0885 152.266 92.8697 153.619L92.62 153.579L92.8693 153.622C92.6374 154.973 91.8815 156.178 90.766 156.974C89.6505 157.771 88.2656 158.095 86.9123 157.877L86.9527 157.627L86.9099 157.876C85.5588 157.644 84.3539 156.888 83.5571 155.773C82.7603 154.657 82.436 153.272 82.6548 151.919L82.9046 151.96L82.6553 151.916C82.8885 150.566 83.6446 149.362 84.7597 148.566ZM83.1541 152.001C82.9571 153.222 83.2498 154.472 83.9688 155.479C84.6879 156.485 85.7751 157.168 86.9943 157.377C88.2155 157.574 89.4652 157.282 90.4719 156.563C91.4786 155.844 92.1608 154.756 92.3704 153.537C92.5675 152.316 92.2748 151.066 91.5557 150.06C90.8367 149.053 89.7495 148.371 88.5304 148.161C87.3093 147.965 86.0602 148.259 85.0539 148.977C84.0475 149.696 83.365 150.783 83.1541 152.001Z" fill="white"/>
<path d="M79.0335 136.923C79.0335 134.052 76.7057 131.724 73.8342 131.724C70.9628 131.724 68.635 134.052 68.635 136.923C68.635 139.795 70.9628 142.123 73.8342 142.123C76.7057 142.123 79.0335 139.795 79.0335 136.923Z" fill="#0B4B9B"/>
<path fill-rule="evenodd" clip-rule="evenodd" d="M73.8343 131.977C71.1026 131.977 68.8881 134.192 68.8881 136.923C68.8881 139.655 71.1026 141.87 73.8343 141.87C76.5661 141.87 78.7806 139.655 78.7806 136.923C78.7806 134.192 76.5661 131.977 73.8343 131.977ZM68.3821 136.923C68.3821 133.912 70.8231 131.471 73.8343 131.471C76.8455 131.471 79.2866 133.912 79.2866 136.923C79.2866 139.935 76.8455 142.376 73.8343 142.376C70.8231 142.376 68.3821 139.935 68.3821 136.923Z" fill="white"/>
<path fill-rule="evenodd" clip-rule="evenodd" d="M79.2613 146.358C79.3896 145.586 79.7438 144.87 80.279 144.3C80.8142 143.729 81.5064 143.33 82.2683 143.153C83.0302 142.976 83.8275 143.028 84.5595 143.304C85.2915 143.58 85.9254 144.066 86.381 144.702C86.8367 145.338 87.0937 146.094 87.1195 146.876C87.1454 147.658 86.939 148.43 86.5264 149.094C86.1137 149.759 85.5134 150.286 84.8013 150.61C84.0891 150.933 83.297 151.038 82.5251 150.912C81.4897 150.738 80.5651 150.162 79.9535 149.308C79.3419 148.455 79.0931 147.394 79.2613 146.358Z" fill="#0B4B9B"/>
<path fill-rule="evenodd" clip-rule="evenodd" d="M66.611 144.481C64.8948 144.475 63.2505 143.791 62.037 142.578C60.8235 141.364 60.1394 139.72 60.134 138.004C60.1394 136.288 60.8236 134.644 62.0373 133.432C63.2509 132.219 64.8953 131.536 66.611 131.532C68.3266 131.536 69.971 132.219 71.1846 133.432C72.3983 134.644 73.0825 136.288 73.0879 138.004C73.0825 139.72 72.3984 141.364 71.1849 142.578C69.9714 143.791 68.3271 144.475 66.611 144.481Z" fill="#0B4B9B"/>
<path fill-rule="evenodd" clip-rule="evenodd" d="M76.5995 151.509C76.3915 152.796 76.7001 154.113 77.4582 155.173C78.2164 156.234 79.3626 156.952 80.6476 157.171C81.9346 157.381 83.2523 157.073 84.3131 156.314C85.3738 155.556 86.0916 154.409 86.3098 153.123C86.5193 151.836 86.2112 150.519 85.4528 149.458C84.6945 148.397 83.5474 147.679 82.2618 147.461C80.9749 147.253 79.658 147.562 78.5975 148.32C77.5371 149.078 76.819 150.224 76.5995 151.509Z" fill="#0B4B9B"/>
<path fill-rule="evenodd" clip-rule="evenodd" d="M78.4504 148.114C79.5652 147.317 80.9495 146.993 82.3022 147.211L82.3042 147.212L82.3042 147.212C83.6556 147.441 84.8615 148.196 85.6587 149.311C86.456 150.426 86.7798 151.811 86.5596 153.164L86.3099 153.123L86.5594 153.166C86.33 154.517 85.5754 155.723 84.4603 156.52C83.3452 157.317 81.96 157.641 80.607 157.421L80.6051 157.421C79.2544 157.19 78.0494 156.435 77.2525 155.321C76.4556 154.206 76.1311 152.821 76.3498 151.469L76.5996 151.509L76.3502 151.467C76.5809 150.116 77.3357 148.911 78.4504 148.114ZM76.8492 151.551C76.6521 152.771 76.945 154.02 77.6641 155.026C78.3833 156.032 79.4705 156.713 80.6894 156.922C81.9102 157.12 83.1599 156.828 84.166 156.109C85.1722 155.389 85.8531 154.301 86.0603 153.082C86.2588 151.861 85.9665 150.611 85.2471 149.605C84.5278 148.599 83.4398 147.918 82.2205 147.711C80.9998 147.514 79.7506 147.806 78.7447 148.526C77.7389 149.245 77.0576 150.332 76.8492 151.551Z" fill="white"/>
<path fill-rule="evenodd" clip-rule="evenodd" d="M73.7963 146.292C74.6722 146.293 75.5287 146.034 76.2575 145.548C76.9863 145.063 77.5546 144.371 77.8905 143.562C78.2263 142.754 78.3147 141.863 78.1445 141.004C77.9742 140.145 77.5529 139.355 76.9339 138.736C76.3149 138.116 75.526 137.694 74.667 137.522C73.808 137.351 72.9175 137.439 72.1082 137.774C71.2988 138.109 70.607 138.676 70.1203 139.404C69.6336 140.132 69.3738 140.989 69.3738 141.865C69.3764 143.037 69.8431 144.161 70.6717 144.991C71.5004 145.82 72.6237 146.288 73.7963 146.292Z" fill="#0B4B9B"/>
<path fill-rule="evenodd" clip-rule="evenodd" d="M72.0115 137.54C72.8671 137.186 73.8084 137.093 74.7165 137.274C75.6246 137.455 76.4586 137.902 77.113 138.557C77.7674 139.212 78.2127 140.047 78.3927 140.955C78.5727 141.863 78.4793 142.804 78.1242 143.66C77.7691 144.515 77.1683 145.245 76.3979 145.759C75.6275 146.273 74.722 146.546 73.7961 146.545L73.7964 146.292L73.7955 146.545C72.5561 146.541 71.3687 146.046 70.4928 145.169C69.6169 144.293 69.1237 143.105 69.1209 141.865L69.1208 141.865C69.1209 140.939 69.3955 140.034 69.91 139.264C70.4246 138.494 71.1559 137.894 72.0115 137.54ZM73.7967 146.039C74.6225 146.04 75.4301 145.796 76.1172 145.338C76.8044 144.88 77.3402 144.228 77.6569 143.466C77.9736 142.703 78.0569 141.863 77.8964 141.053C77.7358 140.243 77.3386 139.499 76.755 138.914C76.1714 138.33 75.4275 137.932 74.6176 137.771C73.8077 137.609 72.9681 137.692 72.205 138.007C71.4419 138.323 70.7896 138.858 70.3307 139.545C69.8719 140.231 69.6269 141.039 69.6269 141.864C69.6294 142.97 70.0695 144.03 70.8508 144.812C71.6321 145.594 72.6912 146.035 73.7967 146.039Z" fill="white"/>
<path fill-rule="evenodd" clip-rule="evenodd" d="M76.1291 145.887C76.2756 145.006 76.765 144.219 77.4904 143.697C78.2157 143.176 79.1181 142.962 80.0001 143.104C80.8798 143.253 81.6652 143.743 82.1854 144.468C82.7056 145.193 82.9186 146.094 82.7781 146.975C82.6329 147.857 82.1436 148.645 81.4177 149.166C80.6918 149.687 79.7888 149.898 78.9071 149.753C78.0272 149.607 77.241 149.118 76.7204 148.393C76.1999 147.669 75.9873 146.768 76.1291 145.887Z" fill="#0B4B9B"/>
<path d="M4.12915 118.669L20.6099 156.913L63.4385 144.799L42.3581 95.8633L4.12915 118.669Z" fill="#4175BA"/>
<path fill-rule="evenodd" clip-rule="evenodd" d="M66.3117 119.327C70.0903 123.534 76.1704 127.492 85.8255 131.041L85.6509 131.516C75.9512 127.951 69.7884 123.955 65.9352 119.665C62.0767 115.369 60.5495 110.795 60.0898 106.109L60.5934 106.06C61.0446 110.66 62.5382 115.126 66.3117 119.327Z" fill="#4071B7"/>
<path fill-rule="evenodd" clip-rule="evenodd" d="M75.5367 138.062C78.3526 134.929 82.8506 132.016 89.9165 129.417L90.0912 129.892C83.0697 132.475 78.6544 135.35 75.9131 138.401C73.1769 141.445 72.0932 144.68 71.766 148.017L71.2625 147.968C71.5981 144.544 72.7156 141.201 75.5367 138.062Z" fill="#4071B7"/>
<path fill-rule="evenodd" clip-rule="evenodd" d="M76.3186 122.587C79.0569 125.638 83.4671 128.515 90.4809 131.097L90.3061 131.572C83.2477 128.973 78.7548 126.059 75.9421 122.925C73.1242 119.785 72.008 116.442 71.6724 113.021L72.176 112.972C72.5032 116.307 73.5856 119.542 76.3186 122.587Z" fill="#4071B7"/>
<path fill-rule="evenodd" clip-rule="evenodd" d="M86.2327 136.032C84.3698 137.703 82.6048 140.403 81.0166 144.715L80.5417 144.54C82.1464 140.184 83.9488 137.401 85.8948 135.655C87.8467 133.905 89.9259 133.212 92.0488 133.006L92.0978 133.509C90.0613 133.707 88.0899 134.366 86.2327 136.032Z" fill="#4071B7"/>
<path d="M257.923 99.4256L255.858 97.5078L243.618 110.689L245.682 112.607L246.416 111.818L292.073 154.211C292.073 154.211 297.639 159.823 303.256 153.791C308.873 147.76 302.841 142.613 302.841 142.613L257.184 100.22L257.923 99.4256Z" fill="white"/>
<path fill-rule="evenodd" clip-rule="evenodd" d="M255.855 97.4292L258.002 99.4228L257.263 100.217L302.877 142.571L302.879 142.572L302.879 142.573L302.882 142.575L302.895 142.587C302.907 142.597 302.924 142.612 302.945 142.632C302.988 142.671 303.051 142.73 303.129 142.807C303.284 142.96 303.499 143.186 303.739 143.476C304.219 144.056 304.801 144.893 305.207 145.92C305.613 146.948 305.842 148.167 305.616 149.509C305.389 150.852 304.707 152.314 303.297 153.829C301.886 155.344 300.476 156.13 299.153 156.455C297.829 156.78 296.596 156.643 295.542 156.316C294.488 155.99 293.611 155.473 292.999 155.039C292.692 154.822 292.451 154.625 292.287 154.483C292.205 154.411 292.142 154.353 292.099 154.313C292.078 154.293 292.062 154.278 292.051 154.267L292.038 154.255L292.036 154.252L292.035 154.252L292.034 154.251L246.419 111.896L245.685 112.686L243.539 110.692L255.855 97.4292ZM302.805 142.656L302.803 142.654L257.105 100.223L257.844 99.4285L255.861 97.5865L243.697 110.686L245.68 112.529L246.413 111.739L292.113 154.172L292.114 154.173L292.117 154.176L292.128 154.187C292.139 154.197 292.155 154.213 292.175 154.232C292.217 154.271 292.279 154.328 292.36 154.399C292.522 154.539 292.76 154.734 293.063 154.948C293.669 155.378 294.535 155.888 295.575 156.21C296.614 156.532 297.826 156.667 299.126 156.347C300.426 156.028 301.818 155.254 303.215 153.753C304.613 152.252 305.284 150.809 305.506 149.491C305.728 148.172 305.503 146.974 305.103 145.961C304.703 144.948 304.128 144.121 303.653 143.547C303.416 143.261 303.203 143.037 303.05 142.886C302.974 142.81 302.912 142.753 302.87 142.714C302.859 142.703 302.849 142.694 302.84 142.687C302.833 142.68 302.827 142.675 302.822 142.67L302.809 142.659L302.805 142.656Z" fill="#DBDBDC"/>
<path d="M222.011 119.782L219.345 118.866L213.5 135.873L216.162 136.789L216.516 135.777L275.436 156.018C275.436 156.018 282.813 158.887 285.49 151.104C288.167 143.322 280.577 141.055 280.577 141.055L221.657 120.815L222.011 119.782Z" fill="white"/>
<path fill-rule="evenodd" clip-rule="evenodd" d="M219.109 118.384L222.493 119.547L222.139 120.579L280.694 140.694L280.713 140.7C280.73 140.705 280.753 140.713 280.783 140.723C280.842 140.743 280.927 140.772 281.033 140.813C281.245 140.894 281.543 141.018 281.89 141.191C282.584 141.537 283.485 142.085 284.304 142.891C285.123 143.698 285.864 144.77 286.219 146.157C286.575 147.545 286.539 149.222 285.849 151.228C285.159 153.233 284.157 154.578 283.022 155.455C281.889 156.331 280.646 156.722 279.503 156.856C278.363 156.99 277.315 156.869 276.556 156.716C276.175 156.64 275.864 156.555 275.647 156.489C275.538 156.455 275.453 156.427 275.394 156.406C275.365 156.396 275.342 156.388 275.325 156.382L275.306 156.374L216.75 136.259L216.395 137.271L213.018 136.109L219.109 118.384ZM275.573 155.664L275.576 155.665L275.589 155.67C275.601 155.674 275.619 155.681 275.644 155.69C275.695 155.707 275.771 155.733 275.869 155.763C276.066 155.823 276.352 155.901 276.705 155.972C277.413 156.114 278.377 156.224 279.415 156.102C280.451 155.981 281.555 155.63 282.558 154.855C283.559 154.081 284.483 152.867 285.131 150.981C285.78 149.095 285.798 147.57 285.484 146.345C285.169 145.118 284.514 144.164 283.771 143.432C283.026 142.698 282.198 142.193 281.552 141.87C281.229 141.71 280.955 141.596 280.762 141.522C280.666 141.485 280.591 141.459 280.54 141.442C280.515 141.433 280.496 141.427 280.484 141.423L280.471 141.419L280.468 141.419L280.461 141.416L221.175 121.05L221.529 120.018L219.58 119.349L213.982 135.638L215.928 136.308L216.283 135.296L275.566 155.661L275.573 155.664Z" fill="#B7BBCE"/>
<path d="M218.186 133.956L275.739 153.564C275.739 153.564 280.86 155.557 282.717 150.158C284.574 144.759 279.312 143.18 279.312 143.18L251.653 133.743L218.186 133.956Z" fill="#0B4B9B"/>
<path fill-rule="evenodd" clip-rule="evenodd" d="M251.663 133.688L279.328 143.127L279.329 143.127L279.33 143.128L279.332 143.128L279.344 143.132C279.354 143.135 279.369 143.14 279.388 143.147C279.427 143.16 279.483 143.18 279.554 143.207C279.696 143.261 279.896 143.344 280.13 143.462C280.598 143.696 281.203 144.065 281.75 144.605C282.298 145.145 282.787 145.857 283.023 146.776C283.258 147.696 283.237 148.818 282.77 150.176C282.303 151.535 281.629 152.432 280.878 153.012C280.127 153.592 279.303 153.852 278.538 153.941C277.775 154.03 277.071 153.949 276.558 153.845C276.301 153.794 276.092 153.736 275.947 153.692C275.874 153.67 275.818 153.651 275.779 153.637C275.76 153.63 275.745 153.625 275.735 153.621L275.723 153.617L275.722 153.616L275.72 153.616L275.72 153.616L217.856 133.902L251.663 133.688ZM279.296 143.234L279.294 143.233L251.644 133.799L218.516 134.009L275.76 153.512L275.76 153.512L275.763 153.513L275.774 153.517C275.783 153.52 275.797 153.526 275.816 153.532C275.853 153.545 275.908 153.564 275.979 153.585C276.122 153.629 276.327 153.685 276.58 153.736C277.085 153.838 277.777 153.918 278.526 153.83C279.274 153.743 280.078 153.489 280.81 152.924C281.541 152.359 282.203 151.481 282.665 150.14C283.126 148.799 283.144 147.699 282.915 146.804C282.686 145.908 282.208 145.213 281.672 144.684C281.136 144.155 280.541 143.792 280.08 143.561C279.85 143.446 279.653 143.364 279.515 143.311C279.445 143.284 279.39 143.265 279.353 143.252C279.344 143.249 279.336 143.246 279.329 143.244C279.321 143.242 279.315 143.24 279.31 143.238L279.299 143.235L279.297 143.234L279.296 143.234Z" fill="#DBDBDC"/>
<path d="M257.923 99.4256L255.858 97.5078L243.618 110.689L245.682 112.607L246.416 111.818L292.073 154.211C292.073 154.211 297.639 159.823 303.256 153.791C308.873 147.76 302.841 142.613 302.841 142.613L257.184 100.22L257.923 99.4256Z" fill="white"/>
<path fill-rule="evenodd" clip-rule="evenodd" d="M255.838 96.9714L258.459 99.406L257.72 100.2L303.094 142.331L303.109 142.344C303.122 142.355 303.14 142.372 303.164 142.393C303.21 142.435 303.276 142.497 303.356 142.577C303.518 142.737 303.74 142.97 303.988 143.27C304.483 143.867 305.086 144.733 305.508 145.801C305.931 146.872 306.173 148.151 305.935 149.563C305.696 150.977 304.981 152.496 303.534 154.05C302.087 155.604 300.623 156.428 299.23 156.77C297.838 157.112 296.544 156.966 295.446 156.626C294.35 156.286 293.443 155.751 292.811 155.303C292.495 155.079 292.246 154.876 292.075 154.727C291.989 154.653 291.923 154.592 291.877 154.549C291.854 154.528 291.837 154.511 291.824 154.499L291.81 154.485L246.436 112.354L245.702 113.143L243.082 110.709L255.838 96.9714ZM292.343 153.944L292.345 153.946L292.354 153.955C292.363 153.964 292.378 153.978 292.397 153.996C292.436 154.033 292.495 154.087 292.572 154.154C292.727 154.289 292.957 154.476 293.25 154.684C293.838 155.101 294.673 155.591 295.671 155.901C296.666 156.209 297.817 156.335 299.049 156.033C300.279 155.731 301.617 154.994 302.978 153.533C304.339 152.071 304.976 150.684 305.186 149.437C305.397 148.188 305.185 147.05 304.802 146.08C304.418 145.108 303.864 144.31 303.403 143.754C303.174 143.476 302.969 143.261 302.822 143.116C302.749 143.044 302.691 142.989 302.651 142.953C302.632 142.935 302.617 142.921 302.607 142.913L302.597 142.904L302.595 142.902L302.589 142.897L256.647 100.24L257.386 99.4452L255.878 98.0442L244.154 110.67L245.663 112.071L246.396 111.282L292.337 153.938L292.343 153.944Z" fill="#B7BBCE"/>
<path d="M261.677 122.677L293.354 152.086C293.354 152.086 297.23 155.982 301.111 151.803C304.992 147.623 300.822 144.04 300.822 144.04L277.202 122.687L261.677 122.677Z" fill="#6693CD"/>
<path fill-rule="evenodd" clip-rule="evenodd" d="M261.536 122.621L277.223 122.631L300.859 143.998L300.86 143.999L300.862 144.001L300.871 144.009C300.879 144.016 300.891 144.027 300.906 144.041C300.936 144.068 300.979 144.11 301.033 144.163C301.141 144.27 301.29 144.428 301.456 144.63C301.789 145.034 302.192 145.618 302.474 146.334C302.755 147.05 302.915 147.9 302.758 148.836C302.601 149.772 302.128 150.789 301.152 151.84C300.175 152.892 299.196 153.439 298.275 153.664C297.354 153.89 296.495 153.793 295.76 153.565C295.026 153.337 294.415 152.977 293.988 152.675C293.774 152.524 293.606 152.387 293.491 152.287C293.434 152.238 293.39 152.197 293.36 152.169C293.351 152.161 293.344 152.154 293.338 152.148C293.333 152.144 293.329 152.14 293.326 152.137L293.317 152.128L293.315 152.126L261.536 122.621ZM261.819 122.732L293.393 152.047L293.396 152.049L293.404 152.057C293.408 152.061 293.414 152.067 293.421 152.073C293.425 152.078 293.43 152.083 293.436 152.088C293.465 152.115 293.508 152.154 293.564 152.203C293.677 152.301 293.842 152.435 294.052 152.584C294.473 152.882 295.073 153.235 295.793 153.459C296.513 153.682 297.351 153.776 298.248 153.556C299.145 153.337 300.106 152.803 301.07 151.765C302.034 150.727 302.495 149.729 302.648 148.817C302.801 147.906 302.646 147.076 302.37 146.375C302.094 145.672 301.698 145.099 301.37 144.701C301.206 144.502 301.06 144.347 300.955 144.242C300.902 144.189 300.86 144.149 300.831 144.123C300.816 144.109 300.805 144.099 300.797 144.092L300.789 144.085L300.787 144.083L300.786 144.083L300.785 144.082L277.18 122.742L261.819 122.732Z" fill="#DBDBDC"/>
<path fill-rule="evenodd" clip-rule="evenodd" d="M214.502 144.734C214.543 144.934 214.563 145.137 214.563 145.341C214.563 146.119 214.254 146.866 213.703 147.416C213.153 147.967 212.406 148.276 211.628 148.276C210.85 148.276 210.103 147.967 209.553 147.416C209.002 146.866 208.693 146.119 208.693 145.341C208.693 145.137 208.713 144.934 208.754 144.734V144.693C208.794 144.52 208.85 144.35 208.921 144.187L210.186 140.296L211.633 135.853L213.08 140.296L214.527 144.744L214.502 144.734Z" fill="#0B4B9B"/>
</g>
<defs>
<clipPath id="clip0_501_29534">
<rect width="320" height="157.956" fill="white"/>
</clipPath>
</defs>
</svg>
