<?xml version="1.0" encoding="UTF-8"?>
<!DOCTYPE svg PUBLIC "-//W3C//DTD SVG 1.1//EN" "http://www.w3.org/Graphics/SVG/1.1/DTD/svg11.dtd">
<!-- Creator: CorelDRAW 2018 (64-Bit) -->
<svg xmlns="http://www.w3.org/2000/svg" xml:space="preserve" width="210mm" height="39.6338mm" version="1.1" style="shape-rendering:geometricPrecision; text-rendering:geometricPrecision; image-rendering:optimizeQuality; fill-rule:evenodd; clip-rule:evenodd"
viewBox="0 0 20999.98 3963.38"
 xmlns:xlink="http://www.w3.org/1999/xlink">
 <defs>
  <style type="text/css">
   <![CDATA[
    .fil0 {fill:#104DA9}
    .fil1 {fill:#1D2939}
   ]]>
  </style>
 </defs>
 <g id="Layer_x0020_1">
  <metadata id="CorelCorpID_0Corel-Layer"/>
  <g id="_1970686102672">
   <path class="fil0" d="M6778.09 418.79c0,-226.11 186.87,-412.17 413.17,-412.17 226.31,0 415.1,186.06 415.1,412.17 0,226.1 -186.87,413.98 -415.1,413.98 -228.23,0 -413.17,-186.05 -413.17,-413.98z"/>
   <polygon class="fil0" points="7606.36,1108.16 6778.09,1108.16 6778.09,3892.51 7606.36,3892.5 "/>
   <path class="fil0" d="M1585.38 691.43c-406.48,0 -630.66,181.7 -630.66,429.29 -5.78,275.69 279.74,399.29 621.23,476.05l352.75 82.63c682.57,149.96 1175.25,489.22 1177.06,1128.7 -1.82,703.16 -565.37,1151.02 -1524.03,1151.02 -958.67,0 -1560.54,-429.6 -1581.73,-1260.01l803.13 0c26.67,384.28 337.44,579.16 768.76,579.16 431.32,0 693.93,-191.23 695.76,-472.39 -1.83,-258.85 -239.59,-378.81 -667.27,-480.1l-427.38 -104.94c-663.2,-155.34 -1071.51,-479.69 -1069.58,-1046.07 -3.75,-697.28 627.02,-1162.36 1487.43,-1162.36 860.41,0 1449.21,472.39 1460.87,1156.89l-795.43 0c-30.72,-301.64 -274.27,-477.96 -670.91,-477.96l0 0.09z"/>
   <path class="fil0" d="M3473.51 2521.98c0,-853.93 549.75,-1439.58 1439.37,-1439.58 765.41,0 1278.87,422.51 1313.25,1065.94l-767.25 0c-43.91,-277.51 -234.62,-464.17 -532.52,-464.17 -377.89,0 -626.1,301.03 -626.1,826.75 0,525.72 246.39,835.88 626.1,835.88 278.52,0 484.66,-166.69 532.52,-464.18l767.24 0.01c-38.03,640.09 -528.87,1075.17 -1309.29,1075.17 -902.8,0 -1443.02,-589.3 -1443.02,-1435.92l-0.3 0 0 0.1z"/>
   <path class="fil1" d="M12145.71 2521.07c0,-874.11 536.88,-1449.71 1334.43,-1449.71 797.55,0 1334.42,575.5 1334.42,1449.71 0,874.21 -536.87,1442.31 -1334.42,1442.31 -797.55,0 -1334.43,-575.5 -1334.43,-1442.31zm2216.45 0c0,-560.8 -276.1,-1063.5 -882.01,-1063.5 -605.92,0 -881.91,502.7 -881.91,1063.5 0,560.8 276.09,1056.21 881.91,1056.21 605.81,0 882.01,-495.41 882.01,-1056.21z"/>
   <path class="fil1" d="M16875.17 2514.07c0,-859.5 529.06,-1457.01 1326.82,-1457.01 613.43,0 1265.38,357.1 1265.38,1398.61l0 182 -2137.97 0c21.2,599.13 387.12,925.21 918.42,925.21 354.67,0 621.23,-145.6 736.31,-437.21l437.11 116.6c-138,422.51 -575.2,706.51 -1173.42,706.51 -851.19,0 -1372.65,-575.5 -1372.65,-1435.31l0 0.61 0 -0.01zm2124.27 -243.24c0,-473.6 -314.52,-823.31 -805.27,-823.31 -517.71,0 -841.65,387.93 -872.38,823.31l1677.65 0z"/>
   <polygon class="fil1" points="11123.27,6.63 11123.27,3121.11 11083.42,3066.36 8842.75,6.63 8362.35,6.63 8362.35,3892.41 8853.19,3892.4 8853.19,778.02 11101.78,3892.5 11614.11,3892.5 11614.11,6.63 "/>
   <path class="fil1" d="M16583.86 1475.3l0 -367.15 -644.34 0.01 0 -673.15 -429.41 0 0 673.14 -460.11 0.01 0 367.15 429.49 -0.01 0 1754.7c0,394.42 266.57,622.65 569.02,696.67 73.41,18.05 148.44,26.97 222.66,26.97l312.39 0.01 0 -428.39 -243.54 0c-204.31,0 -400.71,-58.09 -400.71,-421.59l0 -1628.36 644.65 -0.01 -0.1 0z"/>
   <path class="fil0" d="M20882.01 0l-655.26 0 -773.23 0 1546.46 1546.47 0 -1430.18c-5.5,-75.87 -54,-112.82 -117.97,-116.29z"/>
  </g>
 </g>
</svg>
