<svg width="123" height="25" viewBox="0 0 123 25" fill="none" xmlns="http://www.w3.org/2000/svg">
<path d="M42.8255 2.60401C42.8255 1.17538 44.0059 0 45.4363 0C46.8667 0 48.0588 1.17538 48.0588 2.60401C48.0588 4.03263 46.8784 5.21961 45.4363 5.21961C43.9943 5.21961 42.8255 4.04423 42.8255 2.60401Z" fill="#104DA9"/>
<path d="M48.0588 6.95947H42.8255V24.5515H48.0588V6.95947Z" fill="#104DA9"/>
<path d="M10.0168 4.32649C7.44867 4.32649 6.03182 5.4748 6.03182 7.03875C5.99499 8.78056 7.79949 9.56157 9.95676 10.0468L12.1857 10.5688C16.4983 11.516 19.6112 13.6599 19.6228 17.7003C19.6112 22.1428 16.0506 24.9729 9.99359 24.9729C3.93657 24.9729 0.133739 22.2587 0 17.0121H5.07432C5.24295 19.4402 7.20639 20.6716 9.93156 20.6716C12.6567 20.6716 14.3159 19.4634 14.3275 17.6868C14.3159 16.0513 12.8137 15.2935 10.1118 14.6536L7.41185 13.9905C3.22136 13.0084 0.641559 10.9593 0.653188 7.38093C0.629929 2.97519 4.61496 0.0367432 10.0517 0.0367432C15.4885 0.0367432 19.208 3.02159 19.2817 7.34613H14.2558C14.062 5.44001 12.523 4.32649 10.0168 4.32649Z" fill="#104DA9"/>
<path d="M21.9467 15.8928C21.9467 10.4972 25.4201 6.79712 31.041 6.79712C35.8769 6.79712 39.1215 9.46685 39.3386 13.5323H34.491C34.2139 11.7789 33.0083 10.5997 31.1262 10.5997C28.7383 10.5997 27.1703 12.502 27.1703 15.8232C27.1703 19.1444 28.7267 21.1046 31.1262 21.1046C32.8862 21.1046 34.1887 20.0511 34.491 18.172H39.3386C39.0982 22.2162 35.9971 24.9652 31.0662 24.9652C25.3619 24.9652 21.9487 21.2419 21.9487 15.8928H21.9467Z" fill="#104DA9"/>
<path d="M76.7399 15.8869C76.7399 10.3638 80.1319 6.72748 85.1713 6.72748C90.2107 6.72748 93.6027 10.3638 93.6027 15.8869C93.6027 21.41 90.2107 25 85.1713 25C80.1319 25 76.7399 21.3637 76.7399 15.8869ZM90.7438 15.8869C90.7438 12.3434 88.9993 9.16716 85.1713 9.16716C81.3433 9.16716 79.5989 12.3434 79.5989 15.8869C79.5989 19.4305 81.3433 22.5603 85.1713 22.5603C88.9993 22.5603 90.7438 19.4305 90.7438 15.8869Z" fill="#1D2939"/>
<path d="M106.622 15.8425C106.622 10.4122 109.965 6.63666 115.005 6.63666C118.881 6.63666 123 8.89269 123 15.4733V16.6235H109.492C109.626 20.4087 111.938 22.4695 115.295 22.4695C117.536 22.4695 119.22 21.5493 119.947 19.7069L122.709 20.4435C121.837 23.1132 119.075 24.9072 115.295 24.9072C109.917 24.9072 106.622 21.2709 106.622 15.8386V15.8425ZM120.044 14.3056C120.044 11.313 118.057 9.10341 114.956 9.10341C111.685 9.10341 109.638 11.5547 109.444 14.3056H120.044Z" fill="#1D2939"/>
<path d="M70.2798 0V19.6779L70.0278 19.3319L55.8709 0H52.8356V24.5515H55.9368V4.87357L70.1441 24.5515H73.381V0H70.2798Z" fill="#1D2939"/>
<path d="M104.781 9.27932V6.9595H100.71V2.70648H97.9967V6.9595H95.0893V9.27932H97.8028V20.3662C97.8028 22.858 99.4872 24.3002 101.398 24.768C101.862 24.8821 102.336 24.9382 102.805 24.9382H104.779V22.2317H103.24C101.949 22.2317 100.708 21.8644 100.708 19.5678V9.27932H104.781Z" fill="#1D2939"/>
</svg>
