<svg width="44" height="25" viewBox="0 0 44 25" fill="none" xmlns="http://www.w3.org/2000/svg">
<path d="M29.6527 0.531334H41.6211C42.6159 0.531334 43.4211 1.3366 43.4211 2.33133V15.3498L29.6527 0.531334Z" fill="#1C50A2"/>
<path d="M3.15789 24.1366C1.84737 23.7576 0.797368 23.2603 0 22.6524L1.39737 19.5576C2.15526 20.1182 3.06316 20.5603 4.10526 20.8998C5.15526 21.2392 6.19737 21.405 7.24737 21.405C8.41579 21.405 9.27632 21.2313 9.82895 20.884C10.3895 20.5366 10.6658 20.0787 10.6658 19.5024C10.6658 19.084 10.5 18.7287 10.1684 18.4524C9.83684 18.1761 9.41842 17.9471 8.90526 17.7813C8.39211 17.6155 7.68947 17.4261 6.81316 17.2208C5.46316 16.8971 4.35789 16.5813 3.49737 16.2576C2.63684 15.934 1.89474 15.4208 1.27895 14.7103C0.663158 13.9998 0.355263 13.0524 0.355263 11.8761C0.355263 10.8498 0.631579 9.91028 1.19211 9.07344C1.75263 8.2366 2.58947 7.58923 3.71053 7.09186C4.83158 6.60239 6.20526 6.35765 7.83158 6.35765C8.96053 6.35765 10.0658 6.49186 11.1474 6.76028C12.2289 7.0287 13.1763 7.41555 13.9816 7.9287L12.7184 11.0471C11.0763 10.1155 9.44211 9.64976 7.8 9.64976C6.64737 9.64976 5.80263 9.83923 5.25 10.2103C4.69737 10.5813 4.42895 11.0708 4.42895 11.6787C4.42895 12.2866 4.74474 12.7366 5.37632 13.0366C6.00789 13.3287 6.97895 13.6208 8.27368 13.9129C9.62368 14.2366 10.7289 14.5524 11.5895 14.8761C12.45 15.1998 13.1921 15.705 13.8079 16.3998C14.4237 17.0945 14.7316 18.034 14.7316 19.2103C14.7316 20.2208 14.4474 21.1524 13.8789 21.9813C13.3105 22.8182 12.4658 23.4813 11.3289 23.9708C10.2 24.4603 8.81842 24.705 7.2 24.705C5.81842 24.705 4.46053 24.5155 3.15789 24.1366Z" fill="#1C50A2"/>
<path d="M33.5291 6.56291V24.4998H30.1185L21.1738 13.605V24.4998H17.0764V6.56291H20.5106L29.4317 17.4576V6.56291H33.5291Z" fill="black"/>
</svg>
