<svg xmlns="http://www.w3.org/2000/svg" width="36" height="28" fill="none" viewBox="0 0 36 28">
    <path fill="#231F20" d="M28.947 8.094h-.166v11.954L19.01 8.094h-3.762v8.938c.262.227.512.474.747.74 1.015 1.147 1.435 2.613 1.435 4.199 0 1.44-.41 2.794-1.227 3.988-.278.41-.598.786-.955 1.127v.689h4.488V15.82l9.797 11.954h3.736V12.748l-4.322-4.654z"/>
    <path fill="#104DA9" d="M.826 26.507c.65.334 1.397.624 2.244.87 1.427.415 2.914.623 4.427.623 1.773 0 3.286-.268 4.523-.806 1.245-.537 2.17-1.264 2.793-2.182.622-.91.934-1.932.934-3.041 0-1.29-.338-2.322-1.012-3.084-.675-.762-1.487-1.316-2.43-1.672-.942-.355-2.153-.701-3.632-1.056-1.418-.32-2.482-.641-3.173-.962-.692-.33-1.038-.823-1.038-1.49s.294-1.204.9-1.611c.605-.407 1.53-.615 2.792-.615 1.799 0 3.589.511 5.388 1.533v-4.14c-.534-.224-1.108-.41-1.721-.563-1.185-.295-2.395-.442-3.632-.442-1.781 0-3.286.268-4.514.805C2.447 9.22 1.531 9.93.917 10.85.303 11.767 0 12.798 0 13.924c0 1.29.337 2.33 1.012 3.11.674.78 1.487 1.342 2.43 1.697.942.355 2.153.702 3.631 1.057.96.225 1.73.433 2.292.615.562.182 1.02.433 1.384.736.363.304.544.693.544 1.152 0 .633-.302 1.135-.916 1.516-.606.382-1.548.572-2.828.572-1.15 0-2.291-.182-3.442-.554-1.1-.36-2.442-1.075-3.28-1.677v4.359zM24.566 0h9.678C35.05 0 35.7.653 35.7 1.46v10.556L24.566 0z"/>
</svg>
