<svg width="319" height="224" viewBox="0 0 319 224" fill="none" xmlns="http://www.w3.org/2000/svg">
<g clip-path="url(#clip0_105_3721)">
<path d="M166.021 125.296H144.015V126.006H147.447V132.75H148.157V126.006H161.524V132.75H162.234V126.006H166.021V125.296Z" fill="#3F3D56"/>
<path d="M174.185 107.904H168.506V113.583H171.138V132.718H171.848V113.583H174.185V107.904Z" fill="#3F3D56"/>
<path d="M166.064 123.172H144.058V123.882H166.064V123.172Z" fill="#3F3D56"/>
<path d="M166.064 121.397H144.058V122.107H166.064V121.397Z" fill="#3F3D56"/>
<path d="M166.064 119.623H144.058V120.333H166.064V119.623Z" fill="#3F3D56"/>
<path d="M222.456 134.796H221.746C221.746 101.133 194.36 73.7463 160.697 73.7463C127.034 73.7463 99.6478 101.133 99.6478 134.796H98.9379C98.9379 100.741 126.643 73.0364 160.697 73.0364C194.751 73.0364 222.456 100.741 222.456 134.796Z" fill="#3F3D56"/>
<path d="M58.0323 116.065C90.0827 116.065 116.065 90.0827 116.065 58.0323C116.065 25.982 90.0827 0 58.0323 0C25.982 0 0 25.982 0 58.0323C0 90.0827 25.982 116.065 58.0323 116.065Z" fill="#104DA9"/>
<path opacity="0.2" d="M101.2 19.2712C106.614 31.9335 107.348 46.108 103.272 59.2618C99.1965 72.4156 90.5764 83.6916 78.9522 91.0749C67.328 98.4582 53.4572 101.468 39.8185 99.5653C26.1797 97.6631 13.6617 90.9731 4.50137 80.691C7.80811 88.4271 12.7572 95.3518 19.0059 100.985C25.2545 106.619 32.6532 110.826 40.6894 113.317C48.7256 115.807 57.2072 116.52 65.5464 115.407C73.8856 114.294 81.8832 111.381 88.9849 106.87C96.0866 102.36 102.123 96.3588 106.675 89.2836C111.227 82.2084 114.187 74.2281 115.349 65.8955C116.511 57.563 115.848 49.0774 113.404 41.0267C110.961 32.9761 106.797 25.5528 101.2 19.2712Z" fill="black"/>
<path d="M58.1918 58.0325H58.3511L61.2208 222.564H55.1627L58.1918 58.0325Z" fill="#3F3D56"/>
<path d="M68.7584 147.652L67.4215 145.112L57.8286 150.163L59.1655 152.702L68.7584 147.652Z" fill="#3F3D56"/>
<path d="M133.042 123.099C137.126 123.099 140.436 119.789 140.436 115.705C140.436 111.621 137.126 108.311 133.042 108.311C128.958 108.311 125.648 111.621 125.648 115.705C125.648 119.789 128.958 123.099 133.042 123.099Z" fill="#104DA9"/>
<path opacity="0.2" d="M138.542 110.766C139.232 112.38 139.326 114.186 138.806 115.862C138.287 117.538 137.189 118.974 135.708 119.915C134.227 120.856 132.459 121.239 130.721 120.997C128.984 120.755 127.389 119.902 126.222 118.592C126.643 119.578 127.273 120.46 128.07 121.178C128.866 121.896 129.809 122.432 130.832 122.749C131.856 123.066 132.937 123.157 134 123.015C135.062 122.874 136.081 122.502 136.986 121.928C137.891 121.353 138.66 120.588 139.24 119.687C139.82 118.785 140.197 117.769 140.345 116.707C140.493 115.645 140.409 114.564 140.097 113.538C139.786 112.513 139.255 111.567 138.542 110.766Z" fill="black"/>
<path d="M133.063 115.705H133.083L133.448 136.669H132.677L133.063 115.705Z" fill="#3F3D56"/>
<path d="M134.409 127.124L134.238 126.8L133.016 127.444L133.187 127.767L134.409 127.124Z" fill="#3F3D56"/>
<path d="M201.368 110.803C211.822 110.803 220.297 102.328 220.297 91.8736C220.297 81.419 211.822 72.944 201.368 72.944C190.913 72.944 182.438 81.419 182.438 91.8736C182.438 102.328 190.913 110.803 201.368 110.803Z" fill="#104DA9"/>
<path opacity="0.2" d="M215.449 79.23C217.214 83.3603 217.454 87.9839 216.125 92.2745C214.795 96.5652 211.983 100.243 208.192 102.652C204.4 105.06 199.875 106.042 195.426 105.421C190.978 104.801 186.894 102.618 183.906 99.2645C184.985 101.788 186.599 104.047 188.638 105.884C190.676 107.722 193.089 109.094 195.711 109.907C198.332 110.719 201.099 110.952 203.819 110.589C206.539 110.226 209.148 109.275 211.464 107.804C213.781 106.333 215.75 104.375 217.235 102.067C218.719 99.7595 219.685 97.1564 220.064 94.4384C220.443 91.7204 220.226 88.9525 219.43 86.3264C218.633 83.7004 217.274 81.279 215.449 79.23Z" fill="black"/>
<path d="M201.42 91.8735H201.472L202.408 145.542H200.432L201.42 91.8735Z" fill="#3F3D56"/>
<path d="M204.866 121.106L204.43 120.278L201.301 121.926L201.737 122.754L204.866 121.106Z" fill="#3F3D56"/>
<path d="M71.0418 214.373C71.0418 214.373 71.2869 209.237 76.3116 209.834L71.0418 214.373Z" fill="#3F3D56"/>
<path d="M69.6221 209.486C71.011 209.486 72.1369 208.36 72.1369 206.971C72.1369 205.582 71.011 204.456 69.6221 204.456C68.2332 204.456 67.1073 205.582 67.1073 206.971C67.1073 208.36 68.2332 209.486 69.6221 209.486Z" fill="#104DA9"/>
<path d="M69.9228 211.206H69.2129V216.175H69.9228V211.206Z" fill="#3F3D56"/>
<path d="M88.7887 202.66C88.7887 202.66 89.0339 197.524 94.0585 198.121L88.7887 202.66Z" fill="#3F3D56"/>
<path d="M87.369 197.773C88.7579 197.773 89.8838 196.647 89.8838 195.258C89.8838 193.869 88.7579 192.743 87.369 192.743C85.9801 192.743 84.8542 193.869 84.8542 195.258C84.8542 196.647 85.9801 197.773 87.369 197.773Z" fill="#104DA9"/>
<path d="M87.6697 199.493H86.9598V204.462H87.6697V199.493Z" fill="#3F3D56"/>
<path d="M142.285 162.923C142.285 162.923 142.479 158.844 146.47 159.318L142.285 162.923Z" fill="#3F3D56"/>
<path d="M141.157 159.041C142.26 159.041 143.154 158.147 143.154 157.044C143.154 155.941 142.26 155.046 141.157 155.046C140.054 155.046 139.16 155.941 139.16 157.044C139.16 158.147 140.054 159.041 141.157 159.041Z" fill="#104DA9"/>
<path d="M141.396 160.407H140.832V164.354H141.396V160.407Z" fill="#3F3D56"/>
<path d="M220.371 150.145C220.371 150.145 220.566 146.066 224.557 146.54L220.371 150.145Z" fill="#3F3D56"/>
<path d="M219.243 146.263C220.347 146.263 221.241 145.369 221.241 144.266C221.241 143.163 220.347 142.268 219.243 142.268C218.14 142.268 217.246 143.163 217.246 144.266C217.246 145.369 218.14 146.263 219.243 146.263Z" fill="#104DA9"/>
<path d="M219.482 147.629H218.918V151.576H219.482V147.629Z" fill="#3F3D56"/>
<path d="M145.834 173.571C145.834 173.571 146.029 169.492 150.02 169.966L145.834 173.571Z" fill="#3F3D56"/>
<path d="M144.706 169.689C145.81 169.689 146.704 168.795 146.704 167.692C146.704 166.589 145.81 165.694 144.706 165.694C143.603 165.694 142.709 166.589 142.709 167.692C142.709 168.795 143.603 169.689 144.706 169.689Z" fill="#104DA9"/>
<path d="M144.945 171.055H144.381V175.002H144.945V171.055Z" fill="#3F3D56"/>
<path d="M137.316 181.38C137.316 181.38 137.51 177.3 141.501 177.775L137.316 181.38Z" fill="#3F3D56"/>
<path d="M136.188 177.498C137.291 177.498 138.185 176.603 138.185 175.5C138.185 174.397 137.291 173.503 136.188 173.503C135.085 173.503 134.191 174.397 134.191 175.5C134.191 176.603 135.085 177.498 136.188 177.498Z" fill="#104DA9"/>
<path d="M136.427 178.864H135.863V182.811H136.427V178.864Z" fill="#3F3D56"/>
<path d="M232.439 156.889C232.439 156.889 232.634 152.81 236.624 153.284L232.439 156.889Z" fill="#3F3D56"/>
<path d="M231.311 153.007C232.414 153.007 233.309 152.113 233.309 151.01C233.309 149.906 232.414 149.012 231.311 149.012C230.208 149.012 229.314 149.906 229.314 151.01C229.314 152.113 230.208 153.007 231.311 153.007Z" fill="#104DA9"/>
<path d="M231.55 154.373H230.986V158.32H231.55V154.373Z" fill="#3F3D56"/>
<path d="M117.439 165.762C117.439 165.762 117.634 161.683 121.625 162.157L117.439 165.762Z" fill="#3F3D56"/>
<path d="M116.311 161.881C117.415 161.881 118.309 160.986 118.309 159.883C118.309 158.78 117.415 157.886 116.311 157.886C115.208 157.886 114.314 158.78 114.314 159.883C114.314 160.986 115.208 161.881 116.311 161.881Z" fill="#104DA9"/>
<path d="M116.55 163.247H115.986V167.193H116.55V163.247Z" fill="#3F3D56"/>
<path d="M209.723 145.531C209.723 145.531 209.918 141.452 213.908 141.926L209.723 145.531Z" fill="#3F3D56"/>
<path d="M208.595 141.649C209.698 141.649 210.593 140.755 210.593 139.652C210.593 138.548 209.698 137.654 208.595 137.654C207.492 137.654 206.598 138.548 206.598 139.652C206.598 140.755 207.492 141.649 208.595 141.649Z" fill="#104DA9"/>
<path d="M208.834 143.015H208.27V146.962H208.834V143.015Z" fill="#3F3D56"/>
<path d="M40.1622 215.438C40.1622 215.438 40.4073 210.302 45.432 210.899L40.1622 215.438Z" fill="#3F3D56"/>
<path d="M38.7425 210.55C40.1314 210.55 41.2573 209.424 41.2573 208.036C41.2573 206.647 40.1314 205.521 38.7425 205.521C37.3536 205.521 36.2277 206.647 36.2277 208.036C36.2277 209.424 37.3536 210.55 38.7425 210.55Z" fill="#104DA9"/>
<path d="M39.0432 212.27H38.3333V217.24H39.0432V212.27Z" fill="#3F3D56"/>
<path d="M284.714 214.018C284.714 214.018 284.96 208.882 289.984 209.479L284.714 214.018Z" fill="#3F3D56"/>
<path d="M283.295 209.131C284.684 209.131 285.81 208.005 285.81 206.616C285.81 205.227 284.684 204.101 283.295 204.101C281.906 204.101 280.78 205.227 280.78 206.616C280.78 208.005 281.906 209.131 283.295 209.131Z" fill="#104DA9"/>
<path d="M283.595 210.851H282.886V215.82H283.595V210.851Z" fill="#3F3D56"/>
<path d="M264.128 201.95C264.128 201.95 264.373 196.814 269.398 197.411L264.128 201.95Z" fill="#3F3D56"/>
<path d="M262.708 197.063C264.097 197.063 265.223 195.937 265.223 194.548C265.223 193.159 264.097 192.033 262.708 192.033C261.319 192.033 260.193 193.159 260.193 194.548C260.193 195.937 261.319 197.063 262.708 197.063Z" fill="#104DA9"/>
<path d="M263.009 198.783H262.299V203.752H263.009V198.783Z" fill="#3F3D56"/>
<path d="M261.289 220.052C261.289 220.052 261.534 214.916 266.558 215.513L261.289 220.052Z" fill="#3F3D56"/>
<path d="M259.869 215.165C261.258 215.165 262.384 214.039 262.384 212.65C262.384 211.261 261.258 210.135 259.869 210.135C258.48 210.135 257.354 211.261 257.354 212.65C257.354 214.039 258.48 215.165 259.869 215.165Z" fill="#104DA9"/>
<path d="M260.169 216.885H259.46V221.854H260.169V216.885Z" fill="#3F3D56"/>
<path d="M44.2481 223.885C44.2481 223.885 156.054 194.425 154.989 164.256C153.037 155.914 139.549 153.785 139.549 153.785C139.549 153.785 107.605 149.526 124.996 139.232C142.388 128.939 189.95 131.424 189.95 131.424C189.95 131.424 140.969 139.232 162.62 143.492C180.012 144.556 202.373 149.171 202.373 149.171C202.373 149.171 247.805 158.754 254.194 182.18C260.583 205.606 255.259 223.708 255.259 223.708L44.2481 223.885Z" fill="#D0D0D8"/>
<path d="M166.024 224L165.605 223.415C166.196 222.992 166.779 222.571 167.353 222.153L167.776 222.735C167.2 223.154 166.616 223.576 166.024 224Z" fill="white"/>
<path d="M171.242 220.161L170.808 219.588C171.97 218.708 173.115 217.822 174.21 216.956L174.657 217.52C173.557 218.389 172.408 219.278 171.242 220.161ZM178.012 214.802L177.553 214.249C178.678 213.314 179.778 212.375 180.822 211.457L181.297 211.998C180.248 212.92 179.142 213.863 178.012 214.802ZM184.498 209.095L184.005 208.57C185.079 207.563 186.114 206.555 187.082 205.573L187.594 206.078C186.62 207.066 185.578 208.081 184.498 209.095ZM190.561 202.93L190.026 202.449C191.012 201.351 191.945 200.25 192.798 199.179L193.361 199.627C192.499 200.709 191.557 201.821 190.561 202.93ZM195.939 196.144L195.345 195.739C196.181 194.513 196.936 193.29 197.587 192.103L198.218 192.449C197.555 193.656 196.788 194.9 195.939 196.144ZM200.075 188.514L199.406 188.251C199.927 186.935 200.336 185.577 200.627 184.191L201.332 184.335C201.032 185.762 200.612 187.16 200.075 188.514V188.514ZM201.036 179.991C201.014 178.593 200.82 177.203 200.457 175.853L201.152 175.665C201.53 177.073 201.732 178.522 201.755 179.979L201.036 179.991ZM198.884 171.97C198.2 170.736 197.399 169.572 196.49 168.494L197.041 168.033C197.98 169.147 198.809 170.349 199.514 171.624L198.884 171.97ZM193.517 165.458C192.448 164.517 191.329 163.635 190.163 162.816L190.578 162.228C191.765 163.062 192.906 163.961 193.994 164.92L193.517 165.458ZM186.558 160.501C185.382 159.809 184.112 159.119 182.787 158.45L183.11 157.807C184.45 158.484 185.733 159.181 186.923 159.88L186.558 160.501ZM178.899 156.611C177.647 156.055 176.313 155.495 174.935 154.947L175.201 154.279C176.588 154.83 177.93 155.394 179.191 155.954L178.899 156.611ZM170.901 153.418C169.62 152.953 168.25 152.476 166.83 152L167.058 151.318C168.484 151.796 169.859 152.275 171.147 152.741L170.901 153.418ZM162.726 150.668C161.472 150.272 160.123 149.856 158.6 149.395L158.809 148.706C160.334 149.168 161.686 149.585 162.942 149.981L162.726 150.668ZM154.461 148.152C153.006 147.717 151.619 147.301 150.32 146.901L150.531 146.214C151.829 146.614 153.214 147.029 154.667 147.463L154.461 148.152ZM146.195 145.567C144.811 145.111 143.458 144.566 142.143 143.937L142.467 143.294C143.752 143.909 145.076 144.441 146.43 144.887L146.195 145.567ZM140.763 140.852L140.25 140.348C140.906 139.681 142.203 139.029 144.215 138.354L144.444 139.036C142.568 139.666 141.329 140.277 140.763 140.852L140.763 140.852ZM148.559 137.865L148.385 137.166C149.629 136.857 151.046 136.532 152.597 136.203L152.747 136.907C151.204 137.234 149.795 137.557 148.559 137.865V137.865ZM156.964 136.06L156.829 135.353C158.155 135.1 159.582 134.837 161.072 134.573L161.198 135.281C159.711 135.545 158.287 135.807 156.964 136.06V136.06ZM165.441 134.551L165.322 133.841C166.678 133.614 168.096 133.382 169.578 133.144L169.691 133.854C168.211 134.092 166.795 134.324 165.441 134.551Z" fill="white"/>
<path d="M174.029 133.172L173.919 132.461C174.618 132.353 175.329 132.243 176.053 132.133L176.162 132.844C175.438 132.954 174.727 133.063 174.029 133.172Z" fill="white"/>
<path d="M189.949 60.1065L193.216 57.4931C190.678 57.2131 189.635 58.5975 189.208 59.6932C187.225 58.8697 185.066 59.9489 185.066 59.9489L191.604 62.3223C191.274 61.4413 190.7 60.6727 189.949 60.1065Z" fill="#3F3D56"/>
<path d="M129.254 80.338L132.522 77.7247C129.983 77.4447 128.941 78.829 128.514 79.9248C126.531 79.1013 124.372 80.1805 124.372 80.1805L130.909 82.5538C130.58 81.6729 130.005 80.9043 129.254 80.338Z" fill="#3F3D56"/>
<path d="M145.227 38.4554L148.494 35.842C145.956 35.562 144.913 36.9463 144.486 38.0421C142.503 37.2186 140.344 38.2978 140.344 38.2978L146.882 40.6711C146.552 39.7902 145.978 39.0216 145.227 38.4554Z" fill="#3F3D56"/>
<path opacity="0.1" d="M186.277 191C217.91 191 243.553 189.017 243.553 186.57C243.553 184.123 217.91 182.14 186.277 182.14C154.644 182.14 129 184.123 129 186.57C129 189.017 154.644 191 186.277 191Z" fill="black"/>
<path d="M231.801 101.338L230.054 99.5914C229.035 98.5726 227.654 98.0002 226.213 98.0002C224.772 98.0002 223.39 98.5726 222.371 99.5914L188.492 133.471L154.612 99.5914C153.593 98.5726 152.212 98.0002 150.771 98.0002C149.33 98.0002 147.948 98.5726 146.929 99.5914L145.183 101.338C144.678 101.843 144.278 102.441 144.005 103.101C143.732 103.76 143.592 104.466 143.592 105.179C143.592 105.893 143.732 106.599 144.005 107.258C144.278 107.918 144.678 108.516 145.183 109.021L179.062 142.9L145.183 176.78C144.678 177.285 144.278 177.883 144.005 178.542C143.732 179.202 143.592 179.908 143.592 180.621C143.592 181.335 143.732 182.041 144.005 182.7C144.278 183.359 144.678 183.958 145.183 184.463L146.929 186.209C147.948 187.228 149.33 187.801 150.771 187.801C152.212 187.801 153.593 187.228 154.612 186.209L188.492 152.33L222.371 186.209C223.39 187.228 224.772 187.801 226.213 187.801C227.654 187.801 229.035 187.228 230.054 186.209L231.801 184.463C232.82 183.444 233.392 182.062 233.392 180.621C233.392 179.181 232.82 177.799 231.801 176.78L197.921 142.9L231.801 109.021C232.82 108.002 233.392 106.62 233.392 105.179C233.392 103.739 232.82 102.357 231.801 101.338Z" fill="#FF6584"/>
<path opacity="0.1" d="M144.714 102.439C145.733 101.42 147.115 100.848 148.556 100.848C149.997 100.848 151.378 101.42 152.397 102.439L186.277 136.319L220.156 102.439C221.175 101.42 222.557 100.848 223.998 100.848C225.438 100.848 226.82 101.42 227.839 102.439L229.586 104.186C230.335 104.935 230.849 105.888 231.064 106.925C231.278 107.963 231.185 109.041 230.795 110.027L231.801 109.021C232.305 108.516 232.705 107.917 232.979 107.258C233.252 106.599 233.392 105.893 233.392 105.179C233.392 104.466 233.252 103.759 232.979 103.1C232.705 102.441 232.305 101.842 231.801 101.338L230.054 99.5912C229.035 98.5724 227.654 98 226.213 98C224.772 98 223.39 98.5724 222.371 99.5912L188.492 133.471L154.612 99.5912C153.593 98.5724 152.212 98 150.771 98C149.33 98 147.948 98.5724 146.929 99.5912L145.183 101.338C144.658 101.862 144.246 102.489 143.974 103.18L144.714 102.439Z" fill="black"/>
<path opacity="0.1" d="M198.238 143.217L195.706 145.748L229.586 179.628C230.335 180.377 230.849 181.33 231.064 182.368C231.278 183.405 231.185 184.483 230.795 185.469L231.801 184.463C232.305 183.958 232.706 183.359 232.979 182.7C233.252 182.041 233.392 181.335 233.392 180.621C233.392 179.908 233.252 179.201 232.979 178.542C232.706 177.883 232.305 177.284 231.801 176.78L198.238 143.217Z" fill="black"/>
<path d="M271.645 129.623C297.586 129.623 318.615 108.594 318.615 82.6529C318.615 56.7123 297.586 35.6832 271.645 35.6832C245.705 35.6832 224.676 56.7123 224.676 82.6529C224.676 108.594 245.705 129.623 271.645 129.623Z" fill="#104DA9"/>
<path opacity="0.2" d="M306.584 51.2809C310.966 61.5293 311.56 73.0018 308.261 83.6481C304.963 94.2944 297.986 103.421 288.577 109.397C279.169 115.372 267.942 117.808 256.904 116.269C245.865 114.729 235.733 109.314 228.319 100.992C230.995 107.254 235.001 112.858 240.059 117.418C245.116 121.977 251.104 125.383 257.609 127.398C264.113 129.414 270.978 129.991 277.727 129.09C284.477 128.189 290.95 125.832 296.698 122.181C302.445 118.53 307.331 113.673 311.015 107.947C314.7 102.22 317.095 95.7614 318.036 89.0172C318.976 82.2731 318.439 75.4051 316.462 68.8891C314.485 62.3732 311.114 56.365 306.584 51.2809Z" fill="black"/>
<path d="M271.774 82.6528H271.903L274.226 215.82H269.323L271.774 82.6528Z" fill="#3F3D56"/>
<path d="M280.327 155.188L279.245 153.133L271.481 157.221L272.563 159.276L280.327 155.188Z" fill="#3F3D56"/>
<path d="M180.747 154.814C180.747 154.814 177.917 154.814 177.602 156.544C177.288 158.273 176.816 177.141 177.131 179.499C177.445 181.857 177.445 181.386 177.445 181.386C177.445 181.386 176.818 185.867 178.232 186.064C179.646 186.26 179.646 180.914 179.646 180.914L180.747 161.732V154.814Z" fill="#9E616A"/>
<path d="M193.011 154.814C193.011 154.814 195.841 154.814 196.155 156.544C196.47 158.273 196.941 177.141 196.627 179.499C196.312 181.857 196.312 181.386 196.312 181.386C196.312 181.386 196.939 185.867 195.525 186.064C194.111 186.26 194.111 180.914 194.111 180.914L193.011 161.732V154.814Z" fill="#9E616A"/>
<path d="M180.275 220.536H179.017C178.646 220.536 178.278 220.609 177.934 220.751C177.591 220.893 177.279 221.102 177.016 221.364C176.753 221.627 176.545 221.939 176.403 222.283C176.26 222.626 176.187 222.994 176.187 223.366V223.366H183.891V219.749H180.275V220.536Z" fill="#2F2E41"/>
<path d="M192.382 220.536H193.639C194.39 220.536 195.11 220.834 195.641 221.364C196.171 221.895 196.47 222.615 196.47 223.366V223.366H188.765V219.749H192.382V220.536Z" fill="#2F2E41"/>
<path d="M185.621 151.198C187.878 151.198 189.709 149.368 189.709 147.11C189.709 144.852 187.878 143.022 185.621 143.022C183.363 143.022 181.533 144.852 181.533 147.11C181.533 149.368 183.363 151.198 185.621 151.198Z" fill="#9E616A"/>
<path d="M184.677 149.311C184.677 149.311 184.206 154.5 183.577 154.972C182.948 155.443 190.18 154.657 190.18 154.657C190.18 154.657 187.665 150.884 188.136 149.626C188.608 148.368 184.677 149.311 184.677 149.311Z" fill="#9E616A"/>
<path d="M193.954 154.814C193.954 154.814 185.306 151.198 179.646 154.814C179.646 154.814 178.231 158.43 179.332 160.474C180.432 162.518 182.162 167.392 180.432 170.694C178.703 173.996 180.589 172.581 180.589 172.581C180.589 172.581 178.388 181.386 178.074 188.304C177.759 195.222 179.017 220.064 179.961 220.221C180.904 220.378 183.891 220.693 184.206 220.221C184.52 219.749 186.721 186.889 186.721 186.889C186.721 186.889 187.665 220.536 188.608 220.536C189.552 220.536 192.067 220.536 192.539 219.749C193.011 218.963 196.941 188.618 195.526 182.329C194.111 176.04 193.168 172.895 193.168 172.895C193.168 172.895 194.897 171.795 194.426 171.166C193.954 170.537 191.595 163.776 192.696 162.676C193.797 161.575 193.954 154.814 193.954 154.814Z" fill="#2F2E41"/>
<path d="M188.215 151.25C191.862 151.25 194.819 148.293 194.819 144.646C194.819 140.999 191.862 138.043 188.215 138.043C184.568 138.043 181.612 140.999 181.612 144.646C181.612 148.293 184.568 151.25 188.215 151.25Z" fill="#2F2E41"/>
<path d="M192.339 141.34C191.226 141.079 190.256 140.399 189.632 139.442C189.007 138.485 188.774 137.324 188.982 136.2C188.963 136.267 188.945 136.336 188.929 136.405C188.66 137.553 188.858 138.761 189.479 139.764C190.1 140.766 191.094 141.48 192.242 141.75C193.39 142.02 194.599 141.823 195.601 141.202C196.604 140.581 197.319 139.588 197.59 138.44C197.606 138.371 197.62 138.302 197.633 138.232C197.319 139.332 196.594 140.268 195.608 140.846C194.622 141.425 193.451 141.602 192.339 141.34Z" fill="#2F2E41"/>
<path d="M192.607 142.201C194.392 142.201 195.839 140.754 195.839 138.969C195.839 137.185 194.392 135.738 192.607 135.738C190.823 135.738 189.376 137.185 189.376 138.969C189.376 140.754 190.823 142.201 192.607 142.201Z" fill="#2F2E41"/>
</g>
<defs>
<clipPath id="clip0_105_3721">
<rect width="318.615" height="224" fill="white"/>
</clipPath>
</defs>
</svg>
