<svg width="320" height="191" viewBox="0 0 320 191" fill="none" xmlns="http://www.w3.org/2000/svg">
<g clip-path="url(#clip0_501_29674)">
<path fill-rule="evenodd" clip-rule="evenodd" d="M96.2408 0.00146484L96.3776 190.669L34.0259 167.058L34.4168 12.5248L96.2408 0.00146484ZM35.1193 13.1008L34.7311 166.572L95.6729 189.65L95.5375 0.862241L35.1193 13.1008Z" fill="#B7BBCE"/>
<path fill-rule="evenodd" clip-rule="evenodd" d="M48.6744 15.5397L79.3358 9.46655L78.9322 180.665L48.4819 169.565L48.6744 15.5397Z" fill="white"/>
<path fill-rule="evenodd" clip-rule="evenodd" d="M79.6889 9.03784L79.283 181.167L48.1296 169.811L48.3227 15.2506L79.6889 9.03784ZM49.026 15.8289L48.8343 169.319L78.5814 180.162L78.9828 9.89536L49.026 15.8289Z" fill="#B7BBCE"/>
<path fill-rule="evenodd" clip-rule="evenodd" d="M118.098 178.759H178.116V179.463H118.098V178.759Z" fill="#B7BBCE"/>
<path fill-rule="evenodd" clip-rule="evenodd" d="M267.172 178.759H311.524V179.463H267.172V178.759Z" fill="#B7BBCE"/>
<path fill-rule="evenodd" clip-rule="evenodd" d="M96.1003 189.531H318.024V190.234H96.1003V189.531Z" fill="#B7BBCE"/>
<path fill-rule="evenodd" clip-rule="evenodd" d="M95.4998 0.140869H320V0.844867H95.4998V0.140869Z" fill="#B7BBCE"/>
<path fill-rule="evenodd" clip-rule="evenodd" d="M152.655 103.938H286.842V104.642H152.655V103.938Z" fill="#B7BBCE"/>
<path d="M175.389 53.6587L163.966 53.0251L166.89 44.6945L177.816 43.7371L175.389 53.6587Z" fill="white"/>
<path fill-rule="evenodd" clip-rule="evenodd" d="M177.969 43.606L175.48 53.7814L163.803 53.1337L166.804 44.5843L177.969 43.606ZM166.975 44.8049L164.128 52.9167L175.299 53.5363L177.663 43.8683L166.975 44.8049Z" fill="#B7BBCE"/>
<path d="M174.437 52.0725H165.552L167.458 45.7225L176.342 45.0889L174.437 52.0725Z" fill="#074C9C"/>
<path d="M143.292 53.5696L155.494 65.8192C155.494 65.8192 155.964 62.5855 156.649 59.1077C157.428 55.1794 158.493 50.9319 159.498 50.6597C161.375 50.1904 165.623 49.4676 165.205 50.4345C164.787 51.4013 162.858 51.8425 162.858 51.8425C162.858 51.8425 164.107 55.1747 161.539 55.5971C161.539 55.5971 161.713 56.9159 161.91 58.9341C162.52 65.0823 163.393 77.7073 160.502 79.2655C156.63 81.3118 145.596 77.4633 145.596 77.4633L143.292 53.5696Z" fill="#DBDBDC"/>
<path d="M179.797 136.928L154.274 146.784L152.589 163.722L167.167 171.217L166.195 164.834L179.797 136.928Z" fill="#4175BA"/>
<path d="M153.373 155.861L152.589 163.722L167.167 171.217L166.195 164.834L170.03 156.964L153.373 155.861Z" fill="#DBDBDC"/>
<path d="M160.488 132.558H138.641V179.149H155.513L151.552 173.789C151.552 173.789 159.634 143.803 160.469 132.558" fill="#6693CD"/>
<path d="M146.418 36.533L142.888 46.6142L147.361 48.3554C147.514 48.4157 147.679 48.4397 147.844 48.4253C148.008 48.411 148.166 48.3588 148.307 48.2729C148.447 48.1869 148.566 48.0695 148.654 47.9299C148.741 47.7903 148.795 47.6324 148.811 47.4684C149.074 44.8448 149.281 39.1753 146.418 36.533Z" fill="#1F3563"/>
<path d="M144.39 44.1032L145.024 43.9858C145.024 43.9858 144.268 43.1457 144.756 39.1939C145.244 35.2422 139.532 34.1533 136.425 37.5888C131.835 42.6623 134.966 54.7382 134.966 54.7382H143.508C143.508 54.7382 142.001 49.6694 142.001 47.9517C142.001 47.9517 139.837 48.2849 138.716 47.0599C144.756 48.5712 144.39 44.1032 144.39 44.1032Z" fill="#4071B7"/>
<path fill-rule="evenodd" clip-rule="evenodd" d="M142.592 42.1931C142.376 42.1931 142.168 42.2787 142.014 42.4314L141.941 42.3581C142.114 42.1863 142.348 42.0898 142.592 42.0898C142.836 42.0898 143.07 42.1863 143.244 42.3581L143.171 42.4314C143.017 42.2787 142.809 42.1931 142.592 42.1931Z" fill="white"/>
<path d="M143.503 44.6616C143.423 44.7431 143.327 44.8077 143.221 44.8519C143.116 44.896 143.003 44.9188 142.888 44.9188C142.774 44.9188 142.661 44.896 142.555 44.8519C142.45 44.8077 142.354 44.7431 142.273 44.6616H143.503Z" fill="#1F3563"/>
<path fill-rule="evenodd" clip-rule="evenodd" d="M142.15 44.6101H143.626L143.54 44.698C143.455 44.7843 143.353 44.8528 143.241 44.8996C143.129 44.9464 143.009 44.9705 142.888 44.9705C142.767 44.9705 142.647 44.9464 142.535 44.8996C142.423 44.8529 142.322 44.7843 142.237 44.698L142.15 44.6101ZM142.413 44.7134C142.463 44.7497 142.517 44.7803 142.575 44.8044C142.674 44.8459 142.781 44.8673 142.888 44.8673C142.996 44.8673 143.102 44.8459 143.201 44.8044C143.259 44.7803 143.313 44.7497 143.364 44.7134H142.413Z" fill="#1F3563"/>
<path d="M141.607 38.7952C141.607 38.6309 141.607 40.5739 144.596 41.9209C147.586 43.2679 148.947 40.358 147.075 37.3918C145.202 34.4257 140.973 33.1679 138.326 34.0596C135.679 34.9513 131.361 37.5984 133.924 46.0651L136.768 44.0517C136.768 44.0517 135.449 42.2494 136.904 41.705C137.075 41.6196 137.264 41.5771 137.455 41.581C137.646 41.585 137.833 41.6353 138 41.7277C138.168 41.82 138.31 41.9517 138.415 42.1113C138.52 42.2709 138.584 42.4536 138.603 42.6437C138.603 42.6437 141.452 40.9775 141.607 38.8092" fill="#0B4B9B"/>
<path d="M136.754 50.5753C128.982 51.8237 132.567 76.3275 132.567 76.3275H154.054C152.669 57.4463 144.545 49.3269 136.773 50.5753" fill="white"/>
<path d="M154.054 76.3416H132.568L133.924 149.44C133.924 149.44 149.675 158.601 188.404 142.569L154.054 76.3416Z" fill="white"/>
<path d="M154.053 76.3416L135.196 60.7129C135.196 60.7129 131.441 79.6598 160.756 89.2483L154.053 76.3416Z" fill="#DBDBDC"/>
<path d="M172.93 51.5562C172.968 51.4129 173.037 51.2798 173.132 51.1665C173.227 51.0531 173.347 50.9624 173.482 50.9009C173.616 50.8394 173.763 50.8085 173.911 50.8107C174.059 50.8128 174.205 50.8478 174.338 50.9132C174.338 50.9132 175.962 48.2427 176.83 48.4163C177.698 48.59 179.426 52.6685 177.037 56.8408L172.357 54.283C172.51 53.3661 172.709 52.4576 172.953 51.5608" fill="#4071B7"/>
<path d="M137.195 55.4093C137.195 55.4093 131.835 73.0562 148.83 81.584C165.824 90.1118 176.112 62.9281 177.412 57.6481L171.888 54.4144L156.776 68.4943C156.776 68.4943 143.048 42.6388 137.181 55.4187" fill="white"/>
<path d="M138.641 169.903V179.149H155.513L151.552 173.789C151.552 173.789 152.247 171.208 153.251 167.275L138.641 169.903Z" fill="#DBDBDC"/>
<path fill-rule="evenodd" clip-rule="evenodd" d="M145.921 53.9588C145.733 53.811 145.584 53.7192 145.476 53.68L145.557 53.4595C145.7 53.5118 145.873 53.6227 146.066 53.7744C146.26 53.9276 146.484 54.1287 146.729 54.3693C147.221 54.8506 147.809 55.4953 148.451 56.2437C149.734 57.7406 151.238 59.6584 152.626 61.5277C154.014 63.3969 155.287 65.22 156.11 66.5277C156.52 67.18 156.822 67.71 156.968 68.0548C156.98 68.0834 156.991 68.111 157.002 68.1375L162.786 63.1119L162.94 63.289L157.07 68.389C157.073 68.4189 157.072 68.4482 157.068 68.4756C157.062 68.5066 157.05 68.5418 157.024 68.5722C156.996 68.604 156.96 68.6223 156.922 68.6292C156.856 68.6414 156.787 68.6181 156.73 68.5913L156.568 68.5146L156.811 68.303C156.797 68.2589 156.778 68.2067 156.752 68.1465C156.614 67.8206 156.321 67.3046 155.911 66.6527C155.093 65.3521 153.824 63.5344 152.438 61.6676C151.052 59.8011 149.551 57.8879 148.272 56.3964C147.633 55.6505 147.05 55.0115 146.565 54.537C146.323 54.2997 146.106 54.1049 145.921 53.9588Z" fill="white"/>
<path d="M161.844 58.216C161.685 56.6109 161.558 55.6018 161.558 55.6018C164.031 55.1794 162.83 51.8049 162.83 51.8049C162.83 51.8049 164.707 51.3825 165.106 50.3969C165.505 49.4113 161.427 50.1294 159.601 50.6222C158.709 50.8662 157.761 54.5693 157.034 58.2723L161.844 58.216Z" fill="#4071B7"/>
<path d="M247.282 107.951L228.006 105.44C228.006 105.44 198.063 109.054 212.016 150.158L224.603 151.81L225.256 126.386C225.256 126.386 248.333 130.747 247.282 107.97" fill="#1F3563"/>
<path d="M240.364 83.2173C240.364 83.2173 242.283 100.517 231.015 102.929C219.746 105.342 218.216 104.187 218.216 104.187C218.216 104.187 213.523 105.229 211.889 103.131C211.889 103.131 210.181 103.807 210.251 102.784C210.322 101.761 215.048 99.9349 228.471 95.4105L233.023 83.8743L240.364 83.2173Z" fill="#DBDBDC"/>
<path d="M242.612 76.9941C239.28 75.6988 234.774 79.2844 232.545 85.0103L244.611 89.7036C246.841 83.9778 245.944 78.2848 242.612 76.9894" fill="#DBDBDC"/>
<path d="M218.544 117.413L236.262 109.289L241.101 81.9267C241.101 81.9267 239.777 69.6866 248.427 73.7463C257.077 77.806 263.746 113.555 249.267 122.026C234.788 130.498 208.66 123.237 218.544 117.413Z" fill="#4175BA"/>
<path fill-rule="evenodd" clip-rule="evenodd" d="M233.375 165.975V125.884H234.079V165.975H233.375Z" fill="#B7BBCE"/>
<path d="M215.212 159.136L213.527 149.013L223.228 148.783L222.769 161.15L213.969 161.352L215.212 159.136Z" fill="#1F3563"/>
<path d="M225.983 158.456L223.106 148.605L232.709 147.225L233.727 159.554L225.017 160.807L225.983 158.456Z" fill="#0B4B9B"/>
<path d="M235.079 69.9025L234.544 69.8039C234.544 69.8039 235.182 69.0905 234.774 65.7348C234.366 62.3791 239.2 61.4639 241.814 64.3738C245.709 68.6822 245.001 78.8527 245.001 78.8527L237.111 79.7913C237.111 79.7913 237.111 74.6287 237.111 73.1503C237.111 73.1503 238.946 73.4319 239.899 72.3946C234.779 73.6759 235.084 69.8884 235.084 69.8884" fill="#4071B7"/>
<path fill-rule="evenodd" clip-rule="evenodd" d="M236.097 68.2852C236.28 68.1048 236.526 68.0037 236.783 68.0037C237.039 68.0037 237.286 68.1048 237.469 68.2852L237.139 68.6191C237.044 68.5255 236.916 68.473 236.783 68.473C236.649 68.473 236.522 68.5255 236.427 68.6191L236.097 68.2852Z" fill="#D2D2D2"/>
<path d="M236.008 70.3765C236.148 70.5138 236.336 70.5907 236.532 70.5907C236.727 70.5907 236.915 70.5138 237.055 70.3765H236.008Z" fill="#0B4B9B"/>
<path fill-rule="evenodd" clip-rule="evenodd" d="M241.002 166.327H199.982V165.623H241.002V166.327Z" fill="#B7BBCE"/>
<path d="M242.081 75.4031C230.94 76.6797 231.353 103.399 231.353 103.399H250.797C249.328 82.9124 250.332 74.4644 242.081 75.4031Z" fill="white"/>
<path d="M250.797 103.408H231.353C231.353 103.408 202.132 110.894 221.323 149.83H233.995L231.329 124.537C231.329 124.537 254.796 125.856 250.774 103.417" fill="#0B4B9B"/>
<path d="M245.77 72.9202L236.783 75.8723C236.783 75.8723 236.548 79.8897 236.534 79.9789L247.329 78.1016L245.77 72.9202Z" fill="#DBDBDC"/>
<path d="M244.907 75.6658C248.469 75.3561 251.787 80.0635 252.322 86.1836L239.425 87.31C238.89 81.2086 241.345 75.9756 244.907 75.6658Z" fill="white"/>
<path d="M238.064 66.5372C238.097 66.4527 238.533 67.6823 239.509 67.8888L240.002 68.682C240.002 68.682 240.002 67.2412 241.091 67.3022C242.18 67.3632 242.067 68.8603 241.626 69.095L244.62 70.1979C244.62 70.1979 244.804 63.4161 240.8 62.9749C240.8 62.9749 235.919 61.0037 234.229 63.7118C232.54 66.4198 235.098 67.6542 235.098 67.6542C235.113 67.2882 235.078 66.9219 234.995 66.5653C236.053 67.4509 237.371 67.9696 238.749 68.0437C238.749 68.0437 237.81 67.3022 238.064 66.5372Z" fill="#1F3563"/>
<path d="M244.893 99.3624L231.963 95.3543C231.963 95.3543 236.473 97.6118 237.979 89.3375C238.871 84.4376 245.555 87.5587 245.555 87.5587L244.893 99.3624Z" fill="#DBDBDC"/>
<path d="M230.714 102.563L250.605 100.85C250.605 100.85 258.048 122.073 233.404 125.851C233.404 125.851 229.386 125.706 221.811 123.345C212.514 120.459 209.838 114.357 209.838 114.357C216.49 109.911 223.468 105.975 230.714 102.582" fill="white"/>
<path d="M242.8 96.781L249.952 98.3298C249.952 98.3298 250.229 105.398 242.757 106.247C230.452 107.655 227.232 98.6114 227.232 98.6114L242.8 96.781Z" fill="#DBDBDC"/>
<path d="M252.238 85.4092C253.324 89.0736 253.003 93.0116 251.336 96.4513C249.67 99.891 246.78 102.584 243.231 104.004C239.682 105.423 235.731 105.466 232.153 104.124C228.574 102.781 225.626 100.151 223.885 96.7482C223.885 96.7482 222.379 97.4006 220.741 95.3074C220.741 95.3074 219.037 95.9785 219.103 94.9554C219.169 93.9322 221.656 90.8487 240.073 95.7016L239.355 85.9161L252.238 85.4092Z" fill="white"/>
<path fill-rule="evenodd" clip-rule="evenodd" d="M222.729 93.3661C219.816 93.6558 219.358 94.6553 219.337 94.9797C219.331 95.0772 219.347 95.1352 219.364 95.1693C219.38 95.2015 219.405 95.2263 219.443 95.2468C219.53 95.294 219.679 95.3116 219.875 95.2926C220.062 95.2744 220.257 95.2265 220.409 95.1814C220.484 95.1591 220.546 95.138 220.589 95.1226C220.611 95.1149 220.628 95.1087 220.639 95.1045L220.651 95.0998L220.654 95.0988L220.655 95.0986L220.818 95.0338L220.926 95.1723C221.714 96.1815 222.45 96.5055 222.966 96.5925C223.227 96.6365 223.44 96.6212 223.585 96.5962C223.657 96.5838 223.712 96.5688 223.748 96.5577C223.765 96.5522 223.778 96.5476 223.786 96.5448L223.793 96.542C223.793 96.5418 223.793 96.5417 223.793 96.5418L223.793 96.542L223.792 96.5422C223.792 96.5423 223.792 96.5425 223.885 96.7576C223.979 96.9727 223.979 96.9728 223.979 96.9728L223.978 96.9734L223.976 96.9743L223.969 96.9768C223.965 96.9787 223.958 96.9812 223.951 96.9841C223.935 96.9899 223.914 96.9974 223.888 97.0057C223.834 97.0224 223.759 97.0424 223.664 97.0587C223.475 97.0914 223.209 97.1093 222.888 97.0553C222.269 96.9508 221.475 96.5825 220.662 95.5937C220.627 95.6054 220.587 95.6181 220.543 95.6312C220.377 95.6806 220.15 95.7375 219.92 95.7598C219.698 95.7812 219.433 95.7751 219.22 95.6599C219.107 95.5992 219.009 95.5083 218.945 95.3807C218.882 95.255 218.859 95.1093 218.869 94.9498C218.914 94.2464 219.732 93.1925 222.683 92.8991C225.658 92.6033 230.916 93.0555 240.133 95.4841L240.013 95.9379C230.813 93.5136 225.619 93.0787 222.729 93.3661Z" fill="white"/>
<path d="M223.852 93.0593C219.628 93.1391 218.807 94.4251 218.77 95.0258C218.699 96.0818 220.459 95.3872 220.459 95.3872C222.149 97.5508 223.702 96.875 223.702 96.875L223.852 93.0593Z" fill="#4071B7"/>
<path d="M215.536 100.278C211.03 101.08 210.34 102.624 210.401 103.258C210.509 104.408 212.279 103.361 212.279 103.361C214.466 105.398 216.033 104.408 216.033 104.408L215.536 100.278Z" fill="#4071B7"/>
<path d="M196.331 103.596L198.241 101.859H217.165L218.573 104.731L191.398 104.68C191.311 104.645 191.236 104.585 191.183 104.507C191.13 104.429 191.102 104.337 191.102 104.243C191.102 104.149 191.13 104.057 191.183 103.979C191.236 103.902 191.311 103.841 191.398 103.807L196.331 103.596Z" fill="#B7BBCE"/>
<path d="M208.064 100.127L177.919 99.6345L173.395 79.8521L204.549 79.1106L208.064 100.127Z" fill="#B7BBCE"/>
<path d="M195.125 103.755H190.554L188.151 93.7773H192.717L195.125 103.755Z" fill="#B7BBCE"/>
<path fill-rule="evenodd" clip-rule="evenodd" d="M187.853 93.5427H192.902L195.423 103.99H190.369L187.853 93.5427ZM188.448 94.0121L190.738 103.521H194.827L192.532 94.0121H188.448Z" fill="white"/>
<path d="M269.157 65.6549C269.157 65.6549 268.951 64.9697 270.598 64.8336C272.245 64.6975 274.034 67.0911 274.034 67.0911L272.658 70.6768C267.369 70.1324 265.032 67.8608 263.741 65.6549C262.45 63.4491 269.171 65.6549 269.171 65.6549" fill="#4071B7"/>
<path d="M273.377 65.932L282.927 68.4663L295.646 67.645L301.067 63.8293C301.067 63.8293 305.239 74.5958 298.777 80.8614C292.314 87.127 270.791 69.8509 270.791 69.8509L273.377 65.932Z" fill="#DBDBDC"/>
<path d="M290.629 141.396L307.056 138.908L314.837 175.962L299.124 179.125L301.626 172.925C301.626 172.925 291.615 147.347 290.643 141.4" fill="#4175BA"/>
<path d="M280.426 174.235L277.924 144.578L295.022 143.123C296.064 145.408 292.037 179.125 292.037 179.125H276.676L280.426 174.235Z" fill="#6693CD"/>
<path d="M284.415 44.6195L283.786 44.5068C283.786 44.5068 284.537 43.6714 284.054 39.729C283.57 35.7866 289.282 34.7072 292.394 38.1286C296.989 43.188 293.849 55.2123 293.849 55.2123H285.302C285.302 55.2123 286.809 50.167 286.809 48.4539C286.809 48.4539 288.977 48.7871 290.094 47.5669C284.049 49.0687 284.411 44.6195 284.411 44.6195" fill="#4071B7"/>
<path d="M286.832 42.9205C286.669 42.7583 286.448 42.6672 286.217 42.6672C285.987 42.6672 285.766 42.7583 285.603 42.9205H286.832Z" fill="white"/>
<path d="M285.307 45.178C285.47 45.3402 285.691 45.4312 285.922 45.4312C286.152 45.4312 286.373 45.3402 286.537 45.178H285.307Z" fill="#1F3563"/>
<path d="M292.976 51.068C300.757 52.3118 297.167 76.7123 297.167 76.7123H275.672C277.08 57.9109 285.194 49.8243 292.976 51.068Z" fill="white"/>
<path d="M275.672 76.7124C278.018 64.1108 286.832 71.01 286.832 71.01L297.158 76.7124L309.459 141.621C309.459 141.621 300.34 147.53 275.667 147.53C275.667 147.53 273.32 89.3327 275.667 76.7124" fill="white"/>
<path d="M292.277 62.2617C292.277 62.2617 290.122 80.514 285.016 82.3773C279.91 84.2405 275.672 80.8191 275.672 80.8191L275.362 78.8714L292.277 62.2617Z" fill="#DBDBDC"/>
<path d="M289.864 43.1645C289.864 43.1645 290.071 41.4514 291.375 42.024C292.68 42.5966 291.582 44.4599 290.62 44.4599C290.876 45.8814 291.295 47.2687 291.868 48.5947C293.918 53.0357 294.883 57.9001 294.684 62.7873C294.572 65.1903 294.313 67.4571 293.811 68.9402C293.765 69.0778 293.754 69.2248 293.779 69.3678C293.804 69.5108 293.865 69.6451 293.956 69.7586C294.046 69.872 294.164 69.961 294.298 70.0172C294.432 70.0735 294.577 70.0953 294.722 70.0807C295.955 69.9691 297.149 69.5878 298.218 68.9638C299.288 68.3398 300.207 67.4883 300.911 66.4696C301.615 65.4509 302.086 64.2899 302.292 63.0688C302.497 61.8477 302.431 60.5964 302.1 59.4034C300.401 53.3443 298.345 46.0227 297.345 42.3338C295.468 35.3877 290.986 32.7453 285.612 35.1295C280.238 37.5138 282.261 42.2118 284.204 42.4417C284.245 41.9133 284.235 41.3821 284.176 40.8554C284.176 40.8554 286.053 42.4887 289.859 43.1645" fill="#6693CD"/>
<path d="M261.864 72.8263C257.138 70.4515 255.659 67.4665 255.101 64.9368C254.542 62.4071 260.123 66.8376 260.123 66.8376L261.864 72.8263Z" fill="#4071B7"/>
<path d="M293.347 62.4212C293.76 61.5526 293.862 60.5682 293.636 59.6333C293.409 58.6983 292.868 57.8698 292.103 57.2867C289.376 55.1981 285.063 52.8656 282.148 56.0852C277.615 61.1023 272.921 70.5406 272.921 70.5406L260.123 66.3917L257.978 70.6626C257.978 70.6626 270.443 82.3584 278.469 80.7016C284.57 79.4438 290.747 67.903 293.37 62.3977" fill="white"/>
<path fill-rule="evenodd" clip-rule="evenodd" d="M260.836 51.5422H264.492V55.8085C265.796 56.2426 266.903 57.1266 267.614 58.3022C268.326 59.4779 268.596 60.8684 268.376 62.225C268.156 63.5815 267.461 64.8155 266.414 65.7062C265.368 66.5968 264.038 67.0859 262.664 67.0859C261.29 67.0859 259.96 66.5968 258.914 65.7062C257.867 64.8155 257.172 63.5815 256.952 62.225C256.732 60.8684 257.002 59.4779 257.714 58.3022C258.425 57.1266 259.532 56.2426 260.836 55.8085V51.5422Z" fill="white"/>
<path fill-rule="evenodd" clip-rule="evenodd" d="M260.601 51.3074H264.727V55.6416C266.014 56.1108 267.104 57.0057 267.815 58.1805C268.556 59.4038 268.837 60.8507 268.608 62.2623C268.379 63.6739 267.656 64.958 266.566 65.8847C265.477 66.8114 264.094 67.3203 262.664 67.3203C261.234 67.3203 259.851 66.8114 258.762 65.8847C257.673 64.958 256.949 63.6739 256.72 62.2623C256.491 60.8507 256.772 59.4038 257.513 58.1805C258.224 57.0057 259.314 56.1108 260.601 55.6416V51.3074ZM261.071 51.7767V55.9775L260.91 56.0309C259.659 56.4474 258.597 57.2956 257.914 58.4235C257.232 59.5515 256.972 60.8857 257.183 62.1872C257.394 63.4888 258.062 64.6728 259.066 65.5273C260.07 66.3818 261.346 66.851 262.664 66.851C263.983 66.851 265.258 66.3818 266.262 65.5273C267.266 64.6728 267.934 63.4888 268.145 62.1872C268.356 60.8857 268.097 59.5515 267.414 58.4235C266.731 57.2956 265.669 56.4474 264.418 56.0309L264.257 55.9775V51.7767H261.071Z" fill="#B7BBCE"/>
<path fill-rule="evenodd" clip-rule="evenodd" d="M266.163 58.6665C266.674 59.3158 266.992 60.0958 267.081 60.9174C267.169 61.7389 267.025 62.5689 266.664 63.3122C266.303 64.0556 265.741 64.6824 265.04 65.121C264.34 65.5595 263.53 65.7921 262.704 65.7921C261.878 65.7921 261.068 65.5595 260.368 65.121C259.667 64.6824 259.104 64.0556 258.743 63.3122C258.383 62.5689 258.238 61.7389 258.327 60.9174C258.416 60.0958 258.734 59.3158 259.245 58.6665H266.163Z" fill="#4175BA"/>
<path fill-rule="evenodd" clip-rule="evenodd" d="M93.3221 139.931C111.452 126.753 122.468 110.542 122.139 89.483L93.3221 79.8335L64.3737 89.6003C63.6979 111.908 75.8864 127.325 93.3221 139.931Z" fill="#0B4B9B"/>
<path fill-rule="evenodd" clip-rule="evenodd" d="M109.42 90.9473H76.4682C75.4813 90.9546 74.5371 91.3503 73.8397 92.0486C73.1423 92.7468 72.7478 93.6916 72.7417 94.6785V121.825C72.7478 122.811 73.1423 123.756 73.8397 124.455C74.5371 125.153 75.4813 125.548 76.4682 125.556H109.42C110.412 125.556 111.363 125.163 112.067 124.464C112.77 123.765 113.168 122.816 113.175 121.825V94.6785C113.168 93.6867 112.77 92.7377 112.067 92.0387C111.363 91.3396 110.412 90.9472 109.42 90.9473Z" fill="#6693CD"/>
<path fill-rule="evenodd" clip-rule="evenodd" d="M76.4682 90.8135H109.42C110.447 90.8135 111.432 91.2198 112.161 91.9438C112.889 92.6677 113.302 93.6505 113.308 94.6776L113.308 94.6784V121.825L113.308 121.825C113.302 122.852 112.889 123.835 112.161 124.559C111.432 125.283 110.447 125.69 109.42 125.69H76.4682L76.4672 125.69C75.4452 125.682 74.4672 125.272 73.745 124.549C73.0228 123.826 72.6143 122.847 72.6079 121.825L72.6079 121.825V94.6776C72.6143 93.6556 73.0228 92.6771 73.745 91.954C74.4672 91.2309 75.4452 90.8211 76.4672 90.8135L76.4682 90.8135ZM76.4687 91.081C75.5172 91.0882 74.6067 91.4698 73.9343 92.143C73.2618 92.8163 72.8815 93.7273 72.8754 94.6789V121.824C72.8815 122.776 73.2618 123.687 73.9343 124.36C74.6066 125.033 75.5169 125.415 76.4682 125.422H109.42C110.376 125.422 111.294 125.044 111.972 124.369C112.651 123.695 113.035 122.781 113.041 121.824C113.041 121.824 113.041 121.824 113.041 121.824V94.6793C113.041 94.6791 113.041 94.6789 113.041 94.6787C113.035 93.7225 112.651 92.8075 111.972 92.1335C111.294 91.4594 110.376 91.081 109.42 91.081H76.4687Z" fill="#6693CD"/>
<path fill-rule="evenodd" clip-rule="evenodd" d="M83.5526 76.6369C86.021 74.1685 89.3689 72.7817 92.8598 72.7817C96.3507 72.7817 99.6986 74.1685 102.167 76.6369C104.525 78.9945 105.896 82.1544 106.014 85.4748H106.097V91.1068H105.159V86.4135H105.084V85.9442C105.084 82.7022 103.796 79.5931 101.503 77.3007C99.2109 75.0083 96.1018 73.7204 92.8598 73.7204C89.6179 73.7204 86.5087 75.0083 84.2163 77.3007C81.9239 79.5931 80.6361 82.7022 80.6361 85.9442V86.4135H80.6032V91.1068H79.6646V85.4748H79.7058C79.8241 82.1544 81.195 78.9945 83.5526 76.6369Z" fill="#6693CD"/>
<path fill-rule="evenodd" clip-rule="evenodd" d="M92.2003 109.007V114.583C92.2003 114.85 92.3067 115.107 92.4959 115.296C92.6851 115.485 92.9418 115.592 93.2094 115.592C93.477 115.592 93.7337 115.485 93.9229 115.296C94.1122 115.107 94.2185 114.85 94.2185 114.583V109.007C95.1197 108.762 95.9014 108.199 96.4183 107.421C96.9352 106.644 97.1522 105.705 97.0289 104.779C96.9055 103.854 96.4503 103.004 95.7477 102.389C95.0452 101.774 94.1432 101.435 93.2094 101.435C92.2756 101.435 91.3736 101.774 90.6711 102.389C89.9686 103.004 89.5133 103.854 89.39 104.779C89.2666 105.705 89.4836 106.644 90.0005 107.421C90.5174 108.199 91.2992 108.762 92.2003 109.007Z" fill="white"/>
<path fill-rule="evenodd" clip-rule="evenodd" d="M90.5166 102.213C91.2619 101.56 92.2188 101.2 93.2095 101.2C94.2001 101.2 95.157 101.56 95.9024 102.213C96.6477 102.865 97.1307 103.766 97.2615 104.748C97.3924 105.73 97.1622 106.726 96.6138 107.551C96.0988 108.326 95.336 108.9 94.4532 109.182V114.583C94.4532 114.913 94.3222 115.229 94.0889 115.462C93.8557 115.695 93.5393 115.826 93.2095 115.826C92.8796 115.826 92.5633 115.695 92.33 115.462C92.0968 115.229 91.9657 114.913 91.9657 114.583V109.182C91.0829 108.9 90.3202 108.326 89.8051 107.551C89.2567 106.726 89.0266 105.73 89.1574 104.748C89.2883 103.766 89.7713 102.865 90.5166 102.213ZM92.2004 109.007H92.4351V114.583C92.4351 114.788 92.5167 114.985 92.6619 115.13C92.8071 115.276 93.0041 115.357 93.2095 115.357C93.4148 115.357 93.6118 115.276 93.7571 115.13C93.9023 114.985 93.9839 114.788 93.9839 114.583V108.828L94.1571 108.781C95.0034 108.551 95.7375 108.022 96.2229 107.292C96.7084 106.561 96.9121 105.68 96.7963 104.81C96.6805 103.941 96.2529 103.144 95.5932 102.566C94.9334 101.988 94.0864 101.67 93.2095 101.67C92.3326 101.67 91.4855 101.988 90.8257 102.566C90.166 103.144 89.7385 103.941 89.6226 104.81C89.5068 105.68 89.7105 106.561 90.196 107.292C90.6814 108.022 91.4156 108.551 92.2619 108.781L92.2004 109.007Z" fill="white"/>
<path d="M64.5143 47.5951C64.167 44.7228 62.2005 42.7891 60.1213 43.2725C58.0422 43.756 56.6436 46.4781 56.9909 49.3457C57.2631 51.5844 58.5256 53.2552 60.0509 53.6495C60.4889 53.8516 60.9816 53.9022 61.4515 53.7935C61.9214 53.6847 62.3418 53.4227 62.6463 53.0487C63.9933 51.9834 64.7865 49.8338 64.5237 47.5951" fill="#6693CD"/>
<path fill-rule="evenodd" clip-rule="evenodd" d="M59.4878 45.7551C59.5882 45.7599 59.6831 45.8029 59.7529 45.8753C59.8227 45.9478 59.8621 46.0441 59.8632 46.1447V46.8862C59.8639 46.9345 59.8547 46.9823 59.8362 47.0269C59.8176 47.0714 59.7901 47.1116 59.7553 47.1451C59.7205 47.1785 59.6793 47.2045 59.634 47.2213C59.5888 47.2381 59.5406 47.2455 59.4924 47.2429C59.3924 47.2371 59.2982 47.1937 59.2286 47.1215C59.159 47.0493 59.1192 46.9536 59.117 46.8534V46.1118C59.1163 46.0636 59.1255 46.0157 59.144 45.9712C59.1626 45.9267 59.1901 45.8864 59.2249 45.853C59.2597 45.8195 59.3009 45.7936 59.3462 45.7767C59.3914 45.7599 59.4396 45.7526 59.4878 45.7551Z" fill="#0B4B9B"/>
<path fill-rule="evenodd" clip-rule="evenodd" d="M59.4221 47.6748C59.5222 47.6829 59.6158 47.7275 59.6851 47.8003C59.7544 47.873 59.7944 47.9687 59.7975 48.0691V48.7825C59.7989 48.8305 59.7903 48.8783 59.7723 48.9228C59.7542 48.9673 59.7271 49.0076 59.6927 49.0411C59.6583 49.0746 59.6174 49.1007 59.5724 49.1175C59.5274 49.1344 59.4794 49.1418 59.4315 49.1392C59.3309 49.1334 59.2362 49.0902 59.1658 49.0181C59.0955 48.946 59.0547 48.8503 59.0513 48.7496V48.0362C59.0506 47.9878 59.0598 47.9397 59.0783 47.8949C59.0969 47.8502 59.1243 47.8096 59.159 47.7758C59.1937 47.742 59.2349 47.7156 59.2801 47.6983C59.3254 47.6809 59.3737 47.6729 59.4221 47.6748Z" fill="#0B4B9B"/>
<path fill-rule="evenodd" clip-rule="evenodd" d="M59.4831 49.7915C59.5836 49.7963 59.6784 49.8393 59.7482 49.9117C59.818 49.9841 59.8575 50.0805 59.8586 50.1811V50.8522C59.8593 50.9007 59.8501 50.9487 59.8315 50.9935C59.813 51.0383 59.7856 51.0788 59.7509 51.1126C59.7162 51.1464 59.675 51.1728 59.6297 51.1902C59.5845 51.2076 59.5362 51.2155 59.4878 51.2136C59.3877 51.2077 59.2935 51.1644 59.2239 51.0922C59.1544 51.02 59.1145 50.9243 59.1123 50.8241V50.1482C59.1116 50.1 59.1208 50.0521 59.1394 50.0076C59.158 49.963 59.1855 49.9228 59.2203 49.8893C59.255 49.8559 59.2963 49.83 59.3415 49.8131C59.3867 49.7963 59.4349 49.7889 59.4831 49.7915Z" fill="#0B4B9B"/>
<path fill-rule="evenodd" clip-rule="evenodd" d="M60.8676 45.6943C60.9921 45.6943 61.1115 45.7438 61.1995 45.8318C61.2875 45.9198 61.337 46.0392 61.337 46.1637V46.7738C61.3419 46.8367 61.3332 46.8999 61.3113 46.9591C61.2895 47.0183 61.2551 47.072 61.2105 47.1166C61.1659 47.1612 61.1121 47.1956 61.0529 47.2175C60.9938 47.2393 60.9305 47.2481 60.8676 47.2431C60.7454 47.2364 60.6299 47.1848 60.5433 47.0982C60.4567 47.0116 60.4051 46.8961 60.3983 46.7738V46.1965C60.3934 46.1336 60.4021 46.0704 60.424 46.0112C60.4458 45.952 60.4802 45.8983 60.5248 45.8537C60.5694 45.8091 60.6232 45.7747 60.6824 45.7528C60.7415 45.731 60.8048 45.7223 60.8676 45.7272" fill="#0B4B9B"/>
<path fill-rule="evenodd" clip-rule="evenodd" d="M60.8535 47.6325C60.9758 47.6392 61.0913 47.6908 61.1779 47.7774C61.2645 47.864 61.3161 47.9795 61.3228 48.1018V48.5711C61.3278 48.634 61.319 48.6972 61.2972 48.7564C61.2753 48.8156 61.2409 48.8694 61.1963 48.914C61.1517 48.9586 61.098 48.993 61.0388 49.0148C60.9796 49.0367 60.9164 49.0454 60.8535 49.0405C60.7312 49.0337 60.6157 48.9821 60.5291 48.8955C60.4425 48.8089 60.3909 48.6934 60.3842 48.5711V48.0783C60.3792 48.0154 60.388 47.9522 60.4098 47.8931C60.4316 47.8339 60.466 47.7801 60.5107 47.7355C60.5553 47.6909 60.609 47.6565 60.6682 47.6347C60.7274 47.6128 60.7906 47.6041 60.8535 47.609" fill="#0B4B9B"/>
<path fill-rule="evenodd" clip-rule="evenodd" d="M60.8254 49.7211C60.9499 49.7211 61.0693 49.7705 61.1573 49.8585C61.2453 49.9465 61.2948 50.0659 61.2948 50.1904V50.7677C61.2948 50.8922 61.2453 51.0115 61.1573 51.0996C61.0693 51.1876 60.9499 51.237 60.8254 51.237C60.7031 51.2303 60.5876 51.1787 60.501 51.0921C60.4144 51.0055 60.3628 50.89 60.3561 50.7677V50.1904C60.3511 50.1275 60.3599 50.0643 60.3817 50.0051C60.4036 49.9459 60.438 49.8922 60.4826 49.8476C60.5272 49.803 60.5809 49.7686 60.6401 49.7467C60.6993 49.7249 60.7625 49.7161 60.8254 49.7211Z" fill="#0B4B9B"/>
<path fill-rule="evenodd" clip-rule="evenodd" d="M62.3601 45.5628C62.5113 45.5699 62.6542 45.6337 62.7604 45.7416C62.8666 45.8495 62.9281 45.9935 62.9326 46.1448V46.6705C62.9346 46.7435 62.9216 46.8162 62.8944 46.884C62.8672 46.9518 62.8264 47.0134 62.7745 47.0648C62.7226 47.1163 62.6607 47.1565 62.5927 47.1831C62.5246 47.2098 62.4519 47.2222 62.3788 47.2196C62.2272 47.2114 62.0842 47.1466 61.9781 47.0379C61.8721 46.9292 61.8107 46.7847 61.8062 46.6329V46.1073C61.8049 46.0346 61.8184 45.9624 61.8459 45.8952C61.8734 45.8279 61.9143 45.7669 61.9661 45.716C62.0179 45.665 62.0796 45.6252 62.1473 45.5989C62.2151 45.5725 62.2874 45.5603 62.3601 45.5628Z" fill="#0B4B9B"/>
<path fill-rule="evenodd" clip-rule="evenodd" d="M62.4915 47.6138C62.6427 47.6208 62.7857 47.6846 62.8919 47.7925C62.998 47.9004 63.0595 48.0444 63.0641 48.1957V48.5102C63.0661 48.5832 63.0531 48.6559 63.0259 48.7237C62.9987 48.7916 62.9579 48.8531 62.906 48.9046C62.8541 48.956 62.7922 48.9963 62.7241 49.0229C62.6561 49.0495 62.5833 49.0619 62.5103 49.0593C62.3595 49.0534 62.2165 48.9906 62.1103 48.8835C62.004 48.7763 61.9423 48.6329 61.9377 48.482V48.1817C61.9357 48.1086 61.9487 48.0359 61.9759 47.9681C62.0031 47.9003 62.0439 47.8388 62.0958 47.7873C62.1477 47.7359 62.2096 47.6956 62.2776 47.669C62.3457 47.6424 62.4185 47.63 62.4915 47.6325" fill="#0B4B9B"/>
<path fill-rule="evenodd" clip-rule="evenodd" d="M62.3601 49.7071C62.5112 49.713 62.6543 49.7767 62.7599 49.885C62.8656 49.9932 62.9257 50.1378 62.928 50.289V50.8428C62.9293 50.9159 62.9157 50.9885 62.8879 51.0561C62.8602 51.1237 62.8188 51.1849 62.7665 51.2359C62.7142 51.2869 62.652 51.3266 62.5837 51.3527C62.5154 51.3787 62.4425 51.3905 62.3695 51.3873C62.2184 51.3813 62.0753 51.3176 61.9697 51.2094C61.864 51.1011 61.8039 50.9565 61.8016 50.8053V50.2515C61.8003 50.1784 61.8139 50.1058 61.8417 50.0382C61.8694 49.9707 61.9108 49.9095 61.9631 49.8585C62.0154 49.8074 62.0776 49.7677 62.1459 49.7417C62.2142 49.7156 62.2871 49.7038 62.3601 49.7071Z" fill="#0B4B9B"/>
<path fill-rule="evenodd" clip-rule="evenodd" d="M59.0278 45.5581C59.1283 45.5629 59.2231 45.6059 59.2929 45.6783C59.3627 45.7507 59.4022 45.8471 59.4033 45.9477V46.6845C59.4039 46.733 59.3947 46.781 59.3762 46.8258C59.3577 46.8706 59.3303 46.9111 59.2956 46.9449C59.2609 46.9787 59.2196 47.0051 59.1744 47.0225C59.1292 47.0399 59.0809 47.0478 59.0325 47.0459C58.9316 47.04 58.8367 46.996 58.767 46.9228C58.6974 46.8496 58.658 46.7527 58.657 46.6517V45.9148C58.6563 45.8666 58.6655 45.8187 58.6841 45.7742C58.7026 45.7296 58.7302 45.6894 58.7649 45.6559C58.7997 45.6225 58.841 45.5965 58.8862 45.5797C58.9314 45.5629 58.9796 45.5555 59.0278 45.5581Z" fill="white"/>
<path fill-rule="evenodd" clip-rule="evenodd" d="M58.9575 47.4778C59.0576 47.4837 59.1518 47.527 59.2214 47.5992C59.2909 47.6714 59.3308 47.7671 59.333 47.8674V48.5854C59.3337 48.6337 59.3245 48.6816 59.3059 48.7261C59.2873 48.7706 59.2598 48.8109 59.225 48.8443C59.1903 48.8778 59.149 48.9037 59.1038 48.9205C59.0586 48.9374 59.0104 48.9447 58.9622 48.9421C58.8621 48.9363 58.7679 48.8929 58.6983 48.8207C58.6288 48.7486 58.5889 48.6528 58.5867 48.5526V47.8392C58.5847 47.7908 58.5928 47.7425 58.6106 47.6974C58.6283 47.6523 58.6553 47.6115 58.6897 47.5774C58.7242 47.5434 58.7654 47.517 58.8107 47.4998C58.856 47.4826 58.9044 47.4752 58.9528 47.4778" fill="white"/>
<path fill-rule="evenodd" clip-rule="evenodd" d="M59.0186 49.5896C59.1183 49.5966 59.2119 49.6402 59.2813 49.7122C59.3506 49.7842 59.3908 49.8793 59.3941 49.9792V50.655C59.3954 50.703 59.3868 50.7508 59.3688 50.7953C59.3508 50.8399 59.3237 50.8802 59.2893 50.9137C59.2549 50.9472 59.2139 50.9732 59.1689 50.9901C59.1239 51.007 59.076 51.0143 59.028 51.0117C58.9271 51.007 58.8317 50.9642 58.7612 50.8918C58.6906 50.8195 58.6501 50.7232 58.6478 50.6222V49.951C58.6465 49.9028 58.6551 49.8548 58.6731 49.8101C58.6911 49.7653 58.7181 49.7247 58.7524 49.6909C58.7867 49.657 58.8277 49.6305 58.8726 49.6131C58.9176 49.5957 58.9657 49.5877 59.0139 49.5896" fill="white"/>
<path fill-rule="evenodd" clip-rule="evenodd" d="M60.403 45.4926C60.5275 45.4926 60.6469 45.542 60.7349 45.63C60.8229 45.718 60.8724 45.8374 60.8724 45.9619V46.5392C60.8773 46.6021 60.8686 46.6653 60.8467 46.7245C60.8249 46.7836 60.7905 46.8374 60.7459 46.882C60.7013 46.9266 60.6475 46.961 60.5883 46.9828C60.5292 47.0047 60.4659 47.0134 60.403 47.0085C60.2808 47.0017 60.1653 46.9501 60.0787 46.8635C59.9921 46.7769 59.9405 46.6614 59.9337 46.5392V45.9619C59.9288 45.899 59.9375 45.8358 59.9594 45.7766C59.9812 45.7174 60.0156 45.6637 60.0602 45.6191C60.1048 45.5744 60.1586 45.54 60.2178 45.5182C60.2769 45.4964 60.3402 45.4876 60.403 45.4926Z" fill="white"/>
<path fill-rule="evenodd" clip-rule="evenodd" d="M60.3936 47.4355C60.5181 47.4355 60.6375 47.485 60.7255 47.573C60.8135 47.661 60.863 47.7804 60.863 47.9049V48.3742C60.863 48.4987 60.8135 48.6181 60.7255 48.7061C60.6375 48.7941 60.5181 48.8435 60.3936 48.8435C60.2714 48.8368 60.1559 48.7852 60.0693 48.6986C59.9827 48.612 59.9311 48.4965 59.9243 48.3742V47.9049C59.9243 47.7804 59.9738 47.661 60.0618 47.573C60.1498 47.485 60.2692 47.4355 60.3936 47.4355Z" fill="white"/>
<path fill-rule="evenodd" clip-rule="evenodd" d="M60.3656 49.5239C60.4878 49.5307 60.6033 49.5823 60.6899 49.6689C60.7765 49.7555 60.8281 49.871 60.8349 49.9933V50.5705C60.8364 50.6315 60.8251 50.6921 60.8017 50.7485C60.7783 50.8048 60.7434 50.8556 60.6992 50.8976C60.6549 50.9396 60.6024 50.9719 60.5449 50.9924C60.4875 51.0128 60.4264 51.021 60.3656 51.0164C60.2411 51.0164 60.1217 50.967 60.0337 50.8789C59.9457 50.7909 59.8962 50.6716 59.8962 50.5471V49.9698C59.8921 49.9071 59.9014 49.8442 59.9235 49.7854C59.9456 49.7266 59.98 49.6732 60.0245 49.6287C60.0689 49.5843 60.1223 49.5499 60.1812 49.5277C60.24 49.5056 60.3029 49.4963 60.3656 49.5005" fill="white"/>
<path fill-rule="evenodd" clip-rule="evenodd" d="M61.9001 45.3658C62.0513 45.3728 62.1943 45.4366 62.3004 45.5445C62.4066 45.6524 62.4681 45.7964 62.4727 45.9477V46.4734C62.4747 46.5466 62.4616 46.6195 62.434 46.6874C62.4065 46.7554 62.3652 46.8168 62.3127 46.868C62.2603 46.9191 62.1977 46.9589 62.1291 46.9846C62.0605 47.0104 61.9873 47.0217 61.9142 47.0178C61.7634 47.0107 61.621 46.9467 61.5156 46.8387C61.4102 46.7307 61.3497 46.5867 61.3463 46.4358V45.9102C61.3449 45.8371 61.3586 45.7645 61.3863 45.6969C61.4141 45.6293 61.4554 45.5682 61.5078 45.5171C61.5601 45.4661 61.6223 45.4264 61.6906 45.4003C61.7589 45.3743 61.8318 45.3625 61.9048 45.3658" fill="white"/>
<path fill-rule="evenodd" clip-rule="evenodd" d="M62.0317 47.4166C62.1833 47.4225 62.3269 47.486 62.4333 47.5942C62.5397 47.7023 62.6009 47.8469 62.6043 47.9986V48.313C62.6056 48.3863 62.592 48.4591 62.5643 48.5269C62.5366 48.5947 62.4953 48.6562 62.4431 48.7076C62.3908 48.759 62.3286 48.7992 62.2603 48.8257C62.192 48.8523 62.1191 48.8647 62.0458 48.8621C61.8942 48.8562 61.7506 48.7927 61.6442 48.6846C61.5379 48.5764 61.4767 48.4318 61.4732 48.2802V47.9657C61.4719 47.8924 61.4855 47.8197 61.5133 47.7518C61.541 47.684 61.5822 47.6225 61.6345 47.5711C61.6867 47.5197 61.7489 47.4795 61.8172 47.453C61.8855 47.4264 61.9585 47.414 62.0317 47.4166Z" fill="white"/>
<path fill-rule="evenodd" clip-rule="evenodd" d="M61.8955 49.51C62.0467 49.517 62.1897 49.5809 62.2959 49.6888C62.402 49.7967 62.4635 49.9407 62.4681 50.092V50.6458C62.4688 50.7187 62.4547 50.7909 62.4267 50.8582C62.3987 50.9255 62.3573 50.9864 62.3051 51.0373C62.2529 51.0882 62.191 51.128 62.123 51.1542C62.055 51.1805 61.9824 51.1928 61.9096 51.1902C61.7584 51.1832 61.6154 51.1193 61.5092 51.0114C61.4031 50.9035 61.3416 50.7596 61.337 50.6083V50.0591C61.3357 49.9865 61.3492 49.9143 61.3767 49.847C61.4041 49.7798 61.4451 49.7188 61.4969 49.6679C61.5487 49.6169 61.6103 49.5771 61.6781 49.5507C61.7458 49.5244 61.8182 49.5121 61.8908 49.5147" fill="white"/>
<path d="M27.4512 60.3843C27.4512 60.3843 37.1898 70.9443 40.4751 72.5072C43.7605 74.07 42.3525 60.619 43.7605 57.1647C45.1685 53.7104 47.1115 52.1898 46.905 53.2223C46.6985 54.2548 46.3042 56.1603 46.3042 56.1603C46.3042 56.1603 49.9697 58.0752 48.0736 60.9897C46.1775 63.9043 47.7357 63.5523 47.7357 63.5523C47.7357 63.5523 53.5413 81.3212 43.1738 82.2552L27.4512 60.3843Z" fill="#DBDBDC"/>
<path d="M25.3017 141.349H8.34472L0 174.554L14.9107 178.825L12.6485 176.553L25.3017 141.349Z" fill="#1F3563"/>
<path d="M43.127 176.394L42.2118 144.46L25.3394 138.655L31.3046 178.825H46.3091L43.127 176.394Z" fill="#0B4B9B"/>
<path fill-rule="evenodd" clip-rule="evenodd" d="M49.3879 179.177H1.21094V178.473H49.3879V179.177Z" fill="#B7BBCE"/>
<path d="M34.3974 44.3472L35.0217 44.2346C35.0217 44.2346 34.2754 43.3992 34.7588 39.4568C35.2422 35.5144 29.5586 34.4396 26.4657 37.861C21.8897 42.9158 25.0108 54.94 25.0108 54.94H33.5151C33.5151 54.94 32.0273 49.89 32.0273 48.1817C32.0273 48.1817 29.8684 48.5102 28.742 47.2946C34.7541 48.7965 34.374 44.3472 34.374 44.3472" fill="#4071B7"/>
<path fill-rule="evenodd" clip-rule="evenodd" d="M32.6046 42.6297C32.4362 42.6297 32.2746 42.6963 32.155 42.8149L31.8245 42.4817C32.0319 42.2759 32.3123 42.1604 32.6046 42.1604C32.8968 42.1604 33.1772 42.2759 33.3847 42.4817L33.0541 42.8149C32.9346 42.6963 32.773 42.6297 32.6046 42.6297Z" fill="white"/>
<path d="M33.5104 44.8965C33.3476 45.0584 33.1274 45.1493 32.8979 45.1493C32.6683 45.1493 32.4481 45.0584 32.2854 44.8965H33.5104Z" fill="#0B4B9B"/>
<path fill-rule="evenodd" clip-rule="evenodd" d="M31.7168 44.6616H34.0787L33.6758 45.0626C33.4691 45.2683 33.1893 45.3838 32.8977 45.3838C32.6061 45.3838 32.3264 45.2683 32.1197 45.0626L31.7168 44.6616Z" fill="#0B4B9B"/>
<path d="M35.9274 40.6255H29.4975C29.4975 40.6255 27.3339 45.2953 28.1505 49.5897L18.9751 48.4493C18.9751 48.4493 19.0267 34.0407 27.2166 33.5714C35.4064 33.1021 35.9274 40.6114 35.9274 40.6114" fill="#DBDBDC"/>
<path d="M25.7193 50.7912C17.98 52.0349 21.5469 76.4355 21.5469 76.4355H42.9297C41.5452 57.634 33.4586 49.5474 25.7193 50.7912Z" fill="white"/>
<path d="M42.9298 76.4354C41.7518 68.1094 28.7044 73.4739 28.7044 73.4739L21.547 76.4354L1.21558 142.517L46.3137 149.05C46.3137 149.05 44.1078 84.7519 42.9298 76.4307" fill="white"/>
<path d="M40.6677 69.7195L28.7044 63.0737C28.7044 63.0737 28.2022 68.5274 39.6586 75.1637C39.6586 75.1637 45.7224 75.0746 40.6677 69.7195Z" fill="#DBDBDC"/>
<path d="M58.1924 53.0157C57.6386 51.6687 56.8219 49.66 56.2681 51.7532C56.0021 52.8755 55.5652 53.9503 54.9728 54.94C54.9728 54.94 54.5034 53.776 54.0763 54.0529C53.6493 54.3298 54.1421 56.3996 54.1421 56.3996L45.9898 63.2471L39.0014 56.4231L27.4746 64.871C27.4746 64.871 30.3845 67.9874 42.0568 73.319C53.729 78.6506 57.9436 57.831 57.9436 57.831C57.9436 57.831 58.7462 54.3392 58.1924 52.9922" fill="white"/>
<path d="M33.745 52.5231C33.6759 52.1997 33.5115 51.9044 33.2732 51.6753C33.0348 51.4461 32.7333 51.2935 32.4074 51.2371L24.1472 49.8291L23.415 52.6451L33.9891 53.6823L33.745 52.5231Z" fill="#DBDBDC"/>
<path d="M26.4516 53.4523C23.5558 56.0196 24.4429 61.7454 28.4322 66.2416L38.9077 56.9629C34.9184 52.462 29.3427 50.8898 26.4516 53.4523Z" fill="white"/>
<path d="M53.5508 52.9314C53.5883 52.0209 54.7522 53.3398 54.7522 53.3398C54.7522 53.3398 54.9024 48.3602 56.8642 50.5238C59.4831 53.4008 58.0141 57.3807 58.0141 57.3807L54.7288 56.7143C54.1937 56.2449 53.5132 53.8466 53.5461 52.9596" fill="#4071B7"/>
<path d="M47.806 61.0414C48.9653 60.6378 48.496 58.3991 48.496 58.3991C49.5285 56.3762 46.4403 55.4376 46.4403 55.4376C46.4403 55.4376 47.379 53.7245 46.8721 52.9032C46.3652 52.0818 44.4269 55.5971 43.8449 57.1553C43.7275 57.4651 42.4697 59.7742 43.1503 60.8114C43.568 61.445 44.3471 61.9425 45.3749 63.0736L47.806 61.0414Z" fill="#4071B7"/>
<path fill-rule="evenodd" clip-rule="evenodd" d="M45.9785 63.1609L38.7807 56.124L38.4526 56.4596L45.9544 63.7937L54.2742 56.8142L53.9726 56.4546L45.9785 63.1609Z" fill="white"/>
</g>
<defs>
<clipPath id="clip0_501_29674">
<rect width="320" height="190.666" fill="white"/>
</clipPath>
</defs>
</svg>
