<svg width="682" height="407" viewBox="0 0 682 407" fill="none" xmlns="http://www.w3.org/2000/svg">
<path fill-rule="evenodd" clip-rule="evenodd" d="M205.059 0.00292969L205.351 406.256L72.4987 355.947L73.3316 26.6863L205.059 0.00292969ZM74.8285 27.9136L74.0013 354.912L203.849 404.084L203.561 1.83697L74.8285 27.9136Z" fill="#B7BBCE"/>
<path fill-rule="evenodd" clip-rule="evenodd" d="M103.71 33.1099L169.04 20.1699L168.18 384.94L103.3 361.29L103.71 33.1099Z" fill="white"/>
<path fill-rule="evenodd" clip-rule="evenodd" d="M169.792 19.2563L168.927 386.011L102.549 361.815L102.961 32.4937L169.792 19.2563ZM104.459 33.7261L104.051 360.765L167.433 383.869L168.288 21.0835L104.459 33.7261Z" fill="#B7BBCE"/>
<path fill-rule="evenodd" clip-rule="evenodd" d="M251.63 380.88H379.51V382.38H251.63V380.88Z" fill="#B7BBCE"/>
<path fill-rule="evenodd" clip-rule="evenodd" d="M569.26 380.88H663.76V382.38H569.26V380.88Z" fill="#B7BBCE"/>
<path fill-rule="evenodd" clip-rule="evenodd" d="M204.76 403.83H677.61V405.33H204.76V403.83Z" fill="#B7BBCE"/>
<path fill-rule="evenodd" clip-rule="evenodd" d="M203.48 0.300049H681.82V1.80005H203.48V0.300049Z" fill="#B7BBCE"/>
<path fill-rule="evenodd" clip-rule="evenodd" d="M325.26 221.46H611.17V222.96H325.26V221.46Z" fill="#B7BBCE"/>
<path d="M373.7 114.33L349.36 112.98L355.59 95.2299L378.87 93.1899L373.7 114.33Z" fill="white"/>
<path fill-rule="evenodd" clip-rule="evenodd" d="M379.196 92.9104L373.894 114.591L349.014 113.211L355.408 94.9949L379.196 92.9104ZM355.772 95.4649L349.706 112.749L373.506 114.069L378.544 93.4694L355.772 95.4649Z" fill="#B7BBCE"/>
<path d="M371.67 110.95H352.74L356.8 97.4201L375.73 96.0701L371.67 110.95Z" fill="#074C9C"/>
<path d="M305.31 114.14L331.31 140.24C331.31 140.24 332.31 133.35 333.77 125.94C335.43 117.57 337.7 108.52 339.84 107.94C343.84 106.94 352.89 105.4 352 107.46C351.11 109.52 347 110.46 347 110.46C347 110.46 349.66 117.56 344.19 118.46C344.19 118.46 344.56 121.27 344.98 125.57C346.28 138.67 348.14 165.57 341.98 168.89C333.73 173.25 310.22 165.05 310.22 165.05L305.31 114.14Z" fill="#DBDBDC"/>
<path d="M383.09 291.75L328.71 312.75L325.12 348.84L356.18 364.81L354.11 351.21L383.09 291.75Z" fill="#4175BA"/>
<path d="M326.79 332.09L325.12 348.84L356.18 364.81L354.11 351.21L362.28 334.44L326.79 332.09Z" fill="#DBDBDC"/>
<path d="M341.95 282.44H295.4V381.71H331.35L322.91 370.29C322.91 370.29 340.13 306.4 341.91 282.44" fill="#6693CD"/>
<path d="M311.97 77.8398L304.45 99.3199L313.98 103.03C314.307 103.158 314.659 103.209 315.008 103.179C315.358 103.148 315.696 103.037 315.995 102.854C316.295 102.671 316.548 102.421 316.734 102.123C316.921 101.826 317.036 101.489 317.07 101.14C317.63 95.5498 318.07 83.4698 311.97 77.8398Z" fill="#1F3563"/>
<path d="M307.65 93.97L309 93.72C309 93.72 307.39 91.93 308.43 83.51C309.47 75.09 297.3 72.77 290.68 80.09C280.9 90.9 287.57 116.63 287.57 116.63H305.77C305.77 116.63 302.56 105.83 302.56 102.17C302.56 102.17 297.95 102.88 295.56 100.27C308.43 103.49 307.65 93.97 307.65 93.97Z" fill="#4071B7"/>
<path fill-rule="evenodd" clip-rule="evenodd" d="M303.82 89.9004C303.358 89.9004 302.915 90.0829 302.587 90.4081L302.432 90.2519C302.801 89.8858 303.3 89.6804 303.82 89.6804C304.34 89.6804 304.838 89.8858 305.207 90.2519L305.053 90.4081C304.725 90.0829 304.282 89.9004 303.82 89.9004Z" fill="white"/>
<path d="M305.76 95.1599C305.589 95.3335 305.385 95.4713 305.16 95.5653C304.935 95.6594 304.694 95.7078 304.45 95.7078C304.206 95.7078 303.965 95.6594 303.74 95.5653C303.515 95.4713 303.311 95.3335 303.14 95.1599H305.76Z" fill="#1F3563"/>
<path fill-rule="evenodd" clip-rule="evenodd" d="M302.877 95.05H306.023L305.838 95.2373C305.657 95.4212 305.441 95.5673 305.202 95.6669C304.964 95.7666 304.708 95.818 304.45 95.818C304.192 95.818 303.936 95.7666 303.698 95.6669C303.459 95.5673 303.243 95.4212 303.062 95.2373L302.877 95.05ZM303.437 95.27C303.544 95.3476 303.66 95.4127 303.782 95.464C303.994 95.5524 304.221 95.598 304.45 95.598C304.679 95.598 304.906 95.5524 305.118 95.464C305.24 95.4127 305.356 95.3476 305.463 95.27H303.437Z" fill="#1F3563"/>
<path d="M301.72 82.66C301.72 82.31 301.72 86.45 308.09 89.32C314.46 92.19 317.36 85.99 313.37 79.67C309.38 73.35 300.37 70.67 294.73 72.57C289.09 74.47 279.89 80.11 285.35 98.15L291.41 93.86C291.41 93.86 288.6 90.02 291.7 88.86C292.064 88.6781 292.467 88.5874 292.874 88.5958C293.281 88.6042 293.68 88.7115 294.036 88.9083C294.392 89.1051 294.695 89.3856 294.919 89.7257C295.143 90.0657 295.28 90.455 295.32 90.86C295.32 90.86 301.39 87.31 301.72 82.69" fill="#0B4B9B"/>
<path d="M291.38 107.76C274.82 110.42 282.46 162.63 282.46 162.63H328.24C325.29 122.4 307.98 105.1 291.42 107.76" fill="#F0F0F6"/>
<path d="M328.24 162.66H282.46L285.35 318.41C285.35 318.41 318.91 337.93 401.43 303.77L328.24 162.66Z" fill="#F0F0F6"/>
<path d="M328.24 162.66L288.06 129.36C288.06 129.36 280.06 169.73 342.52 190.16L328.24 162.66Z" fill="#DBDBDC"/>
<path d="M368.46 109.85C368.54 109.545 368.687 109.261 368.891 109.02C369.094 108.778 369.348 108.585 369.635 108.454C369.922 108.323 370.235 108.257 370.551 108.261C370.866 108.266 371.177 108.341 371.46 108.48C371.46 108.48 374.92 102.79 376.77 103.16C378.62 103.53 382.3 112.22 377.21 121.11L367.24 115.66C367.565 113.706 367.989 111.771 368.51 109.86" fill="#4071B7"/>
<path d="M292.32 118.06C292.32 118.06 280.9 155.66 317.11 173.83C353.32 192 375.24 134.08 378.01 122.83L366.24 115.94L334.04 145.94C334.04 145.94 304.79 90.8499 292.29 118.08" fill="#F0F0F6"/>
<path d="M295.4 362.01V381.71H331.35L322.91 370.29C322.91 370.29 324.39 364.79 326.53 356.41L295.4 362.01Z" fill="#DBDBDC"/>
<path fill-rule="evenodd" clip-rule="evenodd" d="M310.911 114.969C310.511 114.654 310.194 114.458 309.965 114.375L310.135 113.905C310.442 114.017 310.81 114.253 311.22 114.576C311.635 114.902 312.111 115.331 312.634 115.844C313.682 116.869 314.934 118.243 316.302 119.837C319.037 123.027 322.241 127.113 325.198 131.096C328.155 135.078 330.869 138.963 332.621 141.749C333.495 143.139 334.138 144.268 334.45 145.003C334.476 145.064 334.499 145.123 334.521 145.179L346.846 134.471L347.174 134.849L334.667 145.715C334.673 145.779 334.672 145.841 334.662 145.9C334.651 145.966 334.625 146.041 334.568 146.105C334.509 146.173 334.433 146.212 334.353 146.227C334.211 146.253 334.065 146.203 333.944 146.146L333.596 145.983L334.115 145.532C334.086 145.438 334.044 145.327 333.99 145.198C333.695 144.504 333.071 143.405 332.198 142.016C330.455 139.244 327.75 135.371 324.797 131.394C321.844 127.417 318.647 123.341 315.922 120.163C314.559 118.573 313.317 117.212 312.284 116.201C311.768 115.695 311.307 115.28 310.911 114.969Z" fill="white"/>
<path d="M344.84 124.04C344.5 120.62 344.23 118.47 344.23 118.47C349.5 117.57 346.94 110.38 346.94 110.38C346.94 110.38 350.94 109.48 351.79 107.38C352.64 105.28 343.95 106.81 340.06 107.86C338.16 108.38 336.14 116.27 334.59 124.16L344.84 124.04Z" fill="#4071B7"/>
<path d="M526.88 230.01L485.81 224.66C485.81 224.66 422.01 232.36 451.74 319.94L478.56 323.46L479.95 269.29C479.95 269.29 529.12 278.58 526.88 230.05" fill="#1F3563"/>
<path d="M512.14 177.31C512.14 177.31 516.23 214.17 492.22 219.31C468.21 224.45 464.95 221.99 464.95 221.99C464.95 221.99 454.95 224.21 451.47 219.74C451.47 219.74 447.83 221.18 447.98 219C448.13 216.82 458.2 212.93 486.8 203.29L496.5 178.71L512.14 177.31Z" fill="#DBDBDC"/>
<path d="M516.93 164.05C509.83 161.29 500.23 168.93 495.48 181.13L521.19 191.13C525.94 178.93 524.03 166.8 516.93 164.04" fill="#DBDBDC"/>
<path d="M465.65 250.17L503.4 232.86L513.71 174.56C513.71 174.56 510.89 148.48 529.32 157.13C547.75 165.78 561.96 241.95 531.11 260C500.26 278.05 444.59 262.58 465.65 250.17Z" fill="#4175BA"/>
<path fill-rule="evenodd" clip-rule="evenodd" d="M497.25 353.64V268.22H498.75V353.64H497.25Z" fill="#B7BBCE"/>
<path d="M458.55 339.07L454.96 317.5L475.63 317.01L474.65 343.36L455.9 343.79L458.55 339.07Z" fill="#1F3563"/>
<path d="M481.5 337.62L475.37 316.63L495.83 313.69L498 339.96L479.44 342.63L481.5 337.62Z" fill="#0B4B9B"/>
<path d="M500.88 148.94L499.74 148.73C499.74 148.73 501.1 147.21 500.23 140.06C499.36 132.91 509.66 130.96 515.23 137.16C523.53 146.34 522.02 168.01 522.02 168.01L505.21 170.01C505.21 170.01 505.21 159.01 505.21 155.86C505.21 155.86 509.12 156.46 511.15 154.25C500.24 156.98 500.89 148.91 500.89 148.91" fill="#4071B7"/>
<path fill-rule="evenodd" clip-rule="evenodd" d="M503.049 145.494C503.438 145.11 503.963 144.894 504.51 144.894C505.057 144.894 505.582 145.11 505.971 145.494L505.269 146.206C505.067 146.006 504.794 145.894 504.51 145.894C504.226 145.894 503.953 146.006 503.751 146.206L503.049 145.494Z" fill="#D2D2D2"/>
<path d="M502.86 149.95C503.157 150.242 503.558 150.406 503.975 150.406C504.392 150.406 504.793 150.242 505.09 149.95H502.86Z" fill="#0B4B9B"/>
<path fill-rule="evenodd" clip-rule="evenodd" d="M513.5 354.39H426.1V352.89H513.5V354.39Z" fill="#B7BBCE"/>
<path d="M515.8 160.66C492.06 163.38 492.94 220.31 492.94 220.31H534.37C531.24 176.66 533.38 158.66 515.8 160.66Z" fill="#F0F0F6"/>
<path d="M534.37 220.33H492.94C492.94 220.33 430.68 236.28 471.57 319.24H498.57L492.89 265.35C492.89 265.35 542.89 268.16 534.32 220.35" fill="#0B4B9B"/>
<path d="M523.66 155.37L504.51 161.66C504.51 161.66 504.01 170.22 503.98 170.41L526.98 166.41L523.66 155.37Z" fill="#DBDBDC"/>
<path d="M521.82 161.22C529.41 160.56 536.48 170.59 537.62 183.63L510.14 186.03C509 173.03 514.23 161.88 521.82 161.22Z" fill="#F0F0F6"/>
<path d="M507.24 141.77C507.31 141.59 508.24 144.21 510.32 144.65L511.37 146.34C511.37 146.34 511.37 143.27 513.69 143.4C516.01 143.53 515.77 146.72 514.83 147.22L521.21 149.57C521.21 149.57 521.6 135.12 513.07 134.18C513.07 134.18 502.67 129.98 499.07 135.75C495.47 141.52 500.92 144.15 500.92 144.15C500.953 143.37 500.879 142.59 500.7 141.83C502.956 143.717 505.763 144.822 508.7 144.98C508.7 144.98 506.7 143.4 507.24 141.77Z" fill="#1F3563"/>
<path d="M521.79 211.71L494.24 203.17C494.24 203.17 503.85 207.98 507.06 190.35C508.96 179.91 523.2 186.56 523.2 186.56L521.79 211.71Z" fill="#DBDBDC"/>
<path d="M491.58 218.53L533.96 214.88C533.96 214.88 549.82 260.1 497.31 268.15C497.31 268.15 488.75 267.84 472.61 262.81C452.8 256.66 447.1 243.66 447.1 243.66C461.272 234.186 476.141 225.799 491.58 218.57" fill="#F0F0F6"/>
<path d="M517.33 206.21L532.57 209.51C532.57 209.51 533.16 224.57 517.24 226.38C491.02 229.38 484.16 210.11 484.16 210.11L517.33 206.21Z" fill="#DBDBDC"/>
<path d="M537.44 181.98C539.754 189.788 539.07 198.178 535.519 205.507C531.969 212.836 525.81 218.575 518.249 221.599C510.688 224.623 502.27 224.714 494.645 221.854C487.02 218.995 480.738 213.39 477.03 206.14C477.03 206.14 473.82 207.53 470.33 203.07C470.33 203.07 466.7 204.5 466.84 202.32C466.98 200.14 472.28 193.57 511.52 203.91L509.99 183.06L537.44 181.98Z" fill="#F0F0F6"/>
<path fill-rule="evenodd" clip-rule="evenodd" d="M474.567 198.934C468.359 199.551 467.383 201.681 467.339 202.372C467.326 202.58 467.359 202.703 467.396 202.776C467.431 202.844 467.483 202.897 467.564 202.941C467.75 203.042 468.067 203.079 468.484 203.039C468.884 203 469.299 202.898 469.622 202.802C469.782 202.754 469.915 202.709 470.007 202.676C470.053 202.66 470.089 202.647 470.113 202.638L470.139 202.628L470.145 202.626L470.146 202.625L470.494 202.487L470.724 202.782C472.403 204.933 473.972 205.623 475.072 205.808C475.628 205.902 476.081 205.869 476.389 205.816C476.543 205.79 476.66 205.758 476.736 205.734C476.774 205.722 476.801 205.713 476.817 205.707L476.832 205.701C476.833 205.7 476.834 205.7 476.833 205.7L476.832 205.701L476.831 205.701C476.831 205.701 476.83 205.702 477.03 206.16C477.23 206.618 477.229 206.619 477.229 206.619L477.226 206.62L477.222 206.622L477.209 206.627C477.199 206.631 477.185 206.637 477.169 206.643C477.136 206.655 477.091 206.671 477.034 206.689C476.921 206.724 476.76 206.767 476.559 206.802C476.156 206.871 475.588 206.909 474.906 206.794C473.585 206.572 471.895 205.787 470.162 203.68C470.087 203.705 470.001 203.732 469.908 203.76C469.554 203.865 469.071 203.986 468.581 204.034C468.108 204.08 467.544 204.067 467.089 203.821C466.849 203.692 466.64 203.498 466.503 203.226C466.368 202.958 466.319 202.648 466.341 202.308C466.437 200.809 468.181 198.564 474.468 197.939C480.806 197.309 492.01 198.272 511.647 203.447L511.393 204.414C491.79 199.248 480.724 198.322 474.567 198.934Z" fill="white"/>
<path d="M476.96 198.28C467.96 198.45 466.21 201.19 466.13 202.47C465.98 204.72 469.73 203.24 469.73 203.24C473.33 207.85 476.64 206.41 476.64 206.41L476.96 198.28Z" fill="#4071B7"/>
<path d="M459.24 213.66C449.64 215.37 448.17 218.66 448.3 220.01C448.53 222.46 452.3 220.23 452.3 220.23C456.96 224.57 460.3 222.46 460.3 222.46L459.24 213.66Z" fill="#4071B7"/>
<path d="M418.32 220.73L422.39 217.03H462.71L465.71 223.15L407.81 223.04C407.623 222.966 407.463 222.838 407.351 222.672C407.238 222.507 407.178 222.311 407.178 222.11C407.178 221.909 407.238 221.714 407.351 221.548C407.463 221.382 407.623 221.254 407.81 221.18L418.32 220.73Z" fill="#B7BBCE"/>
<path d="M443.32 213.34L379.09 212.29L369.45 170.14L435.83 168.56L443.32 213.34Z" fill="#B7BBCE"/>
<path d="M415.75 221.07H406.01L400.89 199.81H410.62L415.75 221.07Z" fill="#B7BBCE"/>
<path fill-rule="evenodd" clip-rule="evenodd" d="M400.255 199.31H411.014L416.385 221.57H405.616L400.255 199.31ZM401.525 200.31L406.404 220.57H415.115L410.226 200.31H401.525Z" fill="white"/>
<path d="M573.49 139.89C573.49 139.89 573.05 138.43 576.56 138.14C580.07 137.85 583.88 142.95 583.88 142.95L580.95 150.59C569.68 149.43 564.7 144.59 561.95 139.89C559.2 135.19 573.52 139.89 573.52 139.89" fill="#4071B7"/>
<path d="M582.48 140.48L602.83 145.88L629.93 144.13L641.48 136C641.48 136 650.37 158.94 636.6 172.29C622.83 185.64 576.97 148.83 576.97 148.83L582.48 140.48Z" fill="#DBDBDC"/>
<path d="M619.24 301.27L654.24 295.97L670.82 374.92L637.34 381.66L642.67 368.45C642.67 368.45 621.34 313.95 619.27 301.28" fill="#4175BA"/>
<path d="M597.5 371.24L592.17 308.05L628.6 304.95C630.82 309.82 622.24 381.66 622.24 381.66H589.51L597.5 371.24Z" fill="#6693CD"/>
<path d="M606 95.0699L604.66 94.8299C604.66 94.8299 606.26 93.0499 605.23 84.6499C604.2 76.2499 616.37 73.9499 623 81.2399C632.79 92.0199 626.1 117.64 626.1 117.64H607.89C607.89 117.64 611.1 106.89 611.1 103.24C611.1 103.24 615.72 103.95 618.1 101.35C605.22 104.55 605.99 95.0699 605.99 95.0699" fill="#4071B7"/>
<path d="M611.15 91.45C610.802 91.1043 610.331 90.9104 609.84 90.9104C609.349 90.9104 608.878 91.1043 608.53 91.45H611.15Z" fill="#F0F0F6"/>
<path d="M607.9 96.26C608.248 96.6056 608.719 96.7996 609.21 96.7996C609.701 96.7996 610.172 96.6056 610.52 96.26H607.9Z" fill="#1F3563"/>
<path d="M624.24 108.81C640.82 111.46 633.17 163.45 633.17 163.45H587.37C590.37 123.39 607.66 106.16 624.24 108.81Z" fill="#F0F0F6"/>
<path d="M587.37 163.45C592.37 136.6 611.15 151.3 611.15 151.3L633.15 163.45L659.36 301.75C659.36 301.75 639.93 314.34 587.36 314.34C587.36 314.34 582.36 190.34 587.36 163.45" fill="#F0F0F6"/>
<path d="M622.75 132.66C622.75 132.66 618.16 171.55 607.28 175.52C596.4 179.49 587.37 172.2 587.37 172.2L586.71 168.05L622.75 132.66Z" fill="#DBDBDC"/>
<path d="M617.61 91.97C617.61 91.97 618.05 88.32 620.83 89.54C623.61 90.76 621.27 94.73 619.22 94.73C619.766 97.7588 620.659 100.715 621.88 103.54C626.247 113.002 628.304 123.367 627.88 133.78C627.64 138.9 627.09 143.73 626.02 146.89C625.921 147.183 625.898 147.496 625.952 147.801C626.006 148.106 626.135 148.392 626.328 148.634C626.521 148.875 626.771 149.065 627.056 149.185C627.342 149.305 627.652 149.351 627.96 149.32C630.588 149.082 633.131 148.27 635.41 146.94C637.688 145.611 639.647 143.796 641.147 141.626C642.647 139.455 643.651 136.982 644.089 134.38C644.526 131.778 644.387 129.112 643.68 126.57C640.06 113.66 635.68 98.06 633.55 90.2C629.55 75.4 620 69.77 608.55 74.85C597.1 79.93 601.41 89.94 605.55 90.43C605.637 89.304 605.617 88.1722 605.49 87.05C605.49 87.05 609.49 90.53 617.6 91.97" fill="#6693CD"/>
<path d="M557.95 155.17C547.88 150.11 544.73 143.75 543.54 138.36C542.35 132.97 554.24 142.41 554.24 142.41L557.95 155.17Z" fill="#4071B7"/>
<path d="M625.03 133C625.911 131.149 626.128 129.052 625.646 127.06C625.163 125.068 624.01 123.302 622.38 122.06C616.57 117.61 607.38 112.64 601.17 119.5C591.51 130.19 581.51 150.3 581.51 150.3L554.24 141.46L549.67 150.56C549.67 150.56 576.23 175.48 593.33 171.95C606.33 169.27 619.49 144.68 625.08 132.95" fill="#F0F0F6"/>
<path fill-rule="evenodd" clip-rule="evenodd" d="M555.76 109.82H563.55V118.91C566.328 119.835 568.687 121.719 570.203 124.223C571.719 126.728 572.295 129.691 571.826 132.582C571.358 135.472 569.876 138.101 567.646 139.999C565.416 141.897 562.583 142.939 559.655 142.939C556.727 142.939 553.894 141.897 551.664 139.999C549.434 138.101 547.952 135.472 547.484 132.582C547.015 129.691 547.591 126.728 549.107 124.223C550.624 121.719 552.982 119.835 555.76 118.91V109.82Z" fill="white"/>
<path fill-rule="evenodd" clip-rule="evenodd" d="M555.26 109.32H564.05V118.555C566.792 119.555 569.115 121.461 570.631 123.965C572.208 126.571 572.807 129.654 572.32 132.662C571.832 135.669 570.29 138.405 567.97 140.38C565.649 142.354 562.702 143.439 559.655 143.439C556.608 143.439 553.661 142.354 551.34 140.38C549.02 138.405 547.478 135.669 546.99 132.662C546.503 129.654 547.102 126.571 548.679 123.965C550.195 121.461 552.518 119.555 555.26 118.555V109.32ZM556.26 110.32V119.271L555.918 119.384C553.252 120.272 550.99 122.079 549.535 124.482C548.08 126.886 547.528 129.728 547.977 132.502C548.427 135.275 549.849 137.798 551.988 139.618C554.128 141.439 556.846 142.439 559.655 142.439C562.464 142.439 565.182 141.439 567.322 139.618C569.461 137.798 570.883 135.275 571.333 132.502C571.782 129.728 571.23 126.886 569.775 124.482C568.32 122.079 566.058 120.272 563.392 119.384L563.05 119.271V110.32H556.26Z" fill="#B7BBCE"/>
<path fill-rule="evenodd" clip-rule="evenodd" d="M567.11 125C568.199 126.383 568.877 128.045 569.066 129.796C569.255 131.546 568.947 133.315 568.178 134.899C567.409 136.483 566.21 137.818 564.718 138.752C563.226 139.687 561.501 140.182 559.74 140.182C557.979 140.182 556.254 139.687 554.762 138.752C553.27 137.818 552.071 136.483 551.302 134.899C550.533 133.315 550.225 131.546 550.414 129.796C550.603 128.045 551.281 126.383 552.37 125H567.11Z" fill="#4175BA"/>
<path fill-rule="evenodd" clip-rule="evenodd" d="M198.84 298.15C237.47 270.07 260.94 235.53 260.24 190.66L198.84 170.1L137.16 190.91C135.72 238.44 161.69 271.29 198.84 298.15Z" fill="#0B4B9B"/>
<path fill-rule="evenodd" clip-rule="evenodd" d="M233.14 193.78H162.93C160.827 193.796 158.815 194.639 157.329 196.127C155.844 197.614 155.003 199.627 154.99 201.73V259.57C155.003 261.673 155.844 263.686 157.329 265.174C158.815 266.661 160.827 267.504 162.93 267.52H233.14C235.253 267.52 237.28 266.684 238.779 265.195C240.278 263.705 241.127 261.683 241.14 259.57V201.73C241.127 199.617 240.278 197.595 238.779 196.105C237.28 194.616 235.253 193.78 233.14 193.78Z" fill="#6693CD"/>
<path fill-rule="evenodd" clip-rule="evenodd" d="M162.93 193.495H233.14C235.328 193.495 237.428 194.361 238.98 195.903C240.532 197.446 241.411 199.54 241.425 201.728L241.425 201.73V259.57L241.425 259.572C241.411 261.76 240.532 263.854 238.98 265.397C237.428 266.939 235.328 267.805 233.14 267.805H162.93L162.928 267.805C160.75 267.789 158.667 266.916 157.128 265.375C155.589 263.834 154.719 261.749 154.705 259.572L154.705 259.57V201.728C154.719 199.55 155.589 197.466 157.128 195.925C158.667 194.384 160.75 193.511 162.928 193.495L162.93 193.495ZM162.931 194.065C160.904 194.08 158.964 194.893 157.531 196.328C156.098 197.762 155.288 199.703 155.275 201.731V259.569C155.288 261.596 156.098 263.537 157.531 264.972C158.964 266.406 160.903 267.219 162.93 267.235H233.14C235.178 267.235 237.133 266.429 238.578 264.992C240.024 263.556 240.842 261.607 240.855 259.569C240.855 259.569 240.855 259.569 240.855 259.568V201.732C240.855 201.731 240.855 201.731 240.855 201.73C240.842 199.693 240.024 197.744 238.578 196.307C237.133 194.871 235.178 194.065 233.14 194.065H162.931Z" fill="#6693CD"/>
<path fill-rule="evenodd" clip-rule="evenodd" d="M178.024 163.289C183.284 158.03 190.417 155.075 197.855 155.075C205.293 155.075 212.426 158.03 217.686 163.289C222.709 168.312 225.63 175.045 225.882 182.12H226.06V194.12H224.06V184.12H223.9V183.12C223.9 176.212 221.156 169.588 216.272 164.703C211.387 159.819 204.763 157.075 197.855 157.075C190.947 157.075 184.323 159.819 179.438 164.703C174.554 169.588 171.81 176.212 171.81 183.12V184.12H171.74V194.12H169.74V182.12H169.828C170.08 175.045 173.001 168.312 178.024 163.289Z" fill="#6693CD"/>
<path fill-rule="evenodd" clip-rule="evenodd" d="M196.45 232.26V244.14C196.45 244.71 196.677 245.257 197.08 245.66C197.483 246.063 198.03 246.29 198.6 246.29C199.17 246.29 199.717 246.063 200.12 245.66C200.523 245.257 200.75 244.71 200.75 244.14V232.26C202.67 231.739 204.336 230.538 205.437 228.881C206.539 227.225 207.001 225.224 206.738 223.252C206.475 221.28 205.505 219.47 204.008 218.16C202.511 216.849 200.59 216.126 198.6 216.126C196.61 216.126 194.689 216.849 193.192 218.16C191.695 219.47 190.725 221.28 190.462 223.252C190.199 225.224 190.661 227.225 191.763 228.881C192.864 230.538 194.53 231.739 196.45 232.26Z" fill="white"/>
<path fill-rule="evenodd" clip-rule="evenodd" d="M192.862 217.783C194.45 216.393 196.489 215.626 198.6 215.626C200.711 215.626 202.75 216.393 204.338 217.783C205.926 219.174 206.955 221.094 207.234 223.186C207.512 225.278 207.022 227.4 205.854 229.158C204.756 230.809 203.131 232.033 201.25 232.634V244.14C201.25 244.843 200.971 245.517 200.474 246.014C199.977 246.511 199.303 246.79 198.6 246.79C197.897 246.79 197.223 246.511 196.726 246.014C196.229 245.517 195.95 244.843 195.95 244.14V232.634C194.069 232.033 192.444 230.809 191.346 229.158C190.178 227.4 189.688 225.278 189.966 223.186C190.245 221.094 191.274 219.174 192.862 217.783ZM196.45 232.26H196.95V244.14C196.95 244.578 197.124 244.997 197.433 245.307C197.743 245.616 198.162 245.79 198.6 245.79C199.038 245.79 199.457 245.616 199.767 245.307C200.076 244.997 200.25 244.578 200.25 244.14V231.878L200.619 231.777C202.422 231.288 203.986 230.161 205.021 228.605C206.055 227.049 206.489 225.17 206.242 223.318C205.996 221.466 205.085 219.767 203.679 218.536C202.273 217.305 200.468 216.626 198.6 216.626C196.732 216.626 194.927 217.305 193.521 218.536C192.115 219.767 191.204 221.466 190.958 223.318C190.711 225.17 191.145 227.049 192.179 228.605C193.214 230.161 194.778 231.288 196.581 231.777L196.45 232.26Z" fill="white"/>
<path d="M137.46 101.41C136.72 95.29 132.53 91.17 128.1 92.2C123.67 93.23 120.69 99.03 121.43 105.14C122.01 109.91 124.7 113.47 127.95 114.31C128.883 114.741 129.933 114.849 130.934 114.617C131.935 114.385 132.831 113.827 133.48 113.03C136.35 110.76 138.04 106.18 137.48 101.41" fill="#6693CD"/>
<path fill-rule="evenodd" clip-rule="evenodd" d="M126.75 97.4898C126.964 97.5 127.166 97.5916 127.315 97.7459C127.464 97.9002 127.548 98.1056 127.55 98.3198V99.8998C127.552 100.003 127.532 100.105 127.492 100.2C127.453 100.294 127.394 100.38 127.32 100.451C127.246 100.523 127.158 100.578 127.062 100.614C126.965 100.65 126.863 100.665 126.76 100.66C126.547 100.647 126.346 100.555 126.198 100.401C126.05 100.247 125.965 100.043 125.96 99.8298V98.2498C125.958 98.147 125.978 98.0451 126.018 97.9502C126.057 97.8553 126.116 97.7695 126.19 97.6983C126.264 97.627 126.352 97.5717 126.448 97.5359C126.545 97.5 126.647 97.4843 126.75 97.4898Z" fill="#0B4B9B"/>
<path fill-rule="evenodd" clip-rule="evenodd" d="M126.61 101.58C126.823 101.597 127.023 101.692 127.17 101.847C127.318 102.002 127.403 102.206 127.41 102.42V103.94C127.413 104.042 127.395 104.144 127.356 104.239C127.318 104.334 127.26 104.42 127.187 104.491C127.113 104.562 127.026 104.618 126.93 104.654C126.834 104.69 126.732 104.706 126.63 104.7C126.416 104.688 126.214 104.596 126.064 104.442C125.914 104.288 125.827 104.084 125.82 103.87V102.35C125.819 102.247 125.838 102.144 125.878 102.049C125.917 101.954 125.976 101.867 126.049 101.795C126.123 101.723 126.211 101.667 126.308 101.63C126.404 101.593 126.507 101.576 126.61 101.58Z" fill="#0B4B9B"/>
<path fill-rule="evenodd" clip-rule="evenodd" d="M126.74 106.09C126.954 106.1 127.156 106.192 127.305 106.346C127.454 106.5 127.538 106.706 127.54 106.92V108.35C127.541 108.453 127.522 108.556 127.482 108.651C127.443 108.746 127.384 108.833 127.311 108.905C127.237 108.977 127.149 109.033 127.052 109.07C126.956 109.107 126.853 109.124 126.75 109.12C126.537 109.107 126.336 109.015 126.188 108.861C126.04 108.707 125.955 108.504 125.95 108.29V106.85C125.948 106.747 125.968 106.645 126.008 106.55C126.047 106.455 126.106 106.37 126.18 106.298C126.254 106.227 126.342 106.172 126.438 106.136C126.535 106.1 126.637 106.084 126.74 106.09Z" fill="#0B4B9B"/>
<path fill-rule="evenodd" clip-rule="evenodd" d="M129.69 97.3599C129.955 97.3599 130.21 97.4652 130.397 97.6528C130.585 97.8403 130.69 98.0946 130.69 98.3599V99.6599C130.701 99.7939 130.682 99.9286 130.635 100.055C130.589 100.181 130.516 100.295 130.42 100.39C130.325 100.485 130.211 100.559 130.085 100.605C129.959 100.652 129.824 100.67 129.69 100.66C129.429 100.645 129.183 100.536 128.999 100.351C128.814 100.167 128.704 99.9204 128.69 99.6599V98.4299C128.679 98.2959 128.698 98.1612 128.745 98.0351C128.791 97.909 128.864 97.7944 128.96 97.6994C129.055 97.6044 129.169 97.531 129.295 97.4845C129.421 97.438 129.556 97.4193 129.69 97.4299" fill="#0B4B9B"/>
<path fill-rule="evenodd" clip-rule="evenodd" d="M129.66 101.49C129.921 101.504 130.167 101.614 130.351 101.799C130.536 101.983 130.646 102.229 130.66 102.49V103.49C130.671 103.624 130.652 103.759 130.605 103.885C130.559 104.011 130.486 104.125 130.39 104.22C130.295 104.315 130.181 104.389 130.055 104.435C129.929 104.482 129.794 104.5 129.66 104.49C129.399 104.475 129.153 104.366 128.969 104.181C128.784 103.997 128.674 103.75 128.66 103.49V102.44C128.649 102.306 128.668 102.171 128.715 102.045C128.761 101.919 128.834 101.804 128.93 101.709C129.025 101.614 129.139 101.541 129.265 101.495C129.391 101.448 129.526 101.429 129.66 101.44" fill="#0B4B9B"/>
<path fill-rule="evenodd" clip-rule="evenodd" d="M129.6 105.94C129.865 105.94 130.12 106.045 130.307 106.233C130.495 106.42 130.6 106.675 130.6 106.94V108.17C130.6 108.435 130.495 108.689 130.307 108.877C130.12 109.065 129.865 109.17 129.6 109.17C129.339 109.155 129.093 109.046 128.909 108.861C128.724 108.677 128.614 108.43 128.6 108.17V106.94C128.589 106.806 128.608 106.671 128.655 106.545C128.701 106.419 128.774 106.304 128.87 106.209C128.965 106.114 129.079 106.041 129.205 105.995C129.331 105.948 129.466 105.929 129.6 105.94Z" fill="#0B4B9B"/>
<path fill-rule="evenodd" clip-rule="evenodd" d="M132.87 97.0801C133.192 97.095 133.497 97.2311 133.723 97.461C133.949 97.6909 134.08 97.9977 134.09 98.3201V99.4401C134.094 99.5957 134.066 99.7505 134.009 99.8951C133.951 100.04 133.864 100.171 133.753 100.28C133.643 100.39 133.511 100.476 133.366 100.532C133.221 100.589 133.066 100.616 132.91 100.61C132.587 100.593 132.282 100.454 132.056 100.223C131.83 99.9914 131.7 99.6834 131.69 99.3601V98.2401C131.687 98.0853 131.716 97.9315 131.775 97.7882C131.833 97.6448 131.92 97.5149 132.031 97.4064C132.141 97.2978 132.272 97.2129 132.417 97.1568C132.561 97.1007 132.715 97.0746 132.87 97.0801Z" fill="#0B4B9B"/>
<path fill-rule="evenodd" clip-rule="evenodd" d="M133.15 101.45C133.472 101.465 133.777 101.601 134.003 101.831C134.229 102.061 134.36 102.368 134.37 102.69V103.36C134.374 103.516 134.346 103.67 134.289 103.815C134.231 103.959 134.144 104.091 134.033 104.2C133.923 104.31 133.791 104.396 133.646 104.452C133.501 104.509 133.346 104.535 133.19 104.53C132.869 104.517 132.564 104.384 132.338 104.155C132.111 103.927 131.98 103.621 131.97 103.3V102.66C131.966 102.504 131.994 102.349 132.051 102.205C132.109 102.06 132.196 101.929 132.307 101.82C132.417 101.71 132.549 101.624 132.694 101.568C132.839 101.511 132.994 101.484 133.15 101.49" fill="#0B4B9B"/>
<path fill-rule="evenodd" clip-rule="evenodd" d="M132.87 105.91C133.192 105.923 133.497 106.058 133.722 106.289C133.947 106.52 134.075 106.828 134.08 107.15V108.33C134.083 108.486 134.054 108.64 133.995 108.784C133.935 108.928 133.847 109.059 133.736 109.167C133.624 109.276 133.492 109.361 133.346 109.416C133.201 109.472 133.046 109.497 132.89 109.49C132.568 109.477 132.263 109.342 132.038 109.111C131.813 108.88 131.685 108.572 131.68 108.25V107.07C131.677 106.914 131.706 106.76 131.765 106.616C131.825 106.472 131.913 106.341 132.024 106.233C132.136 106.124 132.268 106.039 132.414 105.984C132.559 105.928 132.714 105.903 132.87 105.91Z" fill="#0B4B9B"/>
<path fill-rule="evenodd" clip-rule="evenodd" d="M125.77 97.0699C125.984 97.0801 126.186 97.1717 126.335 97.326C126.484 97.4803 126.568 97.6856 126.57 97.8999V99.4699C126.571 99.5731 126.552 99.6756 126.512 99.771C126.473 99.8663 126.414 99.9527 126.341 100.025C126.267 100.097 126.179 100.153 126.082 100.19C125.986 100.227 125.883 100.244 125.78 100.24C125.565 100.227 125.363 100.134 125.214 99.9776C125.066 99.8217 124.982 99.6152 124.98 99.3999V97.8299C124.978 97.7271 124.998 97.6251 125.038 97.5302C125.077 97.4354 125.136 97.3496 125.21 97.2784C125.284 97.2071 125.372 97.1518 125.468 97.1159C125.565 97.0801 125.667 97.0644 125.77 97.0699Z" fill="white"/>
<path fill-rule="evenodd" clip-rule="evenodd" d="M125.62 101.16C125.833 101.173 126.034 101.265 126.182 101.419C126.33 101.573 126.415 101.776 126.42 101.99V103.52C126.422 103.623 126.402 103.725 126.362 103.82C126.323 103.915 126.264 104 126.19 104.072C126.116 104.143 126.028 104.198 125.932 104.234C125.835 104.27 125.733 104.286 125.63 104.28C125.417 104.268 125.216 104.175 125.068 104.021C124.92 103.868 124.835 103.664 124.83 103.45V101.93C124.826 101.827 124.843 101.724 124.881 101.628C124.919 101.532 124.976 101.445 125.049 101.372C125.123 101.3 125.211 101.243 125.307 101.207C125.404 101.17 125.507 101.154 125.61 101.16" fill="white"/>
<path fill-rule="evenodd" clip-rule="evenodd" d="M125.75 105.66C125.962 105.675 126.162 105.768 126.31 105.921C126.457 106.074 126.543 106.277 126.55 106.49V107.93C126.553 108.032 126.535 108.134 126.496 108.229C126.458 108.324 126.4 108.41 126.327 108.481C126.253 108.553 126.166 108.608 126.07 108.644C125.974 108.68 125.872 108.696 125.77 108.69C125.555 108.68 125.352 108.589 125.201 108.435C125.051 108.281 124.965 108.075 124.96 107.86V106.43C124.957 106.327 124.975 106.225 125.014 106.13C125.052 106.034 125.11 105.948 125.183 105.876C125.256 105.803 125.343 105.747 125.439 105.71C125.535 105.673 125.637 105.656 125.74 105.66" fill="white"/>
<path fill-rule="evenodd" clip-rule="evenodd" d="M128.7 96.9299C128.965 96.9299 129.22 97.0352 129.407 97.2228C129.595 97.4103 129.7 97.6646 129.7 97.9299V99.1599C129.711 99.2939 129.692 99.4286 129.645 99.5547C129.599 99.6808 129.526 99.7953 129.43 99.8903C129.335 99.9854 129.221 100.059 129.095 100.105C128.969 100.152 128.834 100.17 128.7 100.16C128.439 100.145 128.193 100.036 128.009 99.851C127.824 99.6665 127.714 99.4204 127.7 99.1599V97.9299C127.689 97.7959 127.708 97.6612 127.755 97.5351C127.801 97.409 127.874 97.2944 127.97 97.1994C128.065 97.1043 128.179 97.031 128.305 96.9845C128.431 96.938 128.566 96.9193 128.7 96.9299Z" fill="white"/>
<path fill-rule="evenodd" clip-rule="evenodd" d="M128.68 101.07C128.945 101.07 129.2 101.175 129.387 101.363C129.575 101.55 129.68 101.805 129.68 102.07V103.07C129.68 103.335 129.575 103.59 129.387 103.777C129.2 103.965 128.945 104.07 128.68 104.07C128.419 104.056 128.173 103.946 127.989 103.761C127.804 103.577 127.694 103.331 127.68 103.07V102.07C127.68 101.805 127.785 101.55 127.973 101.363C128.16 101.175 128.415 101.07 128.68 101.07Z" fill="white"/>
<path fill-rule="evenodd" clip-rule="evenodd" d="M128.62 105.52C128.881 105.534 129.127 105.644 129.311 105.829C129.496 106.013 129.606 106.26 129.62 106.52V107.75C129.623 107.88 129.599 108.009 129.549 108.129C129.499 108.249 129.425 108.357 129.331 108.447C129.237 108.536 129.125 108.605 129.002 108.649C128.88 108.692 128.75 108.71 128.62 108.7C128.355 108.7 128.1 108.595 127.913 108.407C127.725 108.22 127.62 107.965 127.62 107.7V106.47C127.611 106.336 127.631 106.203 127.678 106.077C127.725 105.952 127.799 105.838 127.893 105.743C127.988 105.649 128.102 105.575 128.227 105.528C128.352 105.481 128.486 105.461 128.62 105.47" fill="white"/>
<path fill-rule="evenodd" clip-rule="evenodd" d="M131.89 96.66C132.212 96.675 132.517 96.811 132.743 97.0409C132.969 97.2708 133.1 97.5777 133.11 97.9V99.02C133.114 99.1761 133.086 99.3314 133.028 99.4761C132.969 99.6209 132.881 99.7518 132.769 99.8608C132.657 99.9698 132.524 100.054 132.378 100.109C132.232 100.164 132.076 100.188 131.92 100.18C131.599 100.165 131.295 100.029 131.071 99.7984C130.846 99.5683 130.717 99.2615 130.71 98.94V97.82C130.707 97.6644 130.736 97.5097 130.795 97.3657C130.855 97.2217 130.943 97.0913 131.054 96.9826C131.166 96.8739 131.298 96.7892 131.444 96.7337C131.589 96.6783 131.744 96.6532 131.9 96.66" fill="white"/>
<path fill-rule="evenodd" clip-rule="evenodd" d="M132.17 101.03C132.493 101.043 132.799 101.178 133.026 101.408C133.252 101.639 133.383 101.947 133.39 102.27V102.94C133.393 103.096 133.364 103.251 133.305 103.396C133.246 103.54 133.158 103.671 133.046 103.781C132.935 103.89 132.803 103.976 132.657 104.032C132.512 104.089 132.356 104.115 132.2 104.11C131.877 104.097 131.571 103.962 131.344 103.732C131.118 103.501 130.987 103.193 130.98 102.87V102.2C130.977 102.044 131.006 101.889 131.065 101.744C131.124 101.6 131.212 101.469 131.324 101.359C131.435 101.25 131.567 101.164 131.713 101.108C131.858 101.051 132.014 101.025 132.17 101.03Z" fill="white"/>
<path fill-rule="evenodd" clip-rule="evenodd" d="M131.88 105.49C132.202 105.505 132.507 105.641 132.733 105.871C132.959 106.101 133.09 106.408 133.1 106.73V107.91C133.101 108.065 133.071 108.219 133.012 108.363C132.952 108.506 132.864 108.636 132.753 108.744C132.642 108.853 132.51 108.937 132.365 108.993C132.22 109.049 132.065 109.075 131.91 109.07C131.588 109.055 131.283 108.919 131.057 108.689C130.831 108.459 130.7 108.152 130.69 107.83V106.66C130.687 106.505 130.716 106.351 130.775 106.208C130.833 106.065 130.92 105.935 131.031 105.826C131.141 105.718 131.272 105.633 131.417 105.577C131.561 105.521 131.715 105.495 131.87 105.5" fill="white"/>
<path d="M58.49 128.66C58.49 128.66 79.24 151.16 86.24 154.49C93.24 157.82 90.24 129.16 93.24 121.8C96.24 114.44 100.38 111.2 99.94 113.4C99.5 115.6 98.66 119.66 98.66 119.66C98.66 119.66 106.47 123.74 102.43 129.95C98.39 136.16 101.71 135.41 101.71 135.41C101.71 135.41 114.08 173.27 91.99 175.26L58.49 128.66Z" fill="#DBDBDC"/>
<path d="M53.91 301.17H17.78L0 371.92L31.77 381.02L26.95 376.18L53.91 301.17Z" fill="#1F3563"/>
<path d="M91.89 375.84L89.94 307.8L53.99 295.43L66.7 381.02H98.67L91.89 375.84Z" fill="#0B4B9B"/>
<path fill-rule="evenodd" clip-rule="evenodd" d="M105.23 381.77H2.58V380.27H105.23V381.77Z" fill="#B7BBCE"/>
<path d="M73.29 94.4899L74.62 94.2499C74.62 94.2499 73.03 92.4699 74.06 84.0699C75.09 75.6699 62.98 73.3799 56.39 80.6699C46.64 91.4399 53.29 117.06 53.29 117.06H71.41C71.41 117.06 68.24 106.3 68.24 102.66C68.24 102.66 63.64 103.36 61.24 100.77C74.05 103.97 73.24 94.4899 73.24 94.4899" fill="#4071B7"/>
<path fill-rule="evenodd" clip-rule="evenodd" d="M69.47 90.8303C69.1112 90.8303 68.7669 90.9721 68.5121 91.2249L67.8078 90.515C68.2499 90.0764 68.8473 89.8303 69.47 89.8303C70.0927 89.8303 70.6901 90.0764 71.1321 90.515L70.4278 91.2249C70.1731 90.9721 69.8288 90.8303 69.47 90.8303Z" fill="white"/>
<path d="M71.4 95.6599C71.0533 96.0049 70.5841 96.1986 70.095 96.1986C69.6059 96.1986 69.1367 96.0049 68.79 95.6599H71.4Z" fill="#0B4B9B"/>
<path fill-rule="evenodd" clip-rule="evenodd" d="M67.5788 95.1599H72.6112L71.7527 96.0143C71.3123 96.4526 70.7163 96.6986 70.095 96.6986C69.4737 96.6986 68.8777 96.4526 68.4373 96.0143L67.5788 95.1599Z" fill="#0B4B9B"/>
<path d="M76.55 86.5599H62.85C62.85 86.5599 58.24 96.5099 59.98 105.66L40.43 103.23C40.43 103.23 40.54 72.5299 57.99 71.5299C75.44 70.5299 76.55 86.5299 76.55 86.5299" fill="#DBDBDC"/>
<path d="M54.8 108.22C38.31 110.87 45.91 162.86 45.91 162.86H91.47C88.52 122.8 71.29 105.57 54.8 108.22Z" fill="#F0F0F6"/>
<path d="M91.47 162.86C88.96 145.12 61.16 156.55 61.16 156.55L45.91 162.86L2.59 303.66L98.68 317.58C98.68 317.58 93.98 180.58 91.47 162.85" fill="#F0F0F6"/>
<path d="M86.65 148.55L61.16 134.39C61.16 134.39 60.09 146.01 84.5 160.15C84.5 160.15 97.42 159.96 86.65 148.55Z" fill="#DBDBDC"/>
<path d="M123.99 112.96C122.81 110.09 121.07 105.81 119.89 110.27C119.323 112.661 118.392 114.951 117.13 117.06C117.13 117.06 116.13 114.58 115.22 115.17C114.31 115.76 115.36 120.17 115.36 120.17L97.99 134.76L83.1 120.22L58.54 138.22C58.54 138.22 64.74 144.86 89.61 156.22C114.48 167.58 123.46 123.22 123.46 123.22C123.46 123.22 125.17 115.78 123.99 112.91" fill="#F0F0F6"/>
<path d="M71.9 111.91C71.7526 111.221 71.4025 110.592 70.8946 110.104C70.3867 109.615 69.7442 109.29 69.05 109.17L51.45 106.17L49.89 112.17L72.42 114.38L71.9 111.91Z" fill="#DBDBDC"/>
<path d="M56.36 113.89C50.19 119.36 52.08 131.56 60.58 141.14L82.9 121.37C74.4 111.78 62.52 108.43 56.36 113.89Z" fill="#F0F0F6"/>
<path d="M114.1 112.78C114.18 110.84 116.66 113.65 116.66 113.65C116.66 113.65 116.98 103.04 121.16 107.65C126.74 113.78 123.61 122.26 123.61 122.26L116.61 120.84C115.47 119.84 114.02 114.73 114.09 112.84" fill="#4071B7"/>
<path d="M101.86 130.06C104.33 129.2 103.33 124.43 103.33 124.43C105.53 120.12 98.95 118.12 98.95 118.12C98.95 118.12 100.95 114.47 99.87 112.72C98.79 110.97 94.66 118.46 93.42 121.78C93.17 122.44 90.49 127.36 91.94 129.57C92.83 130.92 94.49 131.98 96.68 134.39L101.86 130.06Z" fill="#4071B7"/>
<path fill-rule="evenodd" clip-rule="evenodd" d="M97.9657 134.576L82.6295 119.583L81.9305 120.298L97.9143 135.924L115.641 121.053L114.999 120.287L97.9657 134.576Z" fill="white"/>
</svg>
