<svg width="399" height="240" viewBox="0 0 399 240" fill="none" xmlns="http://www.w3.org/2000/svg">
<g clip-path="url(#clip0_2686_13418)">
<path d="M180.722 32.686L199.497 31.6412L194.696 17.9363L176.738 16.3633L180.722 32.686Z" fill="white"/>
<path fill-rule="evenodd" clip-rule="evenodd" d="M176.55 16.2012L194.802 17.8L199.698 31.7755L180.61 32.8377L176.55 16.2012ZM176.927 16.5256L180.834 32.5345L199.297 31.5071L194.59 18.0728L176.927 16.5256Z" fill="#B7BBCE"/>
<path d="M182.287 30.0739H196.894L193.763 19.6313L179.162 18.5864L182.287 30.0739Z" fill="#074C9C"/>
<path d="M233.47 32.541L213.385 52.6832C213.385 52.6832 212.625 47.3719 211.488 41.6543C210.213 35.1879 208.462 28.2049 206.815 27.7812C203.707 26.9801 196.749 25.8192 197.433 27.4097C198.117 29.0001 201.312 29.6909 201.312 29.6909C201.312 29.6909 199.26 35.1705 203.475 35.8555C203.475 35.8555 203.197 38.0264 202.895 41.3467C201.892 51.4584 200.46 72.2566 205.215 74.7874C211.593 78.1483 229.707 71.8212 229.707 71.8212L233.47 32.541Z" fill="#DBDBDC"/>
<path d="M173.485 169.653L215.42 185.866L218.191 213.722L194.238 226.051L195.838 215.545L173.485 169.653Z" fill="#4175BA"/>
<path d="M216.904 200.795L218.192 213.722L194.238 226.051L195.839 215.545L189.53 202.6L216.904 200.795Z" fill="#DBDBDC"/>
<path d="M205.215 162.461H241.113V239.083H213.385L219.879 230.277C219.879 230.277 206.589 180.937 205.191 162.461" fill="#6693CD"/>
<path d="M228.333 4.51001L234.131 21.094L226.779 23.9905C226.527 24.0921 226.255 24.1334 225.985 24.111C225.714 24.0887 225.453 24.0033 225.221 23.8617C224.99 23.7201 224.795 23.5263 224.651 23.2957C224.508 23.065 224.42 22.804 224.396 22.5335C223.967 18.2206 223.659 8.89254 228.333 4.53903" fill="#DBDBDC"/>
<path d="M231.661 16.9668L230.623 16.7753C230.623 16.7753 231.864 15.3938 231.064 8.88673C230.264 2.3797 239.646 0.59766 244.748 6.24561C252.292 14.5985 247.131 34.4389 247.131 34.4389H233.117C233.117 34.4389 235.587 26.0976 235.587 23.2707C235.587 23.2707 239.147 23.8222 240.985 21.8079C231.064 24.2923 231.661 16.9436 231.661 16.9436" fill="#4071B7"/>
<path fill-rule="evenodd" clip-rule="evenodd" d="M233.559 14.1123C233.839 13.832 234.219 13.6746 234.615 13.6746C235.012 13.6746 235.392 13.832 235.672 14.1123L235.582 14.2026C235.326 13.9463 234.978 13.8023 234.615 13.8023C234.253 13.8023 233.905 13.9463 233.649 14.2026L233.559 14.1123Z" fill="#20499A"/>
<path fill-rule="evenodd" clip-rule="evenodd" d="M232.969 17.8259H235.294L235.185 17.9349C235.047 18.0735 234.883 18.1835 234.702 18.2585C234.521 18.3336 234.327 18.3722 234.131 18.3722C233.936 18.3722 233.742 18.3336 233.561 18.2585C233.38 18.1835 233.216 18.0735 233.077 17.9349L232.969 17.8259ZM233.29 17.9536C233.388 18.03 233.495 18.093 233.61 18.1406C233.775 18.2092 233.952 18.2445 234.131 18.2445C234.31 18.2445 234.488 18.2092 234.653 18.1406C234.768 18.093 234.875 18.03 234.972 17.9536H233.29Z" fill="#20499A"/>
<path d="M236.236 8.25414C236.236 7.98132 236.236 11.1565 231.325 13.3971C226.414 15.6377 224.175 10.8198 227.266 5.93808C230.357 1.05635 237.274 -0.969483 241.623 0.458467C245.972 1.88642 253.075 6.26314 248.859 20.1944L244.192 16.8799C244.192 16.8799 246.355 13.9137 243.96 13.0024C241.565 12.091 241.171 14.5406 241.171 14.5406C241.171 14.5406 236.491 11.8008 236.236 8.23673" fill="#F0F0F6"/>
<path d="M244.232 27.6127C256.989 29.6676 251.115 69.9868 251.115 69.9868H215.82C218.099 38.9318 231.441 25.5753 244.232 27.6127Z" fill="#F0F0F6"/>
<path d="M215.82 69.9695H251.098L248.871 190.202C248.871 190.202 222.987 205.294 159.354 178.9L215.82 69.9695Z" fill="#F0F0F6"/>
<path d="M215.82 69.9695L246.801 44.2664C246.801 44.2664 253.011 75.4258 204.809 91.2029L215.82 69.9695Z" fill="#DBDBDC"/>
<path d="M184.775 29.2148C184.241 27.4444 182.49 28.1583 182.49 28.1583C182.49 28.1583 179.817 23.7642 178.397 24.0486C176.976 24.3331 174.129 31.0142 178.054 37.9044L185.749 33.6902C185.499 32.183 185.174 30.6894 184.775 29.2148Z" fill="#4071B7"/>
<path d="M243.49 35.5652C243.49 35.5652 252.292 64.5886 224.355 78.6127C196.418 92.6368 179.527 47.935 177.388 39.228L186.439 33.9283L211.285 57.0774C211.285 57.0774 233.847 14.5523 243.49 35.571" fill="#F0F0F6"/>
<path d="M241.113 223.886V239.094H213.385L219.879 230.277C219.879 230.277 218.719 226.028 217.078 219.567L241.113 223.886Z" fill="#DBDBDC"/>
<path fill-rule="evenodd" clip-rule="evenodd" d="M228.938 32.9135C229.254 32.6653 229.533 32.4871 229.762 32.4043L229.861 32.6773C229.676 32.7439 229.427 32.8984 229.117 33.1418C228.81 33.3831 228.453 33.7045 228.054 34.0952C227.256 34.8765 226.298 35.9283 225.246 37.1555C223.144 39.6095 220.677 42.7575 218.399 45.8286C216.121 48.9 214.033 51.8915 212.685 54.0325C212.01 55.105 211.526 55.9568 211.295 56.4968C211.246 56.6115 211.209 56.7096 211.185 56.791L211.547 57.1074L211.348 57.2024C211.257 57.2456 211.156 57.2788 211.063 57.2615C211.01 57.2518 210.961 57.2264 210.924 57.1824C210.888 57.1405 210.871 57.0915 210.864 57.0466C210.857 57.0003 210.858 56.9495 210.865 56.8963L201.229 48.4795L201.419 48.2608L210.948 56.5842C210.971 56.5213 210.998 56.4539 211.028 56.3826C211.269 55.8195 211.765 54.9507 212.44 53.8778C213.793 51.728 215.886 48.7299 218.166 45.6556C220.447 42.581 222.918 39.4273 225.026 36.9665C226.08 35.7364 227.045 34.6775 227.852 33.8878C228.255 33.493 228.62 33.1637 228.938 32.9135Z" fill="white"/>
<path d="M202.988 40.1798C203.249 37.5387 203.452 35.8844 203.452 35.8844C199.393 35.1878 201.364 29.6385 201.364 29.6385C201.364 29.6385 198.291 28.942 197.63 27.3167C196.969 25.6913 203.672 26.8755 206.67 27.6881C208.137 28.0887 209.691 34.172 210.891 40.2727L202.988 40.1798Z" fill="#4071B7"/>
<path d="M363.843 84.0574C363.843 84.0574 370.163 115.937 347.688 120.772C325.213 125.607 309.998 111.09 309.998 111.09C309.998 111.09 306.995 112.396 303.73 108.187C303.73 108.187 300.332 109.534 300.46 107.485C300.587 105.436 304.455 94.5871 341.177 104.275L349.184 85.3983L363.843 84.0574Z" fill="#DBDBDC"/>
<path d="M368.319 71.6354C361.674 69.0407 352.663 76.2094 348.245 87.633L372.303 97.0134C376.744 85.5898 374.964 74.2243 368.319 71.6354Z" fill="#DBDBDC"/>
<path d="M320.337 152.32L355.667 136.108L365.315 81.4569C365.315 81.4569 362.677 57.0192 379.928 65.1225C397.178 73.2258 410.474 144.618 381.603 161.561C352.733 178.505 300.616 163.976 320.337 152.344" fill="#1F3563"/>
<path fill-rule="evenodd" clip-rule="evenodd" d="M332.808 167.374C346.939 170.33 367.105 169.719 381.457 161.311L381.75 161.812C367.231 170.318 346.904 170.915 332.689 167.942C329.132 167.198 325.949 166.228 323.329 165.099C320.713 163.971 318.64 162.675 317.319 161.269C315.995 159.858 315.402 158.303 315.844 156.696C316.28 155.112 317.7 153.562 320.19 152.094L320.484 152.594C318.044 154.033 316.779 155.481 316.403 156.85C316.033 158.197 316.502 159.551 317.742 160.871C318.985 162.196 320.978 163.453 323.558 164.566C326.135 165.676 329.279 166.635 332.808 167.374Z" fill="black"/>
<path fill-rule="evenodd" clip-rule="evenodd" d="M350.327 235.356V169.235H350.907V235.356H350.327Z" fill="#B7BBCE"/>
<path d="M314.185 228.164L310.259 208.057L329.58 207.052L329.365 231.751L311.836 232.657L314.185 228.164Z" fill="#1F3563"/>
<path d="M335.169 234.265L329.435 214.599L348.581 211.842L350.617 236.459L333.244 238.955L335.169 234.265Z" fill="#0B4B9B"/>
<path fill-rule="evenodd" clip-rule="evenodd" d="M365.124 240H283.325V239.129H365.124V240Z" fill="#B7BBCE"/>
<path fill-rule="evenodd" clip-rule="evenodd" d="M242.4 240H160.601V239.129H242.4V240Z" fill="#B7BBCE"/>
<path d="M367.27 68.4834C345.056 71.0317 345.873 124.371 345.873 124.371H384.653C381.754 83.3956 383.726 66.6027 367.258 68.4834" fill="#F0F0F6"/>
<path d="M379.493 131.122L344.238 123.744C344.238 123.744 288.231 127.128 307.285 209.74L330.304 214.564L335.697 164.609C335.697 164.609 377.684 176.067 379.493 131.11" fill="#4175BA"/>
<path d="M372.883 116.285L347.114 108.28C347.114 108.28 356.108 112.785 359.111 96.2763C360.886 86.4896 374.187 92.718 374.187 92.718L372.883 116.285Z" fill="#DBDBDC"/>
<path d="M385.198 123.686H346.418C346.418 123.686 288.156 138.627 326.42 216.358H351.736L346.418 165.857C346.418 165.857 393.189 168.486 385.198 123.674" fill="#6693CD"/>
<path d="M338.016 123.726L384.665 120.168C384.665 120.168 401.098 157.08 347.346 172.201C347.346 172.201 334.908 171.754 317.136 166.861C295.328 160.859 306.032 150.852 306.032 150.852C306.032 150.852 310.132 135.249 338.016 123.726Z" fill="#F0F0F6"/>
<path d="M366.469 110.399L383.088 114.602C383.088 114.602 387.408 125.903 371.798 131.087C356.189 136.27 331.082 112.872 331.082 112.872L366.469 110.399Z" fill="#DBDBDC"/>
<path d="M387.524 88.4224C389.698 95.7398 389.062 103.606 385.74 110.479C382.419 117.351 376.652 122.732 369.571 125.567C362.491 128.402 354.607 128.486 347.468 125.802C340.329 123.118 334.449 117.861 330.983 111.061C330.983 111.061 327.979 112.372 324.709 108.158C324.709 108.158 321.317 109.511 321.444 107.462C321.572 105.413 326.541 99.2655 363.263 108.953L361.836 89.4208L387.524 88.4224Z" fill="#F0F0F6"/>
<path fill-rule="evenodd" clip-rule="evenodd" d="M323.03 105.733C322.03 106.407 321.759 107.1 321.734 107.503C321.72 107.721 321.755 107.87 321.807 107.972C321.858 108.073 321.934 108.147 322.038 108.204C322.261 108.324 322.601 108.354 323.001 108.316C323.391 108.278 323.791 108.179 324.098 108.088C324.251 108.042 324.378 107.999 324.467 107.968C324.511 107.952 324.546 107.939 324.569 107.93L324.595 107.92L324.601 107.918L324.602 107.918L324.804 107.837L324.938 108.009C326.535 110.064 328.043 110.745 329.122 110.931C329.665 111.024 330.109 110.994 330.414 110.942C330.567 110.916 330.684 110.884 330.762 110.86C330.8 110.848 330.829 110.838 330.847 110.831C330.856 110.828 330.862 110.826 330.866 110.824L330.868 110.823C330.868 110.823 330.868 110.823 330.983 111.09C331.099 111.356 331.098 111.356 331.098 111.356L331.096 111.357L331.093 111.358L331.083 111.362C331.075 111.366 331.064 111.37 331.05 111.375C331.022 111.385 330.983 111.399 330.933 111.415C330.834 111.446 330.691 111.483 330.511 111.514C330.151 111.575 329.64 111.609 329.023 111.503C327.815 111.295 326.239 110.559 324.612 108.532C324.52 108.564 324.401 108.603 324.264 108.644C323.939 108.741 323.499 108.851 323.057 108.893C322.625 108.935 322.141 108.918 321.763 108.715C321.567 108.609 321.4 108.453 321.29 108.234C321.18 108.019 321.137 107.761 321.155 107.467C321.194 106.845 321.592 106.002 322.707 105.251C323.818 104.502 325.651 103.836 328.602 103.544C334.503 102.958 344.966 103.855 363.337 108.702L363.189 109.263C344.838 104.422 334.456 103.546 328.66 104.121C325.762 104.409 324.034 105.057 323.03 105.733ZM330.869 110.823C330.869 110.823 330.869 110.823 330.869 110.823V110.823Z" fill="white"/>
<path d="M330.919 103.7C322.801 103.863 321.166 106.342 321.062 107.508C320.934 109.552 324.332 108.205 324.332 108.205C327.597 112.39 330.6 111.107 330.6 111.107L330.919 103.7Z" fill="#4071B7"/>
<path d="M308.468 101.019C301.016 104.24 300.442 107.16 300.814 108.263C301.469 110.207 304.101 107.682 304.101 107.682C308.74 110.318 310.996 107.967 310.996 107.967L308.468 101.019Z" fill="#4071B7"/>
<path d="M292.626 111.554L296.453 107.984H334.381L337.222 113.882L282.763 113.777C282.55 113.752 282.355 113.645 282.221 113.478C282.086 113.31 282.023 113.097 282.044 112.883C282.024 112.67 282.087 112.458 282.22 112.29C282.353 112.122 282.545 112.013 282.757 111.984L292.626 111.554Z" fill="#0B4B9B"/>
<path d="M313.588 104.438L251.776 103.422L242.504 62.824L306.374 61.2974L313.588 104.438Z" fill="#0B4B9B"/>
<path d="M287.512 113.481H278.142L273.213 92.9966H282.577L287.512 113.481Z" fill="#0B4B9B"/>
<path fill-rule="evenodd" clip-rule="evenodd" d="M272.845 92.7063H282.806L287.88 113.771H277.913L272.845 92.7063ZM273.581 93.2868L278.37 113.191H287.144L282.349 93.2868H273.581Z" fill="white"/>
<path d="M353.475 55.3009L352.408 55.2719C352.408 55.2719 353.458 53.8033 351.759 47.8361C350.06 41.8689 359.21 38.8215 365.095 43.3433C373.793 50.0245 373.793 68.9942 373.793 68.9942L359.042 71.1767C359.042 71.1767 358.653 63.2708 358.265 60.6296C358.265 60.6296 361.906 60.6296 363.483 58.4645C353.893 62.2549 353.475 55.3009 353.475 55.3009Z" fill="#4071B7"/>
<path d="M353.04 55.2894C353.04 55.2894 351.741 63.027 355.261 64.6697C358.781 66.3124 366.568 64.1937 366.04 57.4603C365.513 50.7269 365.849 49.8214 367.415 50.1522C368.98 50.4831 368.041 52.4218 368.041 52.4218L371.41 53.5247C371.41 53.5247 368.284 40.232 363.129 39.3091C357.975 38.3861 347.52 45.8684 347.52 45.8684C347.52 45.8684 349.741 47.8304 351.776 47.4182L348.877 48.5327C348.877 48.5327 352.414 52.5321 361.054 49.8388L363.373 51.1564C363.373 51.1564 363.756 56.3052 361.923 56.3806C360.091 56.4561 357.285 54.1284 353.052 55.3126" fill="#1F3563"/>
<path d="M357.059 52.0852C356.744 51.8755 356.363 51.7902 355.989 51.846C355.615 51.9018 355.275 52.0946 355.035 52.3871L357.059 52.0852Z" fill="white"/>
<path d="M355.064 55.9454C355.379 56.1551 355.76 56.2404 356.134 56.1846C356.508 56.1289 356.848 55.936 357.088 55.6436L355.064 55.9454Z" fill="#0B4B9B"/>
<path fill-rule="evenodd" clip-rule="evenodd" d="M357.789 55.2454L357.312 55.8277C357.026 56.1757 356.621 56.4052 356.176 56.4716C355.731 56.538 355.278 56.4365 354.903 56.1869L354.277 55.7693L357.789 55.2454Z" fill="#2354A2"/>
<path d="M374.628 63.4973L356.722 69.4065C356.722 69.4065 356.253 77.4227 356.224 77.6027L377.73 73.8122L374.628 63.4973Z" fill="#DBDBDC"/>
<path d="M372.906 68.9827C380.009 68.3616 386.631 77.7594 387.692 89.9782L361.97 92.2246C360.909 80.0058 365.803 69.5864 372.906 69.0059" fill="#F0F0F6"/>
<path d="M36.7404 85.6245C36.7404 85.6245 31.1681 115.101 50.9988 119.576C70.8295 124.051 84.2703 110.619 84.2703 110.619C84.2703 110.619 86.926 111.827 89.8078 107.955C89.8078 107.955 92.8056 109.203 92.707 107.311C92.6085 105.418 89.1816 95.3822 56.7566 104.339L48.3373 86.3095L36.7404 85.6245Z" fill="#DBDBDC"/>
<path d="M31.5103 75.4492C37.6567 73.0518 45.9717 79.6808 50.0654 90.2511L27.8109 98.9233C23.6998 88.3529 25.3524 77.8465 31.4929 75.4492" fill="#DBDBDC"/>
<path d="M72.7894 149.517L31.1913 83.9934C31.1913 83.9934 33.6325 61.3958 17.6751 68.9013C1.71779 76.4067 -10.5749 142.406 16.1269 158.038C42.8288 173.67 91.0255 160.273 72.7894 149.517Z" fill="#0B4B9B"/>
<path d="M123.155 203.622L115.884 186.133L102.315 192.866L115.124 211.772L127.26 205.88L123.155 203.622Z" fill="#4175BA"/>
<path d="M154.142 178.9L138.509 168.219L130.814 181.274L151.851 190.114L158.815 178.546L154.142 178.9Z" fill="#0B4B9B"/>
<path d="M52.5413 112.233L76.3729 159.843L131.4 182.882L141.495 168.538L52.5413 112.233Z" fill="#1F3563"/>
<path fill-rule="evenodd" clip-rule="evenodd" d="M100.877 239.53H25.2246V238.659H100.877V239.53Z" fill="#B7BBCE"/>
<path d="M52.5412 112.222H18.9681C18.9681 112.222 9.62101 156.68 74.4187 159.82L103.075 196.227L118.052 187.102C118.052 187.102 100.999 129.578 52.5296 112.222" fill="#0B4B9B"/>
<path fill-rule="evenodd" clip-rule="evenodd" d="M44.3538 239.094V165.474H45.2235V239.094H44.3538Z" fill="#B7BBCE"/>
<path d="M57.638 114.108H19.3334C19.3334 114.108 9.54559 157.91 76.2336 161.184C76.2336 161.184 73.4735 208.933 79.2488 201.097C102.773 169.171 92.5331 136.891 92.5331 136.891C92.5331 136.891 81.4522 123.947 57.638 114.108Z" fill="#F0F0F6"/>
<path d="M32.1249 109.54L19.4553 113.104C19.4553 113.104 16.8634 125.508 29.4055 132.416C41.9475 139.324 59.9111 114.776 59.9111 114.776L32.1249 109.54Z" fill="#DBDBDC"/>
<path fill-rule="evenodd" clip-rule="evenodd" d="M67.759 104.403C73.1904 104.943 74.5916 106.872 74.6676 108.053C74.6853 108.328 74.6451 108.569 74.5421 108.773C74.4379 108.979 74.2794 109.127 74.0947 109.226C73.7393 109.417 73.2861 109.431 72.8852 109.392C72.474 109.352 72.0651 109.249 71.7635 109.159C71.6425 109.123 71.5373 109.088 71.4543 109.06C69.9516 110.919 68.4936 111.595 67.3737 111.786C66.801 111.883 66.3262 111.852 65.9911 111.794C65.8236 111.765 65.6909 111.73 65.598 111.701C65.5516 111.687 65.5151 111.674 65.4891 111.664C65.4761 111.659 65.4658 111.655 65.4581 111.652L65.4487 111.648L65.4455 111.647L65.4443 111.647C65.444 111.646 65.4433 111.646 65.5588 111.38C65.6743 111.114 65.6741 111.114 65.6739 111.114L65.6756 111.114C65.6787 111.115 65.6843 111.118 65.6924 111.121C65.7085 111.127 65.7346 111.136 65.7701 111.147C65.8409 111.169 65.9488 111.198 66.0889 111.222C66.3689 111.27 66.7773 111.298 67.2766 111.213C68.2681 111.045 69.6566 110.424 71.1288 108.537L71.2624 108.366L71.464 108.446L71.4653 108.446L71.471 108.448L71.4948 108.458C71.5162 108.466 71.5481 108.477 71.589 108.492C71.6709 108.521 71.7884 108.561 71.9293 108.603C72.2132 108.688 72.5824 108.779 72.9416 108.814C73.3112 108.85 73.6208 108.822 73.8205 108.715C73.9133 108.665 73.9803 108.599 74.0247 108.511C74.0703 108.421 74.1017 108.288 74.0889 108.09C74.0431 107.378 73.0873 105.516 67.7016 104.98C62.3454 104.447 52.7472 105.255 35.7765 109.733L35.6287 109.172C52.6195 104.688 62.2982 103.859 67.759 104.403Z" fill="white"/>
<path d="M48.8244 74.1721C51.6424 71.8908 43.3507 69.8534 46.8239 63.1432C50.2972 56.433 46.0817 51.7661 46.0817 51.7661L34.6994 49.5312L33.8006 59.7533L27.6484 65.0181C27.6484 65.0181 35.5575 75.2692 41.6401 81.0332C48.9172 87.9234 54.2285 77.2892 48.5345 74.2533L48.8244 74.1721Z" fill="#1F3563"/>
<path d="M38.88 59.9796L39.831 59.8055C39.831 59.8055 38.6713 58.5284 39.4251 52.5264C40.1789 46.5244 31.5102 44.8874 26.7902 50.1117C19.8321 57.8203 24.5752 76.1456 24.5752 76.1456H37.5232C37.5232 76.1456 35.2386 68.4544 35.2386 65.8423C35.2386 65.8423 31.9567 66.3473 30.2577 64.4898C39.4135 66.8117 38.8684 60.0028 38.8684 60.0028" fill="#4071B7"/>
<path fill-rule="evenodd" clip-rule="evenodd" d="M36.149 57.3119C35.8758 57.3119 35.6137 57.4204 35.4202 57.6135L35.0107 57.2025C35.3129 56.9009 35.7223 56.7314 36.149 56.7314C36.5758 56.7314 36.9851 56.9009 37.2873 57.2025L36.8778 57.6135C36.6844 57.4204 36.4223 57.3119 36.149 57.3119Z" fill="#D2D2D2"/>
<path d="M37.529 60.8503C37.2804 61.0964 36.945 61.2343 36.5954 61.2343C36.2459 61.2343 35.9104 61.0964 35.6619 60.8503H37.529Z" fill="#0B4B9B"/>
<path d="M28.9589 58.0001C28.9589 58.0001 38.2944 54.7902 39.4425 51.3132C39.4425 51.3132 39.541 56.6883 45.4844 56.7928C51.4279 56.8973 42.6432 44.3069 33.7484 43.9354C24.8535 43.5639 15.2571 52.3638 23.0328 62.0054L26.3553 59.4223C26.3553 59.4223 25.4102 58.3368 26.0654 57.4081C26.7206 56.4793 27.7528 56.3458 28.9646 57.9885" fill="#1F3563"/>
<path d="M25.5146 71.9255C13.3378 73.8759 18.9681 112.233 18.9681 112.233H52.5412C50.3726 82.6815 37.6739 69.9693 25.5146 71.9255Z" fill="#F0F0F6"/>
<path d="M82.2351 100.438C91.2691 101.93 92.6317 105.419 92.4983 106.939C92.2664 109.615 88.7235 107.328 88.7235 107.328C84.3051 112.239 81.1855 110.062 81.1855 110.062L82.2351 100.438Z" fill="#4071B7"/>
<path d="M115.286 80.0288L100.471 108.28H76.8078L73.5491 113.731H135.308L151.103 80.0288H115.286Z" fill="#6693CD"/>
<path d="M21.3281 69.447L21.85 76.6216L36.8274 78.0321L37.8247 71.5135L21.3281 69.447Z" fill="#DBDBDC"/>
<path d="M25.5552 72.4017C18.9623 72.6223 13.6451 80.3715 14.022 91.708L38.1726 92.5265C37.7899 81.19 32.1422 72.2101 25.5552 72.4017Z" fill="#F0F0F6"/>
<path d="M25.0508 113.383L47.0501 106.545C47.0501 106.545 39.3672 110.393 36.8101 96.2936C35.2909 87.9406 23.9143 93.2577 23.9143 93.2577L25.0508 113.383Z" fill="#DBDBDC"/>
<path d="M14.0337 91.3945C17.1417 114.445 23.5779 122.589 30.0838 124.667C43.2289 128.87 66.1386 111.363 66.1386 111.363C66.1386 111.363 68.9276 112.57 71.937 108.698C71.937 108.698 75.0914 109.946 74.9696 108.054C74.8479 106.162 70.2381 100.473 36.12 109.43C35.7566 103.42 35.3933 97.4101 35.0299 91.4003L14.0337 91.3945Z" fill="#F0F0F6"/>
<path fill-rule="evenodd" clip-rule="evenodd" d="M73.2618 106.052C74.2811 106.739 74.6492 107.513 74.685 108.088C74.7019 108.36 74.6617 108.598 74.5596 108.8C74.4564 109.004 74.2996 109.149 74.1171 109.248C73.7659 109.437 73.3188 109.451 72.9239 109.413C72.5188 109.374 72.1163 109.274 71.8194 109.185C71.7019 109.15 71.5995 109.117 71.5182 109.089C70.0414 110.916 68.6064 111.581 67.5031 111.768C66.9389 111.863 66.4707 111.832 66.1403 111.775C65.9751 111.747 65.8442 111.712 65.7526 111.683C65.7068 111.669 65.6708 111.656 65.6451 111.647C65.6323 111.642 65.622 111.638 65.6145 111.635L65.6051 111.631L65.602 111.63L65.6008 111.629C65.6005 111.629 65.5998 111.629 65.7153 111.363C65.8308 111.096 65.8306 111.096 65.8304 111.096L65.832 111.097C65.835 111.098 65.8405 111.1 65.8484 111.103C65.8643 111.109 65.89 111.118 65.9248 111.129C65.9945 111.151 66.1006 111.179 66.2384 111.203C66.5139 111.25 66.9155 111.278 67.4065 111.195C68.3813 111.031 69.7465 110.421 71.1924 108.566L71.3259 108.395L71.5276 108.475L71.5289 108.475L71.5343 108.477L71.5578 108.486C71.5787 108.494 71.6101 108.506 71.6503 108.52C71.7307 108.549 71.8463 108.588 71.9847 108.629C72.2637 108.712 72.6266 108.801 72.9796 108.835C73.3429 108.87 73.6467 108.842 73.8424 108.736C73.9333 108.688 73.999 108.623 74.0425 108.537C74.0872 108.449 74.1183 108.319 74.1062 108.124C74.0841 107.768 73.8433 107.144 72.938 106.534C72.0298 105.922 70.462 105.333 67.8285 105.071C62.5599 104.547 53.1182 105.342 36.4258 109.745L36.2781 109.184C52.9905 104.775 62.5127 103.959 67.8858 104.493C70.5731 104.761 72.2454 105.368 73.2618 106.052Z" fill="white"/>
<path d="M159.963 62.2028L163.46 60.1015L161.935 58.2324L158.438 60.3337L159.963 62.2028Z" fill="#0B4B9B"/>
<path d="M162.822 67.752L167.727 64.8032L164.272 59.7996L159.372 62.7483L162.822 67.752Z" fill="white"/>
<path fill-rule="evenodd" clip-rule="evenodd" d="M164.397 59.2161L168.349 64.9375L162.696 68.3356L158.751 62.6142L164.397 59.2161ZM159.993 62.8827L162.948 67.1685L167.106 64.669L164.146 60.3832L159.993 62.8827Z" fill="#B7BBCE"/>
<path d="M179.736 92.242L184.636 89.299L181.18 84.2954L176.28 87.2384L179.736 92.242Z" fill="#0B4B9B"/>
<path d="M177.498 90.5005L183.859 86.6753L165.884 60.6355L159.517 64.4608L177.498 90.5005Z" fill="white"/>
<path fill-rule="evenodd" clip-rule="evenodd" d="M165.926 60.4412L184.066 86.7201L177.456 90.6952L159.31 64.4161L165.926 60.4412ZM159.724 64.5057L177.54 90.3062L183.652 86.6306L165.842 60.8301L159.724 64.5057Z" fill="#DBDBDC"/>
<path d="M169.241 75.2807C169.206 75.7725 169.32 76.2635 169.567 76.6896C169.815 77.1158 170.185 77.4574 170.629 77.6701C171.074 77.8828 171.572 77.9566 172.059 77.882C172.545 77.8074 172.999 77.5877 173.359 77.2517C173.719 76.9157 173.97 76.4789 174.079 75.998C174.188 75.5172 174.15 75.0147 173.97 74.5559C173.789 74.0971 173.475 73.7033 173.068 73.4257C172.661 73.1481 172.18 72.9996 171.688 72.9995C171.061 72.9776 170.452 73.2055 169.993 73.6332C169.534 74.061 169.263 74.6535 169.241 75.2807Z" fill="#0B4B9B"/>
<path d="M179.307 101.21L186.99 97.4604L186.578 96.7349L178.901 100.485L179.307 101.21Z" fill="#2757A0"/>
<path fill-rule="evenodd" clip-rule="evenodd" d="M166.01 60.052L184.48 86.8094L177.372 91.0839L158.896 64.3263L166.01 60.052ZM160.138 64.595L177.624 89.9169L183.238 86.5409L165.758 61.2188L160.138 64.595Z" fill="#B7BBCE"/>
<path d="M176.64 105.007L177.277 106.464L184.868 102.754L182.977 99.3818L177.254 102.18C171.572 99.7243 168.325 96.6884 167.6 93.1534C166.44 87.4822 171.781 82.3973 171.838 82.3393L170.012 79.7156C169.734 79.9826 162.897 86.4838 164.376 93.7106C164.909 96.2879 166.376 98.6156 168.765 100.676H168.649V109.795H178.437L177.277 106.469L177.19 106.51L176.64 105.007Z" fill="white"/>
<path fill-rule="evenodd" clip-rule="evenodd" d="M170.078 79.0491L172.404 82.3893L172.146 82.6471C172.145 82.6478 172.144 82.6497 172.14 82.6527C172.042 82.7485 170.768 83.9852 169.635 85.8662C168.462 87.813 167.478 90.3856 168.026 93.0658C168.699 96.3496 171.716 99.2767 177.244 101.7L183.156 98.8101L185.472 102.943L177.814 106.686L179.05 110.231H168.215V100.771C165.924 98.7176 164.486 96.3886 163.95 93.7989L163.95 93.7979C163.179 90.0282 164.58 86.4793 166.164 83.8766C167.734 81.296 169.522 79.5828 169.706 79.4066C169.708 79.4046 169.71 79.4028 169.711 79.4012L170.078 79.0491ZM169.084 101.112H169.936L169.049 100.346C166.718 98.3356 165.312 96.0882 164.802 93.6227C164.095 90.1658 165.372 86.8508 166.907 84.3296C168.061 82.4335 169.338 81.0224 169.952 80.3899L171.275 82.2905C171.121 82.4512 170.908 82.6815 170.659 82.9727C170.156 83.5595 169.504 84.3973 168.89 85.4165C167.669 87.4444 166.562 90.2497 167.174 93.2406C167.943 96.9908 171.362 100.108 177.082 102.579L177.266 102.659L182.799 99.9534L184.263 102.565L177.494 105.873L177.038 104.832L176.232 105.156L176.945 107.105L177.026 107.067L177.825 109.36H169.084V101.112Z" fill="#B7BBCE"/>
<path d="M186.375 109.766H161.714V114.033H186.375V109.766Z" fill="white"/>
<path fill-rule="evenodd" clip-rule="evenodd" d="M161.28 109.331H186.81V114.468H161.28V109.331ZM162.149 110.202V113.597H185.94V110.202H162.149Z" fill="#B7BBCE"/>
<path d="M170.163 104.385C170.127 104.881 170.24 105.376 170.489 105.805C170.738 106.235 171.11 106.58 171.558 106.795C172.005 107.01 172.507 107.085 172.997 107.01C173.488 106.935 173.945 106.715 174.308 106.377C174.671 106.038 174.925 105.599 175.035 105.114C175.145 104.63 175.107 104.124 174.926 103.661C174.744 103.199 174.428 102.802 174.018 102.522C173.608 102.242 173.123 102.093 172.627 102.092C172.315 102.081 172.003 102.131 171.71 102.24C171.418 102.349 171.149 102.515 170.92 102.727C170.691 102.94 170.507 103.196 170.377 103.481C170.247 103.765 170.174 104.073 170.163 104.385Z" fill="#0B4B9B"/>
<path d="M66.0283 104.333C73.6069 104.478 75.1319 106.852 75.2015 107.955C75.3232 109.911 72.1515 108.623 72.1515 108.623C69.1015 112.616 66.2951 111.368 66.2951 111.368L66.0283 104.333Z" fill="#4071B7"/>
<path fill-rule="evenodd" clip-rule="evenodd" d="M62.387 113.609H336.567V114.48H62.387V113.609Z" fill="#B7BBCE"/>
</g>
<defs>
<clipPath id="clip0_2686_13418">
<rect width="398" height="240" fill="white" transform="translate(0.5)"/>
</clipPath>
</defs>
</svg>
