<svg width="16" height="16" viewBox="0 0 16 16" fill="none" xmlns="http://www.w3.org/2000/svg">
<rect width="16" height="16" rx="2" fill="#FFE000"/>
<path d="M11.6466 3.72125L14.5012 8.00001L11.6466 12.2788L11.6461 12.2795C11.6008 12.3476 11.5394 12.4034 11.4673 12.4418C11.3953 12.4803 11.3148 12.5003 11.233 12.5H11.2312H2C1.86739 12.5 1.74021 12.4473 1.64645 12.3536C1.55268 12.2598 1.5 12.1326 1.5 12V4.00001C1.5 3.8674 1.55268 3.74022 1.64645 3.64645C1.74021 3.55268 1.86739 3.50001 2 3.50001L11.2312 3.50001L11.233 3.5C11.3148 3.49971 11.3953 3.5197 11.4673 3.55818C11.5394 3.59666 11.6008 3.65243 11.6461 3.72048L11.6466 3.72125Z" stroke="#00A4CE"/>
<circle cx="12" cy="8" r="1" fill="#00A4CE"/>
<path fill-rule="evenodd" clip-rule="evenodd" d="M5 5H6H9V6H6V8H8V9H6V11H5V5Z" fill="#363332"/>
</svg>
