<svg width="16" height="16" viewBox="0 0 16 16" fill="none" xmlns="http://www.w3.org/2000/svg">
<path fill-rule="evenodd" clip-rule="evenodd" d="M11.2315 4.00001L13.9001 8.00001L11.2312 12H1V12H0V12C0 12.2652 0.105357 12.5196 0.292893 12.7071C0.48043 12.8947 0.734784 13 1 13H11.2312C11.3957 13.0006 11.5577 12.9604 11.7028 12.8829C11.8479 12.8055 11.9715 12.6932 12.0625 12.5563L14.9187 8.27501C14.9741 8.19398 15.0037 8.09814 15.0037 8.00001C15.0037 7.90188 14.9741 7.80603 14.9187 7.72501L12.0625 3.44376C11.9715 3.30678 11.8479 3.19454 11.7028 3.11709C11.5577 3.03965 11.3957 2.99941 11.2312 3.00001H1C0.734784 3.00001 0.48043 3.10536 0.292893 3.2929C0.105358 3.48043 1.7995e-06 3.73479 0 4H1V4.00001L11.2315 4.00001Z" fill="#A0A0A8"/>
<path fill-rule="evenodd" clip-rule="evenodd" d="M2.35297e-06 5.5C2.35297e-06 5.22386 0.22386 5 0.500002 5H2.5C2.66591 5 2.82102 5.0823 2.91404 5.21969C3.00705 5.35707 3.02586 5.53165 2.96424 5.6857L1.23852 10H2.5C2.77614 10 3 10.2239 3 10.5C3 10.7761 2.77614 11 2.5 11H0.500002C0.33409 11 0.178984 10.9177 0.0859687 10.7803C-0.00704625 10.6429 -0.0258541 10.4683 0.035764 10.3143L1.76149 6H0.500002C0.22386 6 2.35297e-06 5.77614 2.35297e-06 5.5ZM10.5 11C10.775 11 11 10.775 11 10.5C11 10.225 10.775 10 10.5 10H9V5.5C9 5.225 8.775 5 8.5 5C8.225 5 8 5.225 8 5.5V10.5C8 10.775 8.225 11 8.5 11H10.5ZM7 7C7 6.03437 6.21563 5 5.25 5H4.5C4.22375 5 4 5.225 4 5.5V10.5C4 10.775 4.22375 11 4.5 11C4.77625 11 5 10.775 5 10.5V9H5.25C6.21563 9 7 7.96563 7 7ZM5.25 6C5.66563 6 6 6.58438 6 7C6 7.41563 5.66563 8 5.25 8H5V6H5.25Z" fill="#404048"/>
</svg>
