<?xml version="1.0" encoding="UTF-8"?><svg id="Layer_1" xmlns="http://www.w3.org/2000/svg" viewBox="0 0 100 100"><defs><style>.cls-1{fill:#f9f9f9;}.cls-2{fill:#eaecf0;}.cls-3{fill:#1d2939;}</style></defs><circle class="cls-1" cx="50" cy="50" r="49.5"/><path class="cls-2" d="m50,1c27.02,0,49,21.98,49,49s-21.98,49-49,49S1,77.02,1,50,22.98,1,50,1M50,0C22.39,0,0,22.39,0,50s22.39,50,50,50,50-22.39,50-50S77.61,0,50,0h0Z"/><path class="cls-3" d="m50.72,47.1c-2.63,0-4.85-.91-6.68-2.74-1.83-1.83-2.74-4.05-2.74-6.68s.91-4.85,2.74-6.68c1.83-1.83,4.05-2.74,6.68-2.74s4.85.91,6.68,2.74c1.83,1.83,2.74,4.05,2.74,6.68s-.91,4.85-2.74,6.68c-1.83,1.83-4.05,2.74-6.68,2.74Zm-22.46,23.3v-4.51c0-.83.28-1.66.85-2.48.57-.82,1.38-1.56,2.43-2.22,3-1.7,6.12-3.01,9.38-3.92,3.26-.91,6.52-1.37,9.78-1.37s6.53.46,9.8,1.37c3.27.91,6.41,2.22,9.4,3.92,1.05.6,1.86,1.32,2.43,2.17.57.85.85,1.69.85,2.52v4.51H28.26Zm2.9-2.9h39.13v-1.62c0-.45-.18-.89-.55-1.31-.37-.42-.89-.79-1.56-1.12-2.5-1.51-5.24-2.66-8.23-3.46-2.99-.8-6.06-1.2-9.23-1.2s-6.24.4-9.23,1.2c-2.99.8-5.73,1.95-8.23,3.46-.67.43-1.19.83-1.56,1.22-.37.39-.55.79-.55,1.2v1.62Zm19.58-23.3c1.8,0,3.33-.64,4.6-1.92,1.27-1.28,1.9-2.82,1.9-4.62s-.64-3.33-1.92-4.6c-1.28-1.27-2.82-1.9-4.62-1.9s-3.33.64-4.6,1.92c-1.27,1.28-1.9,2.82-1.9,4.62s.64,3.33,1.92,4.6c1.28,1.27,2.82,1.9,4.62,1.9Z"/></svg>