<svg width="10" height="14" viewBox="0 0 10 14" fill="none" xmlns="http://www.w3.org/2000/svg">
<path d="M7.40002 7.38092L6.29526 8.48568C6.37145 8.59996 6.44764 8.75235 6.48573 8.90473H5.68573C5.57145 8.67616 5.30478 8.52377 5.03811 8.52377C4.61906 8.52377 4.27621 8.86663 4.27621 9.28568C4.27621 9.70473 4.61906 10.0476 5.03811 10.0476C5.30478 10.0476 5.57145 9.8952 5.68573 9.66663H6.48573C6.33335 10.3142 5.72383 10.8095 5.00002 10.8095C4.69526 10.8095 4.39049 10.6952 4.16192 10.5428L3.62859 11.0762C4.00954 11.3809 4.50478 11.5714 5.03811 11.5714C5.30478 11.5714 5.53335 11.5333 5.76192 11.4571L6.33335 12.0285C5.9524 12.219 5.49526 12.3333 5.03811 12.3333C4.08573 12.3333 3.20954 11.8762 2.63811 11.1904L3.74287 10.0857C3.5524 9.85711 3.47621 9.59044 3.47621 9.28568C3.47621 8.44758 4.16192 7.76187 5.00002 7.76187C5.30478 7.76187 5.60954 7.87616 5.83811 8.02854L6.37145 7.4952C5.99049 7.19044 5.49525 6.99996 4.96192 6.99996C4.69526 6.99996 4.46668 7.03806 4.23811 7.11425L3.66668 6.54282C4.04764 6.35235 4.50478 6.23806 4.96192 6.23806C5.9524 6.23806 6.82859 6.6952 7.40002 7.38092ZM6.25716 4.90473V0.904727H7.01906V0.142822H5.49525V5.51425C7.36192 5.78092 8.80954 7.34282 8.80954 9.28568C8.80954 10.2381 8.46668 11.1143 7.89526 11.7619L7.36192 11.2285C7.78097 10.6952 8.04764 10.0095 8.04764 9.28568C8.04764 8.82854 7.93335 8.37139 7.74287 7.99044L7.17145 8.56187C7.24764 8.79044 7.28573 9.01901 7.28573 9.28568C7.28573 10.0476 6.90478 10.6952 6.37145 11.1143L7.47621 12.219C6.82859 12.7904 5.9524 13.0952 5.03811 13.0952C2.90478 13.0952 1.19049 11.3809 1.19049 9.28568C1.19049 8.3333 1.53335 7.45711 2.10478 6.80949L2.63811 7.34282C2.21907 7.87615 1.9524 8.56187 1.9524 9.28568C1.9524 9.74282 2.06668 10.2 2.25716 10.5809L2.82859 10.0095C2.7524 9.78092 2.7143 9.55235 2.7143 9.28568C2.7143 8.52377 3.09526 7.87616 3.62859 7.45711L2.52383 6.35235C3.05716 5.8952 3.74287 5.59044 4.46668 5.51425V0.142822H2.94287V0.904727H3.70478V4.90473C1.83811 5.43806 0.428589 7.19044 0.428589 9.28568C0.428589 11.8 2.48573 13.8571 5.00002 13.8571C7.5143 13.8571 9.57145 11.8 9.57145 9.28568C9.57145 7.19044 8.16192 5.43806 6.25716 4.90473Z" fill="#404048"/>
</svg>
