<svg width="20" height="20" viewBox="0 0 20 20" fill="none" xmlns="http://www.w3.org/2000/svg">
<path d="M5 10.5556H15V9.44444H5V10.5556ZM10.0036 20C8.62083 20 7.32074 19.7376 6.10333 19.2128C4.88611 18.688 3.82722 17.9757 2.92667 17.0761C2.02611 16.1765 1.31324 15.1185 0.788055 13.9022C0.262685 12.6861 0 11.3866 0 10.0036C0 8.62083 0.262407 7.32074 0.787222 6.10333C1.31204 4.88611 2.02426 3.82722 2.92389 2.92667C3.82352 2.02611 4.88148 1.31324 6.09778 0.788055C7.31389 0.262685 8.61343 0 9.99639 0C11.3792 0 12.6793 0.262408 13.8967 0.787223C15.1139 1.31204 16.1728 2.02426 17.0733 2.92389C17.9739 3.82352 18.6868 4.88148 19.2119 6.09778C19.7373 7.31389 20 8.61343 20 9.99639C20 11.3792 19.7376 12.6793 19.2128 13.8967C18.688 15.1139 17.9757 16.1728 17.0761 17.0733C16.1765 17.9739 15.1185 18.6868 13.9022 19.2119C12.6861 19.7373 11.3866 20 10.0036 20Z" fill="#3B99FD"/>
</svg>
