<svg width="32" height="32" viewBox="0 0 32 32" fill="none" xmlns="http://www.w3.org/2000/svg">
<g clip-path="url(#clip0_772_383)">
<path d="M32 16C32 24.8366 24.8366 32 16 32C7.16344 32 0 24.8366 0 16C0 7.16344 7.16344 0 16 0C24.8366 0 32 7.16344 32 16ZM2.64 16C2.64 23.3785 8.62148 29.36 16 29.36C23.3785 29.36 29.36 23.3785 29.36 16C29.36 8.62148 23.3785 2.64 16 2.64C8.62148 2.64 2.64 8.62148 2.64 16Z" fill="#EAECF0"/>
<path d="M32 16C32 13.8989 31.5861 11.8183 30.7821 9.87706C29.978 7.93586 28.7994 6.17203 27.3137 4.68629C25.828 3.20055 24.0641 2.022 22.1229 1.21793C20.1817 0.413852 18.1011 -9.18442e-08 16 0L16 2.64C17.7545 2.64 19.4917 2.98557 21.1127 3.65697C22.7336 4.32837 24.2064 5.31246 25.4469 6.55305C26.6875 7.79364 27.6716 9.26644 28.343 10.8873C29.0144 12.5083 29.36 14.2455 29.36 16H32Z" fill="#104DA9"/>
</g>
<defs>
<clipPath id="clip0_772_383">
<rect width="32" height="32" fill="white"/>
</clipPath>
</defs>
</svg>
