<svg width="30" height="30" viewBox="0 0 30 30" fill="none" xmlns="http://www.w3.org/2000/svg">
<g clip-path="url(#clip0_1629_19712)">
<path d="M15.005 28.1194C11.5882 28.025 8.3431 26.6014 5.95975 24.1513C3.57641 21.7013 2.24294 18.4181 2.24294 15C2.24294 11.5819 3.57641 8.29872 5.95975 5.84865C8.3431 3.39859 11.5882 1.97498 15.005 1.88063V0C12.0373 0 9.13624 0.880028 6.66868 2.5288C4.20112 4.17757 2.27789 6.52103 1.14219 9.26284C0.00650146 12.0046 -0.290648 15.0216 0.288324 17.9323C0.867295 20.843 2.29638 23.5167 4.39487 25.6151C6.49336 27.7136 9.16699 29.1427 12.0777 29.7217C14.9884 30.3007 18.0054 30.0035 20.7472 28.8678C23.489 27.7321 25.8324 25.8089 27.4812 23.3413C29.13 20.8738 30.01 17.9727 30.01 15.005H28.1194C28.1141 18.4815 26.7307 21.8141 24.2724 24.2724C21.8141 26.7307 18.4815 28.1141 15.005 28.1194Z" fill="#EAECF0"/>
<path d="M15.005 0V1.88063C18.4833 1.88592 21.8174 3.27069 24.2759 5.73112C26.7345 8.19156 28.1167 11.5267 28.1194 15.005H30.01C30.01 11.0254 28.4291 7.20885 25.6151 4.39486C22.8012 1.58088 18.9846 0 15.005 0Z" fill="#1D2939"/>
</g>
<defs>
<clipPath id="clip0_1629_19712">
<rect width="30" height="30" fill="white"/>
</clipPath>
</defs>
</svg>
