<svg xmlns="http://www.w3.org/2000/svg" width="200" height="162" fill="none" viewBox="0 0 200 162">
    <path fill="#104DA9" fill-rule="evenodd" d="M71.03 32.572c20.282-7.496 40.784-17.717 60.46-14.647 22.565 3.52 40.998 15.045 48.753 31.686 8.322 17.86 9.488 40.666-6.573 58.827-15.18 17.165-43.582 19.625-67.963 25.457-19.93 4.766-40.54 10.14-57.728 4.604-17.12-5.513-25.82-18.982-31.012-33.185-5.292-14.48-8.933-30.974 2.122-45.848 10.83-14.573 32.758-19.805 51.94-26.894z" clip-rule="evenodd" opacity=".1"/>
    <g opacity=".5">
        <path fill="#fff" stroke="#D0D0D8" stroke-width="3.771" d="M122.401 59.51c0-3.199-2.597-5.787-5.794-5.787H41.04c-3.197 0-5.794 2.588-5.794 5.788v49.754c0 3.2 2.597 5.788 5.794 5.788h5.77v15.787c0 2.844 3.437 4.255 5.441 2.254l18.07-18.041h46.286c3.197 0 5.794-2.588 5.794-5.788V59.511z"/>
        <path fill="#104DA9" d="M45.764 69.104H111.88499999999999V72.975H45.764zM45.763 75.778H111.88399999999999V79.649H45.763zM45.763 82.452H111.88399999999999V86.323H45.763zM45.763 89.127H111.88399999999999V92.99799999999999H45.763zM45.763 95.801H99.33099999999999V99.672H45.763z"/>
    </g>
    <path fill="#fff" stroke="#D0D0D8" stroke-width="3.771" d="M82.732 73.885c-3.197 0-5.794 2.588-5.794 5.788v49.754c0 3.2 2.597 5.788 5.794 5.788h46.286l18.07 18.041c2.005 2.001 5.442.59 5.442-2.254v-15.787h5.769c3.197 0 5.794-2.588 5.794-5.788V79.673c0-3.2-2.597-5.788-5.794-5.788H82.732z"/>
    <ellipse cx="104.881" cy="104.551" fill="#104DA9" rx="3.909" ry="3.902"/>
    <ellipse cx="120.516" cy="104.55" fill="#104DA9" opacity=".5" rx="3.909" ry="3.902"/>
    <ellipse cx="136.15" cy="104.55" fill="#104DA9" opacity=".25" rx="3.909" ry="3.902"/>
</svg>
