<svg width="18" height="18" viewBox="0 0 18 18" fill="none" xmlns="http://www.w3.org/2000/svg">
<path d="M12.1256 13.35L12.8256 12.65L8.97559 8.8V4H7.97559V9.2L12.1256 13.35ZM9 18C7.75 18 6.57933 17.7627 5.488 17.288C4.396 16.8127 3.446 16.1707 2.638 15.362C1.82933 14.554 1.18733 13.604 0.712 12.512C0.237333 11.4207 0 10.25 0 9C0 7.75 0.237333 6.579 0.712 5.487C1.18733 4.39567 1.82933 3.44567 2.638 2.637C3.446 1.829 4.396 1.18733 5.488 0.712C6.57933 0.237333 7.75 0 9 0C10.25 0 11.421 0.237333 12.513 0.712C13.6043 1.18733 14.5543 1.829 15.363 2.637C16.171 3.44567 16.8127 4.39567 17.288 5.487C17.7627 6.579 18 7.75 18 9C18 10.25 17.7627 11.4207 17.288 12.512C16.8127 13.604 16.171 14.554 15.363 15.362C14.5543 16.1707 13.6043 16.8127 12.513 17.288C11.421 17.7627 10.25 18 9 18ZM9 17C11.2167 17 13.1043 16.221 14.663 14.663C16.221 13.1043 17 11.2167 17 9C17 6.78333 16.221 4.89567 14.663 3.337C13.1043 1.779 11.2167 1 9 1C6.78333 1 4.896 1.779 3.338 3.337C1.77933 4.89567 1 6.78333 1 9C1 11.2167 1.77933 13.1043 3.338 14.663C4.896 16.221 6.78333 17 9 17Z" fill="#1D2939"/>
</svg>
