<?xml version="1.0" encoding="UTF-8"?>
<svg width="32px" height="32px" viewBox="0 0 32 32" version="1.1" xmlns="http://www.w3.org/2000/svg" xmlns:xlink="http://www.w3.org/1999/xlink">
    <!-- Generator: sketchtool 53.2 (72643) - https://sketchapp.com -->
    <title>1DBED704-6E88-4AE3-B2F9-3410F58D52C1</title>
    <desc>Created with sketchtool.</desc>
    <g id="sci-Tasks-roadmap" stroke="none" stroke-width="1" fill="none" fill-rule="evenodd">
        <g id="Create-XLSX-file-dialog" transform="translate(-224.000000, -172.000000)" fill="#FFFFFF">
            <g id="Type" transform="translate(56.000000, 164.000000)">
                <g id="Button-2" transform="translate(153.000000, 0.000000)">
                    <path d="M46.404,11.844 L35.684,11.844 L35.684,13.828 L38.844,13.828 L38.844,16.9666667 L35.684,16.9666667 L35.684,17.9666667 L38.844,17.9666667 L38.844,21.1093333 L35.684,21.1093333 L35.684,22.1373333 L38.844,22.1373333 L38.844,25.1093333 L35.684,25.1093333 L35.684,26.3 L38.844,26.3 L38.844,29.2786667 L35.684,29.2786667 L35.684,30.4693333 L38.844,30.4693333 L38.844,33.4653333 L35.684,33.4653333 L35.684,35.6506667 L46.404,35.6506667 C46.5733333,35.6 46.7146667,35.4 46.828,35.0533333 C46.9413333,34.704 47,34.42 47,34.2053333 L47,12.2066667 C47,12.036 46.9413333,11.9333333 46.828,11.8973333 C46.7146667,11.8626667 46.5733333,11.844 46.404,11.844 Z M45.0133333,33.4626667 L39.8706667,33.4626667 L39.8706667,30.4693333 L45.0133333,30.4693333 L45.0133333,33.4653333 L45.0133333,33.4626667 Z M45.0133333,29.2786667 L39.8706667,29.2786667 L39.8706667,26.2986667 L45.0133333,26.2986667 L45.0133333,29.2786667 Z M45.0133333,25.108 L39.8706667,25.108 L39.8706667,22.1493333 L45.0133333,22.1493333 L45.0133333,25.1106667 L45.0133333,25.108 Z M45.0133333,21.108 L39.8706667,21.108 L39.8706667,17.9693333 L45.0133333,17.9693333 L45.0133333,21.1093333 L45.0133333,21.108 L45.0133333,21.108 Z M45.0133333,16.9493333 L39.8706667,16.9493333 L39.8706667,13.8293333 L45.0133333,13.8293333 L45.0133333,16.9693333 L45.0133333,16.9493333 L45.0133333,16.9493333 Z M15,11.3493333 L15,36.1506667 L33.88,39.416 L33.88,8 L15,11.36 L15,11.3493333 Z M26.1906667,30.1106667 C26.1186667,29.916 25.78,29.0893333 25.18,27.6266667 C24.5813333,26.1653333 24.22,25.3146667 24.1146667,25.072 L24.0813333,25.072 L22.056,29.892 L19.3493333,29.7093333 L22.56,23.7093333 L19.62,17.7093333 L22.38,17.564 L24.204,22.2586667 L24.24,22.2586667 L26.3,17.3506667 L29.152,17.1706667 L25.756,23.664 L29.256,30.288 L26.1906667,30.108 L26.1906667,30.1106667 L26.1906667,30.1106667 Z" id="ms-excel-active"></path>
                </g>
            </g>
        </g>
    </g>
</svg>