<svg xmlns="http://www.w3.org/2000/svg" viewBox="0 0 32 32"><title>PowerPoint_32x</title><path d="M9.01,15.047a1.97,1.97,0,0,1-1.324.382H6.25V12.8h1.5c1.506,0,1.681.8,1.681,1.407A.867.867,0,0,1,9.01,15.047ZM32,16A13.98,13.98,0,0,1,6.541,24H1.334A1.337,1.337,0,0,1,0,22.667V9.334A1.338,1.338,0,0,1,1.334,8H6.549A13.991,13.991,0,0,1,18,2h.01A14.033,14.033,0,0,1,32,16ZM19,3.05V16H31A13.005,13.005,0,0,0,19,3.05ZM7.8,8h6.867A1.337,1.337,0,0,1,16,9.334V16h2V3h0A12.951,12.951,0,0,0,7.8,8Zm.109,9.577a4.824,4.824,0,0,0,2.127-.448,3.421,3.421,0,0,0,1.446-1.278,2.958,2.958,0,0,0,.51-1.718,3.124,3.124,0,0,0-1.044-2.52,4.417,4.417,0,0,0-2.913-.863H3.792V21.24H6.25V17.577ZM30.949,17H16v5.667A1.337,1.337,0,0,1,14.667,24H7.8a12.96,12.96,0,0,0,23.152-7Z" fill="#fff"/></svg>