<svg xmlns="http://www.w3.org/2000/svg" viewBox="0 0 32 32"><title>PowerPoint_32x</title><path d="M18,2A14.041,14.041,0,0,0,4,16l17.737,3.737Z" fill="#ed6c47"/><path d="M18.01,2A14.033,14.033,0,0,1,32,16l-7,4.758L18.01,16Z" fill="#ff8f6b"/><path d="M18,30A14.041,14.041,0,0,0,32,16H4A14.041,14.041,0,0,0,18,30Z" fill="#d35230"/><path d="M16.666,7H7.305a13.915,13.915,0,0,0,.931,19h8.43A1.337,1.337,0,0,0,18,24.667V8.333A1.337,1.337,0,0,0,16.666,7Z" opacity="0.1"/><path d="M15.666,8H6.539A13.907,13.907,0,0,0,9.384,27h6.282A1.337,1.337,0,0,0,17,25.667V9.333A1.337,1.337,0,0,0,15.666,8Z" opacity="0.2"/><path d="M15.666,8H6.539a13.891,13.891,0,0,0,.766,17h8.361A1.337,1.337,0,0,0,17,23.667V9.333A1.337,1.337,0,0,0,15.666,8Z" opacity="0.2"/><path d="M14.666,8H6.539a13.891,13.891,0,0,0,.766,17h7.361A1.337,1.337,0,0,0,16,23.667V9.333A1.337,1.337,0,0,0,14.666,8Z" opacity="0.2"/><rect y="8" width="16" height="16" rx="1.333" fill="#c43e1c"/><path d="M8.035,11a4.163,4.163,0,0,1,2.752.8,2.878,2.878,0,0,1,.955,2.329,2.729,2.729,0,0,1-.472,1.586A3.165,3.165,0,0,1,9.927,16.9a4.567,4.567,0,0,1-2.018.423H6V20.99H4.042V11ZM6,15.678H7.685a2.192,2.192,0,0,0,1.49-.444,1.1,1.1,0,0,0,.5-1.024q0-1.658-1.931-1.657H6Z" fill="#f9f7f7"/><rect width="32" height="32" fill="none"/></svg>