<?xml version="1.0" encoding="UTF-8"?>
<svg width="32px" height="31px" viewBox="0 0 32 31" version="1.1" xmlns="http://www.w3.org/2000/svg" xmlns:xlink="http://www.w3.org/1999/xlink">
    <!-- Generator: sketchtool 53.2 (72643) - https://sketchapp.com -->
    <title>58A7CABD-8C13-4F38-A224-E58B3FEF6D9B</title>
    <desc>Created with sketchtool.</desc>
    <g id="sci-Tasks-roadmap" stroke="none" stroke-width="1" fill="none" fill-rule="evenodd">
        <g id="Create-DOCX-file-dialog" transform="translate(-71.000000, -173.000000)" fill="#FFFFFF">
            <g id="Type" transform="translate(56.000000, 164.000000)">
                <g id="Button-1">
                    <path d="M46.9999783,13.1281692 L46.9999783,35.1917402 C46.9999783,35.3797479 46.9333089,35.5317542 46.8013035,35.6530925 C46.6666313,35.7784309 46.5066247,35.8371 46.3212838,35.8371 L34.908816,35.8371 L34.908816,32.7769746 L44.2185309,32.7769746 L44.2185309,31.3835841 L34.9008157,31.3835841 L34.9008157,29.6781809 L44.2105306,29.6781809 L44.2105306,28.2861238 L34.9074826,28.2861238 L34.9074826,26.5660533 L44.2145308,26.5660533 L44.2145308,25.1899969 L34.9074826,25.1899969 L34.9074826,23.4659263 L44.2145308,23.4659263 L44.2145308,22.0738692 L34.9074826,22.0738692 L34.9074826,20.368466 L44.2145308,20.368466 L44.2145308,18.9777423 L34.9074826,18.9777423 L34.9074826,17.237671 L44.2145308,17.237671 L44.2145308,15.9122833 L34.9074826,15.9122833 L34.9074826,12.4548083 L46.3239506,12.4548083 C46.5226254,12.4548083 46.6839653,12.5188109 46.8013035,12.6534831 C46.9413092,12.7854885 47.0013117,12.9468284 46.9999783,13.1281692 Z M33.200746,9.00533355 L33.200746,39.3025754 L15,36.153113 L15,12.2401328 L33.200746,9 L33.200746,9.00533355 Z M30.4539668,17.9497002 L28.1752067,18.0897059 L26.7138135,27.1367434 L26.6804788,27.1367434 C26.6084758,26.7087258 26.3404648,25.2099977 25.8604451,22.647226 L25.0084102,18.296381 L22.8696559,18.4030521 L22.0136208,22.647226 C21.5136003,25.1193274 21.2349222,26.558053 21.1615859,26.9620696 L21.1415851,26.9620696 L19.8415318,18.6283946 L17.8814514,18.7323989 L19.9815375,29.2434964 L22.1602935,29.3835021 L22.9803271,25.2926678 C23.4603468,22.8925694 23.7403583,21.4978456 23.8003607,21.1164966 L23.8603632,21.1164966 C23.9416998,21.52318 24.2017105,22.9485717 24.6803968,25.3966721 L25.5004304,29.6075113 L27.8605271,29.7475171 L30.5006353,17.9470334 L30.4539668,17.9470334 L30.4539668,17.9497002 Z" id="ms-word-active"></path>
                </g>
            </g>
        </g>
    </g>
</svg>