<svg width="16" height="14" viewBox="0 0 16 14" fill="none" xmlns="http://www.w3.org/2000/svg">
<path d="M12.5 2H3.5C3.22386 2 3 2.22386 3 2.5C3 2.77614 3.22386 3 3.5 3H12.5C12.7761 3 13 2.77614 13 2.5C13 2.22386 12.7761 2 12.5 2Z" fill="white"/>
<path d="M10.5 0H5.5C5.22386 0 5 0.223858 5 0.5C5 0.776142 5.22386 1 5.5 1H10.5C10.7761 1 11 0.776142 11 0.5C11 0.223858 10.7761 0 10.5 0Z" fill="white"/>
<path fill-rule="evenodd" clip-rule="evenodd" d="M2.61485 14C2.25734 14 1.94953 13.7477 1.87942 13.3971L0.119612 4.59806C0.0577324 4.28866 0.294379 4 0.609902 4H15.3901C15.7056 4 15.9423 4.28866 15.8804 4.59806L14.1206 13.3971C14.0505 13.7477 13.7427 14 13.3851 14H2.61485ZM10.5 8H5.5C5.22386 8 5 8.22386 5 8.5C5 8.77614 5.22386 9 5.5 9H10.5C10.7761 9 11 8.77614 11 8.5C11 8.22386 10.7761 8 10.5 8Z" fill="white"/>
</svg>
