<svg width="14" height="8" viewBox="0 0 14 8" fill="none" xmlns="http://www.w3.org/2000/svg">
<path fill-rule="evenodd" clip-rule="evenodd" d="M0 1C0 0.447715 0.447715 0 1 0H13C13.5523 0 14 0.447715 14 1V7C14 7.55228 13.5523 8 13 8H1C0.447716 8 0 7.55228 0 7V1ZM2 6C2 5.44772 2.44772 5 3 5C3.55228 5 4 5.44772 4 6C4 6.55228 3.55228 7 3 7C2.44772 7 2 6.55228 2 6ZM7 5C6.44772 5 6 5.44772 6 6C6 6.55228 6.44772 7 7 7C7.55228 7 8 6.55228 8 6C8 5.44772 7.55228 5 7 5ZM10 6C10 5.44772 10.4477 5 11 5C11.5523 5 12 5.44772 12 6C12 6.55228 11.5523 7 11 7C10.4477 7 10 6.55228 10 6ZM3 1C2.44772 1 2 1.44772 2 2C2 2.55228 2.44772 3 3 3H11C11.5523 3 12 2.55228 12 2C12 1.44772 11.5523 1 11 1H3Z" fill="white"/>
</svg>
