<svg width="14" height="8" viewBox="0 0 14 8" fill="none" xmlns="http://www.w3.org/2000/svg">
<path d="M0 1C0 0.447715 0.447715 0 1 0H5C5.55228 0 6 0.447715 6 1V2C6 2.55228 5.55228 3 5 3H1C0.447715 3 0 2.55228 0 2V1Z" fill="#404048"/>
<path d="M0 6C0 5.44772 0.447715 5 1 5H5C5.55228 5 6 5.44772 6 6V7C6 7.55228 5.55228 8 5 8H1C0.447715 8 0 7.55228 0 7V6Z" fill="#404048"/>
<path d="M8 1C8 0.447715 8.44772 0 9 0H13C13.5523 0 14 0.447715 14 1V2C14 2.55228 13.5523 3 13 3H9C8.44772 3 8 2.55228 8 2V1Z" fill="#404048"/>
</svg>
