<svg width="11" height="11" viewBox="0 0 11 11" fill="none" xmlns="http://www.w3.org/2000/svg">
<path d="M11 1.5C11 2.32843 10.3284 3 9.5 3C8.84689 3 8.29127 2.5826 8.08535 2H2.91465C2.764 2.42621 2.42621 2.764 2 2.91465V8.08535C2.5826 8.29127 3 8.84689 3 9.5C3 10.3284 2.32843 11 1.5 11C0.671573 11 0 10.3284 0 9.5C0 8.84689 0.417404 8.29127 1 8.08535V2.91465C0.417404 2.70873 0 2.15311 0 1.5C0 0.671573 0.671573 0 1.5 0C2.15311 0 2.70873 0.417404 2.91465 1H8.08535C8.29127 0.417404 8.84689 0 9.5 0C10.3284 0 11 0.671573 11 1.5Z" fill="#404048"/>
</svg>
