<svg width="489" height="356" viewBox="0 0 489 356" fill="none" xmlns="http://www.w3.org/2000/svg">
<path d="M402.78 232.676H85.3572C82.6495 232.673 80.0537 231.592 78.1391 229.672C76.2245 227.751 75.1475 225.148 75.1445 222.432V31.1141C75.1467 29.1244 75.9356 27.2168 77.3383 25.8098C78.7409 24.4028 80.6426 23.6114 82.6263 23.6091H405.381C407.399 23.6114 409.334 24.4165 410.76 25.8478C412.187 27.2791 412.99 29.2197 412.992 31.2439V222.432C412.989 225.148 411.912 227.751 409.998 229.672C408.083 231.592 405.487 232.673 402.78 232.676Z" fill="#DBDBDC"/>
<path d="M95.2596 222.432H392.876C395.502 222.432 398.021 221.385 399.878 219.522C401.735 217.659 402.779 215.133 402.779 212.498V50.1159C402.779 47.4813 401.735 44.9547 399.878 43.0918C398.021 41.2288 395.502 40.1823 392.876 40.1823H95.2596C92.6331 40.1823 90.1142 41.2288 88.257 43.0918C86.3997 44.9547 85.3564 47.4813 85.3564 50.1159V212.498C85.3564 215.133 86.3997 217.659 88.257 219.522C90.1142 221.385 92.6331 222.432 95.2596 222.432Z" fill="#F0F0F6"/>
<g opacity="0.5">
<path d="M305.462 136.808H188.539C186.856 136.806 185.243 136.135 184.054 134.941C182.864 133.748 182.195 132.13 182.193 130.442V105.366C182.195 103.678 182.864 102.06 184.054 100.867C185.243 99.6732 186.856 99.0019 188.539 99H305.462C307.144 99.0019 308.757 99.6732 309.947 100.867C311.137 102.06 311.806 103.678 311.808 105.366V130.442C311.806 132.13 311.137 133.748 309.947 134.941C308.757 136.135 307.144 136.806 305.462 136.808Z" fill="white"/>
<path d="M305.462 137.194H188.538C186.805 137.192 185.143 136.5 183.917 135.271C182.691 134.041 182.002 132.374 182 130.635V105.559C182.002 103.82 182.691 102.153 183.917 100.923C185.143 99.6936 186.805 99.002 188.538 99H305.462C307.195 99.002 308.857 99.6936 310.083 100.923C311.309 102.153 311.998 103.82 312 105.559V130.635C311.998 132.374 311.309 134.041 310.083 135.271C308.857 136.5 307.195 137.192 305.462 137.194ZM188.538 99.7716C187.009 99.7733 185.542 100.384 184.461 101.468C183.379 102.553 182.771 104.024 182.769 105.559V130.635C182.771 132.169 183.379 133.64 184.461 134.725C185.542 135.81 187.009 136.42 188.538 136.422H305.462C306.991 136.42 308.458 135.81 309.539 134.725C310.621 133.64 311.229 132.169 311.231 130.635V105.559C311.229 104.024 310.621 102.553 309.539 101.468C308.458 100.384 306.991 99.7733 305.462 99.7716H188.538Z" fill="#3F3D56"/>
<rect x="190.235" y="105.697" width="25.2771" height="25.3546" rx="2.06766" fill="#F0F8FF"/>
<path fill-rule="evenodd" clip-rule="evenodd" d="M208.387 118.374C208.387 121.419 205.919 123.888 202.873 123.888C199.828 123.888 197.36 121.419 197.36 118.374C197.36 115.329 199.828 112.86 202.873 112.86C205.919 112.86 208.387 115.329 208.387 118.374ZM202.873 123.198C205.538 123.198 207.698 121.038 207.698 118.374C207.698 115.709 205.538 113.549 202.873 113.549C200.209 113.549 198.049 115.709 198.049 118.374C198.049 121.038 200.209 123.198 202.873 123.198Z" fill="#104DA9"/>
<path d="M228.625 116.724C228.584 116.377 228.417 116.107 228.125 115.915C227.833 115.723 227.474 115.627 227.049 115.627C226.738 115.627 226.467 115.678 226.234 115.778C226.003 115.879 225.822 116.017 225.692 116.193C225.564 116.369 225.5 116.569 225.5 116.792C225.5 116.98 225.545 117.141 225.634 117.276C225.725 117.408 225.842 117.519 225.983 117.608C226.125 117.695 226.274 117.767 226.429 117.824C226.584 117.879 226.727 117.923 226.857 117.957L227.57 118.149C227.753 118.197 227.956 118.263 228.18 118.348C228.406 118.433 228.622 118.548 228.827 118.694C229.035 118.838 229.207 119.023 229.341 119.249C229.476 119.475 229.544 119.753 229.544 120.082C229.544 120.461 229.444 120.804 229.245 121.11C229.049 121.416 228.761 121.659 228.382 121.84C228.005 122.02 227.547 122.11 227.008 122.11C226.505 122.11 226.07 122.029 225.702 121.867C225.337 121.705 225.049 121.479 224.839 121.189C224.631 120.898 224.513 120.562 224.486 120.178H225.363C225.386 120.443 225.475 120.662 225.631 120.836C225.788 121.007 225.987 121.135 226.227 121.219C226.469 121.302 226.729 121.343 227.008 121.343C227.332 121.343 227.624 121.29 227.882 121.185C228.14 121.078 228.344 120.929 228.495 120.74C228.646 120.548 228.721 120.324 228.721 120.068C228.721 119.835 228.656 119.646 228.526 119.499C228.396 119.353 228.224 119.234 228.012 119.143C227.799 119.052 227.57 118.972 227.323 118.903L226.46 118.656C225.911 118.499 225.477 118.274 225.158 117.981C224.838 117.689 224.678 117.306 224.678 116.833C224.678 116.441 224.784 116.098 224.997 115.806C225.211 115.511 225.499 115.282 225.86 115.12C226.223 114.956 226.629 114.874 227.076 114.874C227.529 114.874 227.931 114.955 228.283 115.117C228.634 115.277 228.913 115.496 229.119 115.775C229.327 116.053 229.436 116.37 229.448 116.724H228.625ZM230.831 121.987V116.724H231.64V121.987H230.831ZM231.242 115.847C231.085 115.847 230.949 115.793 230.835 115.686C230.723 115.578 230.667 115.449 230.667 115.298C230.667 115.148 230.723 115.019 230.835 114.911C230.949 114.804 231.085 114.75 231.242 114.75C231.4 114.75 231.535 114.804 231.647 114.911C231.761 115.019 231.818 115.148 231.818 115.298C231.818 115.449 231.761 115.578 231.647 115.686C231.535 115.793 231.4 115.847 231.242 115.847ZM233.93 118.821V121.987H233.121V116.724H233.902V117.546H233.971C234.094 117.279 234.281 117.064 234.533 116.902C234.784 116.738 235.108 116.655 235.506 116.655C235.862 116.655 236.174 116.728 236.441 116.875C236.708 117.019 236.916 117.238 237.065 117.533C237.213 117.825 237.288 118.195 237.288 118.643V121.987H236.479V118.698C236.479 118.284 236.371 117.962 236.157 117.731C235.942 117.498 235.647 117.382 235.273 117.382C235.015 117.382 234.784 117.438 234.581 117.55C234.38 117.662 234.221 117.825 234.104 118.04C233.988 118.254 233.93 118.515 233.93 118.821ZM240.89 124.07C240.499 124.07 240.163 124.02 239.882 123.92C239.601 123.821 239.367 123.691 239.18 123.529C238.995 123.369 238.847 123.198 238.738 123.015L239.382 122.563C239.455 122.659 239.548 122.768 239.66 122.892C239.771 123.017 239.924 123.126 240.119 123.217C240.315 123.311 240.572 123.358 240.89 123.358C241.315 123.358 241.665 123.255 241.942 123.049C242.218 122.844 242.356 122.522 242.356 122.083V121.014H242.288C242.228 121.11 242.144 121.229 242.034 121.37C241.927 121.51 241.771 121.634 241.568 121.744C241.367 121.851 241.095 121.905 240.753 121.905C240.328 121.905 239.946 121.804 239.608 121.603C239.272 121.402 239.006 121.11 238.81 120.726C238.616 120.342 238.518 119.876 238.518 119.328C238.518 118.789 238.613 118.319 238.803 117.92C238.992 117.518 239.256 117.207 239.594 116.988C239.932 116.766 240.323 116.655 240.766 116.655C241.109 116.655 241.381 116.712 241.582 116.827C241.785 116.939 241.94 117.066 242.048 117.21C242.157 117.352 242.242 117.469 242.301 117.56H242.384V116.724H243.165V122.138C243.165 122.59 243.062 122.958 242.856 123.241C242.653 123.527 242.379 123.736 242.034 123.868C241.691 124.003 241.31 124.07 240.89 124.07ZM240.862 121.178C241.187 121.178 241.461 121.104 241.685 120.956C241.908 120.807 242.079 120.594 242.195 120.315C242.312 120.036 242.37 119.703 242.37 119.314C242.37 118.935 242.313 118.6 242.199 118.31C242.084 118.02 241.915 117.793 241.691 117.628C241.468 117.464 241.191 117.382 240.862 117.382C240.52 117.382 240.234 117.469 240.006 117.642C239.779 117.816 239.609 118.049 239.495 118.341C239.383 118.634 239.327 118.958 239.327 119.314C239.327 119.68 239.384 120.003 239.498 120.284C239.615 120.563 239.786 120.782 240.012 120.942C240.241 121.1 240.524 121.178 240.862 121.178ZM245.454 114.969V121.987H244.645V114.969H245.454ZM249.142 122.097C248.634 122.097 248.197 121.985 247.829 121.761C247.464 121.535 247.182 121.219 246.983 120.815C246.786 120.408 246.688 119.936 246.688 119.397C246.688 118.857 246.786 118.382 246.983 117.971C247.182 117.558 247.458 117.236 247.812 117.005C248.168 116.772 248.584 116.655 249.059 116.655C249.333 116.655 249.604 116.701 249.871 116.792C250.139 116.884 250.382 117.032 250.601 117.238C250.821 117.441 250.995 117.711 251.125 118.046C251.256 118.382 251.321 118.796 251.321 119.287V119.63H247.264V118.931H250.498C250.498 118.634 250.439 118.369 250.32 118.136C250.204 117.903 250.037 117.719 249.82 117.584C249.605 117.449 249.352 117.382 249.059 117.382C248.737 117.382 248.459 117.462 248.223 117.622C247.99 117.779 247.811 117.985 247.685 118.238C247.56 118.492 247.497 118.764 247.497 119.054V119.52C247.497 119.917 247.565 120.254 247.702 120.531C247.842 120.805 248.035 121.014 248.281 121.158C248.528 121.299 248.815 121.37 249.142 121.37C249.354 121.37 249.546 121.341 249.717 121.281C249.891 121.219 250.04 121.128 250.166 121.007C250.292 120.884 250.389 120.731 250.457 120.548L251.239 120.767C251.156 121.032 251.018 121.265 250.824 121.466C250.63 121.665 250.39 121.82 250.104 121.932C249.819 122.042 249.498 122.097 249.142 122.097ZM257.403 122.097C256.909 122.097 256.485 121.98 256.128 121.747C255.772 121.514 255.498 121.193 255.306 120.784C255.114 120.375 255.018 119.908 255.018 119.383C255.018 118.848 255.116 118.377 255.313 117.968C255.511 117.556 255.788 117.236 256.142 117.005C256.498 116.772 256.914 116.655 257.389 116.655C257.759 116.655 258.093 116.724 258.39 116.861C258.687 116.998 258.93 117.19 259.12 117.437C259.309 117.683 259.427 117.971 259.472 118.3H258.664C258.602 118.06 258.465 117.848 258.253 117.663C258.042 117.475 257.759 117.382 257.403 117.382C257.088 117.382 256.811 117.464 256.574 117.628C256.338 117.791 256.154 118.02 256.022 118.317C255.892 118.612 255.827 118.958 255.827 119.355C255.827 119.762 255.891 120.116 256.019 120.418C256.149 120.719 256.331 120.953 256.567 121.12C256.804 121.287 257.083 121.37 257.403 121.37C257.613 121.37 257.804 121.334 257.975 121.261C258.146 121.187 258.291 121.082 258.41 120.945C258.529 120.808 258.614 120.644 258.664 120.452H259.472C259.427 120.763 259.314 121.042 259.133 121.291C258.955 121.538 258.719 121.735 258.424 121.881C258.132 122.025 257.791 122.097 257.403 122.097ZM261.463 118.821V121.987H260.655V114.969H261.463V117.546H261.532C261.655 117.274 261.84 117.059 262.087 116.899C262.336 116.736 262.667 116.655 263.081 116.655C263.439 116.655 263.753 116.727 264.023 116.871C264.292 117.013 264.501 117.231 264.65 117.526C264.801 117.818 264.876 118.19 264.876 118.643V121.987H264.067V118.698C264.067 118.279 263.959 117.956 263.742 117.728C263.527 117.497 263.229 117.382 262.848 117.382C262.583 117.382 262.345 117.438 262.135 117.55C261.927 117.662 261.763 117.825 261.641 118.04C261.523 118.254 261.463 118.515 261.463 118.821ZM268.494 122.097C268.018 122.097 267.602 121.984 267.243 121.757C266.887 121.531 266.608 121.215 266.407 120.808C266.208 120.402 266.109 119.926 266.109 119.383C266.109 118.835 266.208 118.356 266.407 117.947C266.608 117.538 266.887 117.221 267.243 116.995C267.602 116.768 268.018 116.655 268.494 116.655C268.969 116.655 269.385 116.768 269.741 116.995C270.1 117.221 270.378 117.538 270.577 117.947C270.778 118.356 270.878 118.835 270.878 119.383C270.878 119.926 270.778 120.402 270.577 120.808C270.378 121.215 270.1 121.531 269.741 121.757C269.385 121.984 268.969 122.097 268.494 122.097ZM268.494 121.37C268.855 121.37 269.151 121.278 269.385 121.093C269.618 120.908 269.79 120.664 269.902 120.363C270.014 120.061 270.07 119.735 270.07 119.383C270.07 119.031 270.014 118.703 269.902 118.399C269.79 118.096 269.618 117.85 269.385 117.663C269.151 117.475 268.855 117.382 268.494 117.382C268.133 117.382 267.836 117.475 267.603 117.663C267.37 117.85 267.197 118.096 267.085 118.399C266.973 118.703 266.917 119.031 266.917 119.383C266.917 119.735 266.973 120.061 267.085 120.363C267.197 120.664 267.37 120.908 267.603 121.093C267.836 121.278 268.133 121.37 268.494 121.37ZM272.113 121.987V116.724H272.922V121.987H272.113ZM272.524 115.847C272.366 115.847 272.231 115.793 272.116 115.686C272.004 115.578 271.948 115.449 271.948 115.298C271.948 115.148 272.004 115.019 272.116 114.911C272.231 114.804 272.366 114.75 272.524 114.75C272.682 114.75 272.816 114.804 272.928 114.911C273.043 115.019 273.1 115.148 273.1 115.298C273.1 115.449 273.043 115.578 272.928 115.686C272.816 115.793 272.682 115.847 272.524 115.847ZM276.541 122.097C276.047 122.097 275.622 121.98 275.266 121.747C274.91 121.514 274.636 121.193 274.444 120.784C274.252 120.375 274.156 119.908 274.156 119.383C274.156 118.848 274.254 118.377 274.451 117.968C274.649 117.556 274.926 117.236 275.28 117.005C275.636 116.772 276.052 116.655 276.527 116.655C276.897 116.655 277.231 116.724 277.528 116.861C277.825 116.998 278.068 117.19 278.257 117.437C278.447 117.683 278.565 117.971 278.61 118.3H277.802C277.74 118.06 277.603 117.848 277.391 117.663C277.18 117.475 276.897 117.382 276.541 117.382C276.226 117.382 275.949 117.464 275.712 117.628C275.476 117.791 275.292 118.02 275.16 118.317C275.03 118.612 274.965 118.958 274.965 119.355C274.965 119.762 275.029 120.116 275.156 120.418C275.287 120.719 275.469 120.953 275.705 121.12C275.942 121.287 276.221 121.37 276.541 121.37C276.751 121.37 276.942 121.334 277.113 121.261C277.284 121.187 277.429 121.082 277.548 120.945C277.667 120.808 277.751 120.644 277.802 120.452H278.61C278.565 120.763 278.452 121.042 278.271 121.291C278.093 121.538 277.857 121.735 277.562 121.881C277.269 122.025 276.929 122.097 276.541 122.097ZM281.999 122.097C281.492 122.097 281.055 121.985 280.687 121.761C280.321 121.535 280.039 121.219 279.841 120.815C279.644 120.408 279.546 119.936 279.546 119.397C279.546 118.857 279.644 118.382 279.841 117.971C280.039 117.558 280.316 117.236 280.67 117.005C281.026 116.772 281.442 116.655 281.917 116.655C282.191 116.655 282.462 116.701 282.729 116.792C282.996 116.884 283.24 117.032 283.459 117.238C283.678 117.441 283.853 117.711 283.983 118.046C284.113 118.382 284.178 118.796 284.178 119.287V119.63H280.121V118.931H283.356C283.356 118.634 283.297 118.369 283.178 118.136C283.061 117.903 282.895 117.719 282.678 117.584C282.463 117.449 282.209 117.382 281.917 117.382C281.595 117.382 281.316 117.462 281.081 117.622C280.848 117.779 280.669 117.985 280.543 118.238C280.417 118.492 280.354 118.764 280.354 119.054V119.52C280.354 119.917 280.423 120.254 280.56 120.531C280.699 120.805 280.892 121.014 281.139 121.158C281.386 121.299 281.673 121.37 281.999 121.37C282.212 121.37 282.404 121.341 282.575 121.281C282.748 121.219 282.898 121.128 283.024 121.007C283.149 120.884 283.246 120.731 283.315 120.548L284.096 120.767C284.014 121.032 283.876 121.265 283.682 121.466C283.487 121.665 283.248 121.82 282.962 121.932C282.677 122.042 282.356 122.097 281.999 122.097Z" fill="#1D2939"/>
</g>
<g opacity="0.5">
<path d="M305.462 182.808H188.539C186.856 182.806 185.243 182.135 184.054 180.941C182.864 179.748 182.195 178.13 182.193 176.442V151.366C182.195 149.678 182.864 148.06 184.054 146.867C185.243 145.673 186.856 145.002 188.539 145H305.462C307.144 145.002 308.757 145.673 309.947 146.867C311.137 148.06 311.806 149.678 311.808 151.366V176.442C311.806 178.13 311.137 179.748 309.947 180.941C308.757 182.135 307.144 182.806 305.462 182.808Z" fill="white"/>
<path d="M305.462 183.194H188.538C186.805 183.192 185.143 182.5 183.917 181.271C182.691 180.041 182.002 178.374 182 176.635V151.559C182.002 149.82 182.691 148.153 183.917 146.923C185.143 145.694 186.805 145.002 188.538 145H305.462C307.195 145.002 308.857 145.694 310.083 146.923C311.309 148.153 311.998 149.82 312 151.559V176.635C311.998 178.374 311.309 180.041 310.083 181.271C308.857 182.5 307.195 183.192 305.462 183.194ZM188.538 145.772C187.009 145.773 185.542 146.384 184.461 147.468C183.379 148.553 182.771 150.024 182.769 151.559V176.635C182.771 178.169 183.379 179.64 184.461 180.725C185.542 181.81 187.009 182.42 188.538 182.422H305.462C306.991 182.42 308.458 181.81 309.539 180.725C310.621 179.64 311.229 178.169 311.231 176.635V151.559C311.229 150.024 310.621 148.553 309.539 147.468C308.458 146.384 306.991 145.773 305.462 145.772H188.538Z" fill="#3F3D56"/>
<rect x="190.235" y="151.697" width="25.2771" height="25.3546" rx="2.06766" fill="#F0F8FF"/>
<path d="M198.394 170.577C197.911 170.577 197.503 170.41 197.17 170.077C196.837 169.744 196.67 169.336 196.67 168.854V159.894C196.67 159.411 196.837 159.004 197.17 158.671C197.503 158.337 197.911 158.171 198.394 158.171H207.353C207.836 158.171 208.244 158.337 208.577 158.671C208.91 159.004 209.076 159.411 209.076 159.894V168.854C209.076 169.336 208.91 169.744 208.577 170.077C208.244 170.41 207.836 170.577 207.353 170.577H198.394ZM198.394 169.888H207.353C207.641 169.888 207.885 169.787 208.085 169.586C208.287 169.385 208.387 169.141 208.387 168.854V159.894C208.387 159.607 208.287 159.363 208.085 159.162C207.885 158.961 207.641 158.86 207.353 158.86H198.394C198.106 158.86 197.862 158.961 197.662 159.162C197.46 159.363 197.36 159.607 197.36 159.894V168.854C197.36 169.141 197.46 169.385 197.662 169.586C197.862 169.787 198.106 169.888 198.394 169.888Z" fill="#104DA9"/>
<path d="M202.873 167.82V162.306H203.563V167.82H202.873Z" fill="#104DA9"/>
<path d="M202.184 167.82V162.306H202.873V167.82H202.184Z" fill="#104DA9"/>
<path d="M205.63 162.306L200.117 162.306V161.617L205.63 161.617V162.306Z" fill="#104DA9"/>
<path d="M205.63 162.995L200.117 162.995V162.306L205.63 162.306V162.995Z" fill="#104DA9"/>
<path d="M224.404 161.723V160.97H229.667V161.723H227.46V167.987H226.61V161.723H224.404ZM232.312 168.097C231.805 168.097 231.368 167.985 231 167.761C230.634 167.535 230.352 167.219 230.153 166.815C229.957 166.409 229.859 165.936 229.859 165.397C229.859 164.857 229.957 164.382 230.153 163.971C230.352 163.558 230.629 163.236 230.983 163.005C231.339 162.772 231.755 162.655 232.23 162.655C232.504 162.655 232.775 162.701 233.042 162.792C233.309 162.884 233.553 163.032 233.772 163.238C233.991 163.441 234.166 163.711 234.296 164.047C234.426 164.382 234.491 164.796 234.491 165.287V165.63H230.434V164.931H233.669C233.669 164.634 233.61 164.369 233.491 164.136C233.374 163.903 233.208 163.719 232.991 163.584C232.776 163.449 232.522 163.382 232.23 163.382C231.908 163.382 231.629 163.462 231.394 163.622C231.161 163.779 230.982 163.985 230.856 164.238C230.73 164.492 230.667 164.764 230.667 165.054V165.52C230.667 165.917 230.736 166.254 230.873 166.531C231.012 166.805 231.205 167.014 231.452 167.158C231.699 167.299 231.986 167.37 232.312 167.37C232.525 167.37 232.717 167.341 232.888 167.281C233.061 167.219 233.211 167.128 233.337 167.007C233.462 166.884 233.559 166.731 233.628 166.548L234.409 166.767C234.327 167.032 234.189 167.265 233.995 167.466C233.8 167.665 233.561 167.82 233.275 167.932C232.99 168.042 232.669 168.097 232.312 168.097ZM236.183 162.724L237.444 164.876L238.705 162.724H239.637L237.938 165.355L239.637 167.987H238.705L237.444 165.945L236.183 167.987H235.251L236.923 165.355L235.251 162.724H236.183ZM243.08 162.724V163.409H240.353V162.724H243.08ZM241.147 161.463H241.956V166.479C241.956 166.708 241.989 166.879 242.055 166.993C242.124 167.105 242.211 167.181 242.316 167.219C242.423 167.256 242.536 167.274 242.655 167.274C242.744 167.274 242.817 167.27 242.874 167.261C242.932 167.249 242.977 167.24 243.011 167.233L243.176 167.96C243.121 167.98 243.045 168.001 242.946 168.021C242.848 168.044 242.724 168.056 242.573 168.056C242.344 168.056 242.121 168.006 241.901 167.908C241.684 167.81 241.504 167.66 241.36 167.459C241.218 167.258 241.147 167.005 241.147 166.699V161.463Z" fill="#1D2939"/>
</g>
<path d="M412.849 30.5282H75V25.3128C75.0039 22.5878 76.0853 19.9757 78.0069 18.0494C79.9284 16.1232 82.5332 15.0401 85.2499 15.0379H402.599C405.316 15.0401 407.921 16.1232 409.842 18.0494C411.764 19.9757 412.845 22.5878 412.849 25.3128V30.5282Z" fill="#4071B7"/>
<path d="M85.6512 25.3187C87.1155 25.3187 88.3025 24.1281 88.3025 22.6594C88.3025 21.1906 87.1155 20 85.6512 20C84.187 20 83 21.1906 83 22.6594C83 24.1281 84.187 25.3187 85.6512 25.3187Z" fill="white"/>
<path d="M95.7148 25.3187C97.179 25.3187 98.366 24.1281 98.366 22.6594C98.366 21.1906 97.179 20 95.7148 20C94.2505 20 93.0635 21.1906 93.0635 22.6594C93.0635 24.1281 94.2505 25.3187 95.7148 25.3187Z" fill="white"/>
<path d="M105.778 25.3187C107.243 25.3187 108.43 24.1281 108.43 22.6594C108.43 21.1906 107.243 20 105.778 20C104.314 20 103.127 21.1906 103.127 22.6594C103.127 24.1281 104.314 25.3187 105.778 25.3187Z" fill="white"/>
<path d="M327.299 91.1892H189.581C187.599 91.187 185.699 90.3963 184.298 88.9907C182.897 87.5851 182.108 85.6793 182.106 83.6915V54.1548C182.108 52.167 182.897 50.2612 184.298 48.8556C185.699 47.45 187.599 46.6593 189.581 46.6571H327.299C329.281 46.6594 331.181 47.45 332.582 48.8556C333.983 50.2612 334.772 52.167 334.774 54.1548V83.6915C334.772 85.6793 333.983 87.5851 332.582 88.9907C331.181 90.3963 329.281 91.1869 327.299 91.1892Z" fill="white"/>
<path d="M327.299 91.4165H189.581C187.539 91.4142 185.581 90.5995 184.137 89.1513C182.694 87.7031 181.882 85.7396 181.879 83.6915V54.1549C181.882 52.1068 182.694 50.1433 184.137 48.695C185.581 47.2468 187.539 46.4322 189.581 46.4299H327.299C329.34 46.4322 331.298 47.2468 332.742 48.695C334.186 50.1433 334.998 52.1068 335 54.1549V83.6915C334.998 85.7396 334.186 87.7031 332.742 89.1513C331.298 90.5995 329.34 91.4142 327.299 91.4165ZM189.581 47.3387C187.779 47.3408 186.052 48.0596 184.778 49.3374C183.504 50.6152 182.787 52.3477 182.785 54.1549V83.6915C182.787 85.4986 183.504 87.2312 184.778 88.509C186.052 89.7868 187.779 90.5056 189.581 90.5076H327.299C329.1 90.5056 330.827 89.7868 332.101 88.509C333.375 87.2312 334.092 85.4986 334.094 83.6915V54.1549C334.092 52.3477 333.375 50.6152 332.101 49.3374C330.827 48.0596 329.1 47.3408 327.299 47.3387H189.581Z" fill="#0B4B9B"/>
<rect x="191.579" y="54.3175" width="29.7726" height="29.864" rx="2.43539" fill="#F0F8FF"/>
<path d="M206.467 74.7291C205.709 74.7291 204.997 74.5853 204.33 74.2977C203.663 74.0102 203.083 73.6199 202.589 73.1269C202.096 72.634 201.705 72.0542 201.417 71.3877C201.129 70.7214 200.985 70.0093 200.985 69.2514C200.985 68.4937 201.129 67.7813 201.417 67.1142C201.704 66.4472 202.095 65.867 202.588 65.3735C203.08 64.8801 203.66 64.4894 204.327 64.2017C204.993 63.9138 205.705 63.7698 206.463 63.7698C207.221 63.7698 207.933 63.9136 208.6 64.2012C209.267 64.4888 209.847 64.8791 210.341 65.372C210.834 65.865 211.225 66.4447 211.513 67.1112C211.801 67.7776 211.945 68.4897 211.945 69.2475C211.945 70.0052 211.801 70.7176 211.513 71.3847C211.226 72.0517 210.835 72.6319 210.342 73.1254C209.849 73.6189 209.27 74.0095 208.603 74.2973C207.937 74.5852 207.225 74.7291 206.467 74.7291ZM206.465 74.1203C207.825 74.1203 208.976 73.6484 209.92 72.7047C210.864 71.761 211.336 70.6092 211.336 69.2495C211.336 67.8897 210.864 66.738 209.92 65.7943C208.976 64.8505 207.825 64.3787 206.465 64.3787C205.105 64.3787 203.953 64.8505 203.01 65.7943C202.066 66.738 201.594 67.8897 201.594 69.2495C201.594 70.6092 202.066 71.761 203.01 72.7047C203.953 73.6484 205.105 74.1203 206.465 74.1203ZM206.465 71.9893H207.074V66.5097H205.247V67.1185H206.465V71.9893Z" fill="#104DA9"/>
<path d="M238.087 65.8426V73.2948H237.214L233.153 67.4436H233.08V73.2948H232.178V65.8426H233.051L237.127 71.7083H237.199V65.8426H238.087ZM243.299 71.0096V67.7056H244.158V73.2948H243.299V72.3487H243.241C243.11 72.6325 242.906 72.8739 242.629 73.0728C242.353 73.2693 242.004 73.3676 241.581 73.3676C241.232 73.3676 240.922 73.2912 240.65 73.1383C240.378 72.9831 240.165 72.7502 240.009 72.4397C239.854 72.1268 239.777 71.7325 239.777 71.2571V67.7056H240.635V71.1989C240.635 71.6064 240.749 71.9315 240.977 72.1741C241.208 72.4166 241.501 72.5379 241.858 72.5379C242.071 72.5379 242.289 72.4834 242.509 72.3742C242.733 72.265 242.919 72.0976 243.07 71.872C243.223 71.6464 243.299 71.359 243.299 71.0096ZM245.731 73.2948V67.7056H246.56V68.5789H246.633C246.749 68.2806 246.937 68.0489 247.197 67.8839C247.457 67.7165 247.768 67.6329 248.132 67.6329C248.501 67.6329 248.808 67.7165 249.053 67.8839C249.3 68.0489 249.493 68.2806 249.631 68.5789H249.69C249.833 68.2903 250.047 68.061 250.334 67.8912C250.62 67.719 250.963 67.6329 251.363 67.6329C251.863 67.6329 252.272 67.7893 252.59 68.1023C252.907 68.4128 253.066 68.8967 253.066 69.5541V73.2948H252.208V69.5541C252.208 69.1417 252.095 68.847 251.869 68.6699C251.644 68.4928 251.378 68.4043 251.072 68.4043C250.679 68.4043 250.375 68.5231 250.159 68.7609C249.943 68.9962 249.835 69.2946 249.835 69.656V73.2948H248.962V69.4668C248.962 69.149 248.859 68.8931 248.653 68.699C248.446 68.5025 248.181 68.4043 247.856 68.4043C247.632 68.4043 247.424 68.4637 247.23 68.5826C247.038 68.7014 246.883 68.8664 246.764 69.0775C246.648 69.2861 246.589 69.5274 246.589 69.8016V73.2948H245.731ZM254.753 73.2948V65.8426H255.612V68.5935H255.684C255.748 68.4965 255.835 68.3727 255.946 68.2223C256.06 68.0695 256.223 67.9337 256.434 67.8148C256.648 67.6935 256.936 67.6329 257.3 67.6329C257.771 67.6329 258.186 67.7505 258.545 67.9858C258.904 68.2211 259.184 68.5547 259.385 68.9865C259.586 69.4183 259.687 69.9277 259.687 70.5148C259.687 71.1067 259.586 71.6197 259.385 72.054C259.184 72.4858 258.905 72.8205 258.548 73.0583C258.192 73.2936 257.78 73.4112 257.315 73.4112C256.956 73.4112 256.668 73.3518 256.452 73.2329C256.236 73.1116 256.07 72.9746 255.954 72.8218C255.837 72.6665 255.748 72.5379 255.684 72.436H255.583V73.2948H254.753ZM255.597 70.5002C255.597 70.9223 255.659 71.2947 255.783 71.6173C255.906 71.9375 256.087 72.1886 256.325 72.3705C256.563 72.5501 256.854 72.6398 257.198 72.6398C257.557 72.6398 257.857 72.5452 258.097 72.356C258.34 72.1644 258.521 71.9072 258.643 71.5846C258.767 71.2595 258.828 70.8981 258.828 70.5002C258.828 70.1072 258.768 69.7531 258.646 69.4377C258.528 69.1199 258.347 68.8688 258.104 68.6845C257.864 68.4977 257.562 68.4043 257.198 68.4043C256.849 68.4043 256.555 68.4928 256.318 68.6699C256.08 68.8446 255.9 69.0896 255.779 69.4049C255.658 69.7179 255.597 70.083 255.597 70.5002ZM263.344 73.4112C262.806 73.4112 262.341 73.2924 261.95 73.0546C261.562 72.8145 261.263 72.4797 261.052 72.0503C260.843 71.6185 260.739 71.1164 260.739 70.5439C260.739 69.9714 260.843 69.4668 261.052 69.0301C261.263 68.5911 261.556 68.249 261.932 68.004C262.311 67.7566 262.752 67.6329 263.257 67.6329C263.548 67.6329 263.835 67.6814 264.119 67.7784C264.403 67.8754 264.661 68.0331 264.894 68.2514C265.127 68.4674 265.313 68.7536 265.451 69.1102C265.589 69.4668 265.658 69.9059 265.658 70.4274V70.7913H261.35V70.049H264.785C264.785 69.7336 264.722 69.4522 264.596 69.2048C264.472 68.9574 264.295 68.7621 264.065 68.619C263.837 68.4758 263.567 68.4043 263.257 68.4043C262.915 68.4043 262.619 68.4892 262.369 68.659C262.121 68.8264 261.931 69.0447 261.798 69.314C261.664 69.5832 261.597 69.8719 261.597 70.18V70.6749C261.597 71.097 261.67 71.4548 261.816 71.7483C261.964 72.0394 262.169 72.2614 262.431 72.4142C262.693 72.5646 262.997 72.6398 263.344 72.6398C263.57 72.6398 263.773 72.6083 263.955 72.5452C264.14 72.4797 264.299 72.3827 264.432 72.2541C264.566 72.1231 264.669 71.9606 264.741 71.7665L265.571 71.9994C265.484 72.2808 265.337 72.5282 265.131 72.7417C264.925 72.9528 264.67 73.1177 264.367 73.2366C264.063 73.353 263.723 73.4112 263.344 73.4112ZM266.965 73.2948V67.7056H267.794V68.5498H267.853C267.954 68.2733 268.139 68.0489 268.406 67.8767C268.672 67.7044 268.973 67.6183 269.308 67.6183C269.371 67.6183 269.45 67.6195 269.545 67.6219C269.639 67.6244 269.711 67.628 269.759 67.6329V68.5062C269.73 68.4989 269.663 68.488 269.559 68.4734C269.457 68.4564 269.349 68.4479 269.235 68.4479C268.964 68.4479 268.721 68.505 268.508 68.619C268.296 68.7306 268.129 68.8858 268.005 69.0847C267.884 69.2812 267.823 69.5056 267.823 69.7579V73.2948H266.965Z" fill="#1D2939"/>
<path d="M446.421 164.123C446.421 164.123 454.186 203.349 426.573 209.298C398.959 215.248 380.265 197.385 380.265 197.385C380.265 197.385 376.575 198.992 372.564 193.814C372.564 193.814 368.389 195.471 368.546 192.95C368.702 190.428 373.454 177.079 418.572 189L428.411 165.773L446.421 164.123Z" fill="#DBDBDC"/>
<path d="M451.921 148.839C443.756 145.646 432.685 154.467 427.257 168.523L456.815 180.065C462.272 166.009 460.085 152.024 451.921 148.839Z" fill="#DBDBDC"/>
<path d="M392.968 248.116L436.376 228.168L448.231 160.924C448.231 160.924 444.989 130.855 466.184 140.825C487.378 150.796 503.714 238.638 468.243 259.487C432.771 280.335 368.738 262.458 392.968 248.145" fill="#1F3563"/>
<path fill-rule="evenodd" clip-rule="evenodd" d="M408.29 266.638C425.652 270.275 450.429 269.525 468.063 259.179L468.423 259.795C450.584 270.261 425.609 270.996 408.144 267.337C403.773 266.422 399.863 265.229 396.644 263.839C393.43 262.451 390.882 260.857 389.26 259.127C387.633 257.391 386.905 255.478 387.447 253.5C387.982 251.551 389.728 249.644 392.787 247.837L393.149 248.453C390.15 250.224 388.596 252.006 388.134 253.69C387.679 255.347 388.256 257.013 389.779 258.638C391.307 260.267 393.755 261.814 396.925 263.183C400.091 264.55 403.954 265.73 408.29 266.638Z" fill="black"/>
<path fill-rule="evenodd" clip-rule="evenodd" d="M429.814 350.286V268.929H430.527V350.286H429.814Z" fill="#B7BBCE"/>
<path d="M385.409 341.437L380.586 316.696L404.324 315.461L404.06 345.851L382.523 346.965L385.409 341.437Z" fill="#1F3563"/>
<path d="M411.191 348.943L404.146 324.745L427.67 321.353L430.17 351.643L408.826 354.714L411.191 348.943Z" fill="#0B4B9B"/>
<path fill-rule="evenodd" clip-rule="evenodd" d="M447.995 356H347.493V354.929H447.995V356Z" fill="#B7BBCE"/>
<path d="M450.631 144.961C423.338 148.096 424.343 213.726 424.343 213.726H471.99C468.428 163.309 470.85 142.647 450.617 144.961" fill="#F0F0F6"/>
<path d="M465.649 222.033L422.334 212.955C422.334 212.955 353.52 217.119 376.931 318.767L405.214 324.703L411.84 263.236C411.84 263.236 463.427 277.335 465.649 222.018" fill="#4175BA"/>
<path d="M457.528 203.777L425.867 193.928C425.867 193.928 436.917 199.47 440.608 179.158C442.788 167.116 459.131 174.78 459.131 174.78L457.528 203.777Z" fill="#DBDBDC"/>
<path d="M472.66 212.884H425.013C425.013 212.884 353.428 231.268 400.441 326.91H431.546L425.013 264.772C425.013 264.772 482.477 268.007 472.66 212.869" fill="#6693CD"/>
<path d="M414.689 212.934L472.004 208.555C472.004 208.555 492.194 253.973 426.152 272.579C426.152 272.579 410.871 272.029 389.035 266.008C362.241 258.623 375.392 246.309 375.392 246.309C375.392 246.309 380.429 227.111 414.689 212.934Z" fill="#F0F0F6"/>
<path d="M449.648 196.535L470.066 201.706C470.066 201.706 475.374 215.612 456.195 221.99C437.017 228.368 406.169 199.578 406.169 199.578L449.648 196.535Z" fill="#DBDBDC"/>
<path d="M475.516 169.494C478.188 178.498 477.406 188.177 473.325 196.633C469.245 205.089 462.159 211.71 453.46 215.199C444.76 218.687 435.074 218.79 426.302 215.488C417.531 212.185 410.307 205.716 406.048 197.349C406.048 197.349 402.357 198.963 398.339 193.778C398.339 193.778 394.172 195.442 394.328 192.921C394.485 190.4 400.591 182.836 445.709 194.756L443.956 170.723L475.516 169.494Z" fill="#F0F0F6"/>
<path fill-rule="evenodd" clip-rule="evenodd" d="M396.277 190.794C395.047 191.623 394.715 192.476 394.684 192.972C394.667 193.24 394.71 193.423 394.773 193.549C394.836 193.673 394.93 193.765 395.058 193.834C395.331 193.981 395.749 194.019 396.241 193.972C396.72 193.925 397.211 193.804 397.589 193.691C397.776 193.635 397.933 193.582 398.041 193.543C398.096 193.524 398.138 193.508 398.167 193.498L398.199 193.485L398.206 193.482L398.208 193.482L398.456 193.383L398.62 193.594C400.583 196.123 402.435 196.961 403.761 197.189C404.428 197.304 404.974 197.267 405.349 197.203C405.536 197.171 405.681 197.132 405.776 197.103C405.823 197.088 405.859 197.075 405.88 197.067C405.891 197.063 405.899 197.06 405.903 197.058L405.906 197.057C405.906 197.057 405.906 197.057 406.048 197.385C406.19 197.712 406.189 197.712 406.189 197.713L406.187 197.714L406.183 197.715L406.171 197.72C406.161 197.724 406.147 197.73 406.13 197.736C406.096 197.749 406.048 197.766 405.987 197.785C405.865 197.823 405.689 197.869 405.468 197.907C405.025 197.983 404.397 198.024 403.64 197.893C402.156 197.637 400.218 196.732 398.22 194.238C398.107 194.277 397.961 194.325 397.792 194.375C397.393 194.495 396.852 194.63 396.309 194.683C395.779 194.734 395.184 194.713 394.72 194.463C394.479 194.332 394.273 194.14 394.138 193.872C394.004 193.606 393.95 193.29 393.973 192.927C394.02 192.162 394.509 191.125 395.879 190.201C397.245 189.28 399.497 188.46 403.123 188.1C410.373 187.379 423.228 188.483 445.799 194.447L445.618 195.138C423.071 189.181 410.315 188.103 403.193 188.811C399.633 189.164 397.51 189.962 396.277 190.794ZM405.907 197.057C405.907 197.057 405.907 197.057 405.907 197.057V197.057Z" fill="white"/>
<path d="M405.969 188.293C395.995 188.493 393.986 191.543 393.858 192.978C393.701 195.492 397.876 193.835 397.876 193.835C401.887 198.985 405.577 197.406 405.577 197.406L405.969 188.293Z" fill="#4071B7"/>
<path d="M378.384 184.993C369.23 188.957 368.524 192.55 368.98 193.907C369.785 196.299 373.02 193.192 373.02 193.192C378.719 196.435 381.49 193.542 381.49 193.542L378.384 184.993Z" fill="#4071B7"/>
<path d="M358.921 197.956L363.623 193.564H410.222L413.713 200.82L346.802 200.692C346.541 200.661 346.301 200.529 346.136 200.323C345.971 200.117 345.893 199.855 345.919 199.592C345.894 199.33 345.972 199.068 346.135 198.862C346.298 198.656 346.535 198.52 346.795 198.485L358.921 197.956Z" fill="#0B4B9B"/>
<path d="M384.675 189.2L308.73 187.95L297.338 137.997L375.812 136.119L384.675 189.2Z" fill="#0B4B9B"/>
<path d="M352.637 200.327H341.124L335.069 175.122H346.574L352.637 200.327Z" fill="#0B4B9B"/>
<path fill-rule="evenodd" clip-rule="evenodd" d="M334.616 174.765H346.855L353.089 200.685H340.844L334.616 174.765ZM335.521 175.48L341.405 199.97H352.185L346.294 175.48H335.521Z" fill="white"/>
<path d="M433.683 128.741L432.372 128.705C432.372 128.705 433.661 126.898 431.574 119.556C429.486 112.213 440.729 108.464 447.96 114.028C458.646 122.248 458.646 145.589 458.646 145.589L440.522 148.275C440.522 148.275 440.045 138.547 439.567 135.297C439.567 135.297 444.041 135.297 445.979 132.633C434.196 137.297 433.683 128.741 433.683 128.741Z" fill="#4071B7"/>
<path d="M433.148 128.726C433.148 128.726 431.553 138.247 435.877 140.268C440.201 142.29 449.769 139.683 449.121 131.398C448.473 123.113 448.886 121.998 450.809 122.405C452.733 122.813 451.579 125.198 451.579 125.198L455.718 126.555C455.718 126.555 451.878 110.199 445.545 109.064C439.211 107.928 426.366 117.134 426.366 117.134C426.366 117.134 429.095 119.549 431.595 119.041L428.033 120.413C428.033 120.413 432.379 125.334 442.994 122.02L445.844 123.641C445.844 123.641 446.314 129.976 444.063 130.069C441.811 130.162 438.363 127.298 433.163 128.755" fill="#1F3563"/>
<path d="M438.085 124.784C437.699 124.526 437.23 124.421 436.771 124.49C436.312 124.558 435.894 124.795 435.599 125.155L438.085 124.784Z" fill="white"/>
<path d="M435.635 129.533C436.021 129.792 436.49 129.896 436.949 129.828C437.409 129.759 437.826 129.522 438.121 129.162L435.635 129.533Z" fill="#0B4B9B"/>
<path fill-rule="evenodd" clip-rule="evenodd" d="M438.983 128.672L438.396 129.389C438.045 129.817 437.548 130.099 437.002 130.181C436.455 130.263 435.897 130.138 435.437 129.831L434.667 129.317L438.983 128.672Z" fill="#2354A2"/>
<path d="M459.672 138.826L437.672 146.096C437.672 146.096 437.095 155.96 437.06 156.181L463.483 151.517L459.672 138.826Z" fill="#DBDBDC"/>
<path d="M457.556 145.575C466.283 144.811 474.419 156.374 475.723 171.408L444.12 174.173C442.816 159.138 448.829 146.318 457.556 145.604" fill="#F0F0F6"/>
<path d="M44.5268 166.052C44.5268 166.052 37.6803 202.32 62.0453 207.827C86.4103 213.334 102.924 196.806 102.924 196.806C102.924 196.806 106.187 198.292 109.728 193.528C109.728 193.528 113.411 195.064 113.29 192.735C113.169 190.407 108.959 178.058 69.1197 189.078L58.7753 166.895L44.5268 166.052Z" fill="#DBDBDC"/>
<path d="M38.1007 153.531C45.6525 150.582 55.8687 158.738 60.8984 171.744L33.5555 182.415C28.5044 169.409 30.5348 156.481 38.0794 153.531" fill="#DBDBDC"/>
<path d="M88.8184 244.667L37.7089 164.045C37.7089 164.045 40.7082 136.24 21.1022 145.475C1.49623 154.71 -13.6072 235.917 19.2 255.151C52.0073 274.385 111.224 257.901 88.8184 244.667Z" fill="#0B4B9B"/>
<path d="M150.7 311.239L141.766 289.72L125.095 298.005L140.833 321.267L155.744 314.018L150.7 311.239Z" fill="#4175BA"/>
<path d="M188.772 280.821L169.565 267.679L160.111 283.742L185.958 294.619L194.514 280.385L188.772 280.821Z" fill="#0B4B9B"/>
<path d="M63.9405 198.792L93.2212 257.373L160.831 285.72L173.234 268.072L63.9405 198.792Z" fill="#1F3563"/>
<path fill-rule="evenodd" clip-rule="evenodd" d="M123.328 355.421H30.378V354.35H123.328V355.421Z" fill="#B7BBCE"/>
<path d="M63.9404 198.778H22.6909C22.6909 198.778 11.2065 253.48 90.8202 257.344L126.028 302.14L144.43 290.913C144.43 290.913 123.478 220.133 63.9261 198.778" fill="#0B4B9B"/>
<path fill-rule="evenodd" clip-rule="evenodd" d="M53.8809 354.886V264.301H54.9496V354.886H53.8809Z" fill="#B7BBCE"/>
<path d="M70.2026 201.099H23.1397C23.1397 201.099 11.1139 254.994 93.0501 259.022C93.0501 259.022 89.6589 317.775 96.7547 308.133C125.658 268.85 113.076 229.132 113.076 229.132C113.076 229.132 99.4619 213.205 70.2026 201.099Z" fill="#F0F0F6"/>
<path d="M38.8558 195.478L23.2893 199.863C23.2893 199.863 20.1048 215.126 35.5146 223.625C50.9243 232.125 72.9953 201.92 72.9953 201.92L38.8558 195.478Z" fill="#DBDBDC"/>
<path fill-rule="evenodd" clip-rule="evenodd" d="M82.6377 189.157C89.3109 189.822 91.0326 192.195 91.1259 193.648C91.1477 193.986 91.0983 194.284 90.9717 194.535C90.8437 194.788 90.649 194.97 90.422 195.092C89.9854 195.327 89.4286 195.344 88.936 195.296C88.4308 195.246 87.9284 195.12 87.5578 195.009C87.4092 194.965 87.2799 194.922 87.1779 194.887C85.3317 197.175 83.5402 198.007 82.1642 198.241C81.4607 198.361 80.8773 198.322 80.4655 198.252C80.2597 198.216 80.0967 198.173 79.9826 198.138C79.9256 198.12 79.8807 198.104 79.8488 198.092C79.8328 198.086 79.8201 198.081 79.8107 198.077L79.7991 198.072L79.7952 198.071L79.7937 198.07C79.7934 198.07 79.7925 198.07 79.9344 197.742C80.0763 197.414 80.0761 197.414 80.0758 197.414L80.0779 197.415C80.0817 197.417 80.0886 197.419 80.0985 197.423C80.1184 197.43 80.1505 197.442 80.194 197.455C80.281 197.483 80.4136 197.518 80.5857 197.548C80.9298 197.607 81.4315 197.642 82.045 197.537C83.2632 197.33 84.9692 196.565 86.778 194.244L86.9421 194.033L87.1899 194.132L87.1915 194.132L87.1984 194.135L87.2277 194.146C87.2539 194.156 87.2931 194.171 87.3434 194.189C87.444 194.224 87.5885 194.273 87.7615 194.325C88.1103 194.429 88.5639 194.542 89.0053 194.585C89.4593 194.63 89.8398 194.594 90.0851 194.462C90.1991 194.401 90.2815 194.32 90.336 194.212C90.392 194.101 90.4306 193.938 90.415 193.694C90.3587 192.818 89.1843 190.527 82.5672 189.868C75.9862 189.212 64.1935 190.205 43.3424 195.716L43.1608 195.025C64.0365 189.508 75.9283 188.488 82.6377 189.157Z" fill="white"/>
<path d="M59.3738 151.96C62.8362 149.153 52.6485 146.646 56.916 138.39C61.1834 130.133 56.0041 124.391 56.0041 124.391L42.0191 121.641L40.9149 134.219L33.356 140.697C33.356 140.697 43.0735 153.31 50.5469 160.402C59.4878 168.88 66.0137 155.795 59.0176 152.06L59.3738 151.96Z" fill="#1F3563"/>
<path d="M47.1557 134.497L48.3241 134.283C48.3241 134.283 46.8992 132.712 47.8254 125.327C48.7515 117.942 38.1007 115.927 32.3016 122.355C23.7525 131.84 29.5801 154.388 29.5801 154.388H45.4886C45.4886 154.388 42.6817 144.925 42.6817 141.711C42.6817 141.711 38.6493 142.332 36.5619 140.047C47.8111 142.904 47.1414 134.526 47.1414 134.526" fill="#4071B7"/>
<path fill-rule="evenodd" clip-rule="evenodd" d="M43.8001 131.215C43.4644 131.215 43.1423 131.348 42.9046 131.586L42.4016 131.08C42.7728 130.709 43.2758 130.501 43.8001 130.501C44.3244 130.501 44.8274 130.709 45.1986 131.08L44.6956 131.586C44.4578 131.348 44.1358 131.215 43.8001 131.215Z" fill="#D2D2D2"/>
<path d="M45.4957 135.569C45.1903 135.871 44.7781 136.041 44.3487 136.041C43.9192 136.041 43.5071 135.871 43.2017 135.569H45.4957Z" fill="#0B4B9B"/>
<path d="M34.966 132.062C34.966 132.062 46.4361 128.112 47.8467 123.834C47.8467 123.834 47.9678 130.448 55.2702 130.576C62.5725 130.705 51.7793 115.213 40.8506 114.756C29.922 114.299 18.1314 125.127 27.685 136.99L31.7672 133.812C31.7672 133.812 30.6059 132.476 31.411 131.333C32.216 130.191 33.4841 130.026 34.9731 132.047" fill="#1F3563"/>
<path d="M30.7343 149.196C15.7734 151.596 22.691 198.792 22.691 198.792H63.9405C61.2761 162.431 45.6739 146.789 30.7343 149.196Z" fill="#F0F0F6"/>
<path d="M100.424 184.279C111.523 186.114 113.198 190.407 113.034 192.278C112.749 195.571 108.396 192.757 108.396 192.757C102.967 198.799 99.1343 196.121 99.1343 196.121L100.424 184.279Z" fill="#4071B7"/>
<path d="M141.032 159.167L122.83 193.928H93.7555L89.7516 200.635H165.632L185.039 159.167H141.032Z" fill="#6693CD"/>
<path d="M25.5905 146.146L26.2316 154.974L44.6336 156.71L45.859 148.689L25.5905 146.146Z" fill="#DBDBDC"/>
<path d="M30.7841 149.782C22.6838 150.053 16.1508 159.588 16.6139 173.537L46.2865 174.544C45.8163 160.595 38.8772 149.546 30.7841 149.782Z" fill="#F0F0F6"/>
<path d="M30.1642 200.206L57.1937 191.792C57.1937 191.792 47.7541 196.528 44.6122 179.179C42.7457 168.902 28.7679 175.444 28.7679 175.444L30.1642 200.206Z" fill="#DBDBDC"/>
<path d="M16.6281 173.151C20.4467 201.513 28.3547 211.534 36.3481 214.091C52.4988 219.262 80.6468 197.721 80.6468 197.721C80.6468 197.721 84.0735 199.206 87.771 194.442C87.771 194.442 91.6466 195.978 91.497 193.649C91.3474 191.321 85.6836 184.322 43.7644 195.342C43.318 187.948 42.8715 180.553 42.4251 173.158L16.6281 173.151Z" fill="#F0F0F6"/>
<path fill-rule="evenodd" clip-rule="evenodd" d="M89.3988 191.187C90.6512 192.032 91.1034 192.984 91.1474 193.692C91.1682 194.026 91.1189 194.319 90.9934 194.567C90.8665 194.818 90.6739 194.997 90.4496 195.118C90.0182 195.351 89.4689 195.369 88.9837 195.322C88.486 195.274 87.9914 195.15 87.6267 195.041C87.4823 194.998 87.3564 194.957 87.2566 194.923C85.4421 197.171 83.679 197.989 82.3235 198.219C81.6302 198.336 81.055 198.298 80.649 198.228C80.4461 198.193 80.2852 198.15 80.1727 198.115C80.1164 198.098 80.0721 198.082 80.0406 198.07C80.0248 198.064 80.0122 198.059 80.0029 198.056L79.9914 198.051L79.9876 198.049L79.9861 198.049C79.9858 198.048 79.9849 198.048 80.1268 197.721C80.2688 197.393 80.2685 197.393 80.2683 197.393L80.2703 197.394C80.2739 197.395 80.2807 197.398 80.2904 197.401C80.3099 197.409 80.3415 197.42 80.3842 197.433C80.4698 197.46 80.6002 197.495 80.7695 197.524C81.108 197.582 81.6015 197.617 82.2048 197.515C83.4024 197.312 85.0798 196.562 86.8563 194.28L87.0203 194.069L87.2681 194.167L87.2696 194.168L87.2764 194.171L87.3052 194.182C87.3309 194.191 87.3694 194.205 87.4188 194.223C87.5177 194.258 87.6596 194.306 87.8297 194.357C88.1726 194.459 88.6184 194.569 89.0522 194.611C89.4984 194.654 89.8717 194.619 90.1122 194.489C90.2239 194.429 90.3046 194.35 90.3581 194.244C90.413 194.136 90.4512 193.975 90.4364 193.736C90.4091 193.297 90.1133 192.53 89.001 191.779C87.8852 191.026 85.9588 190.301 82.7232 189.979C76.2499 189.335 64.6495 190.313 44.1403 195.73L43.9588 195.04C64.4926 189.615 76.192 188.611 82.7936 189.269C86.0953 189.597 88.1501 190.344 89.3988 191.187Z" fill="white"/>
<path d="M80.5115 189.071C89.823 189.25 91.6966 192.171 91.7821 193.528C91.9317 195.935 88.0348 194.349 88.0348 194.349C84.2874 199.263 80.8393 197.728 80.8393 197.728L80.5115 189.071Z" fill="#4071B7"/>
<path fill-rule="evenodd" clip-rule="evenodd" d="M76.0375 200.485H412.908V201.556H76.0375V200.485Z" fill="#B7BBCE"/>
</svg>
