<svg xmlns="http://www.w3.org/2000/svg" width="24" height="24" fill="none" viewBox="0 0 24 24">
    <g clip-path="url(#clip0)">
        <path fill="#fff" d="M19.715 20.571H6.857V3.43h9l3.858 3.857V20.57z"/>
        <path fill="#949494" d="M15.857 3H6.428v18h13.715V7.286L15.857 3zm0 .643L19.5 7.286h-3.643V3.643zm3.857 16.928H6.857V3.43h8.572v4.285h4.285v12.857z"/>
        <path fill="#C8C8C8" d="M18.428 9h-6.857v.428h6.857V9zM18.428 10.286h-6.857v.428h6.857v-.428zM18.428 11.571h-6.857V12h6.857v-.429zM18.428 12.857h-6.857v.429h6.857v-.429zM18.428 14.143h-6.857v.428h6.857v-.428zM18.428 15.429h-6.857v.428h6.857v-.428zM18.428 16.714h-6.857v.429h6.857v-.429zM18.428 18h-6.857v.428h6.857V18zM11.571 4.714H8.143v.429h3.428v-.429z"/>
        <path fill="#2B579A" d="M3 9l8.571-1.286v11.143L3 17.571V9z"/>
        <path fill="#fff" d="M10.286 11.143l-1.124 4.286H8.099l-.706-2.75c-.038-.143-.06-.304-.068-.481h-.012c-.018.195-.044.355-.077.481l-.724 2.75H5.405l-1.119-4.286h1.048l.599 2.854c.026.122.045.285.056.49h.018c.008-.153.037-.32.086-.502l.772-2.842H7.89l.698 2.878c.025.106.048.259.068.46h.012c.008-.157.028-.317.062-.478l.588-2.86h.967z"/>
        <path fill="url(#paint0_linear)" d="M11.571 7.714L3 9v8.571l8.571 1.286V7.714z"/>
        <path fill="url(#paint1_linear)" d="M11.571 20.143H6.428v-2.057l5.143.771v1.286z"/>
        <path fill="url(#paint2_linear)" d="M20.143 7.286L15.857 3H6.428v18h13.715V7.286z"/>
        <path fill="url(#paint3_linear)" d="M19.714 7.714H15.43V9h4.285V7.714z"/>
        <path fill="url(#paint4_linear)" d="M6.428 3v.429h9v4.285h4.286v6h.429V7.286L15.857 3H6.428z"/>
    </g>
    <defs>
        <linearGradient id="paint0_linear" x1="7.286" x2="7.286" y1="18.509" y2="8.039" gradientUnits="userSpaceOnUse">
            <stop stop-color="#fff" stop-opacity="0"/>
            <stop offset=".859" stop-color="#fff" stop-opacity=".155"/>
            <stop offset="1" stop-color="#fff" stop-opacity=".18"/>
        </linearGradient>
        <linearGradient id="paint1_linear" x1="8.894" x2="9.076" y1="20.108" y2="18.398" gradientUnits="userSpaceOnUse">
            <stop stop-color="#828282" stop-opacity="0"/>
            <stop offset=".17" stop-color="#7E7E7E" stop-opacity=".034"/>
            <stop offset=".346" stop-color="#717171" stop-opacity=".069"/>
            <stop offset=".525" stop-color="#5D5D5D" stop-opacity=".105"/>
            <stop offset=".706" stop-color="#404040" stop-opacity=".141"/>
            <stop offset=".886" stop-color="#1B1B1B" stop-opacity=".178"/>
            <stop offset=".997" stop-opacity=".2"/>
        </linearGradient>
        <linearGradient id="paint2_linear" x1="4.966" x2="19.495" y1="4.227" y2="21.543" gradientUnits="userSpaceOnUse">
            <stop stop-color="#fff" stop-opacity="0"/>
            <stop offset=".226" stop-color="#FCFCFC" stop-opacity=".023"/>
            <stop offset=".363" stop-color="#F4F4F4" stop-opacity=".036"/>
            <stop offset=".475" stop-color="#E6E6E6" stop-opacity=".048"/>
            <stop offset=".574" stop-color="#D1D1D1" stop-opacity=".057"/>
            <stop offset=".665" stop-color="#B7B7B7" stop-opacity=".067"/>
            <stop offset=".75" stop-color="#979797" stop-opacity=".075"/>
            <stop offset=".83" stop-color="#707070" stop-opacity=".083"/>
            <stop offset=".906" stop-color="#444" stop-opacity=".091"/>
            <stop offset=".976" stop-color="#121212" stop-opacity=".098"/>
            <stop offset="1" stop-opacity=".1"/>
        </linearGradient>
        <linearGradient id="paint3_linear" x1="17.571" x2="17.571" y1="8.96" y2="7.752" gradientUnits="userSpaceOnUse">
            <stop stop-color="#828282" stop-opacity="0"/>
            <stop offset=".281" stop-color="#7F7F7F" stop-opacity=".028"/>
            <stop offset=".45" stop-color="#777" stop-opacity=".045"/>
            <stop offset=".59" stop-color="#696969" stop-opacity=".059"/>
            <stop offset=".713" stop-color="#545454" stop-opacity=".071"/>
            <stop offset=".826" stop-color="#3A3A3A" stop-opacity=".083"/>
            <stop offset=".929" stop-color="#1A1A1A" stop-opacity=".093"/>
            <stop offset="1" stop-opacity=".1"/>
        </linearGradient>
        <linearGradient id="paint4_linear" x1="14.687" x2="17.244" y1="6.956" y2="4.399" gradientUnits="userSpaceOnUse">
            <stop stop-color="#fff" stop-opacity="0"/>
            <stop offset=".854" stop-color="#fff" stop-opacity=".213"/>
            <stop offset="1" stop-color="#fff" stop-opacity=".25"/>
        </linearGradient>
        <clipPath id="clip0">
            <path fill="#fff" d="M0 0H24V24H0z"/>
        </clipPath>
    </defs>
</svg>
