<svg width="25" height="24" viewBox="0 0 25 24" fill="none" xmlns="http://www.w3.org/2000/svg">
<path d="M12 16.5H13V11H12V16.5ZM12.5034 21C11.2588 21 10.0887 20.7638 8.9931 20.2915C7.89748 19.8192 6.94444 19.1782 6.13397 18.3685C5.32352 17.5588 4.68192 16.6066 4.20915 15.512C3.73638 14.4174 3.5 13.2479 3.5 12.0033C3.5 10.7588 3.73616 9.58872 4.20848 8.4931C4.68081 7.39748 5.32183 6.44444 6.13153 5.63398C6.94123 4.82352 7.89337 4.18192 8.98795 3.70915C10.0826 3.23638 11.2521 3 12.4966 3C13.7412 3 14.9113 3.23616 16.0069 3.70848C17.1025 4.18081 18.0556 4.82183 18.866 5.63153C19.6765 6.44123 20.3181 7.39337 20.7908 8.48795C21.2636 9.58255 21.5 10.7521 21.5 11.9967C21.5 13.2412 21.2638 14.4113 20.7915 15.5069C20.3192 16.6025 19.6782 17.5556 18.8685 18.366C18.0588 19.1765 17.1066 19.8181 16.012 20.2908C14.9174 20.7636 13.7479 21 12.5034 21ZM12.5 20C14.7333 20 16.625 19.225 18.175 17.675C19.725 16.125 20.5 14.2333 20.5 12C20.5 9.76667 19.725 7.875 18.175 6.325C16.625 4.775 14.7333 4 12.5 4C10.2667 4 8.375 4.775 6.825 6.325C5.275 7.875 4.5 9.76667 4.5 12C4.5 14.2333 5.275 16.125 6.825 17.675C8.375 19.225 10.2667 20 12.5 20Z" fill="#E9A845"/>
<path d="M12.9385 9.05385C12.8205 9.1718 12.6744 9.23077 12.5 9.23077C12.3257 9.23077 12.1795 9.1718 12.0615 9.05385C11.9436 8.9359 11.8846 8.78974 11.8846 8.61537C11.8846 8.44102 11.9436 8.29487 12.0615 8.17692C12.1795 8.05897 12.3257 8 12.5 8C12.6744 8 12.8205 8.05897 12.9385 8.17692C13.0564 8.29487 13.1154 8.44102 13.1154 8.61537C13.1154 8.78974 13.0564 8.9359 12.9385 9.05385Z" fill="#E9A845"/>
</svg>
