<svg xmlns="http://www.w3.org/2000/svg" width="24" height="24" fill="none" viewBox="0 0 24 24">
    <g clip-path="url(#clip0)">
        <path fill="#0ECDC0" fill-rule="evenodd" d="M12.875 3v4.781c0 .492.352.844.844.844H18.5v11.531c0 .492-.387.844-.844.844H5.844C5.352 21 5 20.648 5 20.156V3.844C5 3.387 5.352 3 5.844 3h7.031zm5.379 3.691c.14.176.246.387.246.598V7.5H14V3h.21c.212 0 .423.105.599.246l3.445 3.445zm-8.97 5.602l2.613-1.508 2.612 1.508v1.338c0 .084.037.165.1.22l.197.172c.19.167.488.032.488-.22v-1.51c0-.28-.15-.54-.393-.68l-2.612-1.508c-.243-.14-.542-.14-.784 0l-2.613 1.508c-.242.14-.392.4-.392.68v3.016c0 .28.15.54.392.68l1.725.995c.204.118.467.03.558-.189.076-.182.005-.392-.166-.49l-1.725-.996v-3.016zm.393.135l.392-.196v3.138l-.392-.196v-2.746zm4.502.584l.026-.438-2.378-1.373-.366.242 2.718 1.569zm-.58 3.339v-1.962c0-.108-.088-.196-.196-.196-.108 0-.196.088-.196.196v3.138c0 .109-.088.196-.196.196-.108 0-.196-.087-.196-.196v-.246l-.166-.1c-.286-.184-.635-.038-.79.2-.043.067-.006.15.065.186.472.236.832.51.995.746.154.222.262.392.288.777.007.108-.082.197-.19.196-.108 0-.194-.088-.202-.196-.023-.329-.115-.568-.37-.777-.233-.192-.439-.356-.894-.587-.113-.058-.117-.244-.09-.334.133-.448.79-.873 1.354-.568v-2.435c0-.324.263-.588.588-.588.325 0 .588.264.588.588v1.373h.157c.264 0 .49.162.582.392h.203c.263 0 .489.163.582.393h.045c.434 0 .785.35.785.784v.98c0 .11-.088.197-.196.197-.108 0-.196-.088-.196-.196v-.98c0-.217-.176-.393-.393-.393v.196c0 .108-.087.196-.196.196-.108 0-.196-.088-.196-.196v-.353c0-.13-.105-.235-.235-.235h-.157v.196c0 .108-.088.196-.196.196-.108 0-.196-.088-.196-.196v-.353c0-.13-.106-.236-.236-.236h-.156v.197c0 .108-.088.196-.197.196-.108 0-.196-.088-.196-.196z" clip-rule="evenodd"/>
    </g>
    <defs>
        <clipPath id="clip0">
            <path fill="#fff" d="M0 0H24V24H0z"/>
        </clipPath>
    </defs>
</svg>
