<svg xmlns="http://www.w3.org/2000/svg" width="18" height="18" fill="none" viewBox="0 0 18 18">
    <g clip-path="url(#clip0)">
        <path fill="#404048" fill-rule="evenodd" d="M7.995 1.732L3 4.616v5.768l3.297 1.903c.327.189.462.59.317.938-.174.418-.675.588-1.067.362L2.25 11.683c-.464-.268-.75-.763-.75-1.299V4.616c0-.536.286-1.031.75-1.299L7.245.433c.464-.268 1.036-.268 1.5 0l4.995 2.884c.464.268.75.763.75 1.299v2.886c0 .483-.569.742-.933.423l-.375-.328c-.122-.107-.192-.261-.192-.423V4.616L7.995 1.732zM4.5 4.5l-.75.375v5.25l.75.375v-6zm7.909.654l-.05.837-5.197-3 .7-.462 4.547 2.625zM10.875 8.25c.207 0 .375.168.375.375v3.75c0 .207.168.375.375.375s.375-.168.375-.375V12h.3c.248 0 .45.201.45.45v.675c0 .207.168.375.375.375s.375-.168.375-.375v-.375h.3c.248 0 .45.201.45.45v.675c0 .207.168.375.375.375s.375-.168.375-.375V13.5c.414 0 .75.336.75.75v1.875c0 .207.168.375.375.375s.375-.168.375-.375V14.25c0-.828-.672-1.5-1.5-1.5h-.087c-.178-.44-.61-.75-1.113-.75h-.387c-.178-.44-.61-.75-1.113-.75H12V8.625c0-.621-.504-1.125-1.125-1.125S9.75 8.004 9.75 8.625v4.655c-1.079-.582-2.334.23-2.59 1.086-.05.173-.043.528.173.638.871.442 1.265.756 1.71 1.123.487.4.663.857.707 1.487.015.206.18.375.387.375.207 0 .377-.169.363-.375-.05-.736-.256-1.063-.55-1.488-.313-.451-1-.974-1.904-1.426-.135-.068-.207-.227-.124-.353.297-.458.964-.736 1.512-.384l.316.19v.472c0 .207.168.375.375.375s.375-.168.375-.375v-6c0-.207.168-.375.375-.375z" clip-rule="evenodd"/>
    </g>
    <defs>
        <clipPath id="clip0">
            <path fill="#fff" d="M0 0H18V18H0z"/>
        </clipPath>
    </defs>
</svg>
