<?xml version="1.0" encoding="UTF-8"?><svg id="Layer_1" xmlns="http://www.w3.org/2000/svg" viewBox="0 0 24 24"><defs><style>.cls-1{fill:#f9f9f9;}.cls-2{fill:#eaecf0;}.cls-3{fill:#1d2939;}</style></defs><circle class="cls-1" cx="12" cy="12" r="11.5"/><path class="cls-2" d="m12,1c6.07,0,11,4.93,11,11s-4.93,11-11,11S1,18.07,1,12,5.93,1,12,1M12,0C5.37,0,0,5.37,0,12s5.37,12,12,12,12-5.37,12-12S18.63,0,12,0h0Z"/><path class="cls-3" d="m12.17,11.3c-.63,0-1.16-.22-1.6-.66-.44-.44-.66-.97-.66-1.6s.22-1.16.66-1.6c.44-.44.97-.66,1.6-.66s1.16.22,1.6.66c.44.44.66.97.66,1.6s-.22,1.16-.66,1.6c-.44.44-.97.66-1.6.66Zm-5.39,5.59v-1.08c0-.2.07-.4.2-.59.14-.2.33-.37.58-.53.72-.41,1.47-.72,2.25-.94.78-.22,1.56-.33,2.35-.33s1.57.11,2.35.33c.79.22,1.54.53,2.26.94.25.14.45.32.58.52.14.2.2.41.2.61v1.08H6.78Zm.7-.7h9.39v-.39c0-.11-.04-.21-.13-.31-.09-.1-.21-.19-.37-.27-.6-.36-1.26-.64-1.97-.83-.72-.19-1.45-.29-2.21-.29s-1.5.1-2.21.29c-.72.19-1.37.47-1.97.83-.16.1-.29.2-.37.29-.09.09-.13.19-.13.29v.39Zm4.7-5.59c.43,0,.8-.15,1.1-.46.3-.31.46-.68.46-1.11s-.15-.8-.46-1.1c-.31-.3-.68-.46-1.11-.46s-.8.15-1.1.46c-.3.31-.46.68-.46,1.11s.15.8.46,1.1c.31.3.68.46,1.11.46Z"/></svg>