<svg width="16" height="16" viewBox="0 0 16 16" xmlns="http://www.w3.org/2000/svg"><path d="M14.5 3c.417 0 .77.146 1.062.437.292.292.438.646.438 1.063v9c0 .417-.146.77-.438 1.062A1.447 1.447 0 0 1 14.5 15h-13c-.417 0-.77-.146-1.063-.438A1.447 1.447 0 0 1 0 13.5v-11c0-.417.146-.77.437-1.063A1.447 1.447 0 0 1 1.5 1h5l2 2h6zm-6.851 7.076c.625 0 1.074-.15 1.349-.447.274-.299.411-.715.411-1.25 0-.237-.035-.452-.106-.646a1.315 1.315 0 0 0-.323-.5 1.452 1.452 0 0 0-.547-.323 2.418 2.418 0 0 0-.784-.114h-1.25v3.28h1.25zm0-5.076c.729 0 1.355.086 1.878.26.523.172.953.41 1.292.713.338.302.588.66.749 1.072.16.411.24.856.24 1.334 0 .516-.082.99-.248 1.42-.165.43-.418.8-.76 1.107-.34.308-.772.548-1.295.72-.523.174-1.141.26-1.856.26h-1.25V15H4V5h3.649z" fill="#B3B3B3" fill-rule="evenodd"/></svg>