<svg width="16" height="13" viewBox="0 0 16 13" fill="none" xmlns="http://www.w3.org/2000/svg">
<path d="M13.25 1.9375C13.25 1.22656 12.6484 0.625 11.9375 0.625H4.0625C3.32422 0.625 2.75 1.22656 2.75 1.9375V10.25H13.25V1.9375ZM10.4609 4.31641L8.05469 7.37891C7.94531 7.51562 7.78125 7.625 7.61719 7.625C7.58984 7.625 7.5625 7.625 7.53516 7.625C7.37109 7.625 7.20703 7.57031 7.09766 7.46094L5.56641 6.14844C5.32031 5.92969 5.29297 5.51953 5.51172 5.24609C5.75781 4.97266 6.16797 4.94531 6.44141 5.16406L7.45312 6.03906L9.44922 3.52344C9.66797 3.22266 10.0781 3.16797 10.3516 3.41406C10.6523 3.63281 10.707 4.04297 10.4609 4.31641ZM14.5625 7.625H14.125V10.6875C14.125 10.9336 13.9062 11.125 13.6875 11.125H2.3125C2.06641 11.125 1.875 10.9336 1.875 10.6875V7.625H1.4375C0.699219 7.625 0.125 8.22656 0.125 8.9375V11.5625C0.125 12.3008 0.699219 12.875 1.4375 12.875H14.5625C15.2734 12.875 15.875 12.3008 15.875 11.5625V8.9375C15.875 8.22656 15.2734 7.625 14.5625 7.625Z" fill="#404048"/>
</svg>
