<svg width="16" height="16" viewBox="0 0 16 16" xmlns="http://www.w3.org/2000/svg"><path d="M6.646 14V7.215H4V5h7.938v2.215H9.292V14h4.144c.26 0 .434-.009.542-.022.013-.107.022-.282.022-.542V2.564c0-.26-.009-.435-.022-.542A4.762 4.762 0 0 0 13.436 2H2.564c-.26 0-.435.009-.542.022A4.762 4.762 0 0 0 2 2.564v10.872c0 .26.009.434.022.542.107.013.282.022.542.022h4.082zM2.564 0h10.872c.892 0 1.215.093 1.54.267.327.174.583.43.757.756.174.326.267.65.267 1.54v10.873c0 .892-.093 1.215-.267 1.54-.174.327-.43.583-.756.757-.326.174-.65.267-1.54.267H2.563c-.892 0-1.215-.093-1.54-.267a1.817 1.817 0 0 1-.757-.756C.093 14.65 0 14.327 0 13.437V2.563c0-.892.093-1.215.267-1.54.174-.327.43-.583.756-.757C1.35.093 1.673 0 2.563 0z" fill="#B3B3B3" fill-rule="evenodd"/></svg>