<svg width="14" height="14" viewBox="0 0 14 14" fill="none" xmlns="http://www.w3.org/2000/svg">
<rect width="14" height="14" fill="#F5F5F5"/>
<path d="M-24249 -5083C-24249 -5084.1 -24248.1 -5085 -24247 -5085H3146C3147.1 -5085 3148 -5084.1 3148 -5083V1829C3148 1830.1 3147.11 1831 3146 1831H-24247C-24248.1 1831 -24249 1830.1 -24249 1829V-5083Z" fill="white"/>
<path d="M-24247 -5084H3146V-5086H-24247V-5084ZM3147 -5083V1829H3149V-5083H3147ZM3146 1830H-24247V1832H3146V1830ZM-24248 1829V-5083H-24250V1829H-24248ZM-24247 1830C-24247.6 1830 -24248 1829.55 -24248 1829H-24250C-24250 1830.66 -24248.7 1832 -24247 1832V1830ZM3147 1829C3147 1829.55 3146.55 1830 3146 1830V1832C3147.66 1832 3149 1830.66 3149 1829H3147ZM3146 -5084C3146.55 -5084 3147 -5083.55 3147 -5083H3149C3149 -5084.66 3147.66 -5086 3146 -5086V-5084ZM-24247 -5086C-24248.7 -5086 -24250 -5084.66 -24250 -5083H-24248C-24248 -5083.55 -24247.6 -5084 -24247 -5084V-5086Z" fill="black" fill-opacity="0.1"/>
<g clip-path="url(#clip0_912_44530)">
<g clip-path="url(#clip1_912_44530)" filter="url(#filter0_d_912_44530)">
<rect width="1920" height="1080" transform="translate(-1558 -347)" fill="white"/>
<rect x="-1558" y="-347.5" width="1920" height="1080.5" fill="#F9F9F9"/>
<g clip-path="url(#clip2_912_44530)">
<g clip-path="url(#clip3_912_44530)">
<g clip-path="url(#clip4_912_44530)">
<g clip-path="url(#clip5_912_44530)">
<rect width="1696" height="912" transform="translate(-1350 -194)" fill="white"/>
<rect width="1712" height="881" transform="translate(-1350 -194)" fill="white"/>
<g clip-path="url(#clip6_912_44530)">
<rect width="230" height="850" transform="translate(-12 -122)" fill="white"/>
<rect width="230" height="50" transform="translate(-12 -22)" fill="#F9F9F9"/>
<path d="M16.375 8.1392C15.6259 8.1392 14.9879 7.93537 14.4609 7.5277C13.9339 7.11671 13.5313 6.52178 13.2528 5.7429C12.9744 4.9607 12.8352 4.0161 12.8352 2.90909C12.8352 1.80871 12.9744 0.869081 13.2528 0.0901986C13.5346 -0.691998 13.9389 -1.28859 14.4659 -1.69957C14.9962 -2.11387 15.6326 -2.32102 16.375 -2.32102C17.1174 -2.32102 17.7521 -2.11387 18.2791 -1.69957C18.8094 -1.28859 19.2138 -0.691998 19.4922 0.0901986C19.7739 0.869081 19.9148 1.80871 19.9148 2.90909C19.9148 4.0161 19.7756 4.9607 19.4972 5.7429C19.2188 6.52178 18.8161 7.11671 18.2891 7.5277C17.7621 7.93537 17.1241 8.1392 16.375 8.1392ZM16.375 7.04545C17.1174 7.04545 17.6941 6.6875 18.1051 5.97159C18.5161 5.25568 18.7216 4.23485 18.7216 2.90909C18.7216 2.02746 18.6271 1.27675 18.4382 0.65696C18.2526 0.0371681 17.9841 -0.435133 17.6328 -0.759943C17.2848 -1.08475 16.8655 -1.24716 16.375 -1.24716C15.6392 -1.24716 15.0642 -0.884233 14.6499 -0.158381C14.2356 0.564157 14.0284 1.58665 14.0284 2.90909C14.0284 3.79072 14.1212 4.53977 14.3068 5.15625C14.4924 5.77273 14.7592 6.24171 15.1072 6.56321C15.4586 6.88471 15.8812 7.04545 16.375 7.04545ZM24.9858 8.1392C24.4025 8.1392 23.8771 8.0232 23.4098 7.79119C22.9425 7.55919 22.5679 7.241 22.2862 6.83665C22.0045 6.43229 21.8504 5.97159 21.8239 5.45455H23.017C23.0634 5.91525 23.2723 6.2964 23.6435 6.59801C24.018 6.89631 24.4654 7.04545 24.9858 7.04545C25.4034 7.04545 25.7746 6.94768 26.0994 6.75213C26.4276 6.55658 26.6844 6.28812 26.87 5.94673C27.0589 5.60204 27.1534 5.21259 27.1534 4.77841C27.1534 4.33428 27.0556 3.93821 26.8601 3.5902C26.6679 3.23887 26.4027 2.96212 26.0646 2.75994C25.7266 2.55776 25.3404 2.45502 24.9062 2.4517C24.5947 2.44839 24.2749 2.49645 23.9467 2.59588C23.6186 2.692 23.3485 2.81629 23.1364 2.96875L21.983 2.82955L22.5994 -2.18182H27.8892V-1.08807H23.6335L23.2756 1.91477H23.3352C23.544 1.74905 23.8059 1.61151 24.1207 1.50213C24.4356 1.39276 24.7637 1.33807 25.1051 1.33807C25.7282 1.33807 26.2834 1.48722 26.7706 1.78551C27.2611 2.08049 27.6456 2.48485 27.924 2.99858C28.2057 3.51231 28.3466 4.09896 28.3466 4.75852C28.3466 5.40814 28.2008 5.98816 27.9091 6.49858C27.6207 7.00568 27.223 7.40672 26.7159 7.7017C26.2088 7.99337 25.6321 8.1392 24.9858 8.1392ZM33.9409 -2.65909L30.6596 9.53125H29.5858L32.867 -2.65909H33.9409ZM38.7521 8.1392C38.0959 8.1392 37.5109 8.02652 36.9972 7.80114C36.4867 7.57576 36.0807 7.26255 35.7791 6.86151C35.4808 6.45715 35.3184 5.98816 35.2919 5.45455H36.5447C36.5713 5.78267 36.6839 6.06605 36.8828 6.30469C37.0817 6.54001 37.3419 6.7223 37.6634 6.85156C37.9848 6.98082 38.3411 7.04545 38.7322 7.04545C39.1697 7.04545 39.5575 6.96922 39.8956 6.81676C40.2337 6.6643 40.4988 6.45218 40.6911 6.1804C40.8833 5.90862 40.9794 5.59375 40.9794 5.2358C40.9794 4.86127 40.8866 4.53149 40.701 4.24645C40.5154 3.9581 40.2436 3.73272 39.8857 3.57031C39.5277 3.40791 39.0902 3.3267 38.5732 3.3267H37.7578V2.23295H38.5732C38.9775 2.23295 39.3321 2.16004 39.6371 2.0142C39.9453 1.86837 40.1856 1.66288 40.358 1.39773C40.5336 1.13258 40.6214 0.821023 40.6214 0.463068C40.6214 0.118371 40.5452 -0.181582 40.3928 -0.43679C40.2403 -0.691999 40.0249 -0.890862 39.7464 -1.03338C39.4714 -1.1759 39.1465 -1.24716 38.772 -1.24716C38.4207 -1.24716 38.0893 -1.18253 37.7777 -1.05327C37.4695 -0.92732 37.2176 -0.743371 37.022 -0.50142C36.8265 -0.262784 36.7204 0.0255682 36.7038 0.363636H35.5107C35.5305 -0.169981 35.6913 -0.637311 35.9929 -1.03835C36.2945 -1.44271 36.6889 -1.75758 37.1761 -1.98295C37.6667 -2.20833 38.2053 -2.32102 38.7919 -2.32102C39.4216 -2.32102 39.9619 -2.19342 40.4126 -1.93821C40.8634 -1.68632 41.2098 -1.35322 41.4517 -0.93892C41.6937 -0.524621 41.8146 -0.0771781 41.8146 0.403409C41.8146 0.976799 41.6638 1.46567 41.3622 1.87003C41.0639 2.27438 40.6579 2.55445 40.1442 2.71023V2.78977C40.7872 2.89583 41.2893 3.16927 41.6506 3.61009C42.0118 4.04759 42.1925 4.58949 42.1925 5.2358C42.1925 5.7893 42.0417 6.28646 41.7401 6.72727C41.4418 7.16477 41.0341 7.50947 40.517 7.76136C40 8.01326 39.4117 8.1392 38.7521 8.1392ZM47.8054 -2.18182V8H46.5724V-0.889205H46.5128L44.027 0.761363V-0.491478L46.5724 -2.18182H47.8054ZM54.353 -2.65909L51.0717 9.53125H49.9979L53.2791 -2.65909H54.353ZM55.7239 8V7.10511L59.0847 3.42614C59.4791 2.99526 59.8039 2.62074 60.0591 2.30256C60.3143 1.98106 60.5033 1.67945 60.6259 1.39773C60.7518 1.11269 60.8148 0.814394 60.8148 0.502841C60.8148 0.144886 60.7286 -0.165009 60.5563 -0.426847C60.3873 -0.688684 60.1552 -0.890862 59.8603 -1.03338C59.5653 -1.1759 59.2338 -1.24716 58.8659 -1.24716C58.4748 -1.24716 58.1335 -1.16596 57.8418 -1.00355C57.5534 -0.844461 57.3297 -0.620739 57.1706 -0.332387C57.0149 -0.0440342 56.937 0.294034 56.937 0.681818H55.7637C55.7637 0.0852269 55.9012 -0.438447 56.1763 -0.889205C56.4514 -1.33996 56.8259 -1.69129 57.2999 -1.94318C57.7772 -2.19508 58.3124 -2.32102 58.9057 -2.32102C59.5023 -2.32102 60.031 -2.19508 60.4917 -1.94318C60.9524 -1.69129 61.3136 -1.35156 61.5755 -0.924006C61.8373 -0.496449 61.9682 -0.0208333 61.9682 0.502841C61.9682 0.877367 61.9003 1.24361 61.7644 1.60156C61.6318 1.9562 61.3998 2.35227 61.0684 2.78977C60.7402 3.22396 60.2845 3.75426 59.7012 4.38068L57.4142 6.8267V6.90625H62.1472V8H55.7239ZM67.5215 8.1392C66.7724 8.1392 66.1344 7.93537 65.6074 7.5277C65.0804 7.11671 64.6777 6.52178 64.3993 5.7429C64.1209 4.9607 63.9817 4.0161 63.9817 2.90909C63.9817 1.80871 64.1209 0.869081 64.3993 0.0901986C64.681 -0.691998 65.0854 -1.28859 65.6124 -1.69957C66.1427 -2.11387 66.7791 -2.32102 67.5215 -2.32102C68.2639 -2.32102 68.8986 -2.11387 69.4256 -1.69957C69.9559 -1.28859 70.3603 -0.691998 70.6387 0.0901986C70.9204 0.869081 71.0613 1.80871 71.0613 2.90909C71.0613 4.0161 70.9221 4.9607 70.6436 5.7429C70.3652 6.52178 69.9625 7.11671 69.4355 7.5277C68.9086 7.93537 68.2705 8.1392 67.5215 8.1392ZM67.5215 7.04545C68.2639 7.04545 68.8406 6.6875 69.2516 5.97159C69.6626 5.25568 69.8681 4.23485 69.8681 2.90909C69.8681 2.02746 69.7736 1.27675 69.5847 0.65696C69.3991 0.0371681 69.1306 -0.435133 68.7793 -0.759943C68.4313 -1.08475 68.012 -1.24716 67.5215 -1.24716C66.7857 -1.24716 66.2106 -0.884233 65.7963 -0.158381C65.382 0.564157 65.1749 1.58665 65.1749 2.90909C65.1749 3.79072 65.2677 4.53977 65.4533 5.15625C65.6389 5.77273 65.9057 6.24171 66.2537 6.56321C66.6051 6.88471 67.0276 7.04545 67.5215 7.04545ZM72.9505 8V7.10511L76.3113 3.42614C76.7057 2.99526 77.0305 2.62074 77.2857 2.30256C77.5409 1.98106 77.7298 1.67945 77.8525 1.39773C77.9784 1.11269 78.0414 0.814394 78.0414 0.502841C78.0414 0.144886 77.9552 -0.165009 77.7828 -0.426847C77.6138 -0.688684 77.3818 -0.890862 77.0868 -1.03338C76.7918 -1.1759 76.4604 -1.24716 76.0925 -1.24716C75.7014 -1.24716 75.36 -1.16596 75.0684 -1.00355C74.78 -0.844461 74.5563 -0.620739 74.3972 -0.332387C74.2414 -0.0440342 74.1635 0.294034 74.1635 0.681818H72.9902C72.9902 0.0852269 73.1278 -0.438447 73.4029 -0.889205C73.678 -1.33996 74.0525 -1.69129 74.5265 -1.94318C75.0037 -2.19508 75.539 -2.32102 76.1323 -2.32102C76.7289 -2.32102 77.2575 -2.19508 77.7182 -1.94318C78.1789 -1.69129 78.5402 -1.35156 78.802 -0.924006C79.0639 -0.496449 79.1948 -0.0208333 79.1948 0.502841C79.1948 0.877367 79.1268 1.24361 78.9909 1.60156C78.8584 1.9562 78.6264 2.35227 78.2949 2.78977C77.9668 3.22396 77.5111 3.75426 76.9277 4.38068L74.6408 6.8267V6.90625H79.3738V8H72.9505ZM84.8674 8.1392C84.2111 8.1392 83.6261 8.02652 83.1124 7.80114C82.602 7.57576 82.196 7.26255 81.8944 6.86151C81.5961 6.45715 81.4337 5.98816 81.4071 5.45455H82.66C82.6865 5.78267 82.7992 6.06605 82.998 6.30469C83.1969 6.54001 83.4571 6.7223 83.7786 6.85156C84.1001 6.98082 84.4564 7.04545 84.8475 7.04545C85.285 7.04545 85.6728 6.96922 86.0108 6.81676C86.3489 6.6643 86.6141 6.45218 86.8063 6.1804C86.9985 5.90862 87.0946 5.59375 87.0946 5.2358C87.0946 4.86127 87.0018 4.53149 86.8162 4.24645C86.6306 3.9581 86.3588 3.73272 86.0009 3.57031C85.6429 3.40791 85.2054 3.3267 84.6884 3.3267H83.873V2.23295H84.6884C85.0927 2.23295 85.4474 2.16004 85.7523 2.0142C86.0605 1.86837 86.3008 1.66288 86.4732 1.39773C86.6489 1.13258 86.7367 0.821023 86.7367 0.463068C86.7367 0.118371 86.6605 -0.181582 86.508 -0.43679C86.3555 -0.691999 86.1401 -0.890862 85.8617 -1.03338C85.5866 -1.1759 85.2618 -1.24716 84.8873 -1.24716C84.5359 -1.24716 84.2045 -1.18253 83.8929 -1.05327C83.5847 -0.92732 83.3328 -0.743371 83.1373 -0.50142C82.9417 -0.262784 82.8356 0.0255682 82.8191 0.363636H81.6259C81.6458 -0.169981 81.8065 -0.637311 82.1081 -1.03835C82.4097 -1.44271 82.8042 -1.75758 83.2914 -1.98295C83.7819 -2.20833 84.3205 -2.32102 84.9071 -2.32102C85.5369 -2.32102 86.0771 -2.19342 86.5279 -1.93821C86.9786 -1.68632 87.325 -1.35322 87.5669 -0.93892C87.8089 -0.524621 87.9299 -0.0771781 87.9299 0.403409C87.9299 0.976799 87.7791 1.46567 87.4775 1.87003C87.1792 2.27438 86.7731 2.55445 86.2594 2.71023V2.78977C86.9024 2.89583 87.4045 3.16927 87.7658 3.61009C88.1271 4.04759 88.3077 4.58949 88.3077 5.2358C88.3077 5.7893 88.1569 6.28646 87.8553 6.72727C87.557 7.16477 87.1493 7.50947 86.6323 7.76136C86.1152 8.01326 85.5269 8.1392 84.8674 8.1392ZM97.5996 8.1392C96.8506 8.1392 96.2125 7.93537 95.6855 7.5277C95.1586 7.11671 94.7559 6.52178 94.4775 5.7429C94.199 4.9607 94.0598 4.0161 94.0598 2.90909C94.0598 1.80871 94.199 0.869081 94.4775 0.0901986C94.7592 -0.691998 95.1635 -1.28859 95.6905 -1.69957C96.2208 -2.11387 96.8572 -2.32102 97.5996 -2.32102C98.342 -2.32102 98.9767 -2.11387 99.5037 -1.69957C100.034 -1.28859 100.438 -0.691998 100.717 0.0901986C100.999 0.869081 101.139 1.80871 101.139 2.90909C101.139 4.0161 101 4.9607 100.722 5.7429C100.443 6.52178 100.041 7.11671 99.5137 7.5277C98.9867 7.93537 98.3487 8.1392 97.5996 8.1392ZM97.5996 7.04545C98.342 7.04545 98.9187 6.6875 99.3297 5.97159C99.7407 5.25568 99.9462 4.23485 99.9462 2.90909C99.9462 2.02746 99.8517 1.27675 99.6628 0.65696C99.4772 0.0371681 99.2087 -0.435133 98.8574 -0.759943C98.5094 -1.08475 98.0901 -1.24716 97.5996 -1.24716C96.8638 -1.24716 96.2888 -0.884233 95.8745 -0.158381C95.4602 0.564157 95.253 1.58665 95.253 2.90909C95.253 3.79072 95.3458 4.53977 95.5314 5.15625C95.717 5.77273 95.9838 6.24171 96.3319 6.56321C96.6832 6.88471 97.1058 7.04545 97.5996 7.04545ZM106.27 -2.32102C106.688 -2.31771 107.105 -2.23816 107.523 -2.08239C107.941 -1.92661 108.322 -1.66809 108.666 -1.30682C109.011 -0.948864 109.288 -0.459991 109.497 0.159801C109.705 0.779592 109.81 1.55682 109.81 2.49148C109.81 3.39631 109.724 4.20005 109.551 4.9027C109.382 5.60204 109.137 6.192 108.816 6.67259C108.497 7.15317 108.11 7.51776 107.652 7.76634C107.198 8.01491 106.684 8.1392 106.111 8.1392C105.541 8.1392 105.032 8.02652 104.585 7.80114C104.141 7.57244 103.776 7.25592 103.491 6.85156C103.209 6.44389 103.029 5.97159 102.949 5.43466H104.162C104.271 5.90199 104.489 6.28812 104.813 6.59304C105.142 6.89465 105.574 7.04545 106.111 7.04545C106.896 7.04545 107.516 6.70241 107.97 6.01634C108.428 5.33026 108.656 4.3608 108.656 3.10795H108.577C108.391 3.38636 108.171 3.62666 107.916 3.82884C107.66 4.03101 107.377 4.18679 107.066 4.29616C106.754 4.40554 106.423 4.46023 106.071 4.46023C105.488 4.46023 104.953 4.31605 104.465 4.0277C103.981 3.73603 103.594 3.33665 103.302 2.82955C103.014 2.31913 102.869 1.7358 102.869 1.07955C102.869 0.456439 103.009 -0.113637 103.287 -0.630682C103.569 -1.15104 103.963 -1.56534 104.47 -1.87358C104.981 -2.18182 105.581 -2.33097 106.27 -2.32102ZM106.27 -1.22727C105.852 -1.22727 105.476 -1.12287 105.142 -0.914062C104.81 -0.70857 104.547 -0.430162 104.351 -0.0788356C104.159 0.269176 104.063 0.655303 104.063 1.07955C104.063 1.50379 104.155 1.88991 104.341 2.23793C104.53 2.58262 104.787 2.85772 105.112 3.06321C105.44 3.26539 105.813 3.36648 106.23 3.36648C106.545 3.36648 106.838 3.30516 107.11 3.18253C107.382 3.05658 107.619 2.88589 107.821 2.67045C108.027 2.4517 108.187 2.20478 108.303 1.92969C108.419 1.65128 108.477 1.36127 108.477 1.05966C108.477 0.661931 108.381 0.289062 108.189 -0.0589495C108 -0.40696 107.738 -0.688684 107.404 -0.90412C107.072 -1.11956 106.694 -1.22727 106.27 -1.22727ZM112.64 6.69744C112.395 6.69744 112.184 6.60961 112.009 6.43395C111.833 6.25829 111.745 6.04782 111.745 5.80256C111.745 5.55729 111.833 5.34683 112.009 5.17116C112.184 4.9955 112.395 4.90767 112.64 4.90767C112.885 4.90767 113.096 4.9955 113.271 5.17116C113.447 5.34683 113.535 5.55729 113.535 5.80256C113.535 5.96496 113.493 6.11411 113.411 6.25C113.331 6.38589 113.223 6.49527 113.087 6.57812C112.955 6.65767 112.806 6.69744 112.64 6.69744ZM112.64 1.54688C112.395 1.54688 112.184 1.45904 112.009 1.28338C111.833 1.10772 111.745 0.897253 111.745 0.651988C111.745 0.406723 111.833 0.196259 112.009 0.0205967C112.184 -0.155066 112.395 -0.242898 112.64 -0.242898C112.885 -0.242898 113.096 -0.155066 113.271 0.0205967C113.447 0.196259 113.535 0.406723 113.535 0.651988C113.535 0.814394 113.493 0.963542 113.411 1.09943C113.331 1.23532 113.223 1.3447 113.087 1.42756C112.955 1.5071 112.806 1.54688 112.64 1.54688ZM118.941 8.1392C118.192 8.1392 117.554 7.93537 117.027 7.5277C116.5 7.11671 116.098 6.52178 115.819 5.7429C115.541 4.9607 115.402 4.0161 115.402 2.90909C115.402 1.80871 115.541 0.869081 115.819 0.0901986C116.101 -0.691998 116.505 -1.28859 117.032 -1.69957C117.563 -2.11387 118.199 -2.32102 118.941 -2.32102C119.684 -2.32102 120.319 -2.11387 120.846 -1.69957C121.376 -1.28859 121.78 -0.691998 122.059 0.0901986C122.34 0.869081 122.481 1.80871 122.481 2.90909C122.481 4.0161 122.342 4.9607 122.064 5.7429C121.785 6.52178 121.382 7.11671 120.855 7.5277C120.328 7.93537 119.69 8.1392 118.941 8.1392ZM118.941 7.04545C119.684 7.04545 120.261 6.6875 120.672 5.97159C121.083 5.25568 121.288 4.23485 121.288 2.90909C121.288 2.02746 121.194 1.27675 121.005 0.65696C120.819 0.0371681 120.551 -0.435133 120.199 -0.759943C119.851 -1.08475 119.432 -1.24716 118.941 -1.24716C118.206 -1.24716 117.631 -0.884233 117.216 -0.158381C116.802 0.564157 116.595 1.58665 116.595 2.90909C116.595 3.79072 116.688 4.53977 116.873 5.15625C117.059 5.77273 117.326 6.24171 117.674 6.56321C118.025 6.88471 118.448 7.04545 118.941 7.04545ZM127.612 -2.32102C128.029 -2.31771 128.447 -2.23816 128.865 -2.08239C129.282 -1.92661 129.663 -1.66809 130.008 -1.30682C130.353 -0.948864 130.63 -0.459991 130.838 0.159801C131.047 0.779592 131.152 1.55682 131.152 2.49148C131.152 3.39631 131.065 4.20005 130.893 4.9027C130.724 5.60204 130.479 6.192 130.157 6.67259C129.839 7.15317 129.451 7.51776 128.994 7.76634C128.54 8.01491 128.026 8.1392 127.453 8.1392C126.883 8.1392 126.374 8.02652 125.926 7.80114C125.482 7.57244 125.118 7.25592 124.833 6.85156C124.551 6.44389 124.37 5.97159 124.291 5.43466H125.504C125.613 5.90199 125.83 6.28812 126.155 6.59304C126.483 6.89465 126.916 7.04545 127.453 7.04545C128.238 7.04545 128.858 6.70241 129.312 6.01634C129.77 5.33026 129.998 4.3608 129.998 3.10795H129.919C129.733 3.38636 129.513 3.62666 129.257 3.82884C129.002 4.03101 128.719 4.18679 128.407 4.29616C128.096 4.40554 127.764 4.46023 127.413 4.46023C126.83 4.46023 126.294 4.31605 125.807 4.0277C125.323 3.73603 124.935 3.33665 124.644 2.82955C124.355 2.31913 124.211 1.7358 124.211 1.07955C124.211 0.456439 124.35 -0.113637 124.629 -0.630682C124.911 -1.15104 125.305 -1.56534 125.812 -1.87358C126.323 -2.18182 126.922 -2.33097 127.612 -2.32102ZM127.612 -1.22727C127.194 -1.22727 126.818 -1.12287 126.483 -0.914062C126.152 -0.70857 125.888 -0.430162 125.693 -0.0788356C125.501 0.269176 125.404 0.655303 125.404 1.07955C125.404 1.50379 125.497 1.88991 125.683 2.23793C125.872 2.58262 126.129 2.85772 126.453 3.06321C126.782 3.26539 127.154 3.36648 127.572 3.36648C127.887 3.36648 128.18 3.30516 128.452 3.18253C128.724 3.05658 128.961 2.88589 129.163 2.67045C129.368 2.4517 129.529 2.20478 129.645 1.92969C129.761 1.65128 129.819 1.36127 129.819 1.05966C129.819 0.661931 129.723 0.289062 129.531 -0.0589495C129.342 -0.40696 129.08 -0.688684 128.745 -0.90412C128.414 -1.11956 128.036 -1.22727 127.612 -1.22727Z" fill="#475467"/>
</g>
</g>
</g>
</g>
</g>
</g>
<g filter="url(#filter1_d_912_44530)">
<g clip-path="url(#clip7_912_44530)">
<g clip-path="url(#clip8_912_44530)">
<g filter="url(#filter2_d_912_44530)">
<g clip-path="url(#clip9_912_44530)">
<path d="M-186 -343C-186 -345.209 -184.209 -347 -182 -347H362V1048H-182C-184.209 1048 -186 1046.21 -186 1044V-343Z" fill="white"/>
<rect width="500" height="164" transform="translate(-162 -38)" fill="white"/>
<path d="M12.5275 9.72461C12.6275 10.4646 12.3975 11.2546 11.8275 11.8246C10.8575 12.7946 9.26753 12.7946 8.28753 11.8246L6.18753 9.72461H4.77753L7.57753 12.5246C8.24753 13.1946 9.12753 13.5346 10.0175 13.5446C10.9275 13.5546 11.8375 13.2146 12.5275 12.5246C13.2175 11.8346 13.5575 10.9146 13.5475 10.0146C13.5475 9.91461 13.5275 9.82461 13.5175 9.72461H12.5175H12.5275Z" fill="#1D2939"/>
<path d="M1.92757 4.72451C1.82757 3.98451 2.05757 3.19451 2.62757 2.62451C3.59757 1.65451 5.18757 1.65451 6.16757 2.62451L8.26757 4.72451H9.67757L6.87757 1.92451C6.20757 1.25451 5.32757 0.914511 4.43757 0.904511C3.52757 0.894511 2.61757 1.23451 1.92757 1.92451C1.22757 2.61451 0.897569 3.52451 0.907569 4.43451C0.907569 4.53451 0.927569 4.62451 0.937569 4.72451H1.93757H1.92757Z" fill="#1D2939"/>
<path d="M13.7275 6.72461H0.727539V7.72461H13.7275V6.72461Z" fill="#1D2939"/>
</g>
</g>
</g>
</g>
</g>
</g>
<rect x="-1557.5" y="-346.5" width="1919" height="1079" stroke="#D0D5DD"/>
<defs>
<filter id="filter0_d_912_44530" x="-1610" y="-367" width="2024" height="1184" filterUnits="userSpaceOnUse" color-interpolation-filters="sRGB">
<feFlood flood-opacity="0" result="BackgroundImageFix"/>
<feColorMatrix in="SourceAlpha" type="matrix" values="0 0 0 0 0 0 0 0 0 0 0 0 0 0 0 0 0 0 127 0" result="hardAlpha"/>
<feMorphology radius="12" operator="erode" in="SourceAlpha" result="effect1_dropShadow_912_44530"/>
<feOffset dy="32"/>
<feGaussianBlur stdDeviation="32"/>
<feColorMatrix type="matrix" values="0 0 0 0 0.0627451 0 0 0 0 0.0941176 0 0 0 0 0.156863 0 0 0 0.14 0"/>
<feBlend mode="normal" in2="BackgroundImageFix" result="effect1_dropShadow_912_44530"/>
<feBlend mode="normal" in="SourceGraphic" in2="effect1_dropShadow_912_44530" result="shape"/>
</filter>
<filter id="filter1_d_912_44530" x="-238" y="-399" width="652" height="1186" filterUnits="userSpaceOnUse" color-interpolation-filters="sRGB">
<feFlood flood-opacity="0" result="BackgroundImageFix"/>
<feColorMatrix in="SourceAlpha" type="matrix" values="0 0 0 0 0 0 0 0 0 0 0 0 0 0 0 0 0 0 127 0" result="hardAlpha"/>
<feMorphology radius="12" operator="erode" in="SourceAlpha" result="effect1_dropShadow_912_44530"/>
<feOffset/>
<feGaussianBlur stdDeviation="32"/>
<feComposite in2="hardAlpha" operator="out"/>
<feColorMatrix type="matrix" values="0 0 0 0 0.0627451 0 0 0 0 0.0941176 0 0 0 0 0.156863 0 0 0 0.16 0"/>
<feBlend mode="normal" in2="BackgroundImageFix" result="effect1_dropShadow_912_44530"/>
<feBlend mode="normal" in="SourceGraphic" in2="effect1_dropShadow_912_44530" result="shape"/>
</filter>
<filter id="filter2_d_912_44530" x="-238" y="-399" width="652" height="1499" filterUnits="userSpaceOnUse" color-interpolation-filters="sRGB">
<feFlood flood-opacity="0" result="BackgroundImageFix"/>
<feColorMatrix in="SourceAlpha" type="matrix" values="0 0 0 0 0 0 0 0 0 0 0 0 0 0 0 0 0 0 127 0" result="hardAlpha"/>
<feMorphology radius="12" operator="erode" in="SourceAlpha" result="effect1_dropShadow_912_44530"/>
<feOffset/>
<feGaussianBlur stdDeviation="32"/>
<feComposite in2="hardAlpha" operator="out"/>
<feColorMatrix type="matrix" values="0 0 0 0 0.0627451 0 0 0 0 0.0941176 0 0 0 0 0.156863 0 0 0 0.16 0"/>
<feBlend mode="normal" in2="BackgroundImageFix" result="effect1_dropShadow_912_44530"/>
<feBlend mode="normal" in="SourceGraphic" in2="effect1_dropShadow_912_44530" result="shape"/>
</filter>
<clipPath id="clip0_912_44530">
<rect x="-1558" y="-347" width="1920" height="1080" fill="white"/>
</clipPath>
<clipPath id="clip1_912_44530">
<rect width="1920" height="1080" fill="white" transform="translate(-1558 -347)"/>
</clipPath>
<clipPath id="clip2_912_44530">
<rect width="1696" height="986" fill="white" transform="translate(-1350 -268)"/>
</clipPath>
<clipPath id="clip3_912_44530">
<rect width="1696" height="956" fill="white" transform="translate(-1350 -238)"/>
</clipPath>
<clipPath id="clip4_912_44530">
<rect width="1696" height="956" fill="white" transform="translate(-1350 -238)"/>
</clipPath>
<clipPath id="clip5_912_44530">
<rect width="1696" height="912" fill="white" transform="translate(-1350 -194)"/>
</clipPath>
<clipPath id="clip6_912_44530">
<rect width="1664" height="809" fill="white" transform="translate(-1334 -122)"/>
</clipPath>
<clipPath id="clip7_912_44530">
<path d="M-186 -343C-186 -345.209 -184.209 -347 -182 -347H362V735H-182C-184.209 735 -186 733.209 -186 731V-343Z" fill="white"/>
</clipPath>
<clipPath id="clip8_912_44530">
<rect width="548" height="1080" fill="white" transform="translate(-186 -347)"/>
</clipPath>
<clipPath id="clip9_912_44530">
<path d="M-186 -343C-186 -345.209 -184.209 -347 -182 -347H362V1048H-182C-184.209 1048 -186 1046.21 -186 1044V-343Z" fill="white"/>
</clipPath>
</defs>
</svg>
