<svg xmlns="http://www.w3.org/2000/svg" width="24" height="24" fill="none" viewBox="0 0 24 24">
    <g clip-path="url(#clip0)">
        <path fill="#fff" d="M19.469 3H6.812v16.594H8.22V21h12.656V4.406L19.469 3z"/>
        <path fill="#217346" d="M19.469 3H6.812v2.531H19.47V3.844l1.406 1.406v-.844L19.469 3z"/>
        <path fill="#949494" d="M20.313 4.688v15.75H8.78v-.844H19.47V5.53h-.563v13.5H7.375v-13.5h-.563v14.063H8.22V21h12.656V5.25l-.563-.563z"/>
        <path fill="#217346" d="M4 8.906L12.719 7.5v11.25L4 17.344V8.906z"/>
        <path fill="#fff" d="M10.75 15.656H9.372l-.889-1.648c-.033-.062-.068-.174-.104-.34h-.014c-.017.078-.057.196-.119.354l-.892 1.634H5.969l1.644-2.531-1.504-2.531h1.414l.737 1.518c.058.12.11.262.155.427h.015c.028-.099.082-.246.161-.441l.82-1.504h1.296l-1.547 2.51 1.59 2.552z"/>
        <path fill="#C8C8C8" d="M18.063 10.031H15.53v1.125h2.531v-1.125zM18.063 8.344H15.53v1.125h2.531V8.344zM18.063 11.719H15.53v1.125h2.531v-1.125zM18.063 16.781H15.53v1.125h2.531v-1.125zM18.063 13.406H15.53v1.125h2.531v-1.125zM18.063 15.094H15.53v1.125h2.531v-1.125zM14.969 10.031h-2.25v1.125h2.25v-1.125zM14.969 8.344h-2.25v1.125h2.25V8.344zM14.969 11.719h-2.25v1.125h2.25v-1.125zM14.969 16.781h-2.25v1.125h2.25v-1.125zM14.969 13.406h-2.25v1.125h2.25v-1.125zM14.969 15.094h-2.25v1.125h2.25v-1.125z"/>
        <path fill="url(#paint0_linear)" d="M19.469 5.531H6.812v14.063H19.47V5.53z"/>
        <path fill="url(#paint1_linear)" d="M19.469 3H6.812v2.531H19.47V3.844l1.406 1.406v-.844L19.469 3z"/>
        <path fill="url(#paint2_linear)" d="M19.469 3.844v15.75H8.219V21h12.656V5.25l-1.406-1.406z"/>
        <path fill="url(#paint3_linear)" d="M19.469 19.594H8.219V21h11.25v-1.406z"/>
        <path fill="url(#paint4_linear)" d="M12.719 20.156h-4.5v-.562H6.813v-1.795l5.906.951v1.406z"/>
        <path fill="url(#paint5_linear)" d="M12.719 7.5L4 8.906v8.438l8.719 1.406V7.5z"/>
        <path fill="url(#paint6_linear)" d="M12.719 7.5L4 8.906v8.438l8.719 1.406V7.5z"/>
    </g>
    <defs>
        <linearGradient id="paint0_linear" x1="7.331" x2="18.95" y1="5.126" y2="19.999" gradientUnits="userSpaceOnUse">
            <stop stop-color="#fff" stop-opacity="0"/>
            <stop offset=".226" stop-color="#FCFCFC" stop-opacity=".023"/>
            <stop offset=".363" stop-color="#F4F4F4" stop-opacity=".036"/>
            <stop offset=".475" stop-color="#E6E6E6" stop-opacity=".048"/>
            <stop offset=".574" stop-color="#D1D1D1" stop-opacity=".057"/>
            <stop offset=".665" stop-color="#B7B7B7" stop-opacity=".067"/>
            <stop offset=".75" stop-color="#979797" stop-opacity=".075"/>
            <stop offset=".83" stop-color="#707070" stop-opacity=".083"/>
            <stop offset=".906" stop-color="#444" stop-opacity=".091"/>
            <stop offset=".976" stop-color="#121212" stop-opacity=".098"/>
            <stop offset="1" stop-opacity=".1"/>
        </linearGradient>
        <linearGradient id="paint1_linear" x1="13.769" x2="13.916" y1="5.55" y2="2.749" gradientUnits="userSpaceOnUse">
            <stop stop-color="#fff" stop-opacity="0"/>
            <stop offset=".854" stop-color="#fff" stop-opacity=".213"/>
            <stop offset="1" stop-color="#fff" stop-opacity=".25"/>
        </linearGradient>
        <linearGradient id="paint2_linear" x1="11.91" x2="20.766" y1="9.75" y2="21.085" gradientUnits="userSpaceOnUse">
            <stop stop-color="#fff" stop-opacity="0"/>
            <stop offset=".226" stop-color="#FCFCFC" stop-opacity=".023"/>
            <stop offset=".363" stop-color="#F4F4F4" stop-opacity=".036"/>
            <stop offset=".475" stop-color="#E6E6E6" stop-opacity=".048"/>
            <stop offset=".574" stop-color="#D1D1D1" stop-opacity=".057"/>
            <stop offset=".665" stop-color="#B7B7B7" stop-opacity=".067"/>
            <stop offset=".75" stop-color="#979797" stop-opacity=".075"/>
            <stop offset=".83" stop-color="#707070" stop-opacity=".083"/>
            <stop offset=".906" stop-color="#444" stop-opacity=".091"/>
            <stop offset=".976" stop-color="#121212" stop-opacity=".098"/>
            <stop offset="1" stop-opacity=".1"/>
        </linearGradient>
        <linearGradient id="paint3_linear" x1="13.844" x2="13.844" y1="20.956" y2="19.635" gradientUnits="userSpaceOnUse">
            <stop stop-color="#828282" stop-opacity="0"/>
            <stop offset=".281" stop-color="#7F7F7F" stop-opacity=".028"/>
            <stop offset=".45" stop-color="#777" stop-opacity=".045"/>
            <stop offset=".59" stop-color="#696969" stop-opacity=".059"/>
            <stop offset=".713" stop-color="#545454" stop-opacity=".071"/>
            <stop offset=".826" stop-color="#3A3A3A" stop-opacity=".083"/>
            <stop offset=".929" stop-color="#1A1A1A" stop-opacity=".093"/>
            <stop offset="1" stop-opacity=".1"/>
        </linearGradient>
        <linearGradient id="paint4_linear" x1="9.631" x2="9.85" y1="20.238" y2="18.188" gradientUnits="userSpaceOnUse">
            <stop stop-color="#828282" stop-opacity="0"/>
            <stop offset=".281" stop-color="#7F7F7F" stop-opacity=".056"/>
            <stop offset=".45" stop-color="#777" stop-opacity=".09"/>
            <stop offset=".59" stop-color="#696969" stop-opacity=".118"/>
            <stop offset=".713" stop-color="#545454" stop-opacity=".143"/>
            <stop offset=".826" stop-color="#3A3A3A" stop-opacity=".165"/>
            <stop offset=".929" stop-color="#1A1A1A" stop-opacity=".186"/>
            <stop offset="1" stop-opacity=".2"/>
        </linearGradient>
        <linearGradient id="paint5_linear" x1="8.359" x2="8.359" y1="18.398" y2="7.828" gradientUnits="userSpaceOnUse">
            <stop stop-color="#fff" stop-opacity="0"/>
            <stop offset=".859" stop-color="#fff" stop-opacity=".155"/>
            <stop offset="1" stop-color="#fff" stop-opacity=".18"/>
        </linearGradient>
        <linearGradient id="paint6_linear" x1="8.359" x2="8.359" y1="18.398" y2="7.828" gradientUnits="userSpaceOnUse">
            <stop stop-color="#fff" stop-opacity="0"/>
            <stop offset=".859" stop-color="#fff" stop-opacity=".155"/>
            <stop offset="1" stop-color="#fff" stop-opacity=".18"/>
        </linearGradient>
        <clipPath id="clip0">
            <path fill="#fff" d="M0 0H24V24H0z"/>
        </clipPath>
    </defs>
</svg>
